<?xml version="1.0" encoding="UTF-8"?>
<svg xmlns="http://www.w3.org/2000/svg" xmlns:xlink="http://www.w3.org/1999/xlink" version="1.1" viewBox="0 0 472.93 381.82">
  <defs>
    <style>
      .cls-1 {
        filter: url(#drop-shadow-1);
      }

      .cls-2 {
        font-size: 10.74px;
      }

      .cls-2, .cls-3, .cls-4, .cls-5 {
        font-family: Gotham-Bold, Gotham;
        font-weight: 700;
      }

      .cls-2, .cls-4, .cls-5, .cls-6 {
        fill: #fff;
      }

      .cls-3 {
        font-size: 5.94px;
      }

      .cls-7 {
        fill: #db4d25;
      }

      .cls-4 {
        font-size: 4.46px;
      }

      .cls-5 {
        font-size: 8.84px;
      }

      .cls-8 {
        opacity: .35;
      }

      .cls-8, .cls-9, .cls-10 {
        fill: #cfd7db;
      }

      .cls-11 {
        fill: #f0cb48;
      }

      .cls-9 {
        filter: url(#drop-shadow-2);
      }

      .cls-12 {
        fill: #3874b6;
      }

      .cls-13 {
        fill: #f7f8f9;
      }
    </style>
    <filter id="drop-shadow-1" filterUnits="userSpaceOnUse">
      <feOffset dx="3.6" dy="3.6"/>
      <feGaussianBlur result="blur" stdDeviation="1.44"/>
      <feFlood flood-color="#000" flood-opacity=".4"/>
      <feComposite in2="blur" operator="in"/>
      <feComposite in="SourceGraphic"/>
    </filter>
    <filter id="drop-shadow-2" filterUnits="userSpaceOnUse">
      <feOffset dx="3.6" dy="3.6"/>
      <feGaussianBlur result="blur-2" stdDeviation="1.44"/>
      <feFlood flood-color="#000" flood-opacity=".4"/>
      <feComposite in2="blur-2" operator="in"/>
      <feComposite in="SourceGraphic"/>
    </filter>
  </defs>
  <!-- Generator: Adobe Illustrator 28.6.0, SVG Export Plug-In . SVG Version: 1.2.0 Build 709)  -->
  <g>
    <g id="Layer_1">
      <g class="cls-1">
        <path class="cls-10" d="M401.8,54.87c0-2.96-2.4-5.36-5.36-5.36H52.09c-1.18,0-2.25.39-3.14,1.03-1.34.97-2.23,2.55-2.23,4.33v236.79c0,2.96,2.4,5.36,5.36,5.36h344.35c1.48,0,2.82-.6,3.79-1.57.04-.04.07-.09.11-.14.9-.96,1.46-2.24,1.46-3.65h0V70.78h0v-15.91Z"/>
      </g>
      <text class="cls-5" transform="translate(57.37 65.06)"><tspan x="0" y="0">Hotel Booking</tspan></text>
      <text class="cls-3" transform="translate(150.26 84.33)"><tspan x="0" y="0">Great Destinations</tspan></text>
      <text class="cls-4" transform="translate(197.37 176.36)"><tspan x="0" y="0">Select</tspan></text>
      <text class="cls-4" transform="translate(279.51 176.36)"><tspan x="0" y="0">Select</tspan></text>
      <text class="cls-4" transform="translate(361.64 176.36)"><tspan x="0" y="0">Select</tspan></text>
      <text class="cls-4" transform="translate(197.37 269.77)"><tspan x="0" y="0">Select</tspan></text>
      <text class="cls-4" transform="translate(279.51 269.77)"><tspan x="0" y="0">Select</tspan></text>
      <text class="cls-4" transform="translate(361.64 269.77)"><tspan x="0" y="0">Select</tspan></text>
      <path class="cls-11" d="M401.8,70.78v-15.91c0-2.96-2.4-5.36-5.36-5.36H52.09c-2.96,0-5.36,2.4-5.36,5.36v15.91h355.08Z"/>
      <g>
        <path class="cls-6" d="M57.83,61.99v-.02c0-1.76,1.33-3.2,3.22-3.2,1.17,0,1.86.39,2.44.95l-.87,1c-.48-.43-.96-.7-1.58-.7-1.04,0-1.79.87-1.79,1.93v.02c0,1.06.73,1.94,1.79,1.94.71,0,1.14-.28,1.62-.72l.87.87c-.64.68-1.34,1.1-2.54,1.1-1.82,0-3.17-1.4-3.17-3.18Z"/>
        <path class="cls-6" d="M64.49,58.61h1.34v2.39c.31-.4.71-.76,1.39-.76,1.02,0,1.61.67,1.61,1.76v3.07h-1.34v-2.64c0-.64-.3-.96-.81-.96s-.84.33-.84.96v2.64h-1.34v-6.45Z"/>
        <path class="cls-6" d="M69.76,62.72v-.02c0-1.36,1.1-2.46,2.57-2.46s2.55,1.09,2.55,2.45v.02c0,1.36-1.09,2.46-2.57,2.46s-2.55-1.09-2.55-2.45ZM73.56,62.72v-.02c0-.7-.5-1.31-1.25-1.31s-1.23.59-1.23,1.29v.02c0,.7.5,1.31,1.25,1.31s1.23-.59,1.23-1.29Z"/>
        <path class="cls-6" d="M75.63,62.72v-.02c0-1.36,1.1-2.46,2.57-2.46s2.55,1.09,2.55,2.45v.02c0,1.36-1.1,2.46-2.57,2.46s-2.55-1.09-2.55-2.45ZM79.43,62.72v-.02c0-.7-.5-1.31-1.25-1.31s-1.23.59-1.23,1.29v.02c0,.7.5,1.31,1.25,1.31s1.23-.59,1.23-1.29Z"/>
        <path class="cls-6" d="M81.36,64.44l.57-.88c.51.37,1.05.57,1.49.57.39,0,.57-.14.57-.35v-.02c0-.29-.46-.39-.98-.55-.66-.19-1.41-.5-1.41-1.42v-.02c0-.96.78-1.5,1.73-1.5.6,0,1.25.2,1.77.55l-.51.93c-.47-.27-.94-.44-1.28-.44-.33,0-.49.14-.49.33v.02c0,.26.45.39.96.57.66.22,1.43.54,1.43,1.4v.02c0,1.05-.79,1.53-1.81,1.53-.66,0-1.41-.22-2.03-.72Z"/>
        <path class="cls-6" d="M85.94,62.72v-.02c0-1.35.96-2.46,2.34-2.46,1.58,0,2.31,1.23,2.31,2.57,0,.11,0,.23-.02.35h-3.3c.13.61.56.93,1.16.93.45,0,.78-.14,1.15-.49l.77.68c-.44.55-1.08.88-1.94.88-1.42,0-2.47-1-2.47-2.45ZM89.28,62.32c-.08-.6-.43-1.01-1-1.01s-.92.4-1.03,1.01h2.02Z"/>
        <path class="cls-6" d="M96.12,62.62l-2.38-3.75h1.59l1.48,2.48,1.5-2.48h1.55l-2.38,3.72v2.46h-1.36v-2.44Z"/>
        <path class="cls-6" d="M99.36,62.72v-.02c0-1.36,1.1-2.46,2.57-2.46s2.55,1.09,2.55,2.45v.02c0,1.36-1.09,2.46-2.57,2.46s-2.55-1.09-2.55-2.45ZM103.16,62.72v-.02c0-.7-.5-1.31-1.25-1.31s-1.23.59-1.23,1.29v.02c0,.7.5,1.31,1.25,1.31s1.23-.59,1.23-1.29Z"/>
        <path class="cls-6" d="M105.43,63.39v-3.07h1.34v2.64c0,.64.3.96.81.96s.84-.33.84-.96v-2.64h1.34v4.74h-1.34v-.67c-.31.4-.71.76-1.39.76-1.02,0-1.61-.67-1.61-1.76Z"/>
        <path class="cls-6" d="M110.97,60.33h1.34v.95c.27-.65.72-1.08,1.51-1.04v1.4h-.07c-.89,0-1.44.54-1.44,1.67v1.75h-1.34v-4.74Z"/>
        <path class="cls-6" d="M117.46,58.88h1.36v2.45h2.51v-2.45h1.36v6.18h-1.36v-2.48h-2.51v2.48h-1.36v-6.18Z"/>
        <path class="cls-6" d="M123.8,62.72v-.02c0-1.36,1.1-2.46,2.57-2.46s2.55,1.09,2.55,2.45v.02c0,1.36-1.1,2.46-2.57,2.46s-2.55-1.09-2.55-2.45ZM127.6,62.72v-.02c0-.7-.5-1.31-1.25-1.31s-1.23.59-1.23,1.29v.02c0,.7.5,1.31,1.25,1.31s1.23-.59,1.23-1.29Z"/>
        <path class="cls-6" d="M130.12,63.72v-2.24h-.57v-1.15h.57v-1.21h1.34v1.21h1.11v1.15h-1.11v2.02c0,.31.13.46.43.46.25,0,.47-.06.66-.17v1.08c-.28.17-.61.27-1.06.27-.82,0-1.38-.33-1.38-1.42Z"/>
        <path class="cls-6" d="M133.2,62.72v-.02c0-1.35.96-2.46,2.34-2.46,1.58,0,2.31,1.23,2.31,2.57,0,.11,0,.23-.02.35h-3.3c.13.61.56.93,1.16.93.45,0,.78-.14,1.15-.49l.77.68c-.44.55-1.08.88-1.94.88-1.42,0-2.47-1-2.47-2.45ZM136.54,62.32c-.08-.6-.43-1.01-1-1.01s-.92.4-1.03,1.01h2.02Z"/>
        <path class="cls-6" d="M138.91,58.61h1.34v6.45h-1.34v-6.45Z"/>
      </g>
      <rect class="cls-6" x="46.72" y="71.17" width="93.91" height="35.59"/>
      <path class="cls-6" d="M52.09,297.03h88.54V109.08H46.72v182.59c0,2.96,2.4,5.36,5.36,5.36Z"/>
      <path class="cls-6" d="M142.67,71.17v225.86h253.76c2.96,0,5.36-2.4,5.36-5.36V71.17H142.67Z"/>
      <rect class="cls-10" x="55.04" y="78.83" width="29.85" height="5.76"/>
      <rect class="cls-10" x="76.89" y="126.71" width="50.42" height="5.76"/>
      <rect class="cls-8" x="76.89" y="135.19" width="21.98" height="5.76"/>
      <path class="cls-10" d="M107.57,89.64c1.29,0,2.34,1.05,2.34,2.34v5.94c0,1.29-1.05,2.34-2.34,2.34h-49.81c-1.29,0-2.34-1.05-2.34-2.34v-5.94c0-1.29,1.05-2.34,2.34-2.34h49.81M107.57,89.14h-49.81c-1.57,0-2.84,1.27-2.84,2.84v5.94c0,1.57,1.27,2.84,2.84,2.84h49.81c1.57,0,2.84-1.27,2.84-2.84v-5.94c0-1.57-1.27-2.84-2.84-2.84h0Z"/>
      <polygon class="cls-10" points="104.36 97.35 106.82 93.09 101.9 93.09 104.36 97.35"/>
      <path class="cls-10" d="M129.84,117.9c1.29,0,2.34,1.05,2.34,2.34v28.07H55.43v-28.07c0-1.29,1.05-2.34,2.34-2.34h72.07M129.84,117.4H57.76c-1.57,0-2.84,1.27-2.84,2.84v28.57h77.75v-28.57c0-1.57-1.27-2.84-2.84-2.84h0Z"/>
      <rect class="cls-7" x="54.93" y="266.38" width="77.75" height="16.83" rx="2.84" ry="2.84"/>
      <g>
        <polygon class="cls-12" points="125.59 97.97 132.74 89.6 118.43 89.6 125.59 97.97"/>
        <rect class="cls-12" x="124.38" y="93.14" width="2.42" height="6.82"/>
      </g>
      <circle class="cls-12" cx="66.57" cy="129.76" r="5.99"/>
      <rect class="cls-10" x="76.89" y="157.59" width="50.42" height="5.76"/>
      <rect class="cls-8" x="76.89" y="166.07" width="21.98" height="5.76"/>
      <path class="cls-10" d="M132.18,148.77v30.4H55.43v-30.4h76.75M132.68,148.27H54.93v31.4h77.75v-31.4h0Z"/>
      <circle class="cls-12" cx="66.57" cy="160.64" r="5.99"/>
      <rect class="cls-10" x="76.89" y="188.57" width="50.42" height="5.76"/>
      <rect class="cls-8" x="76.89" y="197.05" width="21.98" height="5.76"/>
      <path class="cls-10" d="M132.18,179.76v26.8c0,1.99-1.62,3.6-3.6,3.6H59.03c-1.99,0-3.6-1.62-3.6-3.6v-26.8h76.75M132.68,179.26H54.93v27.3c0,2.27,1.84,4.1,4.1,4.1h69.54c2.27,0,4.1-1.84,4.1-4.1v-27.3h0Z"/>
      <circle class="cls-12" cx="66.57" cy="191.62" r="5.99"/>
      <g>
        <path d="M150.57,82.26h0c0-1.19.92-2.16,2.18-2.16.75,0,1.2.2,1.63.57l-.58.69c-.32-.27-.61-.42-1.09-.42-.67,0-1.19.59-1.19,1.29h0c0,.77.52,1.33,1.26,1.33.33,0,.63-.08.86-.25v-.59h-.92v-.79h1.8v1.8c-.43.36-1.02.66-1.77.66-1.29,0-2.18-.91-2.18-2.14Z"/>
        <path d="M155.32,81.14h.9v.64c.18-.44.48-.72,1.02-.7v.94h-.05c-.6,0-.97.36-.97,1.12v1.17h-.9v-3.18Z"/>
        <path d="M157.56,82.75h0c0-.92.65-1.67,1.57-1.67,1.06,0,1.55.83,1.55,1.73,0,.07,0,.15-.01.24h-2.21c.09.41.37.62.78.62.3,0,.52-.09.77-.33l.52.46c-.3.37-.72.59-1.3.59-.96,0-1.66-.67-1.66-1.64ZM159.8,82.49c-.05-.4-.29-.68-.67-.68s-.62.27-.69.68h1.36Z"/>
        <path d="M161.16,83.41h0c0-.71.53-1.03,1.28-1.03.32,0,.55.05.78.13v-.05c0-.37-.23-.58-.68-.58-.34,0-.59.07-.88.17l-.23-.69c.35-.15.69-.25,1.23-.25.49,0,.85.13,1.07.36.24.24.34.59.34,1.02v1.85h-.87v-.34c-.22.24-.52.4-.96.4-.6,0-1.09-.34-1.09-.97ZM163.23,83.2v-.16c-.15-.07-.36-.12-.58-.12-.39,0-.62.15-.62.44h0c0,.26.2.4.49.4.42,0,.71-.23.71-.56Z"/>
        <path d="M164.99,83.42v-1.51h-.38v-.77h.38v-.81h.9v.81h.75v.77h-.75v1.36c0,.21.09.31.29.31.17,0,.31-.04.45-.11v.72c-.19.11-.41.18-.71.18-.55,0-.93-.22-.93-.96Z"/>
        <path d="M169.18,80.17h1.62c1.31,0,2.21.9,2.21,2.07h0c0,1.18-.9,2.09-2.21,2.09h-1.62v-4.16ZM170.8,83.5c.75,0,1.25-.5,1.25-1.24h0c0-.75-.5-1.26-1.25-1.26h-.71v2.5h.71Z"/>
        <path d="M173.58,82.75h0c0-.92.65-1.67,1.57-1.67,1.06,0,1.55.83,1.55,1.73,0,.07,0,.15-.01.24h-2.21c.09.41.37.62.78.62.3,0,.52-.09.77-.33l.52.46c-.3.37-.72.59-1.3.59-.96,0-1.66-.67-1.66-1.64ZM175.82,82.49c-.05-.4-.29-.68-.67-.68s-.62.27-.69.68h1.36Z"/>
        <path d="M177.12,83.9l.39-.59c.34.25.71.38,1,.38.26,0,.38-.1.38-.24h0c0-.21-.31-.27-.66-.38-.44-.13-.95-.34-.95-.96h0c0-.66.52-1.02,1.16-1.02.4,0,.84.14,1.19.37l-.34.62c-.31-.18-.63-.3-.86-.3-.22,0-.33.09-.33.22h0c0,.19.3.27.65.39.44.15.96.36.96.94h0c0,.72-.53,1.04-1.22,1.04-.45,0-.94-.15-1.37-.48Z"/>
        <path d="M180.44,83.42v-1.51h-.38v-.77h.38v-.81h.9v.81h.75v.77h-.75v1.36c0,.21.09.31.29.31.17,0,.31-.04.45-.11v.72c-.19.11-.41.18-.71.18-.55,0-.93-.22-.93-.96Z"/>
        <path d="M182.78,79.99h.95v.8h-.95v-.8ZM182.8,81.14h.9v3.18h-.9v-3.18Z"/>
        <path d="M184.56,81.14h.9v.45c.21-.27.48-.51.93-.51.68,0,1.08.45,1.08,1.18v2.06h-.9v-1.77c0-.43-.2-.65-.55-.65s-.56.22-.56.65v1.77h-.9v-3.18Z"/>
        <path d="M188.07,83.41h0c0-.71.53-1.03,1.28-1.03.32,0,.55.05.78.13v-.05c0-.37-.23-.58-.68-.58-.34,0-.59.07-.88.17l-.23-.69c.35-.15.69-.25,1.23-.25.49,0,.85.13,1.07.36.24.24.34.59.34,1.02v1.85h-.87v-.34c-.22.24-.52.4-.96.4-.6,0-1.09-.34-1.09-.97ZM190.14,83.2v-.16c-.15-.07-.36-.12-.58-.12-.39,0-.62.15-.62.44h0c0,.26.2.4.49.4.42,0,.71-.23.71-.56Z"/>
        <path d="M191.89,83.42v-1.51h-.38v-.77h.38v-.81h.9v.81h.75v.77h-.75v1.36c0,.21.09.31.29.31.17,0,.31-.04.45-.11v.72c-.19.11-.41.18-.71.18-.55,0-.93-.22-.93-.96Z"/>
        <path d="M194.23,79.99h.95v.8h-.95v-.8ZM194.25,81.14h.9v3.18h-.9v-3.18Z"/>
        <path d="M195.85,82.75h0c0-.93.74-1.67,1.73-1.67s1.72.73,1.72,1.64h0c0,.93-.74,1.67-1.73,1.67s-1.72-.73-1.72-1.64ZM198.4,82.75h0c0-.48-.34-.89-.84-.89s-.83.4-.83.87h0c0,.48.34.89.84.89s.83-.4.83-.87Z"/>
        <path d="M199.95,81.14h.9v.45c.21-.27.48-.51.93-.51.68,0,1.08.45,1.08,1.18v2.06h-.9v-1.77c0-.43-.2-.65-.55-.65s-.56.22-.56.65v1.77h-.9v-3.18Z"/>
        <path d="M203.4,83.9l.39-.59c.34.25.71.38,1,.38.26,0,.38-.1.38-.24h0c0-.21-.31-.27-.66-.38-.44-.13-.95-.34-.95-.96h0c0-.66.52-1.02,1.16-1.02.4,0,.84.14,1.19.37l-.34.62c-.31-.18-.63-.3-.86-.3-.22,0-.33.09-.33.22h0c0,.19.3.27.65.39.44.15.96.36.96.94h0c0,.72-.53,1.04-1.22,1.04-.45,0-.94-.15-1.37-.48Z"/>
      </g>
      <path class="cls-10" d="M216.62,101.39c2.62,0,4.75,2.13,4.75,4.75v71.55c0,2.62-2.13,4.75-4.75,4.75h-61.31c-2.62,0-4.75-2.13-4.75-4.75v-71.55c0-2.62,2.13-4.75,4.75-4.75h61.31M216.62,100.89h-61.31c-2.9,0-5.25,2.35-5.25,5.25v71.55c0,2.9,2.35,5.25,5.25,5.25h61.31c2.9,0,5.25-2.35,5.25-5.25v-71.55c0-2.9-2.35-5.25-5.25-5.25h0Z"/>
      <g id="Dl6sI1.tif">
        <g>
          <path class="cls-12" d="M173.97,111.11h23.99c.82.28,1.11.87,1.1,1.72-.03,1.68,0,3.36,0,5.04v.51c.42,0,.78,0,1.14,0,1.31,0,1.77.46,1.77,1.78,0,9.39,0,18.77,0,28.16v.55c.09.02.12.04.15.04.83,0,1.67.03,2.5,0,.84-.03,1.44.28,1.72,1.1v.73c-.28.82-.88,1.1-1.72,1.1-4.1-.02-8.21,0-12.31,0-.16,0-.32,0-.51,0v-.6c0-3.62,0-7.24,0-10.86,0-1.12-.51-1.63-1.64-1.63-2.77,0-5.54,0-8.31,0-1.18,0-1.67.49-1.67,1.69,0,3.62,0,7.24,0,10.86v.54c-4.45,0-8.82,0-13.2,0-.79,0-1.31-.59-1.34-1.38-.03-.9.53-1.5,1.43-1.52.96-.01,1.93,0,2.93,0,0-.23,0-.41,0-.59,0-9.43,0-18.87,0-28.3,0-1.13.51-1.64,1.63-1.64.42,0,.83,0,1.28,0,0-1.89.02-3.72,0-5.55-.01-.84.28-1.43,1.1-1.72ZM178.69,118.39c0,.48,0,.97,0,1.45.02.87.58,1.42,1.42,1.44.87.01,1.46-.55,1.48-1.43.02-.98.01-1.97,0-2.95-.01-.89-.6-1.44-1.47-1.44-.85,0-1.41.56-1.43,1.43-.01.5,0,1,0,1.5ZM184.51,118.36c0,.51-.01,1.03,0,1.54.03.83.6,1.37,1.43,1.38.85,0,1.45-.54,1.46-1.39.02-1.01.02-2.03,0-3.04-.02-.83-.6-1.37-1.43-1.38-.85,0-1.44.54-1.47,1.39-.02.5,0,1,0,1.5ZM190.33,118.35c0,.51-.01,1.03,0,1.54.03.83.6,1.38,1.43,1.39.85,0,1.45-.54,1.47-1.39.02-1.01.02-2.03,0-3.04-.02-.85-.62-1.39-1.47-1.38-.83,0-1.4.55-1.42,1.39-.02.5,0,1,0,1.5ZM175.79,125.6c0,.51-.01,1.03,0,1.54.02.86.6,1.41,1.45,1.41.85,0,1.43-.55,1.45-1.41.02-1,.02-2,0-3-.01-.86-.6-1.41-1.45-1.41-.85,0-1.43.55-1.45,1.41-.01.48,0,.97,0,1.45ZM184.51,125.65c0-.5.01-1,0-1.5-.02-.86-.59-1.41-1.44-1.42-.85,0-1.44.55-1.45,1.4-.02,1-.02,2,0,3,.01.86.59,1.41,1.44,1.42.85,0,1.43-.55,1.46-1.4.02-.5,0-1,0-1.5ZM187.42,125.65c0,.5-.01,1,0,1.5.03.85.61,1.4,1.46,1.4.83,0,1.42-.55,1.44-1.38.02-1.01.02-2.03,0-3.04-.02-.86-.61-1.4-1.46-1.4-.85,0-1.42.56-1.44,1.42-.01.5,0,1,0,1.5ZM196.14,125.62c0-.5.01-1,0-1.5-.03-.85-.62-1.39-1.47-1.38-.83.01-1.41.55-1.42,1.39-.02,1.01-.02,2.03,0,3.04.02.83.6,1.38,1.43,1.38.85,0,1.44-.54,1.47-1.39.02-.51,0-1.03,0-1.54ZM178.69,134.37c0-.5.01-1,0-1.5-.02-.86-.6-1.41-1.45-1.41-.85,0-1.43.55-1.45,1.41-.02,1-.02,2,0,3,.01.86.6,1.41,1.45,1.41.85,0,1.43-.55,1.45-1.41.01-.5,0-1,0-1.5ZM181.6,134.36c0,.5-.01,1,0,1.5.02.86.59,1.41,1.44,1.42.85,0,1.44-.55,1.46-1.4.02-1,.02-2,0-3-.01-.86-.59-1.41-1.44-1.42-.87,0-1.44.56-1.46,1.45,0,.48,0,.97,0,1.45ZM187.42,134.36c0,.5-.01,1,0,1.5.02.86.59,1.42,1.44,1.42.85,0,1.44-.54,1.46-1.4.02-1.01.02-2.03,0-3.04-.02-.83-.6-1.37-1.44-1.38-.85,0-1.44.54-1.46,1.4-.02.5,0,1,0,1.5ZM193.23,134.32c0,.51-.01,1.03,0,1.54.02.86.6,1.41,1.45,1.41.85,0,1.43-.55,1.45-1.41.02-1,.02-2,0-3-.02-.86-.6-1.41-1.45-1.41-.85,0-1.42.55-1.45,1.41-.01.48,0,.97,0,1.45ZM177.24,143.1c0-.5.01-1,0-1.5-.02-.86-.59-1.41-1.44-1.41-.85,0-1.44.55-1.45,1.4-.02,1-.02,2,0,3,.01.86.59,1.41,1.44,1.42.85,0,1.43-.55,1.46-1.4.02-.5,0-1,0-1.5ZM194.69,143.04c0,.51-.01,1.03,0,1.54.02.86.6,1.41,1.45,1.41.85,0,1.43-.55,1.45-1.41.02-1,.02-2,0-3-.01-.86-.6-1.41-1.45-1.41-.85,0-1.43.55-1.45,1.41-.01.48,0,.97,0,1.45Z"/>
          <path class="cls-12" d="M188.84,151.79h-5.76v-10.12h5.76v10.12Z"/>
        </g>
      </g>
      <path class="cls-10" d="M150.06,166.34v11.34c0,2.9,2.35,5.25,5.25,5.25h61.31c2.9,0,5.25-2.35,5.25-5.25v-11.34h-71.81Z"/>
      <rect class="cls-7" x="191.6" y="170.61" width="25.46" height="8.17" rx="2" ry="2"/>
      <rect class="cls-13" x="154.6" y="170.94" width="30.85" height="2.52"/>
      <rect class="cls-13" x="154.6" y="175.6" width="30.85" height="2.52"/>
      <text class="cls-4" transform="translate(197.37 176.36)"><tspan x="0" y="0">Select</tspan></text>
      <path class="cls-10" d="M298.76,101.39c2.62,0,4.75,2.13,4.75,4.75v71.55c0,2.62-2.13,4.75-4.75,4.75h-61.31c-2.62,0-4.75-2.13-4.75-4.75v-71.55c0-2.62,2.13-4.75,4.75-4.75h61.31M298.76,100.89h-61.31c-2.9,0-5.25,2.35-5.25,5.25v71.55c0,2.9,2.35,5.25,5.25,5.25h61.31c2.9,0,5.25-2.35,5.25-5.25v-71.55c0-2.9-2.35-5.25-5.25-5.25h0Z"/>
      <g id="Dl6sI1.tif-2" data-name="Dl6sI1.tif">
        <g>
          <path class="cls-12" d="M256.11,111.11h23.99c.82.28,1.11.87,1.1,1.72-.03,1.68,0,3.36,0,5.04v.51c.42,0,.78,0,1.14,0,1.31,0,1.77.46,1.77,1.78,0,9.39,0,18.77,0,28.16v.55c.09.02.12.04.15.04.83,0,1.67.03,2.5,0,.84-.03,1.44.28,1.72,1.1v.73c-.28.82-.88,1.1-1.72,1.1-4.1-.02-8.21,0-12.31,0-.16,0-.32,0-.51,0v-.6c0-3.62,0-7.24,0-10.86,0-1.12-.51-1.63-1.64-1.63-2.77,0-5.54,0-8.31,0-1.18,0-1.67.49-1.67,1.69,0,3.62,0,7.24,0,10.86v.54c-4.45,0-8.82,0-13.2,0-.79,0-1.31-.59-1.34-1.38-.03-.9.53-1.5,1.43-1.52.96-.01,1.93,0,2.93,0,0-.23,0-.41,0-.59,0-9.43,0-18.87,0-28.3,0-1.13.51-1.64,1.63-1.64.42,0,.83,0,1.28,0,0-1.89.02-3.72,0-5.55-.01-.84.28-1.43,1.1-1.72ZM260.83,118.39c0,.48,0,.97,0,1.45.02.87.58,1.42,1.42,1.44.87.01,1.46-.55,1.48-1.43.02-.98.01-1.97,0-2.95-.01-.89-.6-1.44-1.47-1.44-.85,0-1.41.56-1.43,1.43-.01.5,0,1,0,1.5ZM266.65,118.36c0,.51-.01,1.03,0,1.54.03.83.6,1.37,1.43,1.38.85,0,1.45-.54,1.46-1.39.02-1.01.02-2.03,0-3.04-.02-.83-.6-1.37-1.43-1.38-.85,0-1.44.54-1.47,1.39-.02.5,0,1,0,1.5ZM272.46,118.35c0,.51-.01,1.03,0,1.54.03.83.6,1.38,1.43,1.39.85,0,1.45-.54,1.47-1.39.02-1.01.02-2.03,0-3.04-.02-.85-.62-1.39-1.47-1.38-.83,0-1.4.55-1.42,1.39-.02.5,0,1,0,1.5ZM257.92,125.6c0,.51-.01,1.03,0,1.54.02.86.6,1.41,1.45,1.41.85,0,1.43-.55,1.45-1.41.02-1,.02-2,0-3-.01-.86-.6-1.41-1.45-1.41-.85,0-1.43.55-1.45,1.41-.01.48,0,.97,0,1.45ZM266.65,125.65c0-.5.01-1,0-1.5-.02-.86-.59-1.41-1.44-1.42-.85,0-1.44.55-1.45,1.4-.02,1-.02,2,0,3,.01.86.59,1.41,1.44,1.42.85,0,1.43-.55,1.46-1.4.02-.5,0-1,0-1.5ZM269.56,125.65c0,.5-.01,1,0,1.5.03.85.61,1.4,1.46,1.4.83,0,1.42-.55,1.44-1.38.02-1.01.02-2.03,0-3.04-.02-.86-.61-1.4-1.46-1.4-.85,0-1.42.56-1.44,1.42-.01.5,0,1,0,1.5ZM278.28,125.62c0-.5.01-1,0-1.5-.03-.85-.62-1.39-1.47-1.38-.83.01-1.41.55-1.42,1.39-.02,1.01-.02,2.03,0,3.04.02.83.6,1.38,1.43,1.38.85,0,1.44-.54,1.47-1.39.02-.51,0-1.03,0-1.54ZM260.83,134.37c0-.5.01-1,0-1.5-.02-.86-.6-1.41-1.45-1.41-.85,0-1.43.55-1.45,1.41-.02,1-.02,2,0,3,.01.86.6,1.41,1.45,1.41.85,0,1.43-.55,1.45-1.41.01-.5,0-1,0-1.5ZM263.74,134.36c0,.5-.01,1,0,1.5.02.86.59,1.41,1.44,1.42.85,0,1.44-.55,1.46-1.4.02-1,.02-2,0-3-.01-.86-.59-1.41-1.44-1.42-.87,0-1.44.56-1.46,1.45,0,.48,0,.97,0,1.45ZM269.56,134.36c0,.5-.01,1,0,1.5.02.86.59,1.42,1.44,1.42.85,0,1.44-.54,1.46-1.4.02-1.01.02-2.03,0-3.04-.02-.83-.6-1.37-1.44-1.38-.85,0-1.44.54-1.46,1.4-.02.5,0,1,0,1.5ZM275.37,134.32c0,.51-.01,1.03,0,1.54.02.86.6,1.41,1.45,1.41.85,0,1.43-.55,1.45-1.41.02-1,.02-2,0-3-.02-.86-.6-1.41-1.45-1.41-.85,0-1.42.55-1.45,1.41-.01.48,0,.97,0,1.45ZM259.38,143.1c0-.5.01-1,0-1.5-.02-.86-.59-1.41-1.44-1.41-.85,0-1.44.55-1.45,1.4-.02,1-.02,2,0,3,.01.86.59,1.41,1.44,1.42.85,0,1.43-.55,1.46-1.4.02-.5,0-1,0-1.5ZM276.82,143.04c0,.51-.01,1.03,0,1.54.02.86.6,1.41,1.45,1.41.85,0,1.43-.55,1.45-1.41.02-1,.02-2,0-3-.01-.86-.6-1.41-1.45-1.41-.85,0-1.43.55-1.45,1.41-.01.48,0,.97,0,1.45Z"/>
          <path class="cls-12" d="M270.98,151.79h-5.76v-10.12h5.76v10.12Z"/>
        </g>
      </g>
      <path class="cls-10" d="M232.2,166.34v11.34c0,2.9,2.35,5.25,5.25,5.25h61.31c2.9,0,5.25-2.35,5.25-5.25v-11.34h-71.81Z"/>
      <rect class="cls-7" x="273.74" y="170.61" width="25.46" height="8.17" rx="2" ry="2"/>
      <rect class="cls-13" x="236.74" y="170.94" width="30.85" height="2.52"/>
      <rect class="cls-13" x="236.74" y="175.6" width="30.85" height="2.52"/>
      <text class="cls-4" transform="translate(279.51 176.36)"><tspan x="0" y="0">Select</tspan></text>
      <path class="cls-10" d="M380.89,101.39c2.62,0,4.75,2.13,4.75,4.75v71.55c0,2.62-2.13,4.75-4.75,4.75h-61.31c-2.62,0-4.75-2.13-4.75-4.75v-71.55c0-2.62,2.13-4.75,4.75-4.75h61.31M380.89,100.89h-61.31c-2.9,0-5.25,2.35-5.25,5.25v71.55c0,2.9,2.35,5.25,5.25,5.25h61.31c2.9,0,5.25-2.35,5.25-5.25v-71.55c0-2.9-2.35-5.25-5.25-5.25h0Z"/>
      <g id="Dl6sI1.tif-3" data-name="Dl6sI1.tif">
        <g>
          <path class="cls-12" d="M338.24,111.11h23.99c.82.28,1.11.87,1.1,1.72-.03,1.68,0,3.36,0,5.04v.51c.42,0,.78,0,1.14,0,1.31,0,1.77.46,1.77,1.78,0,9.39,0,18.77,0,28.16v.55c.09.02.12.04.15.04.83,0,1.67.03,2.5,0,.84-.03,1.44.28,1.72,1.1v.73c-.28.82-.88,1.1-1.72,1.1-4.1-.02-8.21,0-12.31,0-.16,0-.32,0-.51,0v-.6c0-3.62,0-7.24,0-10.86,0-1.12-.51-1.63-1.64-1.63-2.77,0-5.54,0-8.31,0-1.18,0-1.67.49-1.67,1.69,0,3.62,0,7.24,0,10.86v.54c-4.45,0-8.82,0-13.2,0-.79,0-1.31-.59-1.34-1.38-.03-.9.53-1.5,1.43-1.52.96-.01,1.93,0,2.93,0,0-.23,0-.41,0-.59,0-9.43,0-18.87,0-28.3,0-1.13.51-1.64,1.63-1.64.42,0,.83,0,1.28,0,0-1.89.02-3.72,0-5.55-.01-.84.28-1.43,1.1-1.72ZM342.97,118.39c0,.48,0,.97,0,1.45.02.87.58,1.42,1.42,1.44.87.01,1.46-.55,1.48-1.43.02-.98.01-1.97,0-2.95-.01-.89-.6-1.44-1.47-1.44-.85,0-1.41.56-1.43,1.43-.01.5,0,1,0,1.5ZM348.79,118.36c0,.51-.01,1.03,0,1.54.03.83.6,1.37,1.43,1.38.85,0,1.45-.54,1.46-1.39.02-1.01.02-2.03,0-3.04-.02-.83-.6-1.37-1.43-1.38-.85,0-1.44.54-1.47,1.39-.02.5,0,1,0,1.5ZM354.6,118.35c0,.51-.01,1.03,0,1.54.03.83.6,1.38,1.43,1.39.85,0,1.45-.54,1.47-1.39.02-1.01.02-2.03,0-3.04-.02-.85-.62-1.39-1.47-1.38-.83,0-1.4.55-1.42,1.39-.02.5,0,1,0,1.5ZM340.06,125.6c0,.51-.01,1.03,0,1.54.02.86.6,1.41,1.45,1.41.85,0,1.43-.55,1.45-1.41.02-1,.02-2,0-3-.01-.86-.6-1.41-1.45-1.41-.85,0-1.43.55-1.45,1.41-.01.48,0,.97,0,1.45ZM348.78,125.65c0-.5.01-1,0-1.5-.02-.86-.59-1.41-1.44-1.42-.85,0-1.44.55-1.45,1.4-.02,1-.02,2,0,3,.01.86.59,1.41,1.44,1.42.85,0,1.43-.55,1.46-1.4.02-.5,0-1,0-1.5ZM351.69,125.65c0,.5-.01,1,0,1.5.03.85.61,1.4,1.46,1.4.83,0,1.42-.55,1.44-1.38.02-1.01.02-2.03,0-3.04-.02-.86-.61-1.4-1.46-1.4-.85,0-1.42.56-1.44,1.42-.01.5,0,1,0,1.5ZM360.41,125.62c0-.5.01-1,0-1.5-.03-.85-.62-1.39-1.47-1.38-.83.01-1.41.55-1.42,1.39-.02,1.01-.02,2.03,0,3.04.02.83.6,1.38,1.43,1.38.85,0,1.44-.54,1.47-1.39.02-.51,0-1.03,0-1.54ZM342.97,134.37c0-.5.01-1,0-1.5-.02-.86-.6-1.41-1.45-1.41-.85,0-1.43.55-1.45,1.41-.02,1-.02,2,0,3,.01.86.6,1.41,1.45,1.41.85,0,1.43-.55,1.45-1.41.01-.5,0-1,0-1.5ZM345.88,134.36c0,.5-.01,1,0,1.5.02.86.59,1.41,1.44,1.42.85,0,1.44-.55,1.46-1.4.02-1,.02-2,0-3-.01-.86-.59-1.41-1.44-1.42-.87,0-1.44.56-1.46,1.45,0,.48,0,.97,0,1.45ZM351.69,134.36c0,.5-.01,1,0,1.5.02.86.59,1.42,1.44,1.42.85,0,1.44-.54,1.46-1.4.02-1.01.02-2.03,0-3.04-.02-.83-.6-1.37-1.44-1.38-.85,0-1.44.54-1.46,1.4-.02.5,0,1,0,1.5ZM357.51,134.32c0,.51-.01,1.03,0,1.54.02.86.6,1.41,1.45,1.41.85,0,1.43-.55,1.45-1.41.02-1,.02-2,0-3-.02-.86-.6-1.41-1.45-1.41-.85,0-1.42.55-1.45,1.41-.01.48,0,.97,0,1.45ZM341.51,143.1c0-.5.01-1,0-1.5-.02-.86-.59-1.41-1.44-1.41-.85,0-1.44.55-1.45,1.4-.02,1-.02,2,0,3,.01.86.59,1.41,1.44,1.42.85,0,1.43-.55,1.46-1.4.02-.5,0-1,0-1.5ZM358.96,143.04c0,.51-.01,1.03,0,1.54.02.86.6,1.41,1.45,1.41.85,0,1.43-.55,1.45-1.41.02-1,.02-2,0-3-.01-.86-.6-1.41-1.45-1.41-.85,0-1.43.55-1.45,1.41-.01.48,0,.97,0,1.45Z"/>
          <path class="cls-12" d="M353.11,151.79h-5.76v-10.12h5.76v10.12Z"/>
        </g>
      </g>
      <path class="cls-10" d="M314.34,166.34v11.34c0,2.9,2.35,5.25,5.25,5.25h61.31c2.9,0,5.25-2.35,5.25-5.25v-11.34h-71.81Z"/>
      <rect class="cls-7" x="355.87" y="170.61" width="25.46" height="8.17" rx="2" ry="2"/>
      <rect class="cls-13" x="318.87" y="170.94" width="30.85" height="2.52"/>
      <rect class="cls-13" x="318.87" y="175.6" width="30.85" height="2.52"/>
      <text class="cls-4" transform="translate(361.64 176.36)"><tspan x="0" y="0">Select</tspan></text>
      <path class="cls-10" d="M216.62,194.8c2.62,0,4.75,2.13,4.75,4.75v71.55c0,2.62-2.13,4.75-4.75,4.75h-61.31c-2.62,0-4.75-2.13-4.75-4.75v-71.55c0-2.62,2.13-4.75,4.75-4.75h61.31M216.62,194.3h-61.31c-2.9,0-5.25,2.35-5.25,5.25v71.55c0,2.9,2.35,5.25,5.25,5.25h61.31c2.9,0,5.25-2.35,5.25-5.25v-71.55c0-2.9-2.35-5.25-5.25-5.25h0Z"/>
      <g id="Dl6sI1.tif-4" data-name="Dl6sI1.tif">
        <g>
          <path class="cls-12" d="M173.97,204.52h23.99c.82.28,1.11.87,1.1,1.72-.03,1.68,0,3.36,0,5.04v.51c.42,0,.78,0,1.14,0,1.31,0,1.77.46,1.77,1.78,0,9.39,0,18.77,0,28.16v.55c.09.02.12.04.15.04.83,0,1.67.03,2.5,0,.84-.03,1.44.28,1.72,1.1v.73c-.28.82-.88,1.1-1.72,1.1-4.1-.02-8.21,0-12.31,0-.16,0-.32,0-.51,0v-.6c0-3.62,0-7.24,0-10.86,0-1.12-.51-1.63-1.64-1.63-2.77,0-5.54,0-8.31,0-1.18,0-1.67.49-1.67,1.69,0,3.62,0,7.24,0,10.86v.54c-4.45,0-8.82,0-13.2,0-.79,0-1.31-.59-1.34-1.38-.03-.9.53-1.5,1.43-1.52.96-.01,1.93,0,2.93,0,0-.23,0-.41,0-.59,0-9.43,0-18.87,0-28.3,0-1.13.51-1.64,1.63-1.64.42,0,.83,0,1.28,0,0-1.89.02-3.72,0-5.55-.01-.84.28-1.43,1.1-1.72ZM178.69,211.8c0,.48,0,.97,0,1.45.02.87.58,1.42,1.42,1.44.87.01,1.46-.55,1.48-1.43.02-.98.01-1.97,0-2.95-.01-.89-.6-1.44-1.47-1.44-.85,0-1.41.56-1.43,1.43-.01.5,0,1,0,1.5ZM184.51,211.77c0,.51-.01,1.03,0,1.54.03.83.6,1.37,1.43,1.38.85,0,1.45-.54,1.46-1.39.02-1.01.02-2.03,0-3.04-.02-.83-.6-1.37-1.43-1.38-.85,0-1.44.54-1.47,1.39-.02.5,0,1,0,1.5ZM190.33,211.76c0,.51-.01,1.03,0,1.54.03.83.6,1.38,1.43,1.39.85,0,1.45-.54,1.47-1.39.02-1.01.02-2.03,0-3.04-.02-.85-.62-1.39-1.47-1.38-.83,0-1.4.55-1.42,1.39-.02.5,0,1,0,1.5ZM175.79,219.01c0,.51-.01,1.03,0,1.54.02.86.6,1.41,1.45,1.41.85,0,1.43-.55,1.45-1.41.02-1,.02-2,0-3-.01-.86-.6-1.41-1.45-1.41-.85,0-1.43.55-1.45,1.41-.01.48,0,.97,0,1.45ZM184.51,219.06c0-.5.01-1,0-1.5-.02-.86-.59-1.41-1.44-1.42-.85,0-1.44.55-1.45,1.4-.02,1-.02,2,0,3,.01.86.59,1.41,1.44,1.42.85,0,1.43-.55,1.46-1.4.02-.5,0-1,0-1.5ZM187.42,219.07c0,.5-.01,1,0,1.5.03.85.61,1.4,1.46,1.4.83,0,1.42-.55,1.44-1.38.02-1.01.02-2.03,0-3.04-.02-.86-.61-1.4-1.46-1.4-.85,0-1.42.56-1.44,1.42-.01.5,0,1,0,1.5ZM196.14,219.03c0-.5.01-1,0-1.5-.03-.85-.62-1.39-1.47-1.38-.83.01-1.41.55-1.42,1.39-.02,1.01-.02,2.03,0,3.04.02.83.6,1.38,1.43,1.38.85,0,1.44-.54,1.47-1.39.02-.51,0-1.03,0-1.54ZM178.69,227.78c0-.5.01-1,0-1.5-.02-.86-.6-1.41-1.45-1.41-.85,0-1.43.55-1.45,1.41-.02,1-.02,2,0,3,.01.86.6,1.41,1.45,1.41.85,0,1.43-.55,1.45-1.41.01-.5,0-1,0-1.5ZM181.6,227.77c0,.5-.01,1,0,1.5.02.86.59,1.41,1.44,1.42.85,0,1.44-.55,1.46-1.4.02-1,.02-2,0-3-.01-.86-.59-1.41-1.44-1.42-.87,0-1.44.56-1.46,1.45,0,.48,0,.97,0,1.45ZM187.42,227.77c0,.5-.01,1,0,1.5.02.86.59,1.42,1.44,1.42.85,0,1.44-.54,1.46-1.4.02-1.01.02-2.03,0-3.04-.02-.83-.6-1.37-1.44-1.38-.85,0-1.44.54-1.46,1.4-.02.5,0,1,0,1.5ZM193.23,227.73c0,.51-.01,1.03,0,1.54.02.86.6,1.41,1.45,1.41.85,0,1.43-.55,1.45-1.41.02-1,.02-2,0-3-.02-.86-.6-1.41-1.45-1.41-.85,0-1.42.55-1.45,1.41-.01.48,0,.97,0,1.45ZM177.24,236.51c0-.5.01-1,0-1.5-.02-.86-.59-1.41-1.44-1.41-.85,0-1.44.55-1.45,1.4-.02,1-.02,2,0,3,.01.86.59,1.41,1.44,1.42.85,0,1.43-.55,1.46-1.4.02-.5,0-1,0-1.5ZM194.69,236.46c0,.51-.01,1.03,0,1.54.02.86.6,1.41,1.45,1.41.85,0,1.43-.55,1.45-1.41.02-1,.02-2,0-3-.01-.86-.6-1.41-1.45-1.41-.85,0-1.43.55-1.45,1.41-.01.48,0,.97,0,1.45Z"/>
          <path class="cls-12" d="M188.84,245.2h-5.76v-10.12h5.76v10.12Z"/>
        </g>
      </g>
      <path class="cls-10" d="M150.06,259.75v11.34c0,2.9,2.35,5.25,5.25,5.25h61.31c2.9,0,5.25-2.35,5.25-5.25v-11.34h-71.81Z"/>
      <rect class="cls-7" x="191.6" y="264.02" width="25.46" height="8.17" rx="2" ry="2"/>
      <rect class="cls-13" x="154.6" y="264.35" width="30.85" height="2.52"/>
      <rect class="cls-13" x="154.6" y="269.01" width="30.85" height="2.52"/>
      <text class="cls-4" transform="translate(197.37 269.77)"><tspan x="0" y="0">Select</tspan></text>
      <path class="cls-10" d="M298.76,194.8c2.62,0,4.75,2.13,4.75,4.75v71.55c0,2.62-2.13,4.75-4.75,4.75h-61.31c-2.62,0-4.75-2.13-4.75-4.75v-71.55c0-2.62,2.13-4.75,4.75-4.75h61.31M298.76,194.3h-61.31c-2.9,0-5.25,2.35-5.25,5.25v71.55c0,2.9,2.35,5.25,5.25,5.25h61.31c2.9,0,5.25-2.35,5.25-5.25v-71.55c0-2.9-2.35-5.25-5.25-5.25h0Z"/>
      <g id="Dl6sI1.tif-5" data-name="Dl6sI1.tif">
        <g>
          <path class="cls-12" d="M256.11,204.52h23.99c.82.28,1.11.87,1.1,1.72-.03,1.68,0,3.36,0,5.04v.51c.42,0,.78,0,1.14,0,1.31,0,1.77.46,1.77,1.78,0,9.39,0,18.77,0,28.16v.55c.09.02.12.04.15.04.83,0,1.67.03,2.5,0,.84-.03,1.44.28,1.72,1.1v.73c-.28.82-.88,1.1-1.72,1.1-4.1-.02-8.21,0-12.31,0-.16,0-.32,0-.51,0v-.6c0-3.62,0-7.24,0-10.86,0-1.12-.51-1.63-1.64-1.63-2.77,0-5.54,0-8.31,0-1.18,0-1.67.49-1.67,1.69,0,3.62,0,7.24,0,10.86v.54c-4.45,0-8.82,0-13.2,0-.79,0-1.31-.59-1.34-1.38-.03-.9.53-1.5,1.43-1.52.96-.01,1.93,0,2.93,0,0-.23,0-.41,0-.59,0-9.43,0-18.87,0-28.3,0-1.13.51-1.64,1.63-1.64.42,0,.83,0,1.28,0,0-1.89.02-3.72,0-5.55-.01-.84.28-1.43,1.1-1.72ZM260.83,211.8c0,.48,0,.97,0,1.45.02.87.58,1.42,1.42,1.44.87.01,1.46-.55,1.48-1.43.02-.98.01-1.97,0-2.95-.01-.89-.6-1.44-1.47-1.44-.85,0-1.41.56-1.43,1.43-.01.5,0,1,0,1.5ZM266.65,211.77c0,.51-.01,1.03,0,1.54.03.83.6,1.37,1.43,1.38.85,0,1.45-.54,1.46-1.39.02-1.01.02-2.03,0-3.04-.02-.83-.6-1.37-1.43-1.38-.85,0-1.44.54-1.47,1.39-.02.5,0,1,0,1.5ZM272.46,211.76c0,.51-.01,1.03,0,1.54.03.83.6,1.38,1.43,1.39.85,0,1.45-.54,1.47-1.39.02-1.01.02-2.03,0-3.04-.02-.85-.62-1.39-1.47-1.38-.83,0-1.4.55-1.42,1.39-.02.5,0,1,0,1.5ZM257.92,219.01c0,.51-.01,1.03,0,1.54.02.86.6,1.41,1.45,1.41.85,0,1.43-.55,1.45-1.41.02-1,.02-2,0-3-.01-.86-.6-1.41-1.45-1.41-.85,0-1.43.55-1.45,1.41-.01.48,0,.97,0,1.45ZM266.65,219.06c0-.5.01-1,0-1.5-.02-.86-.59-1.41-1.44-1.42-.85,0-1.44.55-1.45,1.4-.02,1-.02,2,0,3,.01.86.59,1.41,1.44,1.42.85,0,1.43-.55,1.46-1.4.02-.5,0-1,0-1.5ZM269.56,219.07c0,.5-.01,1,0,1.5.03.85.61,1.4,1.46,1.4.83,0,1.42-.55,1.44-1.38.02-1.01.02-2.03,0-3.04-.02-.86-.61-1.4-1.46-1.4-.85,0-1.42.56-1.44,1.42-.01.5,0,1,0,1.5ZM278.28,219.03c0-.5.01-1,0-1.5-.03-.85-.62-1.39-1.47-1.38-.83.01-1.41.55-1.42,1.39-.02,1.01-.02,2.03,0,3.04.02.83.6,1.38,1.43,1.38.85,0,1.44-.54,1.47-1.39.02-.51,0-1.03,0-1.54ZM260.83,227.78c0-.5.01-1,0-1.5-.02-.86-.6-1.41-1.45-1.41-.85,0-1.43.55-1.45,1.41-.02,1-.02,2,0,3,.01.86.6,1.41,1.45,1.41.85,0,1.43-.55,1.45-1.41.01-.5,0-1,0-1.5ZM263.74,227.77c0,.5-.01,1,0,1.5.02.86.59,1.41,1.44,1.42.85,0,1.44-.55,1.46-1.4.02-1,.02-2,0-3-.01-.86-.59-1.41-1.44-1.42-.87,0-1.44.56-1.46,1.45,0,.48,0,.97,0,1.45ZM269.56,227.77c0,.5-.01,1,0,1.5.02.86.59,1.42,1.44,1.42.85,0,1.44-.54,1.46-1.4.02-1.01.02-2.03,0-3.04-.02-.83-.6-1.37-1.44-1.38-.85,0-1.44.54-1.46,1.4-.02.5,0,1,0,1.5ZM275.37,227.73c0,.51-.01,1.03,0,1.54.02.86.6,1.41,1.45,1.41.85,0,1.43-.55,1.45-1.41.02-1,.02-2,0-3-.02-.86-.6-1.41-1.45-1.41-.85,0-1.42.55-1.45,1.41-.01.48,0,.97,0,1.45ZM259.38,236.51c0-.5.01-1,0-1.5-.02-.86-.59-1.41-1.44-1.41-.85,0-1.44.55-1.45,1.4-.02,1-.02,2,0,3,.01.86.59,1.41,1.44,1.42.85,0,1.43-.55,1.46-1.4.02-.5,0-1,0-1.5ZM276.82,236.46c0,.51-.01,1.03,0,1.54.02.86.6,1.41,1.45,1.41.85,0,1.43-.55,1.45-1.41.02-1,.02-2,0-3-.01-.86-.6-1.41-1.45-1.41-.85,0-1.43.55-1.45,1.41-.01.48,0,.97,0,1.45Z"/>
          <path class="cls-12" d="M270.98,245.2h-5.76v-10.12h5.76v10.12Z"/>
        </g>
      </g>
      <path class="cls-10" d="M232.2,259.75v11.34c0,2.9,2.35,5.25,5.25,5.25h61.31c2.9,0,5.25-2.35,5.25-5.25v-11.34h-71.81Z"/>
      <rect class="cls-7" x="273.74" y="264.02" width="25.46" height="8.17" rx="2" ry="2"/>
      <rect class="cls-13" x="236.74" y="264.35" width="30.85" height="2.52"/>
      <rect class="cls-13" x="236.74" y="269.01" width="30.85" height="2.52"/>
      <text class="cls-4" transform="translate(279.51 269.77)"><tspan x="0" y="0">Select</tspan></text>
      <path class="cls-10" d="M380.89,194.8c2.62,0,4.75,2.13,4.75,4.75v71.55c0,2.62-2.13,4.75-4.75,4.75h-61.31c-2.62,0-4.75-2.13-4.75-4.75v-71.55c0-2.62,2.13-4.75,4.75-4.75h61.31M380.89,194.3h-61.31c-2.9,0-5.25,2.35-5.25,5.25v71.55c0,2.9,2.35,5.25,5.25,5.25h61.31c2.9,0,5.25-2.35,5.25-5.25v-71.55c0-2.9-2.35-5.25-5.25-5.25h0Z"/>
      <g id="Dl6sI1.tif-6" data-name="Dl6sI1.tif">
        <g>
          <path class="cls-12" d="M338.24,204.52h23.99c.82.28,1.11.87,1.1,1.72-.03,1.68,0,3.36,0,5.04v.51c.42,0,.78,0,1.14,0,1.31,0,1.77.46,1.77,1.78,0,9.39,0,18.77,0,28.16v.55c.09.02.12.04.15.04.83,0,1.67.03,2.5,0,.84-.03,1.44.28,1.72,1.1v.73c-.28.82-.88,1.1-1.72,1.1-4.1-.02-8.21,0-12.31,0-.16,0-.32,0-.51,0v-.6c0-3.62,0-7.24,0-10.86,0-1.12-.51-1.63-1.64-1.63-2.77,0-5.54,0-8.31,0-1.18,0-1.67.49-1.67,1.69,0,3.62,0,7.24,0,10.86v.54c-4.45,0-8.82,0-13.2,0-.79,0-1.31-.59-1.34-1.38-.03-.9.53-1.5,1.43-1.52.96-.01,1.93,0,2.93,0,0-.23,0-.41,0-.59,0-9.43,0-18.87,0-28.3,0-1.13.51-1.64,1.63-1.64.42,0,.83,0,1.28,0,0-1.89.02-3.72,0-5.55-.01-.84.28-1.43,1.1-1.72ZM342.97,211.8c0,.48,0,.97,0,1.45.02.87.58,1.42,1.42,1.44.87.01,1.46-.55,1.48-1.43.02-.98.01-1.97,0-2.95-.01-.89-.6-1.44-1.47-1.44-.85,0-1.41.56-1.43,1.43-.01.5,0,1,0,1.5ZM348.79,211.77c0,.51-.01,1.03,0,1.54.03.83.6,1.37,1.43,1.38.85,0,1.45-.54,1.46-1.39.02-1.01.02-2.03,0-3.04-.02-.83-.6-1.37-1.43-1.38-.85,0-1.44.54-1.47,1.39-.02.5,0,1,0,1.5ZM354.6,211.76c0,.51-.01,1.03,0,1.54.03.83.6,1.38,1.43,1.39.85,0,1.45-.54,1.47-1.39.02-1.01.02-2.03,0-3.04-.02-.85-.62-1.39-1.47-1.38-.83,0-1.4.55-1.42,1.39-.02.5,0,1,0,1.5ZM340.06,219.01c0,.51-.01,1.03,0,1.54.02.86.6,1.41,1.45,1.41.85,0,1.43-.55,1.45-1.41.02-1,.02-2,0-3-.01-.86-.6-1.41-1.45-1.41-.85,0-1.43.55-1.45,1.41-.01.48,0,.97,0,1.45ZM348.78,219.06c0-.5.01-1,0-1.5-.02-.86-.59-1.41-1.44-1.42-.85,0-1.44.55-1.45,1.4-.02,1-.02,2,0,3,.01.86.59,1.41,1.44,1.42.85,0,1.43-.55,1.46-1.4.02-.5,0-1,0-1.5ZM351.69,219.07c0,.5-.01,1,0,1.5.03.85.61,1.4,1.46,1.4.83,0,1.42-.55,1.44-1.38.02-1.01.02-2.03,0-3.04-.02-.86-.61-1.4-1.46-1.4-.85,0-1.42.56-1.44,1.42-.01.5,0,1,0,1.5ZM360.41,219.03c0-.5.01-1,0-1.5-.03-.85-.62-1.39-1.47-1.38-.83.01-1.41.55-1.42,1.39-.02,1.01-.02,2.03,0,3.04.02.83.6,1.38,1.43,1.38.85,0,1.44-.54,1.47-1.39.02-.51,0-1.03,0-1.54ZM342.97,227.78c0-.5.01-1,0-1.5-.02-.86-.6-1.41-1.45-1.41-.85,0-1.43.55-1.45,1.41-.02,1-.02,2,0,3,.01.86.6,1.41,1.45,1.41.85,0,1.43-.55,1.45-1.41.01-.5,0-1,0-1.5ZM345.88,227.77c0,.5-.01,1,0,1.5.02.86.59,1.41,1.44,1.42.85,0,1.44-.55,1.46-1.4.02-1,.02-2,0-3-.01-.86-.59-1.41-1.44-1.42-.87,0-1.44.56-1.46,1.45,0,.48,0,.97,0,1.45ZM351.69,227.77c0,.5-.01,1,0,1.5.02.86.59,1.42,1.44,1.42.85,0,1.44-.54,1.46-1.4.02-1.01.02-2.03,0-3.04-.02-.83-.6-1.37-1.44-1.38-.85,0-1.44.54-1.46,1.4-.02.5,0,1,0,1.5ZM357.51,227.73c0,.51-.01,1.03,0,1.54.02.86.6,1.41,1.45,1.41.85,0,1.43-.55,1.45-1.41.02-1,.02-2,0-3-.02-.86-.6-1.41-1.45-1.41-.85,0-1.42.55-1.45,1.41-.01.48,0,.97,0,1.45ZM341.51,236.51c0-.5.01-1,0-1.5-.02-.86-.59-1.41-1.44-1.41-.85,0-1.44.55-1.45,1.4-.02,1-.02,2,0,3,.01.86.59,1.41,1.44,1.42.85,0,1.43-.55,1.46-1.4.02-.5,0-1,0-1.5ZM358.96,236.46c0,.51-.01,1.03,0,1.54.02.86.6,1.41,1.45,1.41.85,0,1.43-.55,1.45-1.41.02-1,.02-2,0-3-.01-.86-.6-1.41-1.45-1.41-.85,0-1.43.55-1.45,1.41-.01.48,0,.97,0,1.45Z"/>
          <path class="cls-12" d="M353.11,245.2h-5.76v-10.12h5.76v10.12Z"/>
        </g>
      </g>
      <path class="cls-10" d="M314.34,259.75v11.34c0,2.9,2.35,5.25,5.25,5.25h61.31c2.9,0,5.25-2.35,5.25-5.25v-11.34h-71.81Z"/>
      <rect class="cls-7" x="355.87" y="264.02" width="25.46" height="8.17" rx="2" ry="2"/>
      <rect class="cls-13" x="318.87" y="264.35" width="30.85" height="2.52"/>
      <rect class="cls-13" x="318.87" y="269.01" width="30.85" height="2.52"/>
      <text class="cls-4" transform="translate(361.64 269.77)"><tspan x="0" y="0">Select</tspan></text>
      <path class="cls-9" d="M420.69,145.14h-147.86c-6.91,0-12.5,5.6-12.5,12.5v172.52c0,6.91,5.6,12.5,12.5,12.5h147.86c6.91,0,12.5-5.6,12.5-12.5v-172.52c0-6.91-5.6-12.5-12.5-12.5Z"/>
      <g>
        <text class="cls-2" transform="translate(374.21 326.84)"><tspan x="0" y="0">Select</tspan></text>
        <g>
          <path class="cls-6" d="M272.83,145.39h147.86c6.76,0,12.25,5.49,12.25,12.25v172.52c0,6.76-5.49,12.25-12.25,12.25h-147.86c-6.76,0-12.25-5.49-12.25-12.25v-172.52c0-6.76,5.49-12.25,12.25-12.25Z"/>
          <path class="cls-10" d="M420.69,145.64c6.62,0,12,5.39,12,12v172.52c0,6.62-5.39,12-12,12h-147.86c-6.62,0-12-5.39-12-12v-172.52c0-6.62,5.39-12,12-12h147.86M420.69,145.14h-147.86c-6.91,0-12.5,5.6-12.5,12.5v172.52c0,6.91,5.6,12.5,12.5,12.5h147.86c6.91,0,12.5-5.6,12.5-12.5v-172.52c0-6.91-5.6-12.5-12.5-12.5h0Z"/>
        </g>
        <g id="Dl6sI1.tif-7" data-name="Dl6sI1.tif">
          <g>
            <path class="cls-12" d="M322.64,170.79h48.23c1.65.57,2.24,1.75,2.21,3.45-.06,3.38-.02,6.76-.02,10.14v1.03c.84,0,1.56,0,2.29,0,2.63,0,3.56.93,3.56,3.57,0,18.87,0,37.74,0,56.61v1.12c.18.05.24.07.3.07,1.67,0,3.35.06,5.02,0,1.7-.06,2.89.55,3.45,2.21v1.46c-.57,1.65-1.76,2.22-3.45,2.21-8.25-.04-16.5-.02-24.75-.02-.32,0-.65,0-1.03,0v-1.2c0-7.28,0-14.55,0-21.83,0-2.26-1.03-3.28-3.3-3.28-5.57,0-11.14,0-16.71,0-2.38,0-3.37.99-3.37,3.4,0,7.28,0,14.55,0,21.83v1.08c-8.94,0-17.74.02-26.53-.01-1.59,0-2.64-1.18-2.69-2.77-.06-1.8,1.07-3.02,2.88-3.05,1.94-.03,3.88,0,5.88,0,0-.47,0-.82,0-1.18,0-18.97,0-37.93,0-56.9,0-2.28,1.02-3.3,3.28-3.3.84,0,1.68,0,2.57,0,0-3.81.04-7.49-.02-11.17-.03-1.7.56-2.88,2.21-3.45ZM332.14,185.44c0,.97-.02,1.95,0,2.92.04,1.75,1.16,2.86,2.86,2.89,1.75.02,2.94-1.1,2.97-2.87.03-1.98.03-3.95,0-5.93-.03-1.78-1.2-2.9-2.95-2.89-1.71.02-2.84,1.13-2.88,2.87-.02,1,0,2.01,0,3.01ZM343.84,185.36c0,1.03-.03,2.07,0,3.1.06,1.67,1.21,2.76,2.88,2.78,1.71.02,2.91-1.08,2.95-2.8.04-2.04.04-4.08,0-6.11-.03-1.67-1.2-2.76-2.88-2.78-1.72-.01-2.89,1.08-2.95,2.8-.03,1,0,2.01,0,3.01ZM355.53,185.36c0,1.03-.03,2.07,0,3.1.06,1.67,1.2,2.77,2.87,2.78,1.71.02,2.92-1.08,2.95-2.79.04-2.04.04-4.08,0-6.11-.04-1.71-1.24-2.8-2.96-2.78-1.67.02-2.81,1.11-2.86,2.79-.03,1,0,2.01,0,3.01ZM326.3,199.92c0,1.03-.02,2.07,0,3.1.05,1.72,1.21,2.83,2.92,2.83,1.71,0,2.88-1.11,2.91-2.84.03-2.01.03-4.02,0-6.02-.03-1.73-1.2-2.83-2.91-2.83-1.71,0-2.87,1.11-2.91,2.83-.03.97,0,1.95,0,2.92ZM343.83,200.03c0-1,.02-2.01,0-3.01-.05-1.73-1.19-2.84-2.9-2.85-1.71,0-2.9,1.1-2.93,2.82-.04,2.01-.03,4.02,0,6.02.03,1.73,1.19,2.84,2.9,2.85,1.71,0,2.88-1.1,2.93-2.82.03-1,0-2.01,0-3.01ZM349.68,200.04c0,1-.02,2.01,0,3.01.05,1.72,1.22,2.82,2.94,2.81,1.67,0,2.85-1.1,2.89-2.77.04-2.04.04-4.08,0-6.11-.03-1.72-1.22-2.82-2.93-2.81-1.71,0-2.85,1.12-2.89,2.85-.03,1,0,2.01,0,3.01ZM367.21,199.96c0-1,.03-2.01,0-3.01-.06-1.71-1.25-2.8-2.96-2.78-1.67.02-2.83,1.11-2.86,2.79-.04,2.04-.04,4.08,0,6.11.03,1.67,1.2,2.77,2.87,2.78,1.71.02,2.9-1.08,2.95-2.79.03-1.03,0-2.07,0-3.1ZM332.14,217.55c0-1,.02-2.01,0-3.01-.05-1.73-1.2-2.83-2.91-2.83-1.71,0-2.88,1.11-2.91,2.83-.03,2.01-.03,4.02,0,6.02.03,1.72,1.2,2.83,2.91,2.84,1.71,0,2.87-1.11,2.92-2.83.03-1,0-2.01,0-3.01ZM337.99,217.54c0,1-.02,2.01,0,3.01.04,1.73,1.19,2.84,2.9,2.85,1.71,0,2.9-1.1,2.93-2.82.04-2.01.03-4.02,0-6.02-.03-1.73-1.19-2.84-2.9-2.85-1.75,0-2.9,1.12-2.93,2.91-.02.97,0,1.95,0,2.92ZM349.68,217.53c0,1-.02,2.01,0,3.01.04,1.73,1.19,2.85,2.89,2.86,1.71.01,2.9-1.09,2.93-2.81.04-2.04.04-4.08,0-6.11-.04-1.67-1.21-2.76-2.89-2.76-1.72-.01-2.89,1.09-2.94,2.81-.03,1,0,2.01,0,3.01ZM361.37,217.47c0,1.03-.02,2.07,0,3.1.05,1.72,1.21,2.83,2.92,2.83,1.71,0,2.88-1.11,2.91-2.84.03-2.01.04-4.02,0-6.02-.03-1.73-1.2-2.83-2.92-2.83-1.71,0-2.86,1.11-2.91,2.84-.03.97,0,1.95,0,2.92ZM329.21,235.1c0-1,.02-2.01,0-3.01-.05-1.73-1.2-2.84-2.9-2.84-1.71,0-2.89,1.1-2.92,2.82-.03,2.01-.03,4.02,0,6.02.03,1.73,1.19,2.84,2.9,2.85,1.71,0,2.87-1.1,2.93-2.82.03-1,0-2.01,0-3.01ZM364.3,235c0,1.03-.02,2.07,0,3.1.05,1.72,1.21,2.83,2.92,2.83,1.71,0,2.88-1.11,2.91-2.84.03-2.01.03-4.02,0-6.02-.03-1.73-1.2-2.83-2.91-2.83-1.71,0-2.87,1.11-2.91,2.83-.03.97,0,1.95,0,2.92Z"/>
            <path class="cls-12" d="M352.54,252.59h-11.58v-20.35h11.58v20.35Z"/>
          </g>
        </g>
        <path class="cls-10" d="M260.32,302.72v27.31c0,6.98,5.66,12.64,12.64,12.64h147.6c6.98,0,12.64-5.66,12.64-12.64v-27.31h-172.87Z"/>
        <rect class="cls-7" x="360.32" y="312.99" width="61.3" height="19.68" rx="2" ry="2"/>
        <rect class="cls-13" x="271.25" y="313.79" width="74.27" height="6.06"/>
        <rect class="cls-13" x="271.25" y="325" width="74.27" height="6.06"/>
        <g>
          <path class="cls-6" d="M374.6,325.75l.98-1.17c.68.56,1.39.91,2.25.91.68,0,1.08-.27,1.08-.71v-.02c0-.42-.26-.63-1.51-.96-1.51-.39-2.49-.81-2.49-2.3v-.02c0-1.36,1.1-2.27,2.63-2.27,1.1,0,2.03.34,2.79.96l-.86,1.25c-.67-.46-1.32-.74-1.96-.74s-.97.29-.97.66v.02c0,.49.32.66,1.62.99,1.53.4,2.38.95,2.38,2.26v.02c0,1.49-1.14,2.33-2.76,2.33-1.14,0-2.29-.4-3.19-1.2Z"/>
          <path class="cls-6" d="M381.54,324v-.02c0-1.64,1.17-3,2.85-3,1.92,0,2.8,1.49,2.8,3.13,0,.13-.01.28-.02.43h-4.01c.16.74.68,1.13,1.41,1.13.55,0,.95-.17,1.4-.59l.93.83c-.54.67-1.31,1.07-2.35,1.07-1.73,0-3.01-1.21-3.01-2.98ZM385.6,323.51c-.1-.73-.53-1.22-1.21-1.22s-1.12.48-1.25,1.22h2.46Z"/>
          <path class="cls-6" d="M388.48,319h1.63v7.84h-1.63v-7.84Z"/>
          <path class="cls-6" d="M391.37,324v-.02c0-1.64,1.17-3,2.85-3,1.92,0,2.8,1.49,2.8,3.13,0,.13-.01.28-.02.43h-4.01c.16.74.68,1.13,1.41,1.13.55,0,.95-.17,1.4-.59l.93.83c-.54.67-1.31,1.07-2.35,1.07-1.73,0-3.01-1.21-3.01-2.98ZM395.43,323.51c-.1-.73-.53-1.22-1.21-1.22s-1.12.48-1.25,1.22h2.46Z"/>
          <path class="cls-6" d="M397.95,324v-.02c0-1.64,1.26-3,3.02-3,1.08,0,1.76.37,2.3.97l-1,1.07c-.37-.39-.73-.63-1.31-.63-.82,0-1.4.72-1.4,1.57v.02c0,.88.57,1.59,1.46,1.59.55,0,.92-.24,1.32-.61l.96.97c-.56.61-1.2,1.05-2.35,1.05-1.73,0-3-1.33-3-2.98Z"/>
          <path class="cls-6" d="M404.63,325.21v-2.73h-.69v-1.4h.69v-1.47h1.63v1.47h1.35v1.4h-1.35v2.46c0,.38.16.56.53.56.3,0,.57-.08.81-.2v1.31c-.34.2-.74.33-1.29.33-1,0-1.68-.4-1.68-1.73Z"/>
        </g>
      </g>
      <circle class="cls-11" cx="430.16" cy="215.38" r="28.68"/>
      <polygon class="cls-6" points="425.65 231.55 413.32 219.21 419.74 212.79 425.65 218.71 442.09 202.27 448.51 208.69 425.65 231.55"/>
      <polygon class="cls-11" points="285.86 265.52 289.08 275.44 299.51 275.44 291.07 281.57 294.3 291.49 285.86 285.36 277.42 291.49 280.64 281.57 272.2 275.44 282.63 275.44 285.86 265.52"/>
      <polygon class="cls-11" points="316.77 265.52 320 275.44 330.43 275.44 321.99 281.57 325.21 291.49 316.77 285.36 308.33 291.49 311.56 281.57 303.12 275.44 313.55 275.44 316.77 265.52"/>
      <polygon class="cls-11" points="347.69 265.52 350.91 275.44 361.34 275.44 352.9 281.57 356.13 291.49 347.69 285.36 339.25 291.49 342.47 281.57 334.03 275.44 344.46 275.44 347.69 265.52"/>
      <polygon class="cls-11" points="378.6 265.52 381.83 275.44 392.26 275.44 383.82 281.57 387.04 291.49 378.6 285.36 370.17 291.49 373.39 281.57 364.95 275.44 375.38 275.44 378.6 265.52"/>
      <polygon class="cls-11" points="409.52 265.52 412.74 275.44 423.18 275.44 414.74 281.57 417.96 291.49 409.52 285.36 401.08 291.49 404.3 281.57 395.87 275.44 406.3 275.44 409.52 265.52"/>
    </g>
  </g>
</svg>