<?xml version="1.0" encoding="UTF-8"?>
<svg xmlns="http://www.w3.org/2000/svg" xmlns:xlink="http://www.w3.org/1999/xlink" version="1.1" viewBox="0 0 311.32 352.55">
  <defs>
    <style>
      .cls-1 {
        fill: #231f20;
      }

      .cls-2 {
        fill: none;
        stroke: #231f20;
        stroke-miterlimit: 10;
        stroke-width: 2px;
      }

      .cls-3 {
        fill: #f0cb48;
      }

      .cls-4 {
        fill: #fff;
      }

      .cls-5 {
        fill: #60d092;
      }

      .cls-6 {
        fill: #ebeff2;
        filter: url(#drop-shadow-1);
      }

      .cls-7 {
        fill: #3874b6;
      }
    </style>
    <filter id="drop-shadow-1" filterUnits="userSpaceOnUse">
      <feOffset dx="3.6" dy="3.6"/>
      <feGaussianBlur result="blur" stdDeviation="1.44"/>
      <feFlood flood-color="#000" flood-opacity=".4"/>
      <feComposite in2="blur" operator="in"/>
      <feComposite in="SourceGraphic"/>
    </filter>
  </defs>
  <!-- Generator: Adobe Illustrator 28.6.0, SVG Export Plug-In . SVG Version: 1.2.0 Build 709)  -->
  <g>
    <g id="Layer_1">
      <rect class="cls-6" x="109.06" y="35.07" width="150.8" height="264.13" rx="13.06" ry="13.06"/>
      <g id="Dl6sI1.tif">
        <g>
          <path class="cls-7" d="M143.64,234.33h28.51c.97.34,1.32,1.04,1.31,2.04-.03,2-.01,3.99-.01,5.99v.61c.5,0,.92,0,1.35,0,1.56,0,2.1.55,2.1,2.11,0,11.15,0,22.31,0,33.46v.66c.11.03.14.04.18.04.99,0,1.98.03,2.97,0,1-.04,1.71.33,2.04,1.3v.86c-.34.98-1.04,1.31-2.04,1.31-4.88-.02-9.75,0-14.63,0-.19,0-.38,0-.61,0v-.71c0-4.3,0-8.6,0-12.9,0-1.34-.61-1.94-1.95-1.94-3.29,0-6.59,0-9.88,0-1.41,0-1.99.59-1.99,2.01,0,4.3,0,8.6,0,12.9v.64c-5.28,0-10.48,0-15.68,0-.94,0-1.56-.7-1.59-1.64-.04-1.07.63-1.79,1.7-1.8,1.15-.02,2.29,0,3.48,0,0-.27,0-.49,0-.7,0-11.21,0-22.42,0-33.63,0-1.35.6-1.95,1.94-1.95.5,0,.99,0,1.52,0,0-2.25.02-4.42-.01-6.6-.02-1,.33-1.71,1.31-2.04ZM149.25,242.99c0,.58-.01,1.15,0,1.73.02,1.03.69,1.69,1.69,1.71,1.03.01,1.74-.65,1.75-1.7.02-1.17.02-2.34,0-3.51-.02-1.05-.71-1.72-1.75-1.71-1.01,0-1.68.67-1.7,1.7-.01.59,0,1.19,0,1.78ZM156.17,242.95c0,.61-.02,1.22,0,1.83.03.99.71,1.63,1.7,1.64,1.01,0,1.72-.64,1.74-1.65.02-1.2.02-2.41,0-3.61-.02-.99-.71-1.63-1.7-1.64-1.02,0-1.71.64-1.74,1.65-.02.59,0,1.19,0,1.78ZM163.08,242.94c0,.61-.02,1.22,0,1.83.03.99.71,1.64,1.7,1.65,1.01.01,1.72-.64,1.74-1.65.02-1.2.02-2.41,0-3.61-.02-1.01-.73-1.66-1.75-1.65-.99.01-1.66.66-1.69,1.65-.02.59,0,1.19,0,1.78ZM145.8,251.55c0,.61-.01,1.22,0,1.83.03,1.02.71,1.67,1.72,1.67,1.01,0,1.7-.66,1.72-1.68.02-1.19.02-2.37,0-3.56-.02-1.02-.71-1.67-1.72-1.67-1.01,0-1.69.66-1.72,1.67-.02.57,0,1.15,0,1.73ZM156.16,251.62c0-.59.01-1.19,0-1.78-.03-1.02-.71-1.68-1.72-1.68-1.01,0-1.71.65-1.73,1.67-.02,1.19-.02,2.37,0,3.56.02,1.02.7,1.68,1.71,1.68,1.01,0,1.7-.65,1.73-1.67.02-.59,0-1.19,0-1.78ZM159.62,251.62c0,.59-.01,1.19,0,1.78.03,1.02.72,1.67,1.74,1.66.99,0,1.68-.65,1.71-1.63.03-1.2.02-2.41,0-3.61-.02-1.02-.72-1.67-1.73-1.66-1.01,0-1.68.66-1.71,1.69-.01.59,0,1.19,0,1.78ZM169.98,251.58c0-.59.02-1.19,0-1.78-.04-1.01-.74-1.66-1.75-1.64-.99.01-1.67.66-1.69,1.65-.02,1.2-.02,2.41,0,3.61.02.99.71,1.63,1.7,1.64,1.01.01,1.71-.64,1.75-1.65.02-.61,0-1.22,0-1.83ZM149.25,261.97c0-.59.01-1.19,0-1.78-.03-1.02-.71-1.67-1.72-1.67-1.01,0-1.7.65-1.72,1.67-.02,1.19-.02,2.37,0,3.56.02,1.02.71,1.68,1.72,1.68,1.01,0,1.69-.65,1.72-1.67.02-.59,0-1.19,0-1.78ZM152.71,261.96c0,.59-.01,1.19,0,1.78.03,1.02.7,1.68,1.71,1.68,1.01,0,1.71-.65,1.73-1.67.02-1.19.02-2.37,0-3.56-.02-1.02-.7-1.68-1.71-1.68-1.03,0-1.71.66-1.73,1.72-.01.58,0,1.15,0,1.73ZM159.62,261.96c0,.59-.01,1.19,0,1.78.03,1.02.7,1.68,1.71,1.69,1.01,0,1.72-.64,1.73-1.66.02-1.2.02-2.41,0-3.61-.02-.99-.72-1.63-1.71-1.63-1.01,0-1.71.64-1.74,1.66-.02.59,0,1.19,0,1.78ZM166.53,261.92c0,.61-.01,1.22,0,1.83.03,1.02.71,1.67,1.72,1.67,1.01,0,1.7-.66,1.72-1.68.02-1.19.02-2.37,0-3.56-.02-1.02-.71-1.67-1.72-1.67-1.01,0-1.69.66-1.72,1.68-.02.57,0,1.15,0,1.73ZM147.53,272.35c0-.59.01-1.19,0-1.78-.03-1.02-.71-1.68-1.72-1.68-1.01,0-1.71.65-1.73,1.67-.02,1.19-.02,2.37,0,3.56.02,1.02.71,1.68,1.71,1.68,1.01,0,1.7-.65,1.73-1.67.02-.59,0-1.19,0-1.78ZM168.26,272.29c0,.61-.01,1.22,0,1.83.03,1.02.71,1.67,1.72,1.67,1.01,0,1.7-.66,1.72-1.68.02-1.19.02-2.37,0-3.56-.02-1.02-.71-1.67-1.72-1.67-1.01,0-1.69.66-1.72,1.67-.02.57,0,1.15,0,1.73Z"/>
          <path class="cls-7" d="M161.31,282.68h-6.84v-12.03h6.84v12.03Z"/>
        </g>
      </g>
      <g id="Dl6sI1.tif-2" data-name="Dl6sI1.tif">
        <g>
          <path class="cls-7" d="M143.64,143.85h28.51c.97.34,1.32,1.04,1.31,2.04-.03,2-.01,3.99-.01,5.99v.61c.5,0,.92,0,1.35,0,1.56,0,2.1.55,2.1,2.11,0,11.15,0,22.31,0,33.46v.66c.11.03.14.04.18.04.99,0,1.98.03,2.97,0,1-.04,1.71.33,2.04,1.3v.86c-.34.98-1.04,1.31-2.04,1.31-4.88-.02-9.75,0-14.63,0-.19,0-.38,0-.61,0v-.71c0-4.3,0-8.6,0-12.9,0-1.34-.61-1.94-1.95-1.94-3.29,0-6.59,0-9.88,0-1.41,0-1.99.59-1.99,2.01,0,4.3,0,8.6,0,12.9v.64c-5.28,0-10.48,0-15.68,0-.94,0-1.56-.7-1.59-1.64-.04-1.07.63-1.79,1.7-1.8,1.15-.02,2.29,0,3.48,0,0-.27,0-.49,0-.7,0-11.21,0-22.42,0-33.63,0-1.35.6-1.95,1.94-1.95.5,0,.99,0,1.52,0,0-2.25.02-4.42-.01-6.6-.02-1,.33-1.71,1.31-2.04ZM149.25,152.51c0,.58-.01,1.15,0,1.73.02,1.03.69,1.69,1.69,1.71,1.03.01,1.74-.65,1.75-1.7.02-1.17.02-2.34,0-3.51-.02-1.05-.71-1.72-1.75-1.71-1.01,0-1.68.67-1.7,1.7-.01.59,0,1.19,0,1.78ZM156.17,152.46c0,.61-.02,1.22,0,1.83.03.99.71,1.63,1.7,1.64,1.01,0,1.72-.64,1.74-1.65.02-1.2.02-2.41,0-3.61-.02-.99-.71-1.63-1.7-1.64-1.02,0-1.71.64-1.74,1.65-.02.59,0,1.19,0,1.78ZM163.08,152.46c0,.61-.02,1.22,0,1.83.03.99.71,1.64,1.7,1.65,1.01.01,1.72-.64,1.74-1.65.02-1.2.02-2.41,0-3.61-.02-1.01-.73-1.66-1.75-1.65-.99.01-1.66.66-1.69,1.65-.02.59,0,1.19,0,1.78ZM145.8,161.07c0,.61-.01,1.22,0,1.83.03,1.02.71,1.67,1.72,1.67,1.01,0,1.7-.66,1.72-1.68.02-1.19.02-2.37,0-3.56-.02-1.02-.71-1.67-1.72-1.67-1.01,0-1.69.66-1.72,1.67-.02.57,0,1.15,0,1.73ZM156.16,161.13c0-.59.01-1.19,0-1.78-.03-1.02-.71-1.68-1.72-1.68-1.01,0-1.71.65-1.73,1.67-.02,1.19-.02,2.37,0,3.56.02,1.02.7,1.68,1.71,1.68,1.01,0,1.7-.65,1.73-1.67.02-.59,0-1.19,0-1.78ZM159.62,161.14c0,.59-.01,1.19,0,1.78.03,1.02.72,1.67,1.74,1.66.99,0,1.68-.65,1.71-1.63.03-1.2.02-2.41,0-3.61-.02-1.02-.72-1.67-1.73-1.66-1.01,0-1.68.66-1.71,1.69-.01.59,0,1.19,0,1.78ZM169.98,161.09c0-.59.02-1.19,0-1.78-.04-1.01-.74-1.66-1.75-1.64-.99.01-1.67.66-1.69,1.65-.02,1.2-.02,2.41,0,3.61.02.99.71,1.63,1.7,1.64,1.01.01,1.71-.64,1.75-1.65.02-.61,0-1.22,0-1.83ZM149.25,171.49c0-.59.01-1.19,0-1.78-.03-1.02-.71-1.67-1.72-1.67-1.01,0-1.7.65-1.72,1.67-.02,1.19-.02,2.37,0,3.56.02,1.02.71,1.68,1.72,1.68,1.01,0,1.69-.65,1.72-1.67.02-.59,0-1.19,0-1.78ZM152.71,171.48c0,.59-.01,1.19,0,1.78.03,1.02.7,1.68,1.71,1.68,1.01,0,1.71-.65,1.73-1.67.02-1.19.02-2.37,0-3.56-.02-1.02-.7-1.68-1.71-1.68-1.03,0-1.71.66-1.73,1.72-.01.58,0,1.15,0,1.73ZM159.62,171.47c0,.59-.01,1.19,0,1.78.03,1.02.7,1.68,1.71,1.69,1.01,0,1.72-.64,1.73-1.66.02-1.2.02-2.41,0-3.61-.02-.99-.72-1.63-1.71-1.63-1.01,0-1.71.64-1.74,1.66-.02.59,0,1.19,0,1.78ZM166.53,171.44c0,.61-.01,1.22,0,1.83.03,1.02.71,1.67,1.72,1.67,1.01,0,1.7-.66,1.72-1.68.02-1.19.02-2.37,0-3.56-.02-1.02-.71-1.67-1.72-1.67-1.01,0-1.69.66-1.72,1.68-.02.57,0,1.15,0,1.73ZM147.53,181.86c0-.59.01-1.19,0-1.78-.03-1.02-.71-1.68-1.72-1.68-1.01,0-1.71.65-1.73,1.67-.02,1.19-.02,2.37,0,3.56.02,1.02.71,1.68,1.71,1.68,1.01,0,1.7-.65,1.73-1.67.02-.59,0-1.19,0-1.78ZM168.26,181.8c0,.61-.01,1.22,0,1.83.03,1.02.71,1.67,1.72,1.67,1.01,0,1.7-.66,1.72-1.68.02-1.19.02-2.37,0-3.56-.02-1.02-.71-1.67-1.72-1.67-1.01,0-1.69.66-1.72,1.67-.02.57,0,1.15,0,1.73Z"/>
          <path class="cls-7" d="M161.31,192.2h-6.84v-12.03h6.84v12.03Z"/>
        </g>
      </g>
      <line class="cls-2" x1="230.79" y1="172.21" x2="188.43" y2="172.21"/>
      <line class="cls-2" x1="128.81" y1="172.21" x2="86.45" y2="172.21"/>
      <path class="cls-2" d="M188.43,82.2h0c8.45,0,15.3,6.85,15.3,15.3v149.42c0,8.45-6.85,15.3-15.3,15.3h0"/>
      <polygon class="cls-1" points="234.64 172.18 227.86 167.03 227.86 177.34 234.64 172.18"/>
      <g id="Dl6sI1.tif-3" data-name="Dl6sI1.tif">
        <g>
          <path class="cls-7" d="M143.64,53.36h28.51c.97.34,1.32,1.04,1.31,2.04-.03,2-.01,3.99-.01,5.99v.61c.5,0,.92,0,1.35,0,1.56,0,2.1.55,2.1,2.11,0,11.15,0,22.31,0,33.46v.66c.11.03.14.04.18.04.99,0,1.98.03,2.97,0,1-.04,1.71.33,2.04,1.3v.86c-.34.98-1.04,1.31-2.04,1.31-4.88-.02-9.75,0-14.63,0-.19,0-.38,0-.61,0v-.71c0-4.3,0-8.6,0-12.9,0-1.34-.61-1.94-1.95-1.94-3.29,0-6.59,0-9.88,0-1.41,0-1.99.59-1.99,2.01,0,4.3,0,8.6,0,12.9v.64c-5.28,0-10.48,0-15.68,0-.94,0-1.56-.7-1.59-1.64-.04-1.07.63-1.79,1.7-1.8,1.15-.02,2.29,0,3.48,0,0-.27,0-.49,0-.7,0-11.21,0-22.42,0-33.63,0-1.35.6-1.95,1.94-1.95.5,0,.99,0,1.52,0,0-2.25.02-4.42-.01-6.6-.02-1,.33-1.71,1.31-2.04ZM149.25,62.02c0,.58-.01,1.15,0,1.73.02,1.03.69,1.69,1.69,1.71,1.03.01,1.74-.65,1.75-1.7.02-1.17.02-2.34,0-3.51-.02-1.05-.71-1.72-1.75-1.71-1.01,0-1.68.67-1.7,1.7-.01.59,0,1.19,0,1.78ZM156.17,61.98c0,.61-.02,1.22,0,1.83.03.99.71,1.63,1.7,1.64,1.01,0,1.72-.64,1.74-1.65.02-1.2.02-2.41,0-3.61-.02-.99-.71-1.63-1.7-1.64-1.02,0-1.71.64-1.74,1.65-.02.59,0,1.19,0,1.78ZM163.08,61.97c0,.61-.02,1.22,0,1.83.03.99.71,1.64,1.7,1.65,1.01.01,1.72-.64,1.74-1.65.02-1.2.02-2.41,0-3.61-.02-1.01-.73-1.66-1.75-1.65-.99.01-1.66.66-1.69,1.65-.02.59,0,1.19,0,1.78ZM145.8,70.58c0,.61-.01,1.22,0,1.83.03,1.02.71,1.67,1.72,1.67,1.01,0,1.7-.66,1.72-1.68.02-1.19.02-2.37,0-3.56-.02-1.02-.71-1.67-1.72-1.67-1.01,0-1.69.66-1.72,1.67-.02.57,0,1.15,0,1.73ZM156.16,70.64c0-.59.01-1.19,0-1.78-.03-1.02-.71-1.68-1.72-1.68-1.01,0-1.71.65-1.73,1.67-.02,1.19-.02,2.37,0,3.56.02,1.02.7,1.68,1.71,1.68,1.01,0,1.7-.65,1.73-1.67.02-.59,0-1.19,0-1.78ZM159.62,70.65c0,.59-.01,1.19,0,1.78.03,1.02.72,1.67,1.74,1.66.99,0,1.68-.65,1.71-1.63.03-1.2.02-2.41,0-3.61-.02-1.02-.72-1.67-1.73-1.66-1.01,0-1.68.66-1.71,1.69-.01.59,0,1.19,0,1.78ZM169.98,70.61c0-.59.02-1.19,0-1.78-.04-1.01-.74-1.66-1.75-1.64-.99.01-1.67.66-1.69,1.65-.02,1.2-.02,2.41,0,3.61.02.99.71,1.63,1.7,1.64,1.01.01,1.71-.64,1.75-1.65.02-.61,0-1.22,0-1.83ZM149.25,81c0-.59.01-1.19,0-1.78-.03-1.02-.71-1.67-1.72-1.67-1.01,0-1.7.65-1.72,1.67-.02,1.19-.02,2.37,0,3.56.02,1.02.71,1.68,1.72,1.68,1.01,0,1.69-.65,1.72-1.67.02-.59,0-1.19,0-1.78ZM152.71,80.99c0,.59-.01,1.19,0,1.78.03,1.02.7,1.68,1.71,1.68,1.01,0,1.71-.65,1.73-1.67.02-1.19.02-2.37,0-3.56-.02-1.02-.7-1.68-1.71-1.68-1.03,0-1.71.66-1.73,1.72-.01.58,0,1.15,0,1.73ZM159.62,80.99c0,.59-.01,1.19,0,1.78.03,1.02.7,1.68,1.71,1.69,1.01,0,1.72-.64,1.73-1.66.02-1.2.02-2.41,0-3.61-.02-.99-.72-1.63-1.71-1.63-1.01,0-1.71.64-1.74,1.66-.02.59,0,1.19,0,1.78ZM166.53,80.95c0,.61-.01,1.22,0,1.83.03,1.02.71,1.67,1.72,1.67,1.01,0,1.7-.66,1.72-1.68.02-1.19.02-2.37,0-3.56-.02-1.02-.71-1.67-1.72-1.67-1.01,0-1.69.66-1.72,1.68-.02.57,0,1.15,0,1.73ZM147.53,91.37c0-.59.01-1.19,0-1.78-.03-1.02-.71-1.68-1.72-1.68-1.01,0-1.71.65-1.73,1.67-.02,1.19-.02,2.37,0,3.56.02,1.02.71,1.68,1.71,1.68,1.01,0,1.7-.65,1.73-1.67.02-.59,0-1.19,0-1.78ZM168.26,91.31c0,.61-.01,1.22,0,1.83.03,1.02.71,1.67,1.72,1.67,1.01,0,1.7-.66,1.72-1.68.02-1.19.02-2.37,0-3.56-.02-1.02-.71-1.67-1.72-1.67-1.01,0-1.69.66-1.72,1.67-.02.57,0,1.15,0,1.73Z"/>
          <path class="cls-7" d="M161.31,101.71h-6.84v-12.03h6.84v12.03Z"/>
        </g>
      </g>
      <circle class="cls-3" cx="259.81" cy="172.68" r="21.12"/>
      <circle class="cls-3" cx="60.64" cy="172.51" r="26.27"/>
      <path class="cls-4" d="M258.21,184.03c-3.46-.35-6.88-1.59-9.53-3.49l3.18-4.69c2.26,1.59,4.38,2.54,6.56,2.89v-4.23c-5.68-1.31-8.58-3.25-8.58-7.62v-.07c0-4.16,3.04-7.06,8.44-7.45v-2.01h3.67v2.12c2.89.32,5.33,1.31,7.45,2.75l-2.89,4.73c-1.45-1.02-3.14-1.73-4.73-2.12v4.09c5.61,1.31,8.43,3.32,8.43,7.69v.07c0,4.31-3.32,6.95-8.33,7.41v3.46h-3.67v-3.53ZM258.46,164.51c-1.73.14-2.4.85-2.4,1.76v.07c0,.92.49,1.45,2.4,1.98v-3.81ZM264.11,177.15v-.07c0-.95-.53-1.48-2.36-2.01v3.88c1.62-.18,2.36-.78,2.36-1.8Z"/>
      <circle class="cls-5" cx="109.51" cy="171.87" r="10.19"/>
      <g>
        <rect class="cls-4" x="102.81" y="170.48" width="13.16" height="3.23"/>
        <rect class="cls-4" x="107.78" y="165.51" width="3.23" height="13.16"/>
      </g>
      <g>
        <path class="cls-4" d="M72.13,168.41h-23.05c-2.65,0-4.81,2.16-4.81,4.81v10.26h2.37v-3.02h27.93v3.02h2.37v-10.26c0-2.65-2.16-4.81-4.81-4.81ZM46.65,178.09v-1.55h27.93v1.55h-27.93Z"/>
        <path class="cls-4" d="M48.62,167.2h1.9v-1.1c0-1.49,1.21-2.71,2.71-2.71h4.79c.97,0,1.76.79,1.76,1.76v2.05h2.31v-2.05c0-.97.79-1.76,1.76-1.76h4.79c1.49,0,2.71,1.21,2.71,2.71v1.1h1.2c.76,0,1.38-.62,1.38-1.38v-1.48c0-2.19-1.78-3.97-3.97-3.97h-18.75c-2.19,0-3.97,1.78-3.97,3.97v1.48c0,.76.62,1.38,1.38,1.38Z"/>
      </g>
    </g>
  </g>
</svg>