<?xml version="1.0" encoding="UTF-8"?>
<svg xmlns="http://www.w3.org/2000/svg" xmlns:xlink="http://www.w3.org/1999/xlink" version="1.1" viewBox="0 0 388.47 309.99">
  <defs>
    <style>
      .cls-1 {
        fill: #f1ce46;
      }

      .cls-2 {
        fill: #db4d25;
      }

      .cls-3 {
        fill: #231f20;
      }

      .cls-4 {
        fill: none;
        stroke: #231f20;
        stroke-miterlimit: 10;
        stroke-width: 2px;
      }

      .cls-5 {
        fill: #fff;
      }

      .cls-6 {
        fill: #cfd7db;
      }

      .cls-7 {
        fill: #ebeff2;
        filter: url(#drop-shadow-1);
      }

      .cls-8 {
        fill: #3874b6;
      }
    </style>
    <filter id="drop-shadow-1" filterUnits="userSpaceOnUse">
      <feOffset dx="3.6" dy="3.6"/>
      <feGaussianBlur result="blur" stdDeviation="1.44"/>
      <feFlood flood-color="#000" flood-opacity=".4"/>
      <feComposite in2="blur" operator="in"/>
      <feComposite in="SourceGraphic"/>
    </filter>
  </defs>
  <!-- Generator: Adobe Illustrator 28.6.0, SVG Export Plug-In . SVG Version: 1.2.0 Build 709)  -->
  <g>
    <g id="Layer_1">
      <g>
        <rect class="cls-5" x="320.24" y="115.86" width="47.77" height="51.71" rx="4.32" ry="4.32"/>
        <path class="cls-6" d="M363.69,116.11c2.25,0,4.07,1.83,4.07,4.07v43.06c0,2.25-1.83,4.07-4.07,4.07h-39.13c-2.25,0-4.07-1.83-4.07-4.07v-43.06c0-2.25,1.83-4.07,4.07-4.07h39.13M363.69,115.61h-39.13c-2.53,0-4.57,2.05-4.57,4.57v43.06c0,2.53,2.05,4.57,4.57,4.57h39.13c2.53,0,4.57-2.05,4.57-4.57v-43.06c0-2.53-2.05-4.57-4.57-4.57h0Z"/>
      </g>
      <line class="cls-4" x1="190.97" y1="153.74" x2="255.81" y2="153.74"/>
      <g>
        <rect class="cls-7" x="33.12" y="64.16" width="167.9" height="179.17"/>
        <g>
          <path d="M48.18,76.91h4.4c1.42,0,2.41.37,3.03,1.01.55.53.83,1.25.83,2.17v.03c0,1.42-.76,2.37-1.92,2.86l2.22,3.25h-2.98l-1.88-2.82h-1.13v2.82h-2.58v-9.31ZM52.47,81.38c.88,0,1.38-.43,1.38-1.1v-.03c0-.73-.53-1.1-1.4-1.1h-1.69v2.24h1.7Z"/>
          <path d="M57.75,76.91h7.45v2.26h-4.87v1.58h4.4v2.14h-4.4v3.33h-2.58v-9.31Z"/>
          <path d="M66.38,76.91h3.99c2.36,0,3.87,1.21,3.87,3.27v.03c0,2.2-1.69,3.35-4,3.35h-1.28v2.66h-2.58v-9.31ZM70.18,81.54c.92,0,1.48-.48,1.48-1.21v-.03c0-.8-.56-1.22-1.49-1.22h-1.21v2.46h1.22Z"/>
          <path d="M79.02,76.91h7.45v2.26h-4.87v1.58h4.4v2.14h-4.4v3.33h-2.58v-9.31Z"/>
          <path d="M87,82.66v-.03c0-2.05,1.68-3.77,3.99-3.77s3.96,1.69,3.96,3.74v.03c0,2.05-1.68,3.77-3.99,3.77s-3.97-1.69-3.97-3.74ZM92.5,82.66v-.03c0-.88-.64-1.62-1.53-1.62s-1.5.73-1.5,1.6v.03c0,.88.64,1.62,1.53,1.62s1.5-.73,1.5-1.6Z"/>
          <path d="M96.02,79.03h2.53v1.45c.41-.98,1.08-1.62,2.28-1.57v2.66h-.21c-1.32,0-2.06.76-2.06,2.42v2.24h-2.53v-7.2Z"/>
          <path d="M101.72,79.03h2.53v.98c.47-.6,1.13-1.14,2.14-1.14.96,0,1.69.43,2.08,1.17.62-.72,1.36-1.17,2.41-1.17,1.53,0,2.46.96,2.46,2.63v4.72h-2.53v-3.91c0-.78-.39-1.2-.99-1.2s-1.04.41-1.04,1.2v3.91h-2.53v-3.91c0-.78-.39-1.2-.98-1.2s-1.03.41-1.03,1.2v3.91h-2.53v-7.2Z"/>
        </g>
        <rect class="cls-6" x="43.32" y="97.36" width="84.94" height="7.81"/>
        <rect class="cls-6" x="43.32" y="122.52" width="146.25" height="7.81"/>
        <rect class="cls-6" x="147.3" y="140.33" width="42.27" height="7.81"/>
        <rect class="cls-6" x="43.32" y="140.33" width="96.21" height="7.81"/>
        <rect class="cls-6" x="43.32" y="158.14" width="44.6" height="7.81"/>
        <rect class="cls-6" x="43.32" y="202.99" width="44.6" height="7.81"/>
        <rect class="cls-6" x="94.29" y="158.14" width="44.6" height="7.81"/>
        <rect class="cls-6" x="145.26" y="158.14" width="44.6" height="7.81"/>
        <rect class="cls-6" x="43.32" y="175.95" width="146.25" height="7.81"/>
        <rect class="cls-6" x="95.1" y="202.99" width="94.46" height="7.81"/>
        <rect class="cls-6" x="43.32" y="221.17" width="146.25" height="7.81"/>
      </g>
      <path class="cls-4" d="M255.81,243.75h0c-8.45,0-15.3-6.85-15.3-15.3V79.03c0-8.45,6.85-15.3,15.3-15.3h0"/>
      <polygon class="cls-3" points="262.45 63.71 255.67 58.55 255.67 68.86 262.45 63.71"/>
      <polygon class="cls-3" points="262.45 153.72 255.67 148.56 255.67 158.87 262.45 153.72"/>
      <polygon class="cls-3" points="262.45 243.67 255.67 238.51 255.67 248.82 262.45 243.67"/>
      <circle class="cls-1" cx="221.23" cy="153.68" r="7.93"/>
      <polygon class="cls-5" points="219.98 158.15 216.57 154.74 218.35 152.97 219.98 154.6 224.52 150.06 226.3 151.83 219.98 158.15"/>
      <g id="Dl6sI1.tif">
        <g>
          <path class="cls-8" d="M280.55,37.14h28.51c.97.34,1.32,1.04,1.31,2.04-.03,2-.01,3.99-.01,5.99v.61c.5,0,.92,0,1.35,0,1.56,0,2.1.55,2.1,2.11,0,11.15,0,22.31,0,33.46v.66c.11.03.14.04.18.04.99,0,1.98.03,2.97,0,1-.04,1.71.33,2.04,1.3v.86c-.34.98-1.04,1.31-2.04,1.31-4.88-.02-9.75,0-14.63,0-.19,0-.38,0-.61,0v-.71c0-4.3,0-8.6,0-12.9,0-1.34-.61-1.94-1.95-1.94-3.29,0-6.59,0-9.88,0-1.41,0-1.99.59-1.99,2.01,0,4.3,0,8.6,0,12.9v.64c-5.28,0-10.48,0-15.68,0-.94,0-1.56-.7-1.59-1.64-.04-1.07.63-1.79,1.7-1.8,1.15-.02,2.29,0,3.48,0,0-.27,0-.49,0-.7,0-11.21,0-22.42,0-33.63,0-1.35.6-1.95,1.94-1.95.5,0,.99,0,1.52,0,0-2.25.02-4.42-.01-6.6-.02-1,.33-1.71,1.31-2.04ZM286.17,45.8c0,.58-.01,1.15,0,1.73.02,1.03.69,1.69,1.69,1.71,1.03.01,1.74-.65,1.75-1.7.02-1.17.02-2.34,0-3.51-.02-1.05-.71-1.72-1.75-1.71-1.01,0-1.68.67-1.7,1.7-.01.59,0,1.19,0,1.78ZM293.08,45.76c0,.61-.02,1.22,0,1.83.03.99.71,1.63,1.7,1.64,1.01,0,1.72-.64,1.74-1.65.02-1.2.02-2.41,0-3.61-.02-.99-.71-1.63-1.7-1.64-1.02,0-1.71.64-1.74,1.65-.02.59,0,1.19,0,1.78ZM299.99,45.75c0,.61-.02,1.22,0,1.83.03.99.71,1.64,1.7,1.65,1.01.01,1.72-.64,1.74-1.65.02-1.2.02-2.41,0-3.61-.02-1.01-.73-1.66-1.75-1.65-.99.01-1.66.66-1.69,1.65-.02.59,0,1.19,0,1.78ZM282.71,54.36c0,.61-.01,1.22,0,1.83.03,1.02.71,1.67,1.72,1.67,1.01,0,1.7-.66,1.72-1.68.02-1.19.02-2.37,0-3.56-.02-1.02-.71-1.67-1.72-1.67-1.01,0-1.69.66-1.72,1.67-.02.57,0,1.15,0,1.73ZM293.08,54.42c0-.59.01-1.19,0-1.78-.03-1.02-.71-1.68-1.72-1.68-1.01,0-1.71.65-1.73,1.67-.02,1.19-.02,2.37,0,3.56.02,1.02.7,1.68,1.71,1.68,1.01,0,1.7-.65,1.73-1.67.02-.59,0-1.19,0-1.78ZM296.54,54.43c0,.59-.01,1.19,0,1.78.03,1.02.72,1.67,1.74,1.66.99,0,1.68-.65,1.71-1.63.03-1.2.02-2.41,0-3.61-.02-1.02-.72-1.67-1.73-1.66-1.01,0-1.68.66-1.71,1.69-.01.59,0,1.19,0,1.78ZM306.9,54.39c0-.59.02-1.19,0-1.78-.04-1.01-.74-1.66-1.75-1.64-.99.01-1.67.66-1.69,1.65-.02,1.2-.02,2.41,0,3.61.02.99.71,1.63,1.7,1.64,1.01.01,1.71-.64,1.75-1.65.02-.61,0-1.22,0-1.83ZM286.17,64.78c0-.59.01-1.19,0-1.78-.03-1.02-.71-1.67-1.72-1.67-1.01,0-1.7.65-1.72,1.67-.02,1.19-.02,2.37,0,3.56.02,1.02.71,1.68,1.72,1.68,1.01,0,1.69-.65,1.72-1.67.02-.59,0-1.19,0-1.78ZM289.63,64.77c0,.59-.01,1.19,0,1.78.03,1.02.7,1.68,1.71,1.68,1.01,0,1.71-.65,1.73-1.67.02-1.19.02-2.37,0-3.56-.02-1.02-.7-1.68-1.71-1.68-1.03,0-1.71.66-1.73,1.72-.01.58,0,1.15,0,1.73ZM296.54,64.77c0,.59-.01,1.19,0,1.78.03,1.02.7,1.68,1.71,1.69,1.01,0,1.72-.64,1.73-1.66.02-1.2.02-2.41,0-3.61-.02-.99-.72-1.63-1.71-1.63-1.01,0-1.71.64-1.74,1.66-.02.59,0,1.19,0,1.78ZM303.45,64.73c0,.61-.01,1.22,0,1.83.03,1.02.71,1.67,1.72,1.67,1.01,0,1.7-.66,1.72-1.68.02-1.19.02-2.37,0-3.56-.02-1.02-.71-1.67-1.72-1.67-1.01,0-1.69.66-1.72,1.68-.02.57,0,1.15,0,1.73ZM284.44,75.15c0-.59.01-1.19,0-1.78-.03-1.02-.71-1.68-1.72-1.68-1.01,0-1.71.65-1.73,1.67-.02,1.19-.02,2.37,0,3.56.02,1.02.71,1.68,1.71,1.68,1.01,0,1.7-.65,1.73-1.67.02-.59,0-1.19,0-1.78ZM305.17,75.09c0,.61-.01,1.22,0,1.83.03,1.02.71,1.67,1.72,1.67,1.01,0,1.7-.66,1.72-1.68.02-1.19.02-2.37,0-3.56-.02-1.02-.71-1.67-1.72-1.67-1.01,0-1.69.66-1.72,1.67-.02.57,0,1.15,0,1.73Z"/>
          <path class="cls-8" d="M298.22,85.49h-6.84v-12.03h6.84v12.03Z"/>
        </g>
      </g>
      <g id="Dl6sI1.tif-2" data-name="Dl6sI1.tif">
        <g>
          <path class="cls-8" d="M280.55,123.81h28.51c.97.34,1.32,1.04,1.31,2.04-.03,2-.01,3.99-.01,5.99v.61c.5,0,.92,0,1.35,0,1.56,0,2.1.55,2.1,2.11,0,11.15,0,22.31,0,33.46v.66c.11.03.14.04.18.04.99,0,1.98.03,2.97,0,1-.04,1.71.33,2.04,1.3v.86c-.34.98-1.04,1.31-2.04,1.31-4.88-.02-9.75,0-14.63,0-.19,0-.38,0-.61,0v-.71c0-4.3,0-8.6,0-12.9,0-1.34-.61-1.94-1.95-1.94-3.29,0-6.59,0-9.88,0-1.41,0-1.99.59-1.99,2.01,0,4.3,0,8.6,0,12.9v.64c-5.28,0-10.48,0-15.68,0-.94,0-1.56-.7-1.59-1.64-.04-1.07.63-1.79,1.7-1.8,1.15-.02,2.29,0,3.48,0,0-.27,0-.49,0-.7,0-11.21,0-22.42,0-33.63,0-1.35.6-1.95,1.94-1.95.5,0,.99,0,1.52,0,0-2.25.02-4.42-.01-6.6-.02-1,.33-1.71,1.31-2.04ZM286.17,132.47c0,.58-.01,1.15,0,1.73.02,1.03.69,1.69,1.69,1.71,1.03.01,1.74-.65,1.75-1.7.02-1.17.02-2.34,0-3.51-.02-1.05-.71-1.72-1.75-1.71-1.01,0-1.68.67-1.7,1.7-.01.59,0,1.19,0,1.78ZM293.08,132.43c0,.61-.02,1.22,0,1.83.03.99.71,1.63,1.7,1.64,1.01,0,1.72-.64,1.74-1.65.02-1.2.02-2.41,0-3.61-.02-.99-.71-1.63-1.7-1.64-1.02,0-1.71.64-1.74,1.65-.02.59,0,1.19,0,1.78ZM299.99,132.42c0,.61-.02,1.22,0,1.83.03.99.71,1.64,1.7,1.65,1.01.01,1.72-.64,1.74-1.65.02-1.2.02-2.41,0-3.61-.02-1.01-.73-1.66-1.75-1.65-.99.01-1.66.66-1.69,1.65-.02.59,0,1.19,0,1.78ZM282.71,141.03c0,.61-.01,1.22,0,1.83.03,1.02.71,1.67,1.72,1.67,1.01,0,1.7-.66,1.72-1.68.02-1.19.02-2.37,0-3.56-.02-1.02-.71-1.67-1.72-1.67-1.01,0-1.69.66-1.72,1.67-.02.57,0,1.15,0,1.73ZM293.08,141.1c0-.59.01-1.19,0-1.78-.03-1.02-.71-1.68-1.72-1.68-1.01,0-1.71.65-1.73,1.67-.02,1.19-.02,2.37,0,3.56.02,1.02.7,1.68,1.71,1.68,1.01,0,1.7-.65,1.73-1.67.02-.59,0-1.19,0-1.78ZM296.54,141.1c0,.59-.01,1.19,0,1.78.03,1.02.72,1.67,1.74,1.66.99,0,1.68-.65,1.71-1.63.03-1.2.02-2.41,0-3.61-.02-1.02-.72-1.67-1.73-1.66-1.01,0-1.68.66-1.71,1.69-.01.59,0,1.19,0,1.78ZM306.9,141.06c0-.59.02-1.19,0-1.78-.04-1.01-.74-1.66-1.75-1.64-.99.01-1.67.66-1.69,1.65-.02,1.2-.02,2.41,0,3.61.02.99.71,1.63,1.7,1.64,1.01.01,1.71-.64,1.75-1.65.02-.61,0-1.22,0-1.83ZM286.17,151.45c0-.59.01-1.19,0-1.78-.03-1.02-.71-1.67-1.72-1.67-1.01,0-1.7.65-1.72,1.67-.02,1.19-.02,2.37,0,3.56.02,1.02.71,1.68,1.72,1.68,1.01,0,1.69-.65,1.72-1.67.02-.59,0-1.19,0-1.78ZM289.63,151.44c0,.59-.01,1.19,0,1.78.03,1.02.7,1.68,1.71,1.68,1.01,0,1.71-.65,1.73-1.67.02-1.19.02-2.37,0-3.56-.02-1.02-.7-1.68-1.71-1.68-1.03,0-1.71.66-1.73,1.72-.01.58,0,1.15,0,1.73ZM296.54,151.44c0,.59-.01,1.19,0,1.78.03,1.02.7,1.68,1.71,1.69,1.01,0,1.72-.64,1.73-1.66.02-1.2.02-2.41,0-3.61-.02-.99-.72-1.63-1.71-1.63-1.01,0-1.71.64-1.74,1.66-.02.59,0,1.19,0,1.78ZM303.45,151.4c0,.61-.01,1.22,0,1.83.03,1.02.71,1.67,1.72,1.67,1.01,0,1.7-.66,1.72-1.68.02-1.19.02-2.37,0-3.56-.02-1.02-.71-1.67-1.72-1.67-1.01,0-1.69.66-1.72,1.68-.02.57,0,1.15,0,1.73ZM284.44,161.83c0-.59.01-1.19,0-1.78-.03-1.02-.71-1.68-1.72-1.68-1.01,0-1.71.65-1.73,1.67-.02,1.19-.02,2.37,0,3.56.02,1.02.71,1.68,1.71,1.68,1.01,0,1.7-.65,1.73-1.67.02-.59,0-1.19,0-1.78ZM305.17,161.77c0,.61-.01,1.22,0,1.83.03,1.02.71,1.67,1.72,1.67,1.01,0,1.7-.66,1.72-1.68.02-1.19.02-2.37,0-3.56-.02-1.02-.71-1.67-1.72-1.67-1.01,0-1.69.66-1.72,1.67-.02.57,0,1.15,0,1.73Z"/>
          <path class="cls-8" d="M298.22,172.16h-6.84v-12.03h6.84v12.03Z"/>
        </g>
      </g>
      <g id="Dl6sI1.tif-3" data-name="Dl6sI1.tif">
        <g>
          <path class="cls-8" d="M280.55,217.23h28.51c.97.34,1.32,1.04,1.31,2.04-.03,2-.01,3.99-.01,5.99v.61c.5,0,.92,0,1.35,0,1.56,0,2.1.55,2.1,2.11,0,11.15,0,22.31,0,33.46v.66c.11.03.14.04.18.04.99,0,1.98.03,2.97,0,1-.04,1.71.33,2.04,1.3v.86c-.34.98-1.04,1.31-2.04,1.31-4.88-.02-9.75,0-14.63,0-.19,0-.38,0-.61,0v-.71c0-4.3,0-8.6,0-12.9,0-1.34-.61-1.94-1.95-1.94-3.29,0-6.59,0-9.88,0-1.41,0-1.99.59-1.99,2.01,0,4.3,0,8.6,0,12.9v.64c-5.28,0-10.48,0-15.68,0-.94,0-1.56-.7-1.59-1.64-.04-1.07.63-1.79,1.7-1.8,1.15-.02,2.29,0,3.48,0,0-.27,0-.49,0-.7,0-11.21,0-22.42,0-33.63,0-1.35.6-1.95,1.94-1.95.5,0,.99,0,1.52,0,0-2.25.02-4.42-.01-6.6-.02-1,.33-1.71,1.31-2.04ZM286.17,225.89c0,.58-.01,1.15,0,1.73.02,1.03.69,1.69,1.69,1.71,1.03.01,1.74-.65,1.75-1.7.02-1.17.02-2.34,0-3.51-.02-1.05-.71-1.72-1.75-1.71-1.01,0-1.68.67-1.7,1.7-.01.59,0,1.19,0,1.78ZM293.08,225.85c0,.61-.02,1.22,0,1.83.03.99.71,1.63,1.7,1.64,1.01,0,1.72-.64,1.74-1.65.02-1.2.02-2.41,0-3.61-.02-.99-.71-1.63-1.7-1.64-1.02,0-1.71.64-1.74,1.65-.02.59,0,1.19,0,1.78ZM299.99,225.85c0,.61-.02,1.22,0,1.83.03.99.71,1.64,1.7,1.65,1.01.01,1.72-.64,1.74-1.65.02-1.2.02-2.41,0-3.61-.02-1.01-.73-1.66-1.75-1.65-.99.01-1.66.66-1.69,1.65-.02.59,0,1.19,0,1.78ZM282.71,234.46c0,.61-.01,1.22,0,1.83.03,1.02.71,1.67,1.72,1.67,1.01,0,1.7-.66,1.72-1.68.02-1.19.02-2.37,0-3.56-.02-1.02-.71-1.67-1.72-1.67-1.01,0-1.69.66-1.72,1.67-.02.57,0,1.15,0,1.73ZM293.08,234.52c0-.59.01-1.19,0-1.78-.03-1.02-.71-1.68-1.72-1.68-1.01,0-1.71.65-1.73,1.67-.02,1.19-.02,2.37,0,3.56.02,1.02.7,1.68,1.71,1.68,1.01,0,1.7-.65,1.73-1.67.02-.59,0-1.19,0-1.78ZM296.54,234.52c0,.59-.01,1.19,0,1.78.03,1.02.72,1.67,1.74,1.66.99,0,1.68-.65,1.71-1.63.03-1.2.02-2.41,0-3.61-.02-1.02-.72-1.67-1.73-1.66-1.01,0-1.68.66-1.71,1.69-.01.59,0,1.19,0,1.78ZM306.9,234.48c0-.59.02-1.19,0-1.78-.04-1.01-.74-1.66-1.75-1.64-.99.01-1.67.66-1.69,1.65-.02,1.2-.02,2.41,0,3.61.02.99.71,1.63,1.7,1.64,1.01.01,1.71-.64,1.75-1.65.02-.61,0-1.22,0-1.83ZM286.17,244.88c0-.59.01-1.19,0-1.78-.03-1.02-.71-1.67-1.72-1.67-1.01,0-1.7.65-1.72,1.67-.02,1.19-.02,2.37,0,3.56.02,1.02.71,1.68,1.72,1.68,1.01,0,1.69-.65,1.72-1.67.02-.59,0-1.19,0-1.78ZM289.63,244.87c0,.59-.01,1.19,0,1.78.03,1.02.7,1.68,1.71,1.68,1.01,0,1.71-.65,1.73-1.67.02-1.19.02-2.37,0-3.56-.02-1.02-.7-1.68-1.71-1.68-1.03,0-1.71.66-1.73,1.72-.01.58,0,1.15,0,1.73ZM296.54,244.86c0,.59-.01,1.19,0,1.78.03,1.02.7,1.68,1.71,1.69,1.01,0,1.72-.64,1.73-1.66.02-1.2.02-2.41,0-3.61-.02-.99-.72-1.63-1.71-1.63-1.01,0-1.71.64-1.74,1.66-.02.59,0,1.19,0,1.78ZM303.45,244.82c0,.61-.01,1.22,0,1.83.03,1.02.71,1.67,1.72,1.67,1.01,0,1.7-.66,1.72-1.68.02-1.19.02-2.37,0-3.56-.02-1.02-.71-1.67-1.72-1.67-1.01,0-1.69.66-1.72,1.68-.02.57,0,1.15,0,1.73ZM284.44,255.25c0-.59.01-1.19,0-1.78-.03-1.02-.71-1.68-1.72-1.68-1.01,0-1.71.65-1.73,1.67-.02,1.19-.02,2.37,0,3.56.02,1.02.71,1.68,1.71,1.68,1.01,0,1.7-.65,1.73-1.67.02-.59,0-1.19,0-1.78ZM305.17,255.19c0,.61-.01,1.22,0,1.83.03,1.02.71,1.67,1.72,1.67,1.01,0,1.7-.66,1.72-1.68.02-1.19.02-2.37,0-3.56-.02-1.02-.71-1.67-1.72-1.67-1.01,0-1.69.66-1.72,1.67-.02.57,0,1.15,0,1.73Z"/>
          <path class="cls-8" d="M298.22,265.58h-6.84v-12.03h6.84v12.03Z"/>
        </g>
      </g>
      <g>
        <path d="M324.99,126.62v-.02c0-1.76,1.33-3.2,3.22-3.2,1.17,0,1.86.39,2.44.95l-.87,1c-.48-.43-.96-.7-1.58-.7-1.04,0-1.79.87-1.79,1.93v.02c0,1.06.73,1.94,1.79,1.94.71,0,1.14-.28,1.63-.72l.87.87c-.64.68-1.34,1.1-2.54,1.1-1.82,0-3.17-1.4-3.17-3.18Z"/>
        <path d="M331.33,127.35v-.02c0-1.36,1.1-2.46,2.57-2.46s2.55,1.09,2.55,2.45v.02c0,1.36-1.1,2.46-2.57,2.46s-2.55-1.09-2.55-2.45ZM335.13,127.35v-.02c0-.7-.5-1.31-1.25-1.31s-1.23.59-1.23,1.29v.02c0,.7.5,1.31,1.25,1.31s1.23-.59,1.23-1.29Z"/>
        <path d="M337.43,124.96h1.34v.67c.31-.4.71-.76,1.39-.76,1.02,0,1.61.67,1.61,1.76v3.07h-1.34v-2.64c0-.64-.3-.96-.81-.96s-.84.33-.84.96v2.64h-1.34v-4.74Z"/>
        <path d="M343.15,128.35v-2.24h-.57v-1.15h.57v-1.21h1.34v1.21h1.11v1.15h-1.11v2.02c0,.31.13.46.43.46.25,0,.47-.06.66-.17v1.08c-.28.17-.61.27-1.06.27-.82,0-1.38-.33-1.38-1.42Z"/>
        <path d="M346.6,124.96h1.34v.95c.27-.65.72-1.08,1.51-1.04v1.4h-.07c-.89,0-1.44.54-1.44,1.67v1.75h-1.34v-4.74Z"/>
        <path d="M349.79,128.33v-.02c0-1.03.79-1.51,1.91-1.51.48,0,.82.08,1.16.19v-.08c0-.56-.34-.87-1.02-.87-.51,0-.87.1-1.31.26l-.34-1.02c.52-.23,1.03-.38,1.84-.38.73,0,1.26.19,1.6.53.35.35.51.87.51,1.51v2.75h-1.3v-.51c-.33.36-.78.6-1.43.6-.89,0-1.63-.51-1.63-1.45ZM352.87,128.02v-.24c-.23-.11-.53-.18-.86-.18-.57,0-.93.23-.93.65v.02c0,.36.3.57.73.57.63,0,1.05-.34,1.05-.83Z"/>
        <path d="M355.08,127.35v-.02c0-1.35,1.03-2.46,2.48-2.46.89,0,1.45.3,1.89.79l-.82.88c-.3-.32-.6-.52-1.08-.52-.67,0-1.15.59-1.15,1.29v.02c0,.72.47,1.31,1.2,1.31.45,0,.76-.19,1.09-.5l.79.8c-.46.5-.99.87-1.94.87-1.42,0-2.46-1.1-2.46-2.45Z"/>
        <path d="M360.57,128.35v-2.24h-.57v-1.15h.57v-1.21h1.34v1.21h1.11v1.15h-1.11v2.02c0,.31.13.46.43.46.25,0,.47-.06.66-.17v1.08c-.28.17-.61.27-1.06.27-.82,0-1.38-.33-1.38-1.42Z"/>
      </g>
      <rect class="cls-6" x="325.24" y="135.98" width="37.81" height="3.44"/>
      <rect class="cls-6" x="325.24" y="142.74" width="37.81" height="3.44"/>
      <rect class="cls-6" x="325.24" y="149.5" width="37.81" height="3.44"/>
      <rect class="cls-6" x="325.24" y="156.26" width="37.81" height="3.44"/>
      <g>
        <path class="cls-2" d="M339.89,179.84c-.84-1.46-3.5-5.93-5.55-9.4-.4.9-.79,1.79-1.18,2.7-.11.27-.27.36-.54.39-1.36.13-2.73.27-4.09.42-.19.02-.4.08-.57.18-1.18.67-2.35,1.35-3.51,2.06-.16.1-.29.13-.43.12-.11-.01-.21-.06-.33-.13-1.06-.64-2.13-1.24-3.19-1.88-.38-.23-.78-.36-1.22-.4-1.22-.11-2.43-.24-3.65-.35-.34-.03-.55-.14-.69-.49-.36-.88-.74-1.75-1.13-2.61-2.05,3.47-4.71,7.94-5.55,9.4-.45.78-.92,1.56-1.39,2.34v.08c2.28-.08,4.56-.16,6.84-.21.14,0,.34.14.42.28,1.04,1.65,2.06,3.32,3.09,4.98.08.12.16.24.26.41,1.12-1.89,4.04-6.96,6.57-11.32,2.53,4.37,5.46,9.43,6.57,11.32.11-.16.19-.28.26-.41,1.03-1.66,2.05-3.33,3.09-4.98.08-.13.28-.28.42-.28,2.28.06,4.56.14,6.84.21v-.08c-.46-.78-.93-1.55-1.39-2.34Z"/>
        <path class="cls-1" d="M315.64,173.53c1.22.1,2.43.24,3.65.35.44.04.83.17,1.22.4,1.06.64,2.13,1.24,3.19,1.88.12.07.23.12.33.13.13.02.27-.02.43-.12,1.16-.7,2.33-1.38,3.51-2.06.17-.1.37-.16.57-.18,1.36-.15,2.73-.29,4.09-.42.27-.03.43-.12.54-.39.38-.9.78-1.8,1.18-2.7.16-.36.32-.71.48-1.07.09-.19.22-.37.37-.51,1.03-.93,2.06-1.85,3.11-2.76.17-.15.23-.29.18-.53-.31-1.36-.6-2.73-.89-4.09-.04-.18-.05-.38,0-.56.29-1.37.58-2.73.89-4.09.06-.27,0-.42-.2-.59-1.03-.9-2.06-1.81-3.07-2.73-.15-.14-.29-.33-.37-.52-.56-1.25-1.12-2.5-1.65-3.76-.11-.27-.27-.36-.54-.38-1.19-.11-2.38-.24-3.57-.34-.57-.05-1.07-.21-1.55-.51-1.03-.63-2.08-1.22-3.12-1.84-.21-.13-.37-.14-.58,0-1.19.71-2.38,1.41-3.58,2.1-.16.09-.35.17-.53.19-1.39.15-2.78.29-4.17.42-.26.02-.4.11-.51.36-.53,1.26-1.09,2.51-1.65,3.76-.09.2-.23.4-.4.55-1.02.92-2.04,1.83-3.08,2.73-.18.16-.25.31-.19.56.19.76.31,1.55.52,2.3.38,1.35.46,2.67.03,4.03-.27.84-.39,1.72-.6,2.66.05.06.11.19.21.28,1,.9,2.01,1.78,3.01,2.69.21.19.4.44.52.7.15.32.29.64.44.97.39.86.77,1.73,1.13,2.61.14.35.34.46.69.49ZM324.09,150.99c5.47.01,9.88,4.45,9.87,9.92-.02,5.47-4.46,9.88-9.93,9.86-5.45-.03-9.84-4.46-9.83-9.91.02-5.45,4.45-9.87,9.88-9.86Z"/>
        <path class="cls-5" d="M324.03,170.77c5.47.03,9.91-4.38,9.93-9.86.02-5.47-4.4-9.91-9.87-9.92-5.43-.01-9.87,4.41-9.88,9.86-.02,5.45,4.38,9.89,9.83,9.91ZM316.6,160.79c.05-4.14,3.47-7.44,7.63-7.38,4.08.05,7.4,3.5,7.33,7.6-.07,4.09-3.48,7.42-7.53,7.37-4.17-.06-7.49-3.45-7.43-7.58Z"/>
        <path class="cls-1" d="M324.04,168.37c4.05.06,7.46-3.28,7.53-7.37.07-4.1-3.26-7.54-7.33-7.6-4.16-.06-7.58,3.25-7.63,7.38-.05,4.13,3.27,7.52,7.43,7.58ZM321.28,159.71c.57.59,1.16,1.2,1.74,1.81,1.31-1.31,2.57-2.58,3.79-3.81.61.61,1.16,1.17,1.7,1.71-1.78,1.78-3.61,3.61-5.41,5.42-1.15-1.15-2.33-2.33-3.47-3.47.52-.52,1.07-1.08,1.65-1.65Z"/>
        <path class="cls-5" d="M328.52,159.42c-.54-.54-1.09-1.1-1.7-1.71-1.23,1.23-2.49,2.5-3.79,3.81-.58-.61-1.17-1.22-1.74-1.81-.58.58-1.13,1.13-1.65,1.65,1.14,1.14,2.32,2.32,3.47,3.47,1.8-1.81,3.63-3.64,5.41-5.42Z"/>
      </g>
    </g>
  </g>
</svg>