<?xml version="1.0" encoding="UTF-8"?>
<svg xmlns="http://www.w3.org/2000/svg" xmlns:xlink="http://www.w3.org/1999/xlink" version="1.1" viewBox="0 0 188.94 155.69">
  <defs>
    <style>
      .cls-1 {
        fill: #db4d25;
      }

      .cls-2 {
        fill: #f0cb48;
      }

      .cls-3 {
        fill: #fff;
      }

      .cls-4 {
        fill: #cfd7db;
      }

      .cls-5, .cls-6 {
        stroke: #fff;
        stroke-miterlimit: 10;
      }

      .cls-7 {
        fill: #ebeff2;
        filter: url(#drop-shadow-1);
      }

      .cls-8 {
        fill: #3874b6;
      }

      .cls-6 {
        fill: none;
        stroke-width: 2px;
      }
    </style>
    <filter id="drop-shadow-1" filterUnits="userSpaceOnUse">
      <feOffset dx="3.6" dy="3.6"/>
      <feGaussianBlur result="blur" stdDeviation="1.44"/>
      <feFlood flood-color="#000" flood-opacity=".4"/>
      <feComposite in2="blur" operator="in"/>
      <feComposite in="SourceGraphic"/>
    </filter>
  </defs>
  <!-- Generator: Adobe Illustrator 28.6.0, SVG Export Plug-In . SVG Version: 1.2.0 Build 709)  -->
  <g>
    <g id="Layer_1">
      <rect class="cls-7" x="58.17" y="40.21" width="71.63" height="82.03" rx="5.13" ry="5.13"/>
      <path class="cls-3" d="M129.98,105.44v-59.99c0-2.9-2.35-5.25-5.25-5.25h-61.31c-2.9,0-5.25,2.35-5.25,5.25v59.99h71.81Z"/>
      <path class="cls-4" d="M124.73,40.7c2.62,0,4.75,2.13,4.75,4.75v71.55c0,2.62-2.13,4.75-4.75,4.75h-61.31c-2.62,0-4.75-2.13-4.75-4.75V45.45c0-2.62,2.13-4.75,4.75-4.75h61.31M124.73,40.2h-61.31c-2.9,0-5.25,2.35-5.25,5.25v71.55c0,2.9,2.35,5.25,5.25,5.25h61.31c2.9,0,5.25-2.35,5.25-5.25V45.45c0-2.9-2.35-5.25-5.25-5.25h0Z"/>
      <g id="Dl6sI1.tif">
        <g>
          <path class="cls-8" d="M82.08,50.42h23.99c.82.28,1.11.87,1.1,1.72-.03,1.68,0,3.36,0,5.04v.51c.42,0,.78,0,1.14,0,1.31,0,1.77.46,1.77,1.78,0,9.39,0,18.77,0,28.16v.55c.09.02.12.04.15.04.83,0,1.67.03,2.5,0,.84-.03,1.44.28,1.72,1.1v.73c-.28.82-.88,1.1-1.72,1.1-4.1-.02-8.21,0-12.31,0-.16,0-.32,0-.51,0v-.6c0-3.62,0-7.24,0-10.86,0-1.12-.51-1.63-1.64-1.63-2.77,0-5.54,0-8.31,0-1.18,0-1.67.49-1.67,1.69,0,3.62,0,7.24,0,10.86v.54c-4.45,0-8.82,0-13.2,0-.79,0-1.31-.59-1.34-1.38-.03-.9.53-1.5,1.43-1.52.96-.01,1.93,0,2.93,0,0-.23,0-.41,0-.59,0-9.43,0-18.87,0-28.3,0-1.13.51-1.64,1.63-1.64.42,0,.83,0,1.28,0,0-1.89.02-3.72,0-5.55-.01-.84.28-1.43,1.1-1.72ZM86.8,57.71c0,.48,0,.97,0,1.45.02.87.58,1.42,1.42,1.44.87.01,1.46-.55,1.48-1.43.02-.98.01-1.97,0-2.95-.01-.89-.6-1.44-1.47-1.44-.85,0-1.41.56-1.43,1.43-.01.5,0,1,0,1.5ZM92.62,57.67c0,.51-.01,1.03,0,1.54.03.83.6,1.37,1.43,1.38.85,0,1.45-.54,1.46-1.39.02-1.01.02-2.03,0-3.04-.02-.83-.6-1.37-1.43-1.38-.85,0-1.44.54-1.47,1.39-.02.5,0,1,0,1.5ZM98.44,57.67c0,.51-.01,1.03,0,1.54.03.83.6,1.38,1.43,1.39.85,0,1.45-.54,1.47-1.39.02-1.01.02-2.03,0-3.04-.02-.85-.62-1.39-1.47-1.38-.83,0-1.4.55-1.42,1.39-.02.5,0,1,0,1.5ZM83.9,64.91c0,.51-.01,1.03,0,1.54.02.86.6,1.41,1.45,1.41.85,0,1.43-.55,1.45-1.41.02-1,.02-2,0-3-.01-.86-.6-1.41-1.45-1.41-.85,0-1.43.55-1.45,1.41-.01.48,0,.97,0,1.45ZM92.62,64.97c0-.5.01-1,0-1.5-.02-.86-.59-1.41-1.44-1.42-.85,0-1.44.55-1.45,1.4-.02,1-.02,2,0,3,.01.86.59,1.41,1.44,1.42.85,0,1.43-.55,1.46-1.4.02-.5,0-1,0-1.5ZM95.53,64.97c0,.5-.01,1,0,1.5.03.85.61,1.4,1.46,1.4.83,0,1.42-.55,1.44-1.38.02-1.01.02-2.03,0-3.04-.02-.86-.61-1.4-1.46-1.4-.85,0-1.42.56-1.44,1.42-.01.5,0,1,0,1.5ZM104.25,64.93c0-.5.01-1,0-1.5-.03-.85-.62-1.39-1.47-1.38-.83.01-1.41.55-1.42,1.39-.02,1.01-.02,2.03,0,3.04.02.83.6,1.38,1.43,1.38.85,0,1.44-.54,1.47-1.39.02-.51,0-1.03,0-1.54ZM86.8,73.68c0-.5.01-1,0-1.5-.02-.86-.6-1.41-1.45-1.41-.85,0-1.43.55-1.45,1.41-.02,1-.02,2,0,3,.01.86.6,1.41,1.45,1.41.85,0,1.43-.55,1.45-1.41.01-.5,0-1,0-1.5ZM89.71,73.67c0,.5-.01,1,0,1.5.02.86.59,1.41,1.44,1.42.85,0,1.44-.55,1.46-1.4.02-1,.02-2,0-3-.01-.86-.59-1.41-1.44-1.42-.87,0-1.44.56-1.46,1.45,0,.48,0,.97,0,1.45ZM95.53,73.67c0,.5-.01,1,0,1.5.02.86.59,1.42,1.44,1.42.85,0,1.44-.54,1.46-1.4.02-1.01.02-2.03,0-3.04-.02-.83-.6-1.37-1.44-1.38-.85,0-1.44.54-1.46,1.4-.02.5,0,1,0,1.5ZM101.34,73.64c0,.51-.01,1.03,0,1.54.02.86.6,1.41,1.45,1.41.85,0,1.43-.55,1.45-1.41.02-1,.02-2,0-3-.02-.86-.6-1.41-1.45-1.41-.85,0-1.42.55-1.45,1.41-.01.48,0,.97,0,1.45ZM85.35,82.41c0-.5.01-1,0-1.5-.02-.86-.59-1.41-1.44-1.41-.85,0-1.44.55-1.45,1.4-.02,1-.02,2,0,3,.01.86.59,1.41,1.44,1.42.85,0,1.43-.55,1.46-1.4.02-.5,0-1,0-1.5ZM102.8,82.36c0,.51-.01,1.03,0,1.54.02.86.6,1.41,1.45,1.41.85,0,1.43-.55,1.45-1.41.02-1,.02-2,0-3-.01-.86-.6-1.41-1.45-1.41-.85,0-1.43.55-1.45,1.41-.01.48,0,.97,0,1.45Z"/>
          <path class="cls-8" d="M96.95,91.11h-5.76v-10.12h5.76v10.12Z"/>
        </g>
      </g>
      <path class="cls-4" d="M58.17,103v14c0,2.9,2.35,5.25,5.25,5.25h61.31c2.9,0,5.25-2.35,5.25-5.25v-14H58.17Z"/>
      <rect class="cls-1" x="65.42" y="107.64" width="57.3" height="9.63" rx="2" ry="2"/>
      <g>
        <path class="cls-3" d="M70.49,111.01h.74l.82,1.32.82-1.32h.74v3.12h-.68v-2.04l-.88,1.33h-.02l-.87-1.32v2.02h-.67v-3.12Z"/>
        <path class="cls-3" d="M75.43,110.98h.63l1.34,3.14h-.72l-.29-.7h-1.32l-.29.7h-.7l1.34-3.14ZM76.16,112.82l-.41-1.01-.41,1.01h.83Z"/>
        <path class="cls-3" d="M77.89,111.01h.69v1.36l1.27-1.36h.83l-1.27,1.32,1.33,1.8h-.82l-.97-1.33-.36.38v.95h-.69v-3.12Z"/>
        <path class="cls-3" d="M81.15,111.01h2.35v.61h-1.67v.63h1.47v.61h-1.47v.66h1.69v.61h-2.38v-3.12Z"/>
        <path class="cls-3" d="M85.48,111.01h1.43c.4,0,.7.11.91.32.17.17.27.42.27.71h0c0,.51-.27.83-.67.98l.76,1.11h-.8l-.67-1h-.54v1h-.69v-3.12ZM86.86,112.52c.33,0,.53-.18.53-.44h0c0-.3-.21-.46-.54-.46h-.68v.9h.69Z"/>
        <path class="cls-3" d="M88.7,111.01h2.35v.61h-1.67v.63h1.47v.61h-1.47v.66h1.69v.61h-2.37v-3.12Z"/>
        <path class="cls-3" d="M91.48,113.67l.41-.49c.28.23.57.38.93.38.28,0,.45-.11.45-.29h0c0-.18-.11-.27-.63-.41-.63-.16-1.03-.33-1.03-.95h0c0-.57.45-.95,1.09-.95.45,0,.84.14,1.16.4l-.36.52c-.28-.19-.55-.31-.81-.31s-.4.12-.4.27h0c0,.21.13.28.67.42.63.17.99.39.99.94h0c0,.63-.47.98-1.15.98-.47,0-.95-.17-1.32-.5Z"/>
        <path class="cls-3" d="M94.55,111.01h2.35v.61h-1.67v.63h1.47v.61h-1.47v.66h1.69v.61h-2.38v-3.12Z"/>
        <path class="cls-3" d="M97.54,111.01h1.43c.4,0,.7.11.91.32.17.17.27.42.27.71h0c0,.51-.27.83-.67.98l.76,1.11h-.8l-.67-1h-.54v1h-.69v-3.12ZM98.92,112.52c.33,0,.53-.18.53-.44h0c0-.3-.21-.46-.54-.46h-.68v.9h.69Z"/>
        <path class="cls-3" d="M100.41,111.01h.76l.82,2.2.82-2.2h.74l-1.26,3.14h-.61l-1.26-3.14Z"/>
        <path class="cls-3" d="M104.64,110.98h.63l1.34,3.14h-.72l-.29-.7h-1.32l-.29.7h-.7l1.34-3.14ZM105.36,112.82l-.41-1.01-.41,1.01h.83Z"/>
        <path class="cls-3" d="M107.42,111.64h-.95v-.63h2.58v.63h-.95v2.49h-.69v-2.49Z"/>
        <path class="cls-3" d="M109.62,111.01h.69v3.12h-.69v-3.12Z"/>
        <path class="cls-3" d="M110.95,112.58h0c0-.9.7-1.62,1.66-1.62s1.65.72,1.65,1.6h0c0,.9-.7,1.62-1.66,1.62s-1.65-.72-1.65-1.6ZM113.55,112.58h0c0-.54-.39-.99-.94-.99s-.94.44-.94.97h0c0,.54.39.99.94.99s.94-.44.94-.97Z"/>
        <path class="cls-3" d="M114.88,111.01h.63l1.46,1.92v-1.92h.68v3.12h-.58l-1.51-1.98v1.98h-.68v-3.12Z"/>
      </g>
      <circle class="cls-2" cx="142.58" cy="77.2" r="24.98"/>
      <path class="cls-6" d="M125.66,83.39c-.71-1.93-1.09-4.02-1.09-6.2,0-9.96,8.07-18.03,18.03-18.03"/>
      <path class="cls-6" d="M159.72,71.56c.58,1.77.9,3.67.9,5.63,0,9.96-8.07,18.03-18.03,18.03"/>
      <path class="cls-3" d="M141.71,87.24c-2.85-.29-5.68-1.31-7.86-2.88l2.62-3.87c1.86,1.31,3.61,2.1,5.42,2.39v-3.5c-4.69-1.08-7.08-2.68-7.08-6.29v-.06c0-3.44,2.5-5.83,6.96-6.15v-1.66h3.03v1.75c2.39.26,4.4,1.08,6.15,2.27l-2.39,3.9c-1.19-.84-2.59-1.43-3.9-1.75v3.38c4.63,1.08,6.96,2.74,6.96,6.35v.06c0,3.55-2.74,5.74-6.88,6.12v2.85h-3.03v-2.91ZM141.91,71.14c-1.43.12-1.98.7-1.98,1.46v.06c0,.76.41,1.19,1.98,1.63v-3.15ZM146.57,81.56v-.06c0-.79-.44-1.22-1.95-1.66v3.2c1.34-.15,1.95-.64,1.95-1.49Z"/>
      <polygon class="cls-5" points="49.44 119.21 65.79 85.91 28.77 88.4 41.75 97.5 24.18 109.28 28.37 115.54 45.94 103.76 49.44 119.21"/>
      <polygon class="cls-3" points="157.68 66.36 156.97 73.19 162.48 71.27 157.68 66.36"/>
      <polygon class="cls-3" points="127.73 89 128.43 82.17 122.93 84.09 127.73 89"/>
    </g>
  </g>
</svg>