<?xml version="1.0" encoding="UTF-8"?>
<svg xmlns="http://www.w3.org/2000/svg" xmlns:xlink="http://www.w3.org/1999/xlink" version="1.1" viewBox="0 0 574.69 357.87">
  <defs>
    <style>
      .cls-1 {
        fill: #f1ce46;
      }

      .cls-2 {
        filter: url(#drop-shadow-1);
      }

      .cls-3 {
        fill: #231f20;
      }

      .cls-4 {
        fill: none;
        stroke: #231f20;
        stroke-miterlimit: 10;
        stroke-width: 2px;
      }

      .cls-5 {
        font-family: Gotham-Bold, Gotham;
        font-size: 8.84px;
        font-weight: 700;
      }

      .cls-5, .cls-6 {
        fill: #fff;
      }

      .cls-7 {
        fill: #cfd6da;
      }

      .cls-8 {
        fill: #ebeef1;
      }

      .cls-9 {
        fill: #e9ca60;
      }

      .cls-10 {
        fill: #60d092;
      }

      .cls-11 {
        fill: #3874b4;
      }

      .cls-12 {
        fill: #d94d25;
      }
    </style>
    <filter id="drop-shadow-1" filterUnits="userSpaceOnUse">
      <feOffset dx="3.6" dy="3.6"/>
      <feGaussianBlur result="blur" stdDeviation="1.44"/>
      <feFlood flood-color="#000" flood-opacity=".4"/>
      <feComposite in2="blur" operator="in"/>
      <feComposite in="SourceGraphic"/>
    </filter>
  </defs>
  <!-- Generator: Adobe Illustrator 28.6.0, SVG Export Plug-In . SVG Version: 1.2.0 Build 709)  -->
  <g>
    <g id="Layer_1">
      <line class="cls-4" x1="166.53" y1="180.24" x2="124.17" y2="180.24"/>
      <polygon class="cls-3" points="170.38 180.22 163.6 175.06 163.6 185.37 170.38 180.22"/>
      <circle class="cls-12" cx="75.53" cy="180.54" r="52.03"/>
      <g>
        <path class="cls-6" d="M39.89,165.56v-.07c0-7.2,5.65-12.85,13.31-12.85,4.34,0,7.41,1.34,10.02,3.6l-4.02,4.83c-1.76-1.48-3.53-2.33-5.96-2.33-3.56,0-6.32,3-6.32,6.78v.07c0,3.99,2.79,6.85,6.71,6.85,1.66,0,2.93-.35,3.95-1.02v-3h-4.87v-5.01h11.37v11.12c-2.61,2.15-6.25,3.81-10.73,3.81-7.69,0-13.45-5.29-13.45-12.78Z"/>
        <path class="cls-6" d="M67.89,153.13h10.59c6.25,0,10.27,3.21,10.27,8.68v.07c0,5.82-4.48,8.89-10.62,8.89h-3.39v7.06h-6.85v-24.71ZM77.98,165.42c2.44,0,3.92-1.27,3.92-3.21v-.07c0-2.12-1.48-3.25-3.95-3.25h-3.21v6.53h3.25Z"/>
        <path class="cls-6" d="M89.77,174.17l3.81-4.55c2.44,1.94,5.15,2.96,8.01,2.96,1.84,0,2.82-.64,2.82-1.69v-.07c0-1.02-.81-1.59-4.17-2.36-5.26-1.2-9.32-2.68-9.32-7.76v-.07c0-4.59,3.63-7.91,9.56-7.91,4.2,0,7.48,1.13,10.17,3.28l-3.42,4.83c-2.26-1.59-4.73-2.44-6.92-2.44-1.66,0-2.47.71-2.47,1.59v.07c0,1.13.85,1.62,4.27,2.4,5.68,1.24,9.21,3.07,9.21,7.69v.07c0,5.05-3.99,8.05-9.99,8.05-4.38,0-8.54-1.38-11.58-4.09Z"/>
      </g>
      <g>
        <path class="cls-6" d="M35.42,181.07h6.85v18.71h11.96v6h-18.81v-24.71Z"/>
        <path class="cls-6" d="M57.31,181.07h6.88v24.71h-6.88v-24.71Z"/>
        <path class="cls-6" d="M68.71,181.07h6.39l10.17,13.06v-13.06h6.78v24.71h-6l-10.55-13.55v13.55h-6.78v-24.71Z"/>
        <path class="cls-6" d="M96.41,181.07h6.85v10.02l8.51-10.02h8.12l-9.35,10.62,9.67,14.08h-8.22l-6.21-9.18-2.51,2.79v6.39h-6.85v-24.71Z"/>
      </g>
      <circle class="cls-10" cx="144.35" cy="179.91" r="10.19"/>
      <g>
        <rect class="cls-6" x="137.65" y="178.51" width="13.16" height="3.23"/>
        <rect class="cls-6" x="142.62" y="173.55" width="3.23" height="13.16"/>
      </g>
      <g class="cls-2">
        <g>
          <rect class="cls-8" x="180.06" y="51.2" width="355.08" height="247.52" rx="5.36" ry="5.36"/>
          <path class="cls-9" d="M535.14,72.47v-15.91c0-2.96-2.4-5.36-5.36-5.36H185.43c-2.96,0-5.36,2.4-5.36,5.36v15.91h355.08Z"/>
          <rect class="cls-7" x="180.06" y="72.86" width="93.91" height="66.36"/>
          <path class="cls-7" d="M185.43,298.72h88.54V110.77h-93.91v182.59c0,2.96,2.4,5.36,5.36,5.36Z"/>
          <path class="cls-6" d="M276.01,72.86v225.86h253.76c2.96,0,5.36-2.4,5.36-5.36V72.86h-259.13Z"/>
          <rect class="cls-8" x="283.15" y="100.53" width="67.73" height="173.81"/>
          <rect class="cls-7" x="283.15" y="80.52" width="71.81" height="5.76"/>
          <rect class="cls-7" x="366.29" y="101.47" width="152.63" height="5.76"/>
          <rect class="cls-7" x="366.29" y="114.22" width="152.63" height="5.76"/>
          <rect class="cls-7" x="366.29" y="126.97" width="152.63" height="5.76"/>
          <rect class="cls-7" x="366.29" y="139.71" width="152.63" height="5.76"/>
          <rect class="cls-7" x="366.29" y="152.46" width="152.63" height="5.76"/>
          <rect class="cls-6" x="188.38" y="80.52" width="52.19" height="5.76"/>
          <g>
            <rect class="cls-6" x="188.38" y="105.46" width="12.7" height="5.76"/>
            <rect class="cls-6" x="207.74" y="105.46" width="58.09" height="5.76"/>
          </g>
          <g>
            <rect class="cls-6" x="188.38" y="120.09" width="12.7" height="5.76"/>
            <rect class="cls-6" x="207.74" y="120.09" width="58.09" height="5.76"/>
          </g>
          <g>
            <rect class="cls-6" x="188.38" y="134.73" width="12.7" height="5.76"/>
            <rect class="cls-6" x="207.74" y="134.73" width="58.09" height="5.76"/>
          </g>
          <g>
            <rect class="cls-6" x="188.38" y="149.36" width="12.7" height="5.76"/>
            <rect class="cls-6" x="207.74" y="149.36" width="58.09" height="5.76"/>
          </g>
          <g>
            <rect class="cls-6" x="188.38" y="163.99" width="12.7" height="5.76"/>
            <rect class="cls-6" x="207.74" y="163.99" width="58.09" height="5.76"/>
          </g>
          <g>
            <rect class="cls-6" x="188.38" y="178.62" width="12.7" height="5.76"/>
            <rect class="cls-6" x="207.74" y="178.62" width="58.09" height="5.76"/>
          </g>
          <g>
            <rect class="cls-6" x="188.38" y="193.25" width="12.7" height="5.76"/>
            <rect class="cls-6" x="207.74" y="193.25" width="58.09" height="5.76"/>
          </g>
          <g>
            <rect class="cls-6" x="188.38" y="207.88" width="12.7" height="5.76"/>
            <rect class="cls-6" x="207.74" y="207.88" width="58.09" height="5.76"/>
          </g>
          <circle class="cls-6" cx="191.48" cy="63.9" r="3.1"/>
          <circle class="cls-6" cx="201.04" cy="63.9" r="3.1"/>
          <circle class="cls-6" cx="210.59" cy="63.9" r="3.1"/>
          <g>
            <g>
              <path class="cls-11" d="M317.37,135.43v22.75c-12.57,0-22.75-10.19-22.75-22.75s10.19-22.75,22.75-22.75h0v22.75Z"/>
              <path class="cls-12" d="M317.37,135.43l19.71,11.38c-4.18,7.25-11.34,11.38-19.71,11.38v-22.75Z"/>
              <path class="cls-9" d="M317.37,135.43v-22.75c12.57,0,22.75,10.19,22.75,22.75,0,4.18-.96,7.75-3.05,11.38l-19.71-11.38Z"/>
            </g>
            <g>
              <path class="cls-11" d="M317.37,189.77l-21.07-2.21c1.13-10.74,10.27-18.97,21.07-18.97v21.18Z"/>
              <path class="cls-12" d="M317.37,189.77l19.91,7.25c-4,10.99-16.16,16.66-27.15,12.66-9.3-3.39-14.86-12.28-13.82-22.12l21.07,2.21Z"/>
              <path class="cls-9" d="M317.37,189.77v-21.18c11.7,0,21.18,9.48,21.18,21.18,0,2.69-.36,4.72-1.28,7.25l-19.91-7.25Z"/>
            </g>
            <g>
              <path class="cls-11" d="M317.37,244.13l-9.8-19.23c3.14-1.6,6.27-2.35,9.8-2.35v21.59Z"/>
              <path class="cls-12" d="M317.37,244.13l-7.38,20.29c-11.2-4.08-16.98-16.47-12.9-27.67,1.96-5.39,5.38-9.25,10.48-11.85l9.8,19.23Z"/>
              <path class="cls-9" d="M317.37,244.13v-21.59c11.92,0,21.59,9.66,21.59,21.59s-9.66,21.59-21.59,21.59c-2.65,0-4.9-.4-7.38-1.3l7.38-20.29Z"/>
            </g>
          </g>
          <rect class="cls-12" x="386.79" y="208.94" width="5.32" height="67.51"/>
          <rect class="cls-9" x="381.47" y="236.31" width="5.32" height="40.13"/>
          <rect class="cls-11" x="392.11" y="252.56" width="5.32" height="23.88"/>
          <rect class="cls-12" x="422.71" y="238.16" width="5.32" height="38.28"/>
          <rect class="cls-9" x="417.39" y="216.2" width="5.32" height="60.25"/>
          <rect class="cls-11" x="428.03" y="243.79" width="5.32" height="32.65"/>
          <rect class="cls-12" x="458.62" y="230.09" width="5.32" height="46.36"/>
          <rect class="cls-9" x="453.3" y="251.29" width="5.32" height="25.15"/>
          <rect class="cls-11" x="463.94" y="209.94" width="5.32" height="66.51"/>
          <rect class="cls-12" x="494.54" y="233.22" width="5.32" height="43.23"/>
          <rect class="cls-9" x="489.22" y="202.26" width="5.32" height="74.18"/>
          <rect class="cls-11" x="499.86" y="222.84" width="5.32" height="53.6"/>
          <g>
            <polygon class="cls-11" points="517.2 88.58 524.35 80.2 510.05 80.2 517.2 88.58"/>
            <rect class="cls-11" x="515.99" y="83.75" width="2.42" height="6.82"/>
          </g>
        </g>
        <text class="cls-5" transform="translate(220.19 65.76)"><tspan x="0" y="0">Reporting</tspan></text>
      </g>
      <rect class="cls-8" x="180.09" y="52" width="355.08" height="247.52" rx="5.36" ry="5.36"/>
      <path class="cls-1" d="M535.17,73.28v-15.91c0-2.96-2.4-5.36-5.36-5.36H185.45c-2.96,0-5.36,2.4-5.36,5.36v15.91h355.08Z"/>
      <g>
        <path class="cls-6" d="M191.47,61.37h2.83c.79,0,1.4.22,1.8.63.34.34.53.83.53,1.41v.02c0,1-.54,1.63-1.33,1.92l1.51,2.21h-1.59l-1.33-1.98h-1.07v1.98h-1.36v-6.18ZM194.21,64.38c.66,0,1.04-.35,1.04-.87v-.02c0-.58-.41-.88-1.07-.88h-1.35v1.78h1.38Z"/>
        <path class="cls-6" d="M197.41,65.22v-.02c0-1.36,1.1-2.46,2.57-2.46s2.55,1.09,2.55,2.45v.02c0,1.36-1.1,2.46-2.57,2.46s-2.55-1.09-2.55-2.45ZM201.2,65.22v-.02c0-.7-.5-1.31-1.25-1.31s-1.23.59-1.23,1.29v.02c0,.7.5,1.31,1.25,1.31s1.23-.59,1.23-1.29Z"/>
        <path class="cls-6" d="M203.27,65.22v-.02c0-1.36,1.1-2.46,2.57-2.46s2.55,1.09,2.55,2.45v.02c0,1.36-1.1,2.46-2.57,2.46s-2.55-1.09-2.55-2.45ZM207.07,65.22v-.02c0-.7-.5-1.31-1.25-1.31s-1.23.59-1.23,1.29v.02c0,.7.5,1.31,1.25,1.31s1.23-.59,1.23-1.29Z"/>
        <path class="cls-6" d="M209.37,62.82h1.34v.67c.31-.4.71-.76,1.4-.76.62,0,1.09.27,1.33.75.42-.49.91-.75,1.55-.75,1,0,1.6.6,1.6,1.74v3.08h-1.34v-2.64c0-.64-.28-.96-.79-.96s-.81.33-.81.96v2.64h-1.34v-2.64c0-.64-.28-.96-.79-.96s-.81.33-.81.96v2.64h-1.34v-4.74Z"/>
        <path class="cls-6" d="M220.56,61.37h1.47l1.63,2.62,1.63-2.62h1.47v6.18h-1.35v-4.04l-1.74,2.64h-.04l-1.72-2.62v4.01h-1.33v-6.18Z"/>
        <path class="cls-6" d="M227.81,66.2v-.02c0-1.03.79-1.51,1.91-1.51.48,0,.82.08,1.16.19v-.08c0-.56-.34-.87-1.02-.87-.51,0-.88.1-1.31.26l-.34-1.02c.52-.23,1.03-.38,1.84-.38.73,0,1.26.19,1.6.53.35.35.51.87.51,1.51v2.75h-1.3v-.51c-.33.36-.78.6-1.43.6-.89,0-1.63-.51-1.63-1.45ZM230.89,65.89v-.24c-.23-.11-.53-.18-.86-.18-.57,0-.93.23-.93.65v.02c0,.36.3.57.73.57.63,0,1.05-.34,1.05-.83Z"/>
        <path class="cls-6" d="M233.32,62.82h1.34v.67c.31-.4.71-.76,1.39-.76,1.02,0,1.61.67,1.61,1.76v3.07h-1.34v-2.64c0-.64-.3-.96-.81-.96s-.84.33-.84.96v2.64h-1.34v-4.74Z"/>
        <path class="cls-6" d="M238.55,66.2v-.02c0-1.03.79-1.51,1.91-1.51.48,0,.82.08,1.16.19v-.08c0-.56-.34-.87-1.02-.87-.51,0-.88.1-1.31.26l-.34-1.02c.52-.23,1.03-.38,1.84-.38.73,0,1.26.19,1.6.53.35.35.51.87.51,1.51v2.75h-1.3v-.51c-.33.36-.78.6-1.43.6-.89,0-1.63-.51-1.63-1.45ZM241.63,65.89v-.24c-.23-.11-.53-.18-.86-.18-.57,0-.93.23-.93.65v.02c0,.36.3.57.73.57.63,0,1.05-.34,1.05-.83Z"/>
        <path class="cls-6" d="M244.09,68.5l.46-1.01c.49.27.97.43,1.6.43.92,0,1.35-.44,1.35-1.29v-.23c-.4.48-.83.77-1.55.77-1.1,0-2.1-.8-2.1-2.21v-.02c0-1.41,1.02-2.21,2.1-2.21.73,0,1.17.31,1.53.71v-.62h1.34v3.67c0,.85-.2,1.47-.6,1.86-.44.44-1.12.64-2.04.64-.77,0-1.49-.18-2.09-.49ZM247.5,64.96v-.02c0-.65-.5-1.1-1.16-1.1s-1.15.45-1.15,1.1v.02c0,.65.5,1.1,1.15,1.1s1.16-.45,1.16-1.1Z"/>
        <path class="cls-6" d="M249.8,65.22v-.02c0-1.35.96-2.46,2.34-2.46,1.58,0,2.31,1.23,2.31,2.57,0,.11,0,.23-.02.35h-3.29c.13.61.56.93,1.16.93.45,0,.78-.14,1.15-.49l.77.68c-.44.55-1.08.88-1.93.88-1.42,0-2.47-1-2.47-2.45ZM253.14,64.82c-.08-.6-.43-1.01-1-1.01s-.92.4-1.02,1.01h2.02Z"/>
        <path class="cls-6" d="M255.44,62.82h1.34v.67c.31-.4.72-.76,1.4-.76.62,0,1.09.27,1.33.75.42-.49.91-.75,1.55-.75,1,0,1.6.6,1.6,1.74v3.08h-1.34v-2.64c0-.64-.28-.96-.79-.96s-.81.33-.81.96v2.64h-1.34v-2.64c0-.64-.28-.96-.79-.96s-.81.33-.81.96v2.64h-1.34v-4.74Z"/>
        <path class="cls-6" d="M263.61,65.22v-.02c0-1.35.96-2.46,2.34-2.46,1.58,0,2.31,1.23,2.31,2.57,0,.11,0,.23-.02.35h-3.3c.13.61.56.93,1.16.93.45,0,.78-.14,1.15-.49l.77.68c-.44.55-1.08.88-1.94.88-1.42,0-2.47-1-2.47-2.45ZM266.95,64.82c-.08-.6-.43-1.01-1-1.01s-.92.4-1.03,1.01h2.02Z"/>
        <path class="cls-6" d="M269.26,62.82h1.34v.67c.31-.4.71-.76,1.39-.76,1.02,0,1.61.67,1.61,1.76v3.07h-1.34v-2.64c0-.64-.3-.96-.81-.96s-.84.33-.84.96v2.64h-1.34v-4.74Z"/>
        <path class="cls-6" d="M274.99,66.22v-2.24h-.57v-1.15h.57v-1.21h1.34v1.21h1.11v1.15h-1.11v2.02c0,.31.13.46.43.46.25,0,.47-.06.66-.17v1.08c-.28.17-.61.27-1.06.27-.82,0-1.38-.33-1.38-1.42Z"/>
      </g>
      <rect class="cls-6" x="180.09" y="73.66" width="93.91" height="35.59"/>
      <path class="cls-6" d="M185.45,299.53h88.54V111.57h-93.91v182.59c0,2.96,2.4,5.36,5.36,5.36Z"/>
      <rect class="cls-6" x="276.04" y="73.66" width="259.13" height="35.59"/>
      <rect class="cls-7" x="283.18" y="81.32" width="71.81" height="5.76"/>
      <rect class="cls-7" x="283.18" y="120.34" width="52.2" height="5.76"/>
      <g>
        <path class="cls-7" d="M340.58,92.13c1.29,0,2.34,1.05,2.34,2.34v5.94c0,1.29-1.05,2.34-2.34,2.34h-54.56c-1.29,0-2.34-1.05-2.34-2.34v-5.94c0-1.29,1.05-2.34,2.34-2.34h54.56M340.58,91.63h-54.56c-1.57,0-2.84,1.27-2.84,2.84v5.94c0,1.57,1.27,2.84,2.84,2.84h54.56c1.57,0,2.84-1.27,2.84-2.84v-5.94c0-1.57-1.27-2.84-2.84-2.84h0Z"/>
        <polygon class="cls-7" points="337.66 99.85 340.12 95.59 335.2 95.59 337.66 99.85"/>
      </g>
      <rect class="cls-7" x="188.4" y="81.32" width="29.85" height="5.76"/>
      <rect class="cls-7" x="193.97" y="129.21" width="66.71" height="5.76"/>
      <rect class="cls-7" x="193.97" y="142.84" width="66.71" height="5.76"/>
      <rect class="cls-7" x="193.97" y="155.48" width="66.71" height="5.76"/>
      <rect class="cls-7" x="193.97" y="169.11" width="66.71" height="5.76"/>
      <rect class="cls-7" x="193.97" y="182.25" width="66.71" height="5.76"/>
      <rect class="cls-7" x="193.97" y="195.88" width="66.71" height="5.76"/>
      <rect class="cls-7" x="193.97" y="208.52" width="66.71" height="5.76"/>
      <rect class="cls-7" x="193.97" y="222.15" width="66.71" height="5.76"/>
      <g>
        <path class="cls-7" d="M263.21,92.13c1.29,0,2.34,1.05,2.34,2.34v5.94c0,1.29-1.05,2.34-2.34,2.34h-72.07c-1.29,0-2.34-1.05-2.34-2.34v-5.94c0-1.29,1.05-2.34,2.34-2.34h72.07M263.21,91.63h-72.07c-1.57,0-2.84,1.27-2.84,2.84v5.94c0,1.57,1.27,2.84,2.84,2.84h72.07c1.57,0,2.84-1.27,2.84-2.84v-5.94c0-1.57-1.27-2.84-2.84-2.84h0Z"/>
        <polygon class="cls-7" points="260.29 99.85 262.75 95.59 257.83 95.59 260.29 99.85"/>
      </g>
      <path class="cls-7" d="M263.21,120.4c1.29,0,2.34,1.05,2.34,2.34v114.02c0,1.29-1.05,2.34-2.34,2.34h-72.07c-1.29,0-2.34-1.05-2.34-2.34v-114.02c0-1.29,1.05-2.34,2.34-2.34h72.07M263.21,119.9h-72.07c-1.57,0-2.84,1.27-2.84,2.84v114.02c0,1.57,1.27,2.84,2.84,2.84h72.07c1.57,0,2.84-1.27,2.84-2.84v-114.02c0-1.57-1.27-2.84-2.84-2.84h0Z"/>
      <rect class="cls-12" x="188.29" y="244.6" width="77.75" height="16.83" rx="2.84" ry="2.84"/>
      <g>
        <path class="cls-7" d="M403.51,92.13c1.29,0,2.34,1.05,2.34,2.34v5.94c0,1.29-1.05,2.34-2.34,2.34h-54.56c-1.29,0-2.34-1.05-2.34-2.34v-5.94c0-1.29,1.05-2.34,2.34-2.34h54.56M403.51,91.63h-54.56c-1.57,0-2.84,1.27-2.84,2.84v5.94c0,1.57,1.27,2.84,2.84,2.84h54.56c1.57,0,2.84-1.27,2.84-2.84v-5.94c0-1.57-1.27-2.84-2.84-2.84h0Z"/>
        <polygon class="cls-7" points="400.59 99.85 403.05 95.59 398.13 95.59 400.59 99.85"/>
      </g>
      <g>
        <path class="cls-7" d="M466.44,92.13c1.29,0,2.34,1.05,2.34,2.34v5.94c0,1.29-1.05,2.34-2.34,2.34h-54.56c-1.29,0-2.34-1.05-2.34-2.34v-5.94c0-1.29,1.05-2.34,2.34-2.34h54.56M466.44,91.63h-54.56c-1.57,0-2.84,1.27-2.84,2.84v5.94c0,1.57,1.27,2.84,2.84,2.84h54.56c1.57,0,2.84-1.27,2.84-2.84v-5.94c0-1.57-1.27-2.84-2.84-2.84h0Z"/>
        <polygon class="cls-7" points="463.53 99.85 465.99 95.59 461.07 95.59 463.53 99.85"/>
      </g>
      <rect class="cls-6" x="283.18" y="136.47" width="241.9" height="148.62"/>
      <g>
        <polygon class="cls-11" points="517.23 100.47 524.38 92.09 510.07 92.09 517.23 100.47"/>
        <rect class="cls-11" x="516.02" y="95.63" width="2.42" height="6.82"/>
      </g>
      <g>
        <rect class="cls-11" x="298.07" y="149.41" width="14.71" height="14.71"/>
        <rect class="cls-11" x="319.88" y="149.41" width="14.71" height="14.71"/>
        <rect class="cls-7" x="341.7" y="149.41" width="14.71" height="14.71"/>
        <rect class="cls-7" x="363.52" y="149.41" width="14.71" height="14.71"/>
        <rect class="cls-11" x="385.33" y="149.41" width="14.71" height="14.71"/>
        <rect class="cls-11" x="407.15" y="149.41" width="14.71" height="14.71"/>
        <rect class="cls-7" x="428.96" y="149.41" width="14.71" height="14.71"/>
        <rect class="cls-11" x="450.78" y="149.41" width="14.71" height="14.71"/>
        <rect class="cls-11" x="472.6" y="149.41" width="14.71" height="14.71"/>
        <rect class="cls-11" x="494.41" y="149.41" width="14.71" height="14.71"/>
      </g>
      <g>
        <rect class="cls-11" x="298.07" y="173.36" width="14.71" height="14.71"/>
        <rect class="cls-11" x="319.88" y="173.36" width="14.71" height="14.71"/>
        <rect class="cls-7" x="341.7" y="173.36" width="14.71" height="14.71"/>
        <rect class="cls-7" x="363.52" y="173.36" width="14.71" height="14.71"/>
        <rect class="cls-7" x="385.33" y="173.36" width="14.71" height="14.71"/>
        <rect class="cls-11" x="407.15" y="173.36" width="14.71" height="14.71"/>
        <rect class="cls-11" x="428.96" y="173.36" width="14.71" height="14.71"/>
        <rect class="cls-7" x="450.78" y="173.36" width="14.71" height="14.71"/>
        <rect class="cls-7" x="472.6" y="173.36" width="14.71" height="14.71"/>
        <rect class="cls-11" x="494.41" y="173.36" width="14.71" height="14.71"/>
      </g>
      <g>
        <rect class="cls-11" x="298.07" y="197.3" width="14.71" height="14.71"/>
        <rect class="cls-7" x="319.88" y="197.3" width="14.71" height="14.71"/>
        <rect class="cls-11" x="341.7" y="197.3" width="14.71" height="14.71"/>
        <rect class="cls-11" x="363.52" y="197.3" width="14.71" height="14.71"/>
        <rect class="cls-7" x="385.33" y="197.3" width="14.71" height="14.71"/>
        <rect class="cls-11" x="407.15" y="197.3" width="14.71" height="14.71"/>
        <rect class="cls-11" x="428.96" y="197.3" width="14.71" height="14.71"/>
        <rect class="cls-11" x="450.78" y="197.3" width="14.71" height="14.71"/>
        <rect class="cls-11" x="472.6" y="197.3" width="14.71" height="14.71"/>
        <rect class="cls-11" x="494.41" y="197.3" width="14.71" height="14.71"/>
      </g>
      <g>
        <rect class="cls-11" x="298.07" y="221.24" width="14.71" height="14.71"/>
        <rect class="cls-11" x="319.88" y="221.24" width="14.71" height="14.71"/>
        <rect class="cls-11" x="341.7" y="221.24" width="14.71" height="14.71"/>
        <rect class="cls-7" x="363.52" y="221.24" width="14.71" height="14.71"/>
        <rect class="cls-7" x="385.33" y="221.24" width="14.71" height="14.71"/>
        <rect class="cls-11" x="407.15" y="221.24" width="14.71" height="14.71"/>
        <rect class="cls-11" x="428.96" y="221.24" width="14.71" height="14.71"/>
        <rect class="cls-7" x="450.78" y="221.24" width="14.71" height="14.71"/>
        <rect class="cls-11" x="472.6" y="221.24" width="14.71" height="14.71"/>
        <rect class="cls-7" x="494.41" y="221.24" width="14.71" height="14.71"/>
      </g>
      <g>
        <rect class="cls-7" x="298.07" y="245.19" width="14.71" height="14.71"/>
        <rect class="cls-7" x="319.88" y="245.19" width="14.71" height="14.71"/>
        <rect class="cls-11" x="341.7" y="245.19" width="14.71" height="14.71"/>
        <rect class="cls-11" x="363.52" y="245.19" width="14.71" height="14.71"/>
        <rect class="cls-7" x="385.33" y="245.19" width="14.71" height="14.71"/>
        <rect class="cls-11" x="407.15" y="245.19" width="14.71" height="14.71"/>
        <rect class="cls-11" x="428.96" y="245.19" width="14.71" height="14.71"/>
        <rect class="cls-7" x="450.78" y="245.19" width="14.71" height="14.71"/>
        <rect class="cls-7" x="472.6" y="245.19" width="14.71" height="14.71"/>
        <rect class="cls-11" x="494.41" y="245.19" width="14.71" height="14.71"/>
      </g>
    </g>
  </g>
</svg>