<?xml version="1.0" encoding="UTF-8"?>
<svg xmlns="http://www.w3.org/2000/svg" xmlns:xlink="http://www.w3.org/1999/xlink" version="1.1" viewBox="0 0 530.79 486.9">
  <defs>
    <style>
      .cls-1 {
        filter: url(#drop-shadow-5);
        stroke: #dadbdc;
      }

      .cls-1, .cls-2, .cls-3 {
        stroke-miterlimit: 10;
      }

      .cls-1, .cls-4, .cls-5, .cls-6, .cls-7 {
        fill: #ebeff2;
      }

      .cls-8 {
        fill: #db4d25;
      }

      .cls-9 {
        fill: #231f20;
      }

      .cls-2 {
        stroke: #231f20;
      }

      .cls-2, .cls-3 {
        fill: none;
        stroke-width: 2px;
      }

      .cls-10 {
        fill: #f0cb48;
      }

      .cls-11 {
        fill: #fff;
      }

      .cls-12 {
        fill: #221f20;
      }

      .cls-13 {
        fill: #cfd7db;
      }

      .cls-14 {
        fill: #60d092;
      }

      .cls-4 {
        filter: url(#drop-shadow-1);
      }

      .cls-5 {
        filter: url(#drop-shadow-3);
      }

      .cls-6 {
        filter: url(#drop-shadow-2);
      }

      .cls-7 {
        filter: url(#drop-shadow-4);
      }

      .cls-15 {
        fill: #3874b6;
      }

      .cls-3 {
        stroke: #fff;
      }
    </style>
    <filter id="drop-shadow-1" filterUnits="userSpaceOnUse">
      <feOffset dx="3.6" dy="3.6"/>
      <feGaussianBlur result="blur" stdDeviation="1.44"/>
      <feFlood flood-color="#000" flood-opacity=".4"/>
      <feComposite in2="blur" operator="in"/>
      <feComposite in="SourceGraphic"/>
    </filter>
    <filter id="drop-shadow-2" filterUnits="userSpaceOnUse">
      <feOffset dx="3.6" dy="3.6"/>
      <feGaussianBlur result="blur-2" stdDeviation="1.44"/>
      <feFlood flood-color="#000" flood-opacity=".4"/>
      <feComposite in2="blur-2" operator="in"/>
      <feComposite in="SourceGraphic"/>
    </filter>
    <filter id="drop-shadow-3" filterUnits="userSpaceOnUse">
      <feOffset dx="3.6" dy="3.6"/>
      <feGaussianBlur result="blur-3" stdDeviation="1.44"/>
      <feFlood flood-color="#000" flood-opacity=".4"/>
      <feComposite in2="blur-3" operator="in"/>
      <feComposite in="SourceGraphic"/>
    </filter>
    <filter id="drop-shadow-4" filterUnits="userSpaceOnUse">
      <feOffset dx="3.6" dy="3.6"/>
      <feGaussianBlur result="blur-4" stdDeviation="1.44"/>
      <feFlood flood-color="#000" flood-opacity=".4"/>
      <feComposite in2="blur-4" operator="in"/>
      <feComposite in="SourceGraphic"/>
    </filter>
    <filter id="drop-shadow-5" filterUnits="userSpaceOnUse">
      <feOffset dx="3.6" dy="3.6"/>
      <feGaussianBlur result="blur-5" stdDeviation="1.44"/>
      <feFlood flood-color="#000" flood-opacity=".4"/>
      <feComposite in2="blur-5" operator="in"/>
      <feComposite in="SourceGraphic"/>
    </filter>
  </defs>
  <!-- Generator: Adobe Illustrator 28.6.0, SVG Export Plug-In . SVG Version: 1.2.0 Build 709)  -->
  <g>
    <g id="Layer_1">
      <rect class="cls-4" x="43.52" y="90.94" width="167.9" height="179.17"/>
      <g>
        <path d="M58.59,103.7h7.49v2.2h-4.94v1.41h4.47v2.04h-4.47v1.48h5v2.2h-7.56v-9.31Z"/>
        <path d="M66.64,105.82h2.66l1.38,4.2,1.38-4.2h2.62l-2.87,7.25h-2.3l-2.87-7.25Z"/>
        <path d="M74.77,109.45v-.03c0-2.1,1.5-3.77,3.63-3.77,2.49,0,3.63,1.82,3.63,3.94,0,.16,0,.35-.01.52h-4.82c.2.78.77,1.18,1.56,1.18.6,0,1.08-.23,1.6-.73l1.4,1.16c-.69.88-1.69,1.46-3.13,1.46-2.26,0-3.86-1.5-3.86-3.74ZM79.66,108.82c-.09-.8-.56-1.3-1.25-1.3s-1.12.52-1.25,1.3h2.5Z"/>
        <path d="M83.11,105.82h2.53v1.01c.47-.6,1.13-1.17,2.16-1.17,1.53,0,2.45,1.01,2.45,2.65v4.71h-2.53v-3.9c0-.79-.41-1.21-1.01-1.21s-1.06.43-1.06,1.21v3.9h-2.53v-7.2Z"/>
        <path d="M91.99,110.78v-2.93h-.85v-2.04h.85v-1.82h2.53v1.82h1.68v2.04h-1.68v2.44c0,.51.23.72.69.72.33,0,.65-.09.96-.24v1.98c-.45.25-1.05.41-1.76.41-1.52,0-2.42-.67-2.42-2.38Z"/>
        <path d="M96.74,112.11l.94-1.53c.83.55,1.73.83,2.48.83.44,0,.64-.13.64-.39v-.03c0-.28-.4-.4-1.16-.61-1.42-.37-2.55-.85-2.55-2.3v-.03c0-1.53,1.22-2.38,2.89-2.38,1.05,0,2.14.31,2.97.84l-.86,1.6c-.75-.41-1.56-.67-2.13-.67-.39,0-.59.15-.59.35v.03c0,.28.41.41,1.17.64,1.42.4,2.55.89,2.55,2.29v.03c0,1.58-1.18,2.41-2.94,2.41-1.21,0-2.41-.35-3.41-1.06Z"/>
      </g>
      <g>
        <rect class="cls-13" x="85.64" y="130.99" width="111.54" height="7.71"/>
        <circle class="cls-15" cx="67.25" cy="134.85" r="9.49"/>
      </g>
      <g>
        <rect class="cls-13" x="85.64" y="158.88" width="111.54" height="7.71"/>
        <circle class="cls-13" cx="67.25" cy="162.73" r="9.49"/>
      </g>
      <g>
        <rect class="cls-13" x="85.64" y="186.76" width="111.54" height="7.71"/>
        <circle class="cls-15" cx="67.25" cy="190.62" r="9.49"/>
      </g>
      <g>
        <rect class="cls-13" x="85.64" y="214.64" width="111.54" height="7.71"/>
        <circle class="cls-15" cx="67.25" cy="218.5" r="9.49"/>
      </g>
      <g>
        <rect class="cls-13" x="85.64" y="242.53" width="111.54" height="7.71"/>
        <circle class="cls-15" cx="67.25" cy="246.38" r="9.49"/>
      </g>
      <rect class="cls-6" x="290.38" y="25.34" width="206.9" height="127.4" rx="5.36" ry="5.36"/>
      <path class="cls-10" d="M491.91,25.34h-196.17c-2.96,0-5.36,2.4-5.36,5.36v15.91h206.9v-15.91c0-2.96-2.4-5.36-5.36-5.36Z"/>
      <g>
        <path class="cls-11" d="M301.82,34.71h1.36v6.18h-1.36v-6.18Z"/>
        <path class="cls-11" d="M304.59,36.16h1.34v.67c.31-.4.71-.76,1.39-.76,1.02,0,1.61.67,1.61,1.76v3.07h-1.34v-2.64c0-.64-.3-.96-.81-.96s-.84.33-.84.96v2.64h-1.34v-4.74Z"/>
        <path class="cls-11" d="M309.88,38.54v-.02c0-1.58,1.03-2.45,2.16-2.45.72,0,1.16.33,1.48.71v-2.33h1.34v6.45h-1.34v-.68c-.33.44-.78.77-1.48.77-1.1,0-2.16-.87-2.16-2.45ZM313.53,38.54v-.02c0-.79-.52-1.31-1.15-1.31s-1.16.51-1.16,1.31v.02c0,.79.53,1.31,1.16,1.31s1.15-.52,1.15-1.31Z"/>
        <path class="cls-11" d="M316.09,34.45h1.41v1.19h-1.41v-1.19ZM316.12,36.16h1.34v4.74h-1.34v-4.74Z"/>
        <path class="cls-11" d="M318.31,36.16h1.42l1.06,3.17,1.07-3.17h1.4l-1.86,4.77h-1.22l-1.86-4.77Z"/>
        <path class="cls-11" d="M324.06,34.45h1.41v1.19h-1.41v-1.19ZM324.09,36.16h1.34v4.74h-1.34v-4.74Z"/>
        <path class="cls-11" d="M326.49,38.54v-.02c0-1.58,1.03-2.45,2.16-2.45.72,0,1.16.33,1.48.71v-2.33h1.34v6.45h-1.34v-.68c-.33.44-.78.77-1.48.77-1.1,0-2.16-.87-2.16-2.45ZM330.14,38.54v-.02c0-.79-.52-1.31-1.15-1.31s-1.16.51-1.16,1.31v.02c0,.79.53,1.31,1.16,1.31s1.15-.52,1.15-1.31Z"/>
        <path class="cls-11" d="M332.63,39.23v-3.07h1.34v2.64c0,.64.3.96.81.96s.84-.33.84-.96v-2.64h1.34v4.74h-1.34v-.67c-.31.4-.71.76-1.39.76-1.02,0-1.61-.67-1.61-1.76Z"/>
        <path class="cls-11" d="M337.89,39.54v-.02c0-1.03.79-1.51,1.91-1.51.48,0,.82.08,1.16.19v-.08c0-.56-.34-.87-1.02-.87-.51,0-.87.1-1.31.26l-.34-1.02c.52-.23,1.03-.38,1.84-.38.73,0,1.26.19,1.6.53.35.35.51.87.51,1.51v2.75h-1.3v-.51c-.33.36-.78.6-1.43.6-.89,0-1.63-.51-1.63-1.45ZM340.97,39.23v-.24c-.23-.11-.53-.18-.86-.18-.57,0-.93.23-.93.65v.02c0,.36.3.57.73.57.63,0,1.05-.34,1.05-.83Z"/>
        <path class="cls-11" d="M343.47,34.45h1.34v6.45h-1.34v-6.45Z"/>
        <path class="cls-11" d="M348.87,34.71h4.66v1.21h-3.31v1.25h2.92v1.21h-2.92v1.3h3.36v1.21h-4.71v-6.18Z"/>
        <path class="cls-11" d="M354.14,36.16h1.42l1.06,3.17,1.07-3.17h1.4l-1.86,4.77h-1.22l-1.86-4.77Z"/>
        <path class="cls-11" d="M359.37,38.55v-.02c0-1.35.96-2.46,2.34-2.46,1.58,0,2.31,1.23,2.31,2.57,0,.11,0,.23-.02.35h-3.3c.13.61.56.93,1.16.93.45,0,.78-.14,1.15-.49l.77.68c-.44.55-1.08.88-1.94.88-1.42,0-2.47-1-2.47-2.45ZM362.71,38.16c-.08-.6-.43-1.01-1-1.01s-.92.4-1.02,1.01h2.02Z"/>
        <path class="cls-11" d="M365.01,36.16h1.34v.67c.31-.4.71-.76,1.39-.76,1.02,0,1.61.67,1.61,1.76v3.07h-1.34v-2.64c0-.64-.3-.96-.81-.96s-.84.33-.84.96v2.64h-1.34v-4.74Z"/>
        <path class="cls-11" d="M370.74,39.55v-2.24h-.57v-1.15h.57v-1.21h1.34v1.21h1.11v1.15h-1.11v2.02c0,.31.13.46.43.46.25,0,.47-.06.66-.17v1.08c-.28.17-.61.27-1.06.27-.82,0-1.38-.33-1.38-1.42Z"/>
        <path class="cls-11" d="M373.82,40.27l.57-.88c.51.37,1.05.57,1.49.57.39,0,.57-.14.57-.35v-.02c0-.29-.46-.39-.98-.55-.66-.19-1.41-.5-1.41-1.42v-.02c0-.96.78-1.5,1.73-1.5.6,0,1.25.2,1.77.55l-.51.93c-.47-.27-.94-.44-1.28-.44-.33,0-.49.14-.49.33v.02c0,.26.45.39.96.57.66.22,1.43.54,1.43,1.4v.02c0,1.05-.79,1.53-1.81,1.53-.66,0-1.4-.22-2.03-.72Z"/>
      </g>
      <g>
        <path class="cls-12" d="M303.2,57.25h-1.88v-1.25h5.12v1.25h-1.88v4.93h-1.36v-4.93Z"/>
        <path class="cls-12" d="M306.19,59.84v-.02c0-1.35.96-2.46,2.34-2.46,1.58,0,2.31,1.23,2.31,2.57,0,.11,0,.23-.02.35h-3.3c.13.61.56.93,1.16.93.45,0,.78-.14,1.15-.49l.77.68c-.44.55-1.08.88-1.94.88-1.42,0-2.47-1-2.47-2.45ZM309.53,59.44c-.08-.6-.43-1.01-1-1.01s-.92.4-1.02,1.01h2.02Z"/>
        <path class="cls-12" d="M311.55,60.82v-.02c0-1.03.79-1.51,1.91-1.51.48,0,.82.08,1.16.19v-.08c0-.56-.34-.87-1.02-.87-.51,0-.87.1-1.31.26l-.34-1.02c.52-.23,1.03-.38,1.84-.38.73,0,1.26.19,1.6.53.35.35.51.87.51,1.51v2.75h-1.3v-.51c-.33.36-.78.6-1.43.6-.89,0-1.63-.51-1.63-1.45ZM314.64,60.51v-.24c-.23-.11-.53-.18-.86-.18-.57,0-.93.23-.93.65v.02c0,.36.3.57.73.57.63,0,1.05-.34,1.05-.83Z"/>
        <path class="cls-12" d="M317.07,57.44h1.34v.67c.31-.4.72-.76,1.4-.76.62,0,1.09.27,1.33.75.42-.49.91-.75,1.55-.75,1,0,1.6.6,1.6,1.74v3.08h-1.34v-2.64c0-.64-.28-.96-.79-.96s-.81.33-.81.96v2.64h-1.34v-2.64c0-.64-.28-.96-.79-.96s-.81.33-.81.96v2.64h-1.34v-4.74Z"/>
        <path class="cls-12" d="M325.09,61.55l.57-.88c.51.37,1.05.57,1.49.57.39,0,.57-.14.57-.35v-.02c0-.29-.46-.39-.98-.55-.66-.19-1.41-.5-1.41-1.42v-.02c0-.96.78-1.5,1.73-1.5.6,0,1.25.2,1.77.55l-.51.93c-.47-.27-.94-.44-1.28-.44-.33,0-.49.14-.49.33v.02c0,.26.45.39.96.57.66.22,1.43.54,1.43,1.4v.02c0,1.05-.79,1.53-1.81,1.53-.66,0-1.4-.22-2.03-.72Z"/>
      </g>
      <g>
        <path class="cls-12" d="M358.47,55.99h1.36v6.18h-1.36v-6.18Z"/>
        <path class="cls-12" d="M361.23,57.44h1.34v.67c.31-.4.71-.76,1.39-.76,1.02,0,1.61.67,1.61,1.76v3.07h-1.34v-2.64c0-.64-.3-.96-.81-.96s-.84.33-.84.96v2.64h-1.34v-4.74Z"/>
        <path class="cls-12" d="M366.37,61.55l.57-.88c.51.37,1.05.57,1.49.57.39,0,.57-.14.57-.35v-.02c0-.29-.46-.39-.98-.55-.66-.19-1.41-.5-1.41-1.42v-.02c0-.96.78-1.5,1.73-1.5.6,0,1.25.2,1.77.55l-.51.93c-.47-.27-.94-.44-1.28-.44-.33,0-.49.14-.49.33v.02c0,.26.45.39.96.57.66.22,1.43.54,1.43,1.4v.02c0,1.05-.79,1.53-1.81,1.53-.66,0-1.4-.22-2.03-.72Z"/>
        <path class="cls-12" d="M371.14,60.51v-3.07h1.34v2.64c0,.64.3.96.81.96s.84-.33.84-.96v-2.64h1.34v4.74h-1.34v-.67c-.31.4-.71.76-1.39.76-1.02,0-1.61-.67-1.61-1.76Z"/>
        <path class="cls-12" d="M376.68,57.44h1.34v.95c.27-.65.72-1.08,1.51-1.04v1.4h-.07c-.89,0-1.44.54-1.44,1.67v1.75h-1.34v-4.74Z"/>
        <path class="cls-12" d="M379.87,60.82v-.02c0-1.03.79-1.51,1.91-1.51.48,0,.82.08,1.16.19v-.08c0-.56-.34-.87-1.02-.87-.51,0-.87.1-1.31.26l-.34-1.02c.52-.23,1.03-.38,1.84-.38.73,0,1.26.19,1.6.53.35.35.51.87.51,1.51v2.75h-1.3v-.51c-.33.36-.78.6-1.43.6-.89,0-1.63-.51-1.63-1.45ZM382.96,60.51v-.24c-.23-.11-.53-.18-.86-.18-.57,0-.93.23-.93.65v.02c0,.36.3.57.73.57.63,0,1.05-.34,1.05-.83Z"/>
        <path class="cls-12" d="M385.39,57.44h1.34v.67c.31-.4.71-.76,1.39-.76,1.02,0,1.61.67,1.61,1.76v3.07h-1.34v-2.64c0-.64-.3-.96-.81-.96s-.84.33-.84.96v2.64h-1.34v-4.74Z"/>
        <path class="cls-12" d="M390.66,59.84v-.02c0-1.35,1.03-2.46,2.48-2.46.89,0,1.45.3,1.89.79l-.82.88c-.3-.32-.6-.52-1.08-.52-.67,0-1.15.59-1.15,1.29v.02c0,.72.47,1.31,1.2,1.31.45,0,.76-.19,1.09-.5l.79.8c-.46.5-.99.87-1.94.87-1.42,0-2.46-1.1-2.46-2.45Z"/>
        <path class="cls-12" d="M395.58,59.84v-.02c0-1.35.96-2.46,2.34-2.46,1.58,0,2.31,1.23,2.31,2.57,0,.11,0,.23-.02.35h-3.3c.13.61.56.93,1.16.93.45,0,.78-.14,1.15-.49l.77.68c-.44.55-1.08.88-1.94.88-1.42,0-2.47-1-2.47-2.45ZM398.92,59.44c-.08-.6-.43-1.01-1-1.01s-.92.4-1.02,1.01h2.02Z"/>
      </g>
      <g>
        <path class="cls-12" d="M411.1,55.99h1.46l1.28,4.19,1.39-4.21h1.17l1.39,4.21,1.28-4.19h1.42l-2.11,6.23h-1.18l-1.4-4.05-1.4,4.05h-1.18l-2.11-6.23Z"/>
        <path class="cls-12" d="M420.45,60.82v-.02c0-1.03.79-1.51,1.91-1.51.48,0,.82.08,1.16.19v-.08c0-.56-.34-.87-1.02-.87-.51,0-.87.1-1.31.26l-.34-1.02c.52-.23,1.03-.38,1.84-.38.73,0,1.26.19,1.6.53.35.35.51.87.51,1.51v2.75h-1.3v-.51c-.33.36-.78.6-1.43.6-.89,0-1.63-.51-1.63-1.45ZM423.54,60.51v-.24c-.23-.11-.53-.18-.86-.18-.57,0-.93.23-.93.65v.02c0,.36.3.57.73.57.63,0,1.05-.34,1.05-.83Z"/>
        <path class="cls-12" d="M425.37,57.44h1.42l1.06,3.17,1.07-3.17h1.4l-1.86,4.77h-1.22l-1.86-4.77Z"/>
        <path class="cls-12" d="M430.6,59.84v-.02c0-1.35.96-2.46,2.34-2.46,1.58,0,2.31,1.23,2.31,2.57,0,.11,0,.23-.02.35h-3.29c.13.61.56.93,1.16.93.45,0,.78-.14,1.15-.49l.77.68c-.44.55-1.08.88-1.93.88-1.42,0-2.47-1-2.47-2.45ZM433.94,59.44c-.08-.6-.43-1.01-1-1.01s-.92.4-1.02,1.01h2.02Z"/>
        <path class="cls-12" d="M436.25,57.44h1.34v.95c.27-.65.71-1.08,1.51-1.04v1.4h-.07c-.89,0-1.44.54-1.44,1.67v1.75h-1.34v-4.74Z"/>
        <path class="cls-12" d="M439.57,61.55l.58-.88c.51.37,1.05.57,1.49.57.39,0,.57-.14.57-.35v-.02c0-.29-.46-.39-.98-.55-.66-.19-1.41-.5-1.41-1.42v-.02c0-.96.78-1.5,1.73-1.5.6,0,1.25.2,1.77.55l-.51.93c-.47-.27-.94-.44-1.28-.44s-.5.14-.5.33v.02c0,.26.45.39.96.57.66.22,1.43.54,1.43,1.4v.02c0,1.05-.79,1.53-1.81,1.53-.66,0-1.4-.22-2.03-.72Z"/>
      </g>
      <g>
        <path class="cls-12" d="M463.38,55.99h2.53c1.47,0,2.37.88,2.37,2.14v.02c0,1.43-1.11,2.17-2.5,2.17h-1.03v1.86h-1.36v-6.18ZM465.81,59.11c.68,0,1.08-.41,1.08-.94v-.02c0-.61-.42-.94-1.1-.94h-1.05v1.89h1.08Z"/>
        <path class="cls-12" d="M468.77,60.82v-.02c0-1.03.79-1.51,1.91-1.51.48,0,.82.08,1.16.19v-.08c0-.56-.34-.87-1.02-.87-.51,0-.88.1-1.31.26l-.34-1.02c.52-.23,1.03-.38,1.84-.38.73,0,1.26.19,1.6.53.35.35.51.87.51,1.51v2.75h-1.3v-.51c-.33.36-.78.6-1.43.6-.89,0-1.63-.51-1.63-1.45ZM471.85,60.51v-.24c-.23-.11-.53-.18-.86-.18-.57,0-.93.23-.93.65v.02c0,.36.3.57.73.57.63,0,1.05-.34,1.05-.83Z"/>
        <path class="cls-12" d="M474.31,55.73h1.41v1.19h-1.41v-1.19ZM474.34,57.44h1.34v4.74h-1.34v-4.74Z"/>
        <path class="cls-12" d="M476.74,59.82v-.02c0-1.58,1.03-2.45,2.16-2.45.72,0,1.16.33,1.48.71v-2.33h1.34v6.45h-1.34v-.68c-.33.44-.78.77-1.48.77-1.1,0-2.16-.87-2.16-2.45ZM480.39,59.82v-.02c0-.79-.52-1.31-1.15-1.31s-1.16.51-1.16,1.31v.02c0,.79.53,1.31,1.16,1.31s1.15-.52,1.15-1.31Z"/>
      </g>
      <rect class="cls-13" x="299.69" y="73.28" width="50.89" height="5.76"/>
      <circle class="cls-14" cx="378.94" cy="76.17" r="6.32"/>
      <circle class="cls-14" cx="426.33" cy="76.17" r="6.32"/>
      <circle class="cls-14" cx="473.72" cy="76.17" r="6.32"/>
      <rect class="cls-13" x="299.69" y="92.79" width="50.89" height="5.76"/>
      <circle class="cls-8" cx="378.94" cy="95.67" r="6.32"/>
      <circle class="cls-14" cx="426.33" cy="95.67" r="6.32"/>
      <circle class="cls-8" cx="473.72" cy="95.67" r="6.32"/>
      <rect class="cls-13" x="299.69" y="112.3" width="50.89" height="5.76"/>
      <circle class="cls-8" cx="378.94" cy="115.18" r="6.32"/>
      <circle class="cls-14" cx="426.33" cy="115.18" r="6.32"/>
      <circle class="cls-14" cx="473.72" cy="115.18" r="6.32"/>
      <rect class="cls-13" x="299.69" y="131.81" width="50.89" height="5.76"/>
      <circle class="cls-14" cx="378.94" cy="134.69" r="6.32"/>
      <circle class="cls-8" cx="426.33" cy="134.69" r="6.32"/>
      <circle class="cls-8" cx="473.72" cy="134.69" r="6.32"/>
      <g>
        <line class="cls-3" x1="376.1" y1="98.71" x2="381.88" y2="92.93"/>
        <line class="cls-3" x1="381.88" y1="98.71" x2="376.1" y2="92.93"/>
      </g>
      <g>
        <line class="cls-3" x1="376.1" y1="118.07" x2="381.88" y2="112.3"/>
        <line class="cls-3" x1="381.88" y1="118.07" x2="376.1" y2="112.3"/>
      </g>
      <g>
        <line class="cls-3" x1="470.85" y1="98.71" x2="476.62" y2="92.93"/>
        <line class="cls-3" x1="476.62" y1="98.71" x2="470.85" y2="92.93"/>
      </g>
      <g>
        <line class="cls-3" x1="470.85" y1="137.68" x2="476.62" y2="131.91"/>
        <line class="cls-3" x1="476.62" y1="137.68" x2="470.85" y2="131.91"/>
      </g>
      <g>
        <line class="cls-3" x1="423.41" y1="137.68" x2="429.18" y2="131.91"/>
        <line class="cls-3" x1="429.18" y1="137.68" x2="423.41" y2="131.91"/>
      </g>
      <polyline class="cls-3" points="376 76.32 378.01 78.33 382.34 74.01"/>
      <polyline class="cls-3" points="376 134.79 378.01 136.8 382.34 132.47"/>
      <polyline class="cls-3" points="423.19 76.32 425.2 78.33 429.53 74.01"/>
      <polyline class="cls-3" points="423.19 95.69 425.2 97.7 429.53 93.37"/>
      <polyline class="cls-3" points="470.5 76.32 472.51 78.33 476.84 74.01"/>
      <polyline class="cls-3" points="423.19 115.54 425.2 117.55 429.53 113.23"/>
      <polyline class="cls-3" points="470.5 115.54 472.51 117.55 476.84 113.23"/>
      <rect class="cls-5" x="290.38" y="165.01" width="206.9" height="127.4" rx="5.36" ry="5.36"/>
      <path class="cls-10" d="M491.91,165.01h-196.17c-2.96,0-5.36,2.4-5.36,5.36v15.91h206.9v-15.91c0-2.96-2.4-5.36-5.36-5.36Z"/>
      <g>
        <path class="cls-11" d="M301.34,179.66l.8-.96c.56.46,1.14.75,1.85.75.56,0,.89-.22.89-.58v-.02c0-.34-.21-.52-1.25-.79-1.25-.32-2.05-.66-2.05-1.89v-.02c0-1.12.9-1.86,2.16-1.86.9,0,1.67.28,2.3.79l-.71,1.02c-.55-.38-1.09-.61-1.61-.61s-.8.24-.8.54v.02c0,.41.27.54,1.33.81,1.25.33,1.96.78,1.96,1.85v.02c0,1.23-.94,1.92-2.27,1.92-.94,0-1.88-.33-2.62-.99Z"/>
        <path class="cls-11" d="M307.05,178.22v-.02c0-1.35,1.03-2.46,2.48-2.46.89,0,1.45.3,1.89.79l-.82.88c-.3-.32-.6-.52-1.08-.52-.67,0-1.15.59-1.15,1.29v.02c0,.72.47,1.31,1.2,1.31.45,0,.76-.19,1.09-.5l.79.8c-.46.5-.99.87-1.94.87-1.42,0-2.46-1.1-2.46-2.45Z"/>
        <path class="cls-11" d="M312.32,174.11h1.34v2.39c.31-.4.71-.76,1.39-.76,1.02,0,1.61.67,1.61,1.76v3.07h-1.34v-2.64c0-.64-.3-.96-.81-.96s-.84.33-.84.96v2.64h-1.34v-6.45Z"/>
        <path class="cls-11" d="M317.6,178.22v-.02c0-1.35.96-2.46,2.34-2.46,1.58,0,2.31,1.23,2.31,2.57,0,.11,0,.23-.02.35h-3.3c.13.61.56.93,1.16.93.45,0,.78-.14,1.15-.49l.77.68c-.44.55-1.08.88-1.94.88-1.42,0-2.47-1-2.47-2.45ZM320.94,177.82c-.08-.6-.43-1.01-1-1.01s-.92.4-1.02,1.01h2.02Z"/>
        <path class="cls-11" d="M323.03,178.2v-.02c0-1.58,1.03-2.45,2.16-2.45.72,0,1.16.33,1.48.71v-2.33h1.34v6.45h-1.34v-.68c-.33.44-.78.77-1.48.77-1.1,0-2.16-.87-2.16-2.45ZM326.68,178.2v-.02c0-.79-.52-1.31-1.15-1.31s-1.16.51-1.16,1.31v.02c0,.79.53,1.31,1.16,1.31s1.15-.52,1.15-1.31Z"/>
        <path class="cls-11" d="M329.18,178.89v-3.07h1.34v2.64c0,.64.3.96.81.96s.84-.33.84-.96v-2.64h1.34v4.74h-1.34v-.67c-.31.4-.71.76-1.39.76-1.02,0-1.61-.67-1.61-1.76Z"/>
        <path class="cls-11" d="M334.78,174.11h1.34v6.45h-1.34v-6.45Z"/>
        <path class="cls-11" d="M337.41,174.11h1.41v1.19h-1.41v-1.19ZM337.45,175.83h1.34v4.74h-1.34v-4.74Z"/>
        <path class="cls-11" d="M340.06,175.83h1.34v.67c.31-.4.71-.76,1.39-.76,1.02,0,1.61.67,1.61,1.76v3.07h-1.34v-2.64c0-.64-.3-.96-.81-.96s-.84.33-.84.96v2.64h-1.34v-4.74Z"/>
        <path class="cls-11" d="M345.59,181.5l.46-1.01c.49.27.97.43,1.6.43.92,0,1.35-.44,1.35-1.29v-.23c-.4.48-.83.77-1.55.77-1.1,0-2.1-.8-2.1-2.21v-.02c0-1.41,1.02-2.21,2.1-2.21.73,0,1.17.31,1.53.71v-.62h1.34v3.67c0,.85-.2,1.47-.6,1.86-.44.44-1.12.64-2.04.64-.77,0-1.49-.18-2.09-.49ZM349,177.97v-.02c0-.65-.5-1.1-1.16-1.1s-1.15.45-1.15,1.1v.02c0,.65.5,1.1,1.15,1.1s1.16-.45,1.16-1.1Z"/>
        <path class="cls-11" d="M357.77,179.96c-.5.42-1.1.69-1.81.69-1.18,0-2.08-.69-2.08-1.78v-.02c0-.79.42-1.34,1.2-1.7-.3-.42-.43-.81-.43-1.24v-.02c0-.85.68-1.63,1.87-1.63,1.05,0,1.74.69,1.74,1.56v.02c0,.83-.53,1.32-1.3,1.62l.82.82c.2-.32.41-.68.6-1.06l1,.55c-.24.43-.5.89-.81,1.31l.91.91-1,.7-.72-.72ZM357.01,179.19l-1.18-1.2c-.41.21-.57.51-.57.81v.02c0,.43.36.72.87.72.31,0,.61-.13.89-.35ZM357.08,175.93v-.02c0-.35-.24-.57-.58-.57-.36,0-.6.26-.6.63v.02c0,.27.11.48.36.77.54-.2.82-.43.82-.82Z"/>
        <path class="cls-11" d="M362.7,179.66l.8-.96c.56.46,1.14.75,1.85.75.56,0,.89-.22.89-.58v-.02c0-.34-.21-.52-1.25-.79-1.25-.32-2.05-.66-2.05-1.89v-.02c0-1.12.9-1.86,2.16-1.86.9,0,1.67.28,2.3.79l-.71,1.02c-.55-.38-1.09-.61-1.61-.61s-.8.24-.8.54v.02c0,.41.27.54,1.33.81,1.25.33,1.96.78,1.96,1.85v.02c0,1.23-.94,1.92-2.27,1.92-.94,0-1.88-.33-2.62-.99Z"/>
        <path class="cls-11" d="M368.41,178.22v-.02c0-1.35,1.03-2.46,2.48-2.46.89,0,1.45.3,1.89.79l-.82.88c-.3-.32-.6-.52-1.08-.52-.67,0-1.15.59-1.15,1.29v.02c0,.72.47,1.31,1.2,1.31.45,0,.76-.19,1.09-.5l.79.8c-.46.5-.99.87-1.94.87-1.42,0-2.46-1.1-2.46-2.45Z"/>
        <path class="cls-11" d="M373.32,178.22v-.02c0-1.36,1.1-2.46,2.57-2.46s2.55,1.09,2.55,2.45v.02c0,1.36-1.1,2.46-2.57,2.46s-2.55-1.09-2.55-2.45ZM377.12,178.22v-.02c0-.7-.5-1.31-1.25-1.31s-1.23.59-1.23,1.29v.02c0,.7.5,1.31,1.25,1.31s1.23-.59,1.23-1.29Z"/>
        <path class="cls-11" d="M379.42,175.83h1.34v.95c.27-.65.72-1.08,1.51-1.04v1.4h-.07c-.89,0-1.44.54-1.44,1.67v1.75h-1.34v-4.74Z"/>
        <path class="cls-11" d="M383.14,174.11h1.41v1.19h-1.41v-1.19ZM383.18,175.83h1.34v4.74h-1.34v-4.74Z"/>
        <path class="cls-11" d="M385.78,175.83h1.34v.67c.31-.4.71-.76,1.39-.76,1.02,0,1.61.67,1.61,1.76v3.07h-1.34v-2.64c0-.64-.3-.96-.81-.96s-.84.33-.84.96v2.64h-1.34v-4.74Z"/>
        <path class="cls-11" d="M391.32,181.5l.46-1.01c.49.27.97.43,1.6.43.92,0,1.35-.44,1.35-1.29v-.23c-.4.48-.83.77-1.55.77-1.1,0-2.1-.8-2.1-2.21v-.02c0-1.41,1.02-2.21,2.1-2.21.73,0,1.17.31,1.53.71v-.62h1.34v3.67c0,.85-.2,1.47-.6,1.86-.44.44-1.12.64-2.04.64-.77,0-1.49-.18-2.09-.49ZM394.73,177.97v-.02c0-.65-.5-1.1-1.16-1.1s-1.15.45-1.15,1.1v.02c0,.65.5,1.1,1.15,1.1s1.16-.45,1.16-1.1Z"/>
      </g>
      <g>
        <path class="cls-12" d="M302.59,220.94l-1.08.26-.28-1.11,1.78-.53h.93v6.23h-1.34v-4.85Z"/>
        <path class="cls-12" d="M305.23,222.71v-.02c0-1.79,1.11-3.2,2.76-3.2s2.74,1.39,2.74,3.18v.02c0,1.79-1.1,3.2-2.76,3.2s-2.74-1.39-2.74-3.18ZM309.33,222.71v-.02c0-1.12-.55-1.97-1.36-1.97s-1.34.82-1.34,1.95v.02c0,1.13.54,1.97,1.36,1.97s1.34-.83,1.34-1.95Z"/>
        <path class="cls-12" d="M311.79,221.05h1.43v1.41h-1.43v-1.41ZM311.79,224.38h1.43v1.41h-1.43v-1.41Z"/>
        <path class="cls-12" d="M314.29,222.71v-.02c0-1.79,1.11-3.2,2.76-3.2s2.74,1.39,2.74,3.18v.02c0,1.79-1.1,3.2-2.76,3.2s-2.74-1.39-2.74-3.18ZM318.39,222.71v-.02c0-1.12-.55-1.97-1.36-1.97s-1.34.82-1.34,1.95v.02c0,1.13.54,1.97,1.36,1.97s1.34-.83,1.34-1.95Z"/>
        <path class="cls-12" d="M320.75,222.71v-.02c0-1.79,1.11-3.2,2.76-3.2s2.74,1.39,2.74,3.18v.02c0,1.79-1.1,3.2-2.76,3.2s-2.74-1.39-2.74-3.18ZM324.84,222.71v-.02c0-1.12-.55-1.97-1.36-1.97s-1.34.82-1.34,1.95v.02c0,1.13.54,1.97,1.36,1.97s1.34-.83,1.34-1.95Z"/>
        <path class="cls-12" d="M302.59,241.54l-1.08.26-.28-1.11,1.78-.53h.93v6.23h-1.34v-4.85Z"/>
        <path class="cls-12" d="M305.18,245.32l2.06-1.69c.77-.64,1.07-.97,1.07-1.48s-.34-.8-.83-.8-.8.27-1.26.83l-.95-.77c.61-.83,1.2-1.28,2.31-1.28,1.28,0,2.13.75,2.13,1.91v.02c0,1.03-.53,1.55-1.63,2.39l-1.01.78h2.69v1.17h-4.58v-1.08Z"/>
        <path class="cls-12" d="M310.85,241.66h1.43v1.41h-1.43v-1.41ZM310.85,244.98h1.43v1.41h-1.43v-1.41Z"/>
        <path class="cls-12" d="M313.35,243.32v-.02c0-1.79,1.11-3.2,2.76-3.2s2.74,1.39,2.74,3.18v.02c0,1.79-1.1,3.2-2.76,3.2s-2.74-1.39-2.74-3.18ZM317.45,243.32v-.02c0-1.12-.55-1.97-1.36-1.97s-1.34.82-1.34,1.95v.02c0,1.13.54,1.97,1.36,1.97s1.34-.83,1.34-1.95Z"/>
        <path class="cls-12" d="M319.8,243.32v-.02c0-1.79,1.11-3.2,2.76-3.2s2.74,1.39,2.74,3.18v.02c0,1.79-1.1,3.2-2.76,3.2s-2.74-1.39-2.74-3.18ZM323.9,243.32v-.02c0-1.12-.55-1.97-1.36-1.97s-1.34.82-1.34,1.95v.02c0,1.13.54,1.97,1.36,1.97s1.34-.83,1.34-1.95Z"/>
        <path class="cls-12" d="M302.59,262.15l-1.08.26-.28-1.11,1.78-.53h.93v6.23h-1.34v-4.85Z"/>
        <path class="cls-12" d="M305.34,262.27h1.43v1.41h-1.43v-1.41ZM305.34,265.59h1.43v1.41h-1.43v-1.41Z"/>
        <path class="cls-12" d="M307.84,263.93v-.02c0-1.79,1.11-3.2,2.76-3.2s2.74,1.39,2.74,3.18v.02c0,1.79-1.1,3.2-2.76,3.2s-2.74-1.39-2.74-3.18ZM311.94,263.93v-.02c0-1.12-.55-1.97-1.36-1.97s-1.34.82-1.34,1.95v.02c0,1.13.54,1.97,1.36,1.97s1.34-.83,1.34-1.95Z"/>
        <path class="cls-12" d="M314.29,263.93v-.02c0-1.79,1.11-3.2,2.76-3.2s2.74,1.39,2.74,3.18v.02c0,1.79-1.1,3.2-2.76,3.2s-2.74-1.39-2.74-3.18ZM318.39,263.93v-.02c0-1.12-.55-1.97-1.36-1.97s-1.34.82-1.34,1.95v.02c0,1.13.54,1.97,1.36,1.97s1.34-.83,1.34-1.95Z"/>
      </g>
      <g>
        <path class="cls-12" d="M347.32,197.88h4.71v1.24h-3.35v1.32h2.95v1.24h-2.95v2.39h-1.36v-6.18Z"/>
        <path class="cls-12" d="M353,197.61h1.41v1.19h-1.41v-1.19ZM353.04,199.33h1.34v4.74h-1.34v-4.74Z"/>
        <path class="cls-12" d="M355.42,201.72v-.02c0-1.35.96-2.46,2.34-2.46,1.58,0,2.31,1.23,2.31,2.57,0,.11,0,.23-.02.35h-3.3c.13.61.56.93,1.16.93.45,0,.78-.14,1.15-.49l.77.68c-.44.55-1.08.88-1.94.88-1.42,0-2.47-1-2.47-2.45ZM358.75,201.32c-.08-.6-.43-1.01-1-1.01s-.92.4-1.02,1.01h2.02Z"/>
        <path class="cls-12" d="M361.12,197.61h1.34v6.45h-1.34v-6.45Z"/>
        <path class="cls-12" d="M363.52,201.7v-.02c0-1.58,1.03-2.45,2.16-2.45.72,0,1.16.33,1.48.71v-2.33h1.34v6.45h-1.34v-.68c-.33.44-.78.77-1.48.77-1.1,0-2.16-.87-2.16-2.45ZM367.17,201.7v-.02c0-.79-.52-1.31-1.15-1.31s-1.16.51-1.16,1.31v.02c0,.79.53,1.31,1.16,1.31s1.15-.52,1.15-1.31Z"/>
        <path class="cls-12" d="M373.32,199.21l-1.08.26-.28-1.11,1.78-.53h.93v6.23h-1.34v-4.85Z"/>
      </g>
      <g>
        <path class="cls-12" d="M394.92,197.88h4.71v1.24h-3.35v1.32h2.95v1.24h-2.95v2.39h-1.36v-6.18Z"/>
        <path class="cls-12" d="M400.61,197.61h1.41v1.19h-1.41v-1.19ZM400.64,199.33h1.34v4.74h-1.34v-4.74Z"/>
        <path class="cls-12" d="M403.02,201.72v-.02c0-1.35.96-2.46,2.34-2.46,1.58,0,2.31,1.23,2.31,2.57,0,.11,0,.23-.02.35h-3.3c.13.61.56.93,1.16.93.45,0,.78-.14,1.15-.49l.77.68c-.44.55-1.08.88-1.94.88-1.42,0-2.47-1-2.47-2.45ZM406.36,201.32c-.08-.6-.43-1.01-1-1.01s-.92.4-1.02,1.01h2.02Z"/>
        <path class="cls-12" d="M408.73,197.61h1.34v6.45h-1.34v-6.45Z"/>
        <path class="cls-12" d="M411.12,201.7v-.02c0-1.58,1.03-2.45,2.16-2.45.72,0,1.16.33,1.48.71v-2.33h1.34v6.45h-1.34v-.68c-.33.44-.78.77-1.48.77-1.1,0-2.16-.87-2.16-2.45ZM414.77,201.7v-.02c0-.79-.52-1.31-1.15-1.31s-1.16.51-1.16,1.31v.02c0,.79.53,1.31,1.16,1.31s1.15-.52,1.15-1.31Z"/>
        <path class="cls-12" d="M419.78,202.99l2.06-1.69c.77-.64,1.07-.97,1.07-1.48s-.34-.8-.83-.8-.8.27-1.26.83l-.95-.77c.61-.83,1.2-1.28,2.31-1.28,1.28,0,2.13.75,2.13,1.91v.02c0,1.03-.53,1.55-1.63,2.39l-1.01.78h2.69v1.17h-4.58v-1.08Z"/>
      </g>
      <g>
        <path class="cls-12" d="M443.42,197.88h4.71v1.24h-3.35v1.32h2.95v1.24h-2.95v2.39h-1.36v-6.18Z"/>
        <path class="cls-12" d="M449.11,197.61h1.41v1.19h-1.41v-1.19ZM449.14,199.33h1.34v4.74h-1.34v-4.74Z"/>
        <path class="cls-12" d="M451.52,201.72v-.02c0-1.35.96-2.46,2.34-2.46,1.58,0,2.31,1.23,2.31,2.57,0,.11,0,.23-.02.35h-3.3c.13.61.56.93,1.16.93.45,0,.78-.14,1.15-.49l.77.68c-.44.55-1.08.88-1.94.88-1.42,0-2.47-1-2.47-2.45ZM454.86,201.32c-.08-.6-.43-1.01-1-1.01s-.92.4-1.03,1.01h2.02Z"/>
        <path class="cls-12" d="M457.23,197.61h1.34v6.45h-1.34v-6.45Z"/>
        <path class="cls-12" d="M459.62,201.7v-.02c0-1.58,1.03-2.45,2.16-2.45.72,0,1.16.33,1.48.71v-2.33h1.34v6.45h-1.34v-.68c-.33.44-.78.77-1.48.77-1.1,0-2.16-.87-2.16-2.45ZM463.27,201.7v-.02c0-.79-.52-1.31-1.15-1.31s-1.16.51-1.16,1.31v.02c0,.79.53,1.31,1.16,1.31s1.15-.52,1.15-1.31Z"/>
        <path class="cls-12" d="M468.19,203.1l.94-.89c.42.48.87.74,1.49.74.51,0,.88-.29.88-.75v-.02c0-.5-.45-.79-1.21-.79h-.57l-.21-.87,1.47-1.48h-2.43v-1.17h4.18v1.02l-1.56,1.49c.84.14,1.66.58,1.66,1.73v.02c0,1.17-.85,2.02-2.23,2.02-1.11,0-1.88-.44-2.41-1.07Z"/>
      </g>
      <rect class="cls-15" x="336.49" y="213.51" width="46.09" height="20.06"/>
      <rect class="cls-11" x="385.28" y="213.51" width="46.09" height="20.06"/>
      <rect class="cls-11" x="434.06" y="213.51" width="46.09" height="20.06"/>
      <rect class="cls-11" x="336.49" y="236.34" width="46.09" height="20.06"/>
      <rect class="cls-15" x="385.28" y="236.34" width="46.09" height="20.06"/>
      <rect class="cls-15" x="434.06" y="236.34" width="46.09" height="20.06"/>
      <rect class="cls-11" x="336.49" y="259.17" width="46.09" height="20.06"/>
      <rect class="cls-15" x="385.28" y="259.17" width="46.09" height="20.06"/>
      <rect class="cls-11" x="434.06" y="259.17" width="46.09" height="20.06"/>
      <rect class="cls-7" x="290.38" y="304.68" width="206.9" height="144.23" rx="5.36" ry="5.36"/>
      <path class="cls-10" d="M491.91,304.68h-196.17c-2.96,0-5.36,2.4-5.36,5.36v15.91h206.9v-15.91c0-2.96-2.4-5.36-5.36-5.36Z"/>
      <g>
        <path class="cls-11" d="M301.49,317.16v-.02c0-1.76,1.33-3.2,3.22-3.2,1.17,0,1.86.39,2.44.95l-.87,1c-.48-.43-.96-.7-1.58-.7-1.04,0-1.79.87-1.79,1.93v.02c0,1.06.73,1.94,1.79,1.94.71,0,1.14-.28,1.63-.72l.87.87c-.64.68-1.34,1.1-2.54,1.1-1.82,0-3.17-1.4-3.17-3.18Z"/>
        <path class="cls-11" d="M307.82,317.89v-.02c0-1.36,1.1-2.46,2.57-2.46s2.55,1.09,2.55,2.45v.02c0,1.36-1.1,2.46-2.57,2.46s-2.55-1.09-2.55-2.45ZM311.62,317.89v-.02c0-.7-.5-1.31-1.25-1.31s-1.23.59-1.23,1.29v.02c0,.7.5,1.31,1.25,1.31s1.23-.59,1.23-1.29Z"/>
        <path class="cls-11" d="M313.92,315.5h1.34v.67c.31-.4.72-.76,1.4-.76.62,0,1.09.27,1.33.75.42-.49.91-.75,1.55-.75,1,0,1.6.6,1.6,1.74v3.08h-1.34v-2.64c0-.64-.28-.96-.79-.96s-.81.33-.81.96v2.64h-1.34v-2.64c0-.64-.28-.96-.79-.96s-.81.33-.81.96v2.64h-1.34v-4.74Z"/>
        <path class="cls-11" d="M322.32,315.5h1.34v.67c.31-.4.72-.76,1.4-.76.62,0,1.09.27,1.33.75.42-.49.91-.75,1.55-.75,1,0,1.6.6,1.6,1.74v3.08h-1.34v-2.64c0-.64-.28-.96-.79-.96s-.81.33-.81.96v2.64h-1.34v-2.64c0-.64-.28-.96-.79-.96s-.81.33-.81.96v2.64h-1.34v-4.74Z"/>
        <path class="cls-11" d="M330.68,318.56v-3.07h1.34v2.64c0,.64.3.96.81.96s.84-.33.84-.96v-2.64h1.34v4.74h-1.34v-.67c-.31.4-.71.76-1.39.76-1.02,0-1.61-.67-1.61-1.76Z"/>
        <path class="cls-11" d="M336.22,315.5h1.34v.67c.31-.4.71-.76,1.39-.76,1.02,0,1.61.67,1.61,1.76v3.07h-1.34v-2.64c0-.64-.3-.96-.81-.96s-.84.33-.84.96v2.64h-1.34v-4.74Z"/>
        <path class="cls-11" d="M341.75,313.78h1.41v1.19h-1.41v-1.19ZM341.79,315.5h1.34v4.74h-1.34v-4.74Z"/>
        <path class="cls-11" d="M344.17,317.89v-.02c0-1.35,1.03-2.46,2.48-2.46.89,0,1.45.3,1.89.79l-.82.88c-.3-.32-.6-.52-1.08-.52-.67,0-1.15.59-1.15,1.29v.02c0,.72.47,1.31,1.2,1.31.45,0,.76-.19,1.09-.5l.79.8c-.46.5-.99.87-1.94.87-1.42,0-2.46-1.1-2.46-2.45Z"/>
        <path class="cls-11" d="M349.16,318.87v-.02c0-1.03.79-1.51,1.91-1.51.48,0,.82.08,1.16.19v-.08c0-.56-.34-.87-1.02-.87-.51,0-.87.1-1.31.26l-.34-1.02c.52-.23,1.03-.38,1.84-.38.73,0,1.26.19,1.6.53.35.35.51.87.51,1.51v2.75h-1.3v-.51c-.33.36-.78.6-1.43.6-.89,0-1.63-.51-1.63-1.45ZM352.24,318.56v-.24c-.23-.11-.53-.18-.86-.18-.57,0-.93.23-.93.65v.02c0,.36.3.57.73.57.63,0,1.05-.34,1.05-.83Z"/>
        <path class="cls-11" d="M354.85,318.89v-2.24h-.57v-1.15h.57v-1.21h1.34v1.21h1.11v1.15h-1.11v2.02c0,.31.13.46.43.46.25,0,.47-.06.66-.17v1.08c-.28.17-.61.27-1.06.27-.82,0-1.38-.33-1.38-1.42Z"/>
        <path class="cls-11" d="M358.32,313.78h1.41v1.19h-1.41v-1.19ZM358.36,315.5h1.34v4.74h-1.34v-4.74Z"/>
        <path class="cls-11" d="M360.74,317.89v-.02c0-1.36,1.1-2.46,2.57-2.46s2.55,1.09,2.55,2.45v.02c0,1.36-1.1,2.46-2.57,2.46s-2.55-1.09-2.55-2.45ZM364.54,317.89v-.02c0-.7-.5-1.31-1.25-1.31s-1.23.59-1.23,1.29v.02c0,.7.5,1.31,1.25,1.31s1.23-.59,1.23-1.29Z"/>
        <path class="cls-11" d="M366.84,315.5h1.34v.67c.31-.4.71-.76,1.39-.76,1.02,0,1.61.67,1.61,1.76v3.07h-1.34v-2.64c0-.64-.3-.96-.81-.96s-.84.33-.84.96v2.64h-1.34v-4.74Z"/>
      </g>
      <rect class="cls-11" x="304.83" y="362.6" width="176.63" height="48.86"/>
      <rect class="cls-8" x="366.44" y="417.8" width="53.41" height="22.16"/>
      <rect class="cls-11" x="304.83" y="336" width="87.47" height="17.01"/>
      <rect class="cls-13" x="310.33" y="341.53" width="63.75" height="5.76"/>
      <rect class="cls-13" x="310.33" y="370.46" width="164.2" height="5.76"/>
      <rect class="cls-13" x="310.33" y="383.27" width="164.2" height="5.76"/>
      <rect class="cls-13" x="310.33" y="395.9" width="164.2" height="5.76"/>
      <g>
        <path class="cls-11" d="M382.48,431.06l.8-.96c.56.46,1.14.75,1.85.75.56,0,.89-.22.89-.58v-.02c0-.34-.21-.52-1.25-.79-1.25-.32-2.05-.66-2.05-1.89v-.02c0-1.12.9-1.86,2.16-1.86.9,0,1.67.28,2.3.79l-.71,1.02c-.55-.38-1.09-.61-1.61-.61s-.8.24-.8.54v.02c0,.41.27.54,1.33.81,1.25.33,1.96.78,1.96,1.85v.02c0,1.23-.94,1.92-2.27,1.92-.94,0-1.88-.33-2.62-.99Z"/>
        <path class="cls-11" d="M388.19,429.62v-.02c0-1.35.96-2.46,2.34-2.46,1.58,0,2.31,1.23,2.31,2.57,0,.11,0,.23-.02.35h-3.3c.13.61.56.93,1.16.93.45,0,.78-.14,1.15-.49l.77.68c-.44.55-1.08.88-1.94.88-1.42,0-2.47-1-2.47-2.45ZM391.53,429.23c-.08-.6-.43-1.01-1-1.01s-.92.4-1.02,1.01h2.02Z"/>
        <path class="cls-11" d="M393.83,427.23h1.34v.67c.31-.4.71-.76,1.39-.76,1.02,0,1.61.67,1.61,1.76v3.07h-1.34v-2.64c0-.64-.3-.96-.81-.96s-.84.33-.84.96v2.64h-1.34v-4.74Z"/>
        <path class="cls-11" d="M399.13,429.61v-.02c0-1.58,1.03-2.45,2.16-2.45.72,0,1.16.33,1.48.71v-2.33h1.34v6.45h-1.34v-.68c-.33.44-.78.77-1.48.77-1.1,0-2.16-.87-2.16-2.45ZM402.78,429.61v-.02c0-.79-.52-1.31-1.15-1.31s-1.16.51-1.16,1.31v.02c0,.79.53,1.31,1.16,1.31s1.15-.52,1.15-1.31Z"/>
      </g>
      <path class="cls-2" d="M274.86,377.61h0c-8.45,0-15.3-6.85-15.3-15.3V105.6c0-8.45,6.85-15.3,15.3-15.3h0"/>
      <line class="cls-2" x1="259.56" y1="228.64" x2="274.86" y2="228.64"/>
      <line class="cls-2" x1="218.33" y1="160.35" x2="259.34" y2="160.35"/>
      <rect class="cls-1" x="53.76" y="137.29" width="167.9" height="45.54"/>
      <g>
        <rect class="cls-13" x="95.88" y="156.5" width="111.54" height="7.71"/>
        <circle class="cls-15" cx="77.49" cy="160.36" r="9.49"/>
      </g>
      <polygon class="cls-9" points="281.5 90.27 274.72 85.12 274.72 95.43 281.5 90.27"/>
      <polygon class="cls-9" points="281.5 228.83 274.72 223.68 274.72 233.99 281.5 228.83"/>
      <polygon class="cls-9" points="281.5 377.59 274.72 372.44 274.72 382.74 281.5 377.59"/>
      <circle class="cls-14" cx="240.27" cy="160.3" r="7.93"/>
      <polygon class="cls-11" points="239.03 164.76 235.62 161.36 237.4 159.58 239.03 161.22 243.57 156.67 245.35 158.45 239.03 164.76"/>
    </g>
  </g>
</svg>