<?xml version="1.0" encoding="UTF-8"?>
<svg xmlns="http://www.w3.org/2000/svg" xmlns:xlink="http://www.w3.org/1999/xlink" version="1.1" viewBox="0 0 493.55 341.91">
  <defs>
    <style>
      .cls-1 {
        filter: url(#drop-shadow-1);
      }

      .cls-2 {
        font-size: 10.74px;
      }

      .cls-2, .cls-3 {
        font-family: Gotham-Bold, Gotham;
        font-weight: 700;
      }

      .cls-2, .cls-3, .cls-4 {
        fill: #fff;
      }

      .cls-5 {
        fill: #db4d25;
      }

      .cls-3 {
        font-size: 8.84px;
      }

      .cls-6 {
        fill: #4773ae;
      }

      .cls-7 {
        opacity: .35;
      }

      .cls-7, .cls-8, .cls-9 {
        fill: #cfd7db;
      }

      .cls-10 {
        fill: #f0cb48;
      }

      .cls-8 {
        filter: url(#drop-shadow-2);
      }

      .cls-11 {
        fill: #3874b6;
      }
    </style>
    <filter id="drop-shadow-1" filterUnits="userSpaceOnUse">
      <feOffset dx="3.6" dy="3.6"/>
      <feGaussianBlur result="blur" stdDeviation="1.44"/>
      <feFlood flood-color="#000" flood-opacity=".4"/>
      <feComposite in2="blur" operator="in"/>
      <feComposite in="SourceGraphic"/>
    </filter>
    <filter id="drop-shadow-2" filterUnits="userSpaceOnUse">
      <feOffset dx="3.6" dy="3.6"/>
      <feGaussianBlur result="blur-2" stdDeviation="1.44"/>
      <feFlood flood-color="#000" flood-opacity=".4"/>
      <feComposite in2="blur-2" operator="in"/>
      <feComposite in="SourceGraphic"/>
    </filter>
  </defs>
  <!-- Generator: Adobe Illustrator 28.6.0, SVG Export Plug-In . SVG Version: 1.2.0 Build 709)  -->
  <g>
    <g id="Layer_1">
      <g class="cls-1">
        <path class="cls-9" d="M365.89,20.95c0-2.96-2.4-5.36-5.36-5.36H16.17c-1.18,0-2.25.39-3.14,1.03-1.34.97-2.23,2.55-2.23,4.33v236.79c0,2.96,2.4,5.36,5.36,5.36h344.35c1.48,0,2.82-.6,3.79-1.57.04-.04.07-.09.11-.14.9-.96,1.46-2.24,1.46-3.65h0V36.86h0v-15.91Z"/>
      </g>
      <text class="cls-3" transform="translate(21.45 31.14)"><tspan x="0" y="0">Hotel Booking</tspan></text>
      <path class="cls-10" d="M365.89,36.86v-15.91c0-2.96-2.4-5.36-5.36-5.36H16.17c-2.96,0-5.36,2.4-5.36,5.36v15.91h355.08Z"/>
      <g>
        <path class="cls-4" d="M22.19,24.96h2.83c.79,0,1.4.22,1.8.63.34.34.53.83.53,1.41v.02c0,1-.54,1.63-1.33,1.92l1.51,2.21h-1.59l-1.33-1.98h-1.07v1.98h-1.36v-6.18ZM24.93,27.96c.66,0,1.04-.35,1.04-.87v-.02c0-.58-.41-.88-1.07-.88h-1.35v1.78h1.38Z"/>
        <path class="cls-4" d="M28.12,28.8v-.02c0-1.35.96-2.46,2.34-2.46,1.58,0,2.31,1.23,2.31,2.57,0,.11,0,.23-.02.35h-3.3c.13.61.56.93,1.16.93.45,0,.78-.14,1.15-.49l.77.68c-.44.55-1.08.88-1.94.88-1.42,0-2.47-1-2.47-2.45ZM31.46,28.41c-.08-.6-.43-1.01-1-1.01s-.92.4-1.02,1.01h2.02Z"/>
        <path class="cls-4" d="M33.8,32.08l.46-1.01c.49.27.97.43,1.6.43.92,0,1.35-.44,1.35-1.29v-.23c-.4.48-.83.77-1.55.77-1.1,0-2.1-.8-2.1-2.21v-.02c0-1.41,1.02-2.21,2.1-2.21.73,0,1.17.31,1.53.71v-.62h1.34v3.67c0,.85-.2,1.47-.6,1.86-.44.44-1.12.64-2.04.64-.77,0-1.49-.18-2.09-.49ZM37.21,28.55v-.02c0-.65-.5-1.1-1.16-1.1s-1.15.45-1.15,1.1v.02c0,.65.5,1.1,1.15,1.1s1.16-.45,1.16-1.1Z"/>
        <path class="cls-4" d="M39.76,24.69h1.41v1.19h-1.41v-1.19ZM39.8,26.41h1.34v4.74h-1.34v-4.74Z"/>
        <path class="cls-4" d="M42.03,30.52l.57-.88c.51.37,1.05.57,1.49.57.39,0,.57-.14.57-.35v-.02c0-.29-.46-.39-.98-.55-.66-.19-1.41-.5-1.41-1.42v-.02c0-.96.78-1.5,1.73-1.5.6,0,1.25.2,1.77.55l-.51.93c-.47-.27-.94-.44-1.28-.44-.33,0-.49.14-.49.33v.02c0,.26.45.39.96.57.66.22,1.43.54,1.43,1.4v.02c0,1.05-.79,1.53-1.81,1.53-.66,0-1.4-.22-2.03-.72Z"/>
        <path class="cls-4" d="M46.98,29.8v-2.24h-.57v-1.15h.57v-1.21h1.34v1.21h1.11v1.15h-1.11v2.02c0,.31.13.46.43.46.25,0,.47-.06.66-.17v1.08c-.28.17-.61.27-1.06.27-.82,0-1.38-.33-1.38-1.42Z"/>
        <path class="cls-4" d="M50.42,26.41h1.34v.95c.27-.65.72-1.08,1.51-1.04v1.4h-.07c-.89,0-1.44.54-1.44,1.67v1.75h-1.34v-4.74Z"/>
        <path class="cls-4" d="M53.61,29.78v-.02c0-1.03.79-1.51,1.91-1.51.48,0,.82.08,1.16.19v-.08c0-.56-.34-.87-1.02-.87-.51,0-.87.1-1.31.26l-.34-1.02c.52-.23,1.03-.38,1.84-.38.73,0,1.26.19,1.6.53.35.35.51.87.51,1.51v2.75h-1.3v-.51c-.33.36-.78.6-1.43.6-.89,0-1.63-.51-1.63-1.45ZM56.7,29.47v-.24c-.23-.11-.53-.18-.86-.18-.57,0-.93.23-.93.65v.02c0,.36.3.57.73.57.63,0,1.05-.34,1.05-.83Z"/>
        <path class="cls-4" d="M59.3,29.8v-2.24h-.57v-1.15h.57v-1.21h1.34v1.21h1.11v1.15h-1.11v2.02c0,.31.13.46.43.46.25,0,.47-.06.66-.17v1.08c-.28.17-.61.27-1.06.27-.82,0-1.38-.33-1.38-1.42Z"/>
        <path class="cls-4" d="M62.78,24.69h1.41v1.19h-1.41v-1.19ZM62.81,26.41h1.34v4.74h-1.34v-4.74Z"/>
        <path class="cls-4" d="M65.19,28.8v-.02c0-1.36,1.1-2.46,2.57-2.46s2.55,1.09,2.55,2.45v.02c0,1.36-1.1,2.46-2.57,2.46s-2.55-1.09-2.55-2.45ZM68.99,28.8v-.02c0-.7-.5-1.31-1.25-1.31s-1.23.59-1.23,1.29v.02c0,.7.5,1.31,1.25,1.31s1.23-.59,1.23-1.29Z"/>
        <path class="cls-4" d="M71.29,26.41h1.34v.67c.31-.4.71-.76,1.39-.76,1.02,0,1.61.67,1.61,1.76v3.07h-1.34v-2.64c0-.64-.3-.96-.81-.96s-.84.33-.84.96v2.64h-1.34v-4.74Z"/>
      </g>
      <rect class="cls-4" x="40.86" y="51.36" width="294.72" height="40.85"/>
      <g>
        <rect class="cls-9" x="83.1" y="64.66" width="50.42" height="5.76"/>
        <rect class="cls-7" x="83.1" y="73.14" width="21.98" height="5.76"/>
      </g>
      <rect class="cls-5" x="264.91" y="65.44" width="58.6" height="12.68" rx="2.84" ry="2.84"/>
      <circle class="cls-11" cx="64.67" cy="71.78" r="12.96"/>
      <rect class="cls-4" x="40.86" y="96.14" width="294.72" height="40.85"/>
      <g>
        <rect class="cls-9" x="83.1" y="109.44" width="50.42" height="5.76"/>
        <rect class="cls-7" x="83.1" y="117.92" width="21.98" height="5.76"/>
      </g>
      <rect class="cls-5" x="264.91" y="110.22" width="58.6" height="12.68" rx="2.84" ry="2.84"/>
      <circle class="cls-11" cx="64.67" cy="116.56" r="12.96"/>
      <rect class="cls-4" x="40.86" y="140.92" width="294.72" height="40.85"/>
      <g>
        <rect class="cls-9" x="83.1" y="154.23" width="50.42" height="5.76"/>
        <rect class="cls-7" x="83.1" y="162.7" width="21.98" height="5.76"/>
      </g>
      <rect class="cls-5" x="264.91" y="155.01" width="58.6" height="12.68" rx="2.84" ry="2.84"/>
      <circle class="cls-11" cx="64.67" cy="161.35" r="12.96"/>
      <rect class="cls-4" x="40.86" y="185.7" width="294.72" height="40.85"/>
      <g>
        <rect class="cls-9" x="83.1" y="199.01" width="50.42" height="5.76"/>
        <rect class="cls-7" x="83.1" y="207.49" width="21.98" height="5.76"/>
      </g>
      <rect class="cls-5" x="264.91" y="199.79" width="58.6" height="12.68" rx="2.84" ry="2.84"/>
      <circle class="cls-11" cx="64.67" cy="206.13" r="12.96"/>
      <path class="cls-8" d="M454.7,128.51h-147.86c-6.91,0-12.5,5.6-12.5,12.5v172.52c0,6.91,5.6,12.5,12.5,12.5h147.86c6.91,0,12.5-5.6,12.5-12.5v-172.52c0-6.91-5.6-12.5-12.5-12.5Z"/>
      <g>
        <text class="cls-2" transform="translate(408.23 310.22)"><tspan x="0" y="0">Select</tspan></text>
        <g>
          <path class="cls-4" d="M306.85,128.76h147.86c6.76,0,12.25,5.49,12.25,12.25v172.52c0,6.76-5.49,12.25-12.25,12.25h-147.86c-6.76,0-12.25-5.49-12.25-12.25v-172.52c0-6.76,5.49-12.25,12.25-12.25Z"/>
          <path class="cls-9" d="M454.7,129.01c6.62,0,12,5.39,12,12v172.52c0,6.62-5.39,12-12,12h-147.86c-6.62,0-12-5.39-12-12v-172.52c0-6.62,5.39-12,12-12h147.86M454.7,128.51h-147.86c-6.91,0-12.5,5.6-12.5,12.5v172.52c0,6.91,5.6,12.5,12.5,12.5h147.86c6.91,0,12.5-5.6,12.5-12.5v-172.52c0-6.91-5.6-12.5-12.5-12.5h0Z"/>
        </g>
        <path class="cls-9" d="M294.34,286.09v27.31c0,6.98,5.66,12.64,12.64,12.64h147.6c6.98,0,12.64-5.66,12.64-12.64v-27.31h-172.87Z"/>
        <rect class="cls-5" x="344.56" y="296.36" width="74.19" height="19.68" rx="2" ry="2"/>
        <g>
          <path class="cls-4" d="M353.22,306.48v-.02c0-2.14,1.61-3.89,3.92-3.89,1.42,0,2.27.47,2.96,1.16l-1.05,1.21c-.58-.53-1.17-.85-1.92-.85-1.27,0-2.18,1.05-2.18,2.34v.02c0,1.29.89,2.36,2.18,2.36.86,0,1.39-.34,1.98-.88l1.05,1.06c-.77.83-1.63,1.34-3.08,1.34-2.21,0-3.86-1.71-3.86-3.87Z"/>
          <path class="cls-4" d="M361.31,302.38h1.63v2.9c.38-.48.86-.92,1.69-.92,1.24,0,1.96.82,1.96,2.14v3.73h-1.63v-3.21c0-.77-.37-1.17-.99-1.17s-1.02.4-1.02,1.17v3.21h-1.63v-7.84Z"/>
          <path class="cls-4" d="M367.72,307.37v-.02c0-1.64,1.17-3,2.85-3,1.92,0,2.8,1.49,2.8,3.13,0,.13-.01.28-.02.43h-4.01c.16.74.68,1.13,1.41,1.13.55,0,.95-.17,1.4-.59l.93.83c-.54.67-1.31,1.07-2.35,1.07-1.73,0-3.01-1.21-3.01-2.98ZM371.78,306.89c-.1-.73-.53-1.22-1.21-1.22s-1.12.48-1.25,1.22h2.46Z"/>
          <path class="cls-4" d="M374.31,307.37v-.02c0-1.64,1.26-3,3.02-3,1.08,0,1.76.37,2.3.97l-1,1.07c-.37-.39-.73-.63-1.31-.63-.82,0-1.4.72-1.4,1.57v.02c0,.88.57,1.59,1.46,1.59.55,0,.92-.24,1.32-.61l.96.97c-.56.61-1.2,1.05-2.35,1.05-1.73,0-3-1.33-3-2.98Z"/>
          <path class="cls-4" d="M380.72,302.38h1.63v4.18l1.91-2.09h1.96l-2.19,2.27,2.27,3.49h-1.87l-1.5-2.35-.57.6v1.75h-1.63v-7.84Z"/>
          <path class="cls-4" d="M390.14,306.48v-.02c0-2.14,1.69-3.89,4.01-3.89s3.99,1.73,3.99,3.87v.02c0,2.14-1.69,3.89-4.01,3.89s-3.99-1.73-3.99-3.87ZM396.4,306.48v-.02c0-1.29-.95-2.36-2.28-2.36s-2.26,1.05-2.26,2.34v.02c0,1.29.95,2.36,2.28,2.36s2.26-1.05,2.26-2.34Z"/>
          <path class="cls-4" d="M399.39,308.19v-3.73h1.63v3.21c0,.77.37,1.17.99,1.17s1.02-.4,1.02-1.17v-3.21h1.63v5.76h-1.63v-.82c-.38.48-.86.92-1.69.92-1.24,0-1.96-.82-1.96-2.14Z"/>
          <path class="cls-4" d="M406.39,308.58v-2.73h-.69v-1.4h.69v-1.47h1.63v1.47h1.35v1.4h-1.35v2.46c0,.38.16.56.53.56.3,0,.57-.08.81-.2v1.31c-.34.2-.74.33-1.29.33-1,0-1.68-.4-1.68-1.73Z"/>
        </g>
      </g>
      <circle class="cls-10" cx="453.54" cy="141.56" r="28.68"/>
      <polygon class="cls-4" points="449.03 157.72 436.7 145.39 443.12 138.97 449.03 144.88 465.47 128.44 471.89 134.86 449.03 157.72"/>
      <g>
        <rect class="cls-9" x="309.23" y="189.59" width="101.2" height="5.76"/>
        <rect class="cls-7" x="309.23" y="198.07" width="44.12" height="5.76"/>
      </g>
      <rect class="cls-9" x="325.86" y="232.48" width="44.27" height="5.76"/>
      <g id="rUUimc.tif">
        <path class="cls-6" d="M309.3,150.54c.24-.59.69-.79,1.31-.77,1.12.03,2.25,0,3.37,0,1.37,0,2.23.67,2.59,2,.35,1.31.71,2.62,1.05,3.93.06.24.16.32.41.32,4.94.01,9.89.04,14.83.06,2.94.01,5.89.03,8.83.04,1.44,0,2.38,1.14,2.06,2.54-.8,3.54-1.62,7.09-2.45,10.62-.27,1.17-1.24,1.9-2.46,1.93-.43.01-.85,0-1.28,0-5.98,0-11.96,0-17.94,0-.16,0-.32,0-.47.02-.58.06-1,.53-1,1.12s.42,1.05,1.01,1.11c.16.02.31.01.47.01h19.76c.8,0,1.28.46,1.2,1.15-.04.39-.29.64-.64.82.67,1.83.34,3.4-1.3,4.54-1.19.83-2.82.75-3.99-.1-1.34-.98-1.71-2.34-1.17-4.36h-6.3c.63,1.8.29,3.35-1.32,4.44-1.25.85-2.62.84-3.86,0-1.6-1.09-1.93-2.63-1.3-4.47-.48,0-.94,0-1.4,0-1.64-.03-2.91-1.11-3.16-2.71-.27-1.72,1-3.38,2.73-3.58.08,0,.15-.02.26-.03-.03-.13-.05-.25-.08-.37-1.48-5.5-2.97-11-4.45-16.5-.12-.44-.2-.51-.65-.51-1.12,0-2.25-.02-3.37,0-.62.01-1.07-.2-1.29-.8v-.47h0ZM323.41,162.65c-.01-.17-.02-.29-.03-.41-.17-1.27-.36-2.53-.5-3.8-.04-.32-.15-.38-.43-.37-1.19,0-2.38,0-3.57-.02h-.62c.41,1.51.79,2.96,1.19,4.4.02.08.14.19.21.19,1.23.01,2.46,0,3.75,0h0ZM331.38,158.12v4.5c.05.01.08.03.12.03,1.17,0,2.33,0,3.5,0,.2,0,.24-.1.26-.26.13-1.01.27-2.02.4-3.03.05-.4.1-.81.15-1.24h-4.43,0ZM324.89,158.1s-.02.07-.01.09c.19,1.41.37,2.82.56,4.23.03.21.14.24.32.24,1.11,0,2.22,0,3.33,0,.07,0,.15-.02.22-.03v-4.53h-4.41ZM340.77,162.64c.35-1.49.69-2.97,1.04-4.5-1.28,0-2.53,0-3.77,0-.07,0-.19.14-.2.23-.14,1-.27,2-.41,3-.05.42-.1.83-.15,1.26h3.49ZM320.04,164.68c.39,1.43.76,2.82,1.16,4.19.04.14.28.3.43.31.87.03,1.74.01,2.65.01,0-.15-.01-.27-.03-.39-.17-1.28-.35-2.55-.51-3.83-.03-.23-.1-.3-.33-.3-.88.01-1.75,0-2.62,0h-.75ZM334.94,164.71h-3.56v4.49c.94,0,1.85,0,2.76,0,.18,0,.23-.07.25-.24.05-.43.11-.87.17-1.3.13-.98.26-1.96.39-2.96h0ZM325.75,164.7c.19,1.45.38,2.86.56,4.28.02.19.11.23.29.23.76,0,1.53,0,2.29,0h.42v-4.5h-3.56,0ZM340.29,164.7h-3.3c-.2,1.5-.39,2.98-.59,4.5.85,0,1.67.01,2.49,0,.3,0,.43-.23.49-.51.18-.82.37-1.64.56-2.46.12-.5.23-1,.35-1.52h0ZM323.95,178.53c.84,0,1.53-.68,1.53-1.51,0-.83-.7-1.52-1.53-1.52-.82,0-1.5.68-1.5,1.51,0,.85.66,1.52,1.51,1.52h0ZM336.73,178.53c.85,0,1.52-.66,1.52-1.51,0-.84-.69-1.53-1.52-1.52-.82,0-1.5.68-1.51,1.5-.01.84.66,1.52,1.5,1.53h0Z"/>
      </g>
      <g>
        <path d="M311.44,216.16h1.25l2.65,6.23h-1.42l-.57-1.39h-2.62l-.57,1.39h-1.39l2.65-6.23ZM312.87,219.8l-.82-2.01-.82,2.01h1.64Z"/>
        <path d="M315.73,220.03v-.02c0-1.58,1.03-2.45,2.16-2.45.72,0,1.16.33,1.48.71v-2.33h1.34v6.45h-1.34v-.68c-.33.44-.78.77-1.48.77-1.1,0-2.16-.87-2.16-2.45ZM319.38,220.03v-.02c0-.79-.52-1.31-1.15-1.31s-1.16.51-1.16,1.31v.02c0,.79.53,1.31,1.16,1.31s1.15-.52,1.15-1.31Z"/>
        <path d="M321.7,220.03v-.02c0-1.58,1.03-2.45,2.16-2.45.72,0,1.16.33,1.48.71v-2.33h1.34v6.45h-1.34v-.68c-.33.44-.78.77-1.48.77-1.1,0-2.16-.87-2.16-2.45ZM325.35,220.03v-.02c0-.79-.52-1.31-1.15-1.31s-1.16.51-1.16,1.31v.02c0,.79.53,1.31,1.16,1.31s1.15-.52,1.15-1.31Z"/>
        <path d="M327.71,219h2.72v1.29h-2.72v-1.29Z"/>
        <path d="M331.25,220.05v-.02c0-1.36,1.1-2.46,2.57-2.46s2.55,1.09,2.55,2.45v.02c0,1.36-1.1,2.46-2.57,2.46s-2.55-1.09-2.55-2.45ZM335.05,220.05v-.02c0-.7-.5-1.31-1.25-1.31s-1.23.59-1.23,1.29v.02c0,.7.5,1.31,1.25,1.31s1.23-.59,1.23-1.29Z"/>
        <path d="M337.35,217.65h1.34v.67c.31-.4.71-.76,1.39-.76,1.02,0,1.61.67,1.61,1.76v3.07h-1.34v-2.64c0-.64-.3-.96-.81-.96s-.84.33-.84.96v2.64h-1.34v-4.74Z"/>
        <path d="M342.48,221.76l.57-.88c.51.37,1.05.57,1.49.57.39,0,.57-.14.57-.35v-.02c0-.29-.46-.39-.98-.55-.66-.19-1.41-.5-1.41-1.42v-.02c0-.96.78-1.5,1.73-1.5.6,0,1.25.2,1.77.55l-.51.93c-.47-.27-.94-.44-1.28-.44-.33,0-.49.14-.49.33v.02c0,.26.45.39.96.57.66.22,1.43.54,1.43,1.4v.02c0,1.05-.79,1.53-1.81,1.53-.66,0-1.4-.22-2.03-.72Z"/>
      </g>
      <g>
        <path d="M309.32,253.57h2.41c1.94,0,3.29,1.33,3.29,3.07v.02c0,1.74-1.34,3.09-3.29,3.09h-2.41v-6.18ZM311.73,258.52c1.11,0,1.86-.75,1.86-1.85v-.02c0-1.1-.75-1.86-1.86-1.86h-1.05v3.73h1.05Z"/>
        <path d="M316.12,253.3h1.41v1.19h-1.41v-1.19ZM316.15,255.02h1.34v4.74h-1.34v-4.74Z"/>
        <path d="M318.39,259.12l.57-.88c.51.37,1.05.57,1.49.57.39,0,.57-.14.57-.35v-.02c0-.29-.46-.39-.98-.55-.66-.19-1.41-.5-1.41-1.42v-.02c0-.96.78-1.5,1.73-1.5.6,0,1.25.2,1.77.55l-.51.93c-.47-.27-.94-.44-1.28-.44-.33,0-.49.14-.49.33v.02c0,.26.45.39.96.57.66.22,1.43.54,1.43,1.4v.02c0,1.05-.79,1.53-1.81,1.53-.66,0-1.4-.22-2.03-.72Z"/>
        <path d="M322.97,257.41v-.02c0-1.35,1.03-2.46,2.48-2.46.89,0,1.45.3,1.89.79l-.82.88c-.3-.32-.6-.52-1.08-.52-.67,0-1.15.59-1.15,1.29v.02c0,.72.47,1.31,1.2,1.31.45,0,.76-.19,1.09-.5l.79.8c-.46.5-.99.87-1.94.87-1.42,0-2.46-1.1-2.46-2.45Z"/>
        <path d="M327.88,257.41v-.02c0-1.36,1.1-2.46,2.57-2.46s2.55,1.09,2.55,2.45v.02c0,1.36-1.1,2.46-2.57,2.46s-2.55-1.09-2.55-2.45ZM331.68,257.41v-.02c0-.7-.5-1.31-1.25-1.31s-1.23.59-1.23,1.29v.02c0,.7.5,1.31,1.25,1.31s1.23-.59,1.23-1.29Z"/>
        <path d="M333.95,258.08v-3.07h1.34v2.64c0,.64.3.96.81.96s.84-.33.84-.96v-2.64h1.34v4.74h-1.34v-.67c-.31.4-.71.76-1.39.76-1.02,0-1.61-.67-1.61-1.76Z"/>
        <path d="M339.49,255.02h1.34v.67c.31-.4.71-.76,1.39-.76,1.02,0,1.61.67,1.61,1.76v3.07h-1.34v-2.64c0-.64-.3-.96-.81-.96s-.84.33-.84.96v2.64h-1.34v-4.74Z"/>
        <path d="M345.21,258.41v-2.24h-.57v-1.15h.57v-1.21h1.34v1.21h1.11v1.15h-1.11v2.02c0,.31.13.46.43.46.25,0,.47-.06.66-.17v1.08c-.28.17-.61.27-1.06.27-.82,0-1.38-.33-1.38-1.42Z"/>
        <path d="M348.29,259.12l.57-.88c.51.37,1.05.57,1.49.57.39,0,.57-.14.57-.35v-.02c0-.29-.46-.39-.98-.55-.66-.19-1.41-.5-1.41-1.42v-.02c0-.96.78-1.5,1.73-1.5.6,0,1.25.2,1.77.55l-.51.93c-.47-.27-.94-.44-1.28-.44-.33,0-.49.14-.49.33v.02c0,.26.45.39.96.57.66.22,1.43.54,1.43,1.4v.02c0,1.05-.79,1.53-1.81,1.53-.66,0-1.4-.22-2.03-.72Z"/>
      </g>
      <g>
        <path d="M310.76,270.78h-1.88v-1.25h5.12v1.25h-1.88v4.93h-1.36v-4.93Z"/>
        <path d="M313.75,273.37v-.02c0-1.36,1.1-2.46,2.57-2.46s2.55,1.09,2.55,2.45v.02c0,1.36-1.1,2.46-2.57,2.46s-2.55-1.09-2.55-2.45ZM317.55,273.37v-.02c0-.7-.5-1.31-1.25-1.31s-1.23.59-1.23,1.29v.02c0,.7.5,1.31,1.25,1.31s1.23-.59,1.23-1.29Z"/>
        <path d="M320.07,274.37v-2.24h-.57v-1.15h.57v-1.21h1.34v1.21h1.11v1.15h-1.11v2.02c0,.31.13.46.43.46.25,0,.47-.06.66-.17v1.08c-.28.17-.61.27-1.06.27-.82,0-1.38-.33-1.38-1.42Z"/>
        <path d="M323.23,274.35v-.02c0-1.03.79-1.51,1.91-1.51.48,0,.82.08,1.16.19v-.08c0-.56-.34-.87-1.02-.87-.51,0-.87.1-1.31.26l-.34-1.02c.52-.23,1.03-.38,1.84-.38.73,0,1.26.19,1.6.53.35.35.51.87.51,1.51v2.75h-1.3v-.51c-.33.36-.78.6-1.43.6-.89,0-1.63-.51-1.63-1.45ZM326.32,274.04v-.24c-.23-.11-.53-.18-.86-.18-.57,0-.93.23-.93.65v.02c0,.36.3.57.73.57.63,0,1.05-.34,1.05-.83Z"/>
        <path d="M328.81,269.27h1.34v6.45h-1.34v-6.45Z"/>
      </g>
      <rect class="cls-9" x="309.23" y="229.49" width="12.96" height="12.96" rx="1.87" ry="1.87"/>
    </g>
  </g>
</svg>