<?xml version="1.0" encoding="UTF-8"?>
<svg xmlns="http://www.w3.org/2000/svg" xmlns:xlink="http://www.w3.org/1999/xlink" version="1.1" viewBox="0 0 617.25 311.98">
  <defs>
    <style>
      .cls-1 {
        fill: #f1ce46;
      }

      .cls-2 {
        fill: #db4d25;
      }

      .cls-3 {
        fill: #231f20;
      }

      .cls-4 {
        stroke: #231f20;
      }

      .cls-4, .cls-5 {
        fill: none;
        stroke-miterlimit: 10;
        stroke-width: 2px;
      }

      .cls-6 {
        fill: #f0cb48;
      }

      .cls-7 {
        fill: #fff;
      }

      .cls-8 {
        fill: #ec3e02;
      }

      .cls-9 {
        fill: #221f20;
      }

      .cls-10 {
        fill: #cfd7db;
      }

      .cls-11 {
        fill: #60d092;
      }

      .cls-12 {
        filter: url(#drop-shadow-1);
      }

      .cls-12, .cls-13 {
        fill: #ebeff2;
      }

      .cls-13 {
        filter: url(#drop-shadow-2);
      }

      .cls-5 {
        stroke: #fff;
      }
    </style>
    <filter id="drop-shadow-1" filterUnits="userSpaceOnUse">
      <feOffset dx="3.6" dy="3.6"/>
      <feGaussianBlur result="blur" stdDeviation="1.44"/>
      <feFlood flood-color="#000" flood-opacity=".4"/>
      <feComposite in2="blur" operator="in"/>
      <feComposite in="SourceGraphic"/>
    </filter>
    <filter id="drop-shadow-2" filterUnits="userSpaceOnUse">
      <feOffset dx="3.6" dy="3.6"/>
      <feGaussianBlur result="blur-2" stdDeviation="1.44"/>
      <feFlood flood-color="#000" flood-opacity=".4"/>
      <feComposite in2="blur-2" operator="in"/>
      <feComposite in="SourceGraphic"/>
    </filter>
  </defs>
  <!-- Generator: Adobe Illustrator 28.6.0, SVG Export Plug-In . SVG Version: 1.2.0 Build 709)  -->
  <g>
    <g id="Layer_1">
      <rect class="cls-12" x="48.85" y="40.64" width="270.81" height="224.61" rx="5.36" ry="5.36"/>
      <path class="cls-1" d="M312.74,40.64H56.2c-3.87,0-7.02,2.4-7.02,5.36v15.91h270.56v-15.91c0-2.96-3.14-5.36-7.02-5.36Z"/>
      <g>
        <path class="cls-7" d="M62.01,51.26h-1.88v-1.25h5.12v1.25h-1.88v4.93h-1.36v-4.93Z"/>
        <path class="cls-7" d="M65,53.85v-.02c0-1.36,1.1-2.46,2.57-2.46s2.55,1.09,2.55,2.45v.02c0,1.36-1.1,2.46-2.57,2.46s-2.55-1.09-2.55-2.45ZM68.8,53.85v-.02c0-.7-.5-1.31-1.25-1.31s-1.23.59-1.23,1.29v.02c0,.7.5,1.31,1.25,1.31s1.23-.59,1.23-1.29Z"/>
        <path class="cls-7" d="M71.06,54.52v-3.07h1.34v2.64c0,.64.3.96.81.96s.84-.33.84-.96v-2.64h1.34v4.74h-1.34v-.67c-.31.4-.71.76-1.39.76-1.02,0-1.61-.67-1.61-1.76Z"/>
        <path class="cls-7" d="M76.6,51.46h1.34v.95c.27-.65.72-1.08,1.51-1.04v1.4h-.07c-.89,0-1.44.54-1.44,1.67v1.75h-1.34v-4.74Z"/>
        <path class="cls-7" d="M80.3,51.46h1.34v.67c.31-.4.71-.76,1.39-.76,1.02,0,1.61.67,1.61,1.76v3.07h-1.34v-2.64c0-.64-.3-.96-.81-.96s-.84.33-.84.96v2.64h-1.34v-4.74Z"/>
        <path class="cls-7" d="M85.52,54.83v-.02c0-1.03.79-1.51,1.91-1.51.48,0,.82.08,1.16.19v-.08c0-.56-.34-.87-1.02-.87-.51,0-.87.1-1.31.26l-.34-1.02c.52-.23,1.03-.38,1.84-.38.73,0,1.26.19,1.6.53.35.35.51.87.51,1.51v2.75h-1.3v-.51c-.33.36-.78.6-1.43.6-.89,0-1.63-.51-1.63-1.45ZM88.6,54.52v-.24c-.23-.11-.53-.18-.86-.18-.57,0-.93.23-.93.65v.02c0,.36.3.57.73.57.63,0,1.05-.34,1.05-.83Z"/>
        <path class="cls-7" d="M91.04,51.46h1.34v.67c.31-.4.72-.76,1.4-.76.62,0,1.09.27,1.33.75.42-.49.91-.75,1.55-.75,1,0,1.6.6,1.6,1.74v3.08h-1.34v-2.64c0-.64-.28-.96-.79-.96s-.81.33-.81.96v2.64h-1.34v-2.64c0-.64-.28-.96-.79-.96s-.81.33-.81.96v2.64h-1.34v-4.74Z"/>
        <path class="cls-7" d="M99.2,53.85v-.02c0-1.35.96-2.46,2.34-2.46,1.58,0,2.31,1.23,2.31,2.57,0,.11,0,.23-.02.35h-3.3c.13.61.56.93,1.16.93.45,0,.78-.14,1.15-.49l.77.68c-.44.55-1.08.88-1.94.88-1.42,0-2.47-1-2.47-2.45ZM102.54,53.45c-.08-.6-.43-1.01-1-1.01s-.92.4-1.02,1.01h2.02Z"/>
        <path class="cls-7" d="M104.85,51.46h1.34v.67c.31-.4.71-.76,1.39-.76,1.02,0,1.61.67,1.61,1.76v3.07h-1.34v-2.64c0-.64-.3-.96-.81-.96s-.84.33-.84.96v2.64h-1.34v-4.74Z"/>
        <path class="cls-7" d="M110.58,54.85v-2.24h-.57v-1.15h.57v-1.21h1.34v1.21h1.11v1.15h-1.11v2.02c0,.31.13.46.43.46.25,0,.47-.06.66-.17v1.08c-.28.17-.61.27-1.06.27-.82,0-1.38-.33-1.38-1.42Z"/>
        <path class="cls-7" d="M116.82,50.01h2.53c1.48,0,2.37.88,2.37,2.14v.02c0,1.43-1.11,2.17-2.5,2.17h-1.03v1.86h-1.36v-6.18ZM119.25,53.13c.68,0,1.08-.41,1.08-.94v-.02c0-.61-.42-.94-1.1-.94h-1.05v1.89h1.08Z"/>
        <path class="cls-7" d="M122.64,49.74h1.34v6.45h-1.34v-6.45Z"/>
        <path class="cls-7" d="M124.96,54.83v-.02c0-1.03.79-1.51,1.91-1.51.48,0,.82.08,1.16.19v-.08c0-.56-.34-.87-1.02-.87-.51,0-.87.1-1.31.26l-.34-1.02c.52-.23,1.03-.38,1.84-.38.73,0,1.26.19,1.6.53.35.35.51.87.51,1.51v2.75h-1.3v-.51c-.33.36-.78.6-1.43.6-.89,0-1.63-.51-1.63-1.45ZM128.05,54.52v-.24c-.23-.11-.53-.18-.86-.18-.57,0-.93.23-.93.65v.02c0,.36.3.57.73.57.63,0,1.05-.34,1.05-.83Z"/>
        <path class="cls-7" d="M130.24,57.31l.45-.97c.18.11.4.19.57.19.23,0,.35-.07.47-.31l-1.86-4.75h1.42l1.08,3.22,1.03-3.22h1.4l-1.82,4.85c-.36.96-.75,1.33-1.56,1.33-.49,0-.85-.12-1.19-.33Z"/>
        <path class="cls-7" d="M135.11,53.85v-.02c0-1.35.96-2.46,2.34-2.46,1.58,0,2.31,1.23,2.31,2.57,0,.11,0,.23-.02.35h-3.3c.13.61.56.93,1.16.93.45,0,.78-.14,1.15-.49l.77.68c-.44.55-1.08.88-1.94.88-1.42,0-2.47-1-2.47-2.45ZM138.45,53.45c-.08-.6-.43-1.01-1-1.01s-.92.4-1.02,1.01h2.02Z"/>
        <path class="cls-7" d="M140.76,51.46h1.34v.95c.27-.65.72-1.08,1.51-1.04v1.4h-.07c-.89,0-1.44.54-1.44,1.67v1.75h-1.34v-4.74Z"/>
        <path class="cls-7" d="M147.25,50.01h2.83c.79,0,1.4.22,1.8.63.34.34.53.83.53,1.41v.02c0,1-.54,1.63-1.33,1.92l1.51,2.21h-1.59l-1.33-1.98h-1.07v1.98h-1.36v-6.18ZM149.98,53.01c.66,0,1.04-.35,1.04-.87v-.02c0-.58-.41-.88-1.07-.88h-1.35v1.78h1.38Z"/>
        <path class="cls-7" d="M153.18,53.85v-.02c0-1.36,1.1-2.46,2.57-2.46s2.55,1.09,2.55,2.45v.02c0,1.36-1.1,2.46-2.57,2.46s-2.55-1.09-2.55-2.45ZM156.98,53.85v-.02c0-.7-.5-1.31-1.25-1.31s-1.23.59-1.23,1.29v.02c0,.7.5,1.31,1.25,1.31s1.23-.59,1.23-1.29Z"/>
        <path class="cls-7" d="M158.9,55.57l.57-.88c.51.37,1.05.57,1.49.57.39,0,.57-.14.57-.35v-.02c0-.29-.46-.39-.98-.55-.66-.19-1.41-.5-1.41-1.42v-.02c0-.96.78-1.5,1.73-1.5.6,0,1.25.2,1.77.55l-.51.93c-.47-.27-.94-.44-1.28-.44-.33,0-.49.14-.49.33v.02c0,.26.45.39.96.57.66.22,1.43.54,1.43,1.4v.02c0,1.05-.79,1.53-1.81,1.53-.66,0-1.4-.22-2.03-.72Z"/>
        <path class="cls-7" d="M163.84,54.85v-2.24h-.57v-1.15h.57v-1.21h1.34v1.21h1.11v1.15h-1.11v2.02c0,.31.13.46.43.46.25,0,.47-.06.66-.17v1.08c-.28.17-.61.27-1.06.27-.82,0-1.38-.33-1.38-1.42Z"/>
        <path class="cls-7" d="M166.93,53.85v-.02c0-1.35.96-2.46,2.34-2.46,1.58,0,2.31,1.23,2.31,2.57,0,.11,0,.23-.02.35h-3.3c.13.61.56.93,1.16.93.45,0,.78-.14,1.15-.49l.77.68c-.44.55-1.08.88-1.94.88-1.42,0-2.47-1-2.47-2.45ZM170.27,53.45c-.08-.6-.43-1.01-1-1.01s-.92.4-1.02,1.01h2.02Z"/>
        <path class="cls-7" d="M172.58,51.46h1.34v.95c.27-.65.72-1.08,1.51-1.04v1.4h-.07c-.89,0-1.44.54-1.44,1.67v1.75h-1.34v-4.74Z"/>
      </g>
      <g>
        <path class="cls-9" d="M222.19,71.29h2.53c1.48,0,2.37.88,2.37,2.14v.02c0,1.43-1.11,2.17-2.5,2.17h-1.03v1.86h-1.36v-6.18ZM224.62,74.41c.68,0,1.08-.41,1.08-.94v-.02c0-.61-.42-.94-1.1-.94h-1.05v1.89h1.08Z"/>
        <path class="cls-9" d="M227.58,76.12v-.02c0-1.03.79-1.51,1.91-1.51.48,0,.82.08,1.16.19v-.08c0-.56-.34-.87-1.02-.87-.51,0-.87.1-1.31.26l-.34-1.02c.52-.23,1.03-.38,1.84-.38.73,0,1.26.19,1.6.53.35.35.51.87.51,1.51v2.75h-1.3v-.51c-.33.36-.78.6-1.43.6-.89,0-1.63-.51-1.63-1.45ZM230.66,75.81v-.24c-.23-.11-.53-.18-.86-.18-.57,0-.93.23-.93.65v.02c0,.36.3.57.73.57.63,0,1.05-.34,1.05-.83Z"/>
        <path class="cls-9" d="M233.12,71.03h1.41v1.19h-1.41v-1.19ZM233.15,72.74h1.34v4.74h-1.34v-4.74Z"/>
        <path class="cls-9" d="M235.55,75.12v-.02c0-1.58,1.03-2.45,2.16-2.45.72,0,1.16.33,1.48.71v-2.33h1.34v6.45h-1.34v-.68c-.33.44-.78.77-1.48.77-1.1,0-2.16-.87-2.16-2.45ZM239.2,75.12v-.02c0-.79-.52-1.31-1.15-1.31s-1.16.51-1.16,1.31v.02c0,.79.53,1.31,1.16,1.31s1.15-.52,1.15-1.31Z"/>
      </g>
      <g>
        <path class="cls-9" d="M263.89,71.29h1.47l1.63,2.62,1.63-2.62h1.47v6.18h-1.35v-4.04l-1.74,2.64h-.04l-1.72-2.62v4.01h-1.33v-6.18Z"/>
        <path class="cls-9" d="M271.19,75.13v-.02c0-1.35.96-2.46,2.34-2.46,1.58,0,2.31,1.23,2.31,2.57,0,.11,0,.23-.02.35h-3.3c.13.61.56.93,1.16.93.45,0,.78-.14,1.15-.49l.77.68c-.44.55-1.08.88-1.94.88-1.42,0-2.47-1-2.47-2.45ZM274.53,74.74c-.08-.6-.43-1.01-1-1.01s-.92.4-1.02,1.01h2.02Z"/>
        <path class="cls-9" d="M276.47,76.85l.57-.88c.51.37,1.05.57,1.49.57.39,0,.57-.14.57-.35v-.02c0-.29-.46-.39-.98-.55-.66-.19-1.41-.5-1.41-1.42v-.02c0-.96.78-1.5,1.73-1.5.6,0,1.25.2,1.77.55l-.51.93c-.47-.27-.94-.44-1.28-.44-.33,0-.49.14-.49.33v.02c0,.26.45.39.96.57.66.22,1.43.54,1.43,1.4v.02c0,1.05-.79,1.53-1.81,1.53-.66,0-1.4-.22-2.03-.72Z"/>
        <path class="cls-9" d="M280.82,76.85l.57-.88c.51.37,1.05.57,1.49.57.39,0,.57-.14.57-.35v-.02c0-.29-.46-.39-.98-.55-.66-.19-1.41-.5-1.41-1.42v-.02c0-.96.78-1.5,1.73-1.5.6,0,1.25.2,1.77.55l-.51.93c-.47-.27-.94-.44-1.28-.44-.33,0-.49.14-.49.33v.02c0,.26.45.39.96.57.66.22,1.43.54,1.43,1.4v.02c0,1.05-.79,1.53-1.81,1.53-.66,0-1.4-.22-2.03-.72Z"/>
        <path class="cls-9" d="M285.34,76.12v-.02c0-1.03.79-1.51,1.91-1.51.48,0,.82.08,1.16.19v-.08c0-.56-.34-.87-1.02-.87-.51,0-.87.1-1.31.26l-.34-1.02c.52-.23,1.03-.38,1.84-.38.73,0,1.26.19,1.6.53.35.35.51.87.51,1.51v2.75h-1.3v-.51c-.33.36-.78.6-1.43.6-.89,0-1.63-.51-1.63-1.45ZM288.42,75.81v-.24c-.23-.11-.53-.18-.86-.18-.57,0-.93.23-.93.65v.02c0,.36.3.57.73.57.63,0,1.05-.34,1.05-.83Z"/>
        <path class="cls-9" d="M290.88,78.41l.46-1.01c.49.27.97.43,1.6.43.92,0,1.35-.44,1.35-1.29v-.23c-.4.48-.83.77-1.55.77-1.1,0-2.1-.8-2.1-2.21v-.02c0-1.41,1.02-2.21,2.1-2.21.73,0,1.17.31,1.53.71v-.62h1.34v3.67c0,.85-.2,1.47-.6,1.86-.44.44-1.12.64-2.04.64-.77,0-1.49-.18-2.09-.49ZM294.29,74.88v-.02c0-.65-.5-1.1-1.16-1.1s-1.15.45-1.15,1.1v.02c0,.65.5,1.1,1.15,1.1s1.16-.45,1.16-1.1Z"/>
        <path class="cls-9" d="M296.59,75.13v-.02c0-1.35.96-2.46,2.34-2.46,1.58,0,2.31,1.23,2.31,2.57,0,.11,0,.23-.02.35h-3.3c.13.61.56.93,1.16.93.45,0,.78-.14,1.15-.49l.77.68c-.44.55-1.08.88-1.94.88-1.42,0-2.47-1-2.47-2.45ZM299.93,74.74c-.08-.6-.43-1.01-1-1.01s-.92.4-1.02,1.01h2.02Z"/>
      </g>
      <rect class="cls-10" x="58.83" y="71.73" width="118.38" height="5.76"/>
      <g>
        <rect class="cls-10" x="85.66" y="92.79" width="118.38" height="5.76"/>
        <circle class="cls-8" cx="232.53" cy="95.67" r="6.32"/>
        <circle class="cls-10" cx="71.14" cy="95.67" r="6.32"/>
        <g>
          <line class="cls-5" x1="229.83" y1="98.73" x2="235.61" y2="92.96"/>
          <line class="cls-5" x1="235.61" y1="98.73" x2="229.83" y2="92.96"/>
        </g>
      </g>
      <g>
        <rect class="cls-10" x="85.66" y="142.23" width="118.38" height="5.76"/>
        <circle class="cls-11" cx="232.53" cy="145.11" r="6.32"/>
        <circle class="cls-10" cx="71.14" cy="145.11" r="6.32"/>
      </g>
      <g>
        <rect class="cls-10" x="85.66" y="117.51" width="118.38" height="5.76"/>
        <circle class="cls-11" cx="232.53" cy="120.39" r="6.32"/>
        <circle class="cls-10" cx="71.14" cy="120.39" r="6.32"/>
        <polyline class="cls-5" points="229.53 120.53 231.54 122.54 235.86 118.21"/>
      </g>
      <g>
        <rect class="cls-10" x="85.66" y="166.95" width="118.38" height="5.76"/>
        <circle class="cls-11" cx="232.53" cy="169.83" r="6.32"/>
        <circle class="cls-10" cx="71.14" cy="169.83" r="6.32"/>
        <polyline class="cls-5" points="229.53 169.91 231.54 171.92 235.86 167.59"/>
      </g>
      <polyline class="cls-5" points="229.53 145.3 231.54 147.31 235.86 142.98"/>
      <g>
        <rect class="cls-10" x="85.66" y="216.39" width="118.38" height="5.76"/>
        <circle class="cls-8" cx="232.53" cy="219.27" r="6.32"/>
        <circle class="cls-10" cx="71.14" cy="219.27" r="6.32"/>
        <g>
          <line class="cls-5" x1="229.83" y1="222.26" x2="235.61" y2="216.49"/>
          <line class="cls-5" x1="235.61" y1="222.26" x2="229.83" y2="216.49"/>
        </g>
      </g>
      <g>
        <rect class="cls-10" x="85.66" y="191.67" width="118.38" height="5.76"/>
        <circle class="cls-11" cx="232.53" cy="194.55" r="6.32"/>
        <circle class="cls-10" cx="71.14" cy="194.55" r="6.32"/>
        <polyline class="cls-5" points="229.53 194.69 231.54 196.7 235.86 192.37"/>
      </g>
      <g>
        <rect class="cls-10" x="85.66" y="241.11" width="118.38" height="5.76"/>
        <circle class="cls-11" cx="232.53" cy="243.99" r="6.32"/>
        <circle class="cls-10" cx="71.14" cy="243.99" r="6.32"/>
        <polyline class="cls-5" points="229.53 244.06 231.54 246.07 235.86 241.75"/>
      </g>
      <rect class="cls-13" x="364.21" y="72.81" width="206.9" height="144.23" rx="5.36" ry="5.36"/>
      <path class="cls-6" d="M565.75,72.81h-196.17c-2.96,0-5.36,2.4-5.36,5.36v15.91h206.9v-15.91c0-2.96-2.4-5.36-5.36-5.36Z"/>
      <g>
        <path class="cls-7" d="M375.32,85.29v-.02c0-1.76,1.33-3.2,3.22-3.2,1.17,0,1.86.39,2.44.95l-.87,1c-.48-.43-.96-.7-1.58-.7-1.04,0-1.79.87-1.79,1.93v.02c0,1.06.73,1.94,1.79,1.94.71,0,1.14-.28,1.63-.72l.87.87c-.64.68-1.34,1.1-2.54,1.1-1.82,0-3.17-1.4-3.17-3.18Z"/>
        <path class="cls-7" d="M381.66,86.02v-.02c0-1.36,1.1-2.46,2.57-2.46s2.55,1.09,2.55,2.45v.02c0,1.36-1.1,2.46-2.57,2.46s-2.55-1.09-2.55-2.45ZM385.46,86.02v-.02c0-.7-.5-1.31-1.25-1.31s-1.23.59-1.23,1.29v.02c0,.7.5,1.31,1.25,1.31s1.23-.59,1.23-1.29Z"/>
        <path class="cls-7" d="M387.76,83.63h1.34v.67c.31-.4.72-.76,1.4-.76.62,0,1.09.27,1.33.75.42-.49.91-.75,1.55-.75,1,0,1.6.6,1.6,1.74v3.08h-1.34v-2.64c0-.64-.28-.96-.79-.96s-.81.33-.81.96v2.64h-1.34v-2.64c0-.64-.28-.96-.79-.96s-.81.33-.81.96v2.64h-1.34v-4.74Z"/>
        <path class="cls-7" d="M396.15,83.63h1.34v.67c.31-.4.72-.76,1.4-.76.62,0,1.09.27,1.33.75.42-.49.91-.75,1.55-.75,1,0,1.6.6,1.6,1.74v3.08h-1.34v-2.64c0-.64-.28-.96-.79-.96s-.81.33-.81.96v2.64h-1.34v-2.64c0-.64-.28-.96-.79-.96s-.81.33-.81.96v2.64h-1.34v-4.74Z"/>
        <path class="cls-7" d="M404.51,86.69v-3.07h1.34v2.64c0,.64.3.96.81.96s.84-.33.84-.96v-2.64h1.34v4.74h-1.34v-.67c-.31.4-.71.76-1.39.76-1.02,0-1.61-.67-1.61-1.76Z"/>
        <path class="cls-7" d="M410.06,83.63h1.34v.67c.31-.4.71-.76,1.39-.76,1.02,0,1.61.67,1.61,1.76v3.07h-1.34v-2.64c0-.64-.3-.96-.81-.96s-.84.33-.84.96v2.64h-1.34v-4.74Z"/>
        <path class="cls-7" d="M415.59,81.91h1.41v1.19h-1.41v-1.19ZM415.62,83.63h1.34v4.74h-1.34v-4.74Z"/>
        <path class="cls-7" d="M418,86.02v-.02c0-1.35,1.03-2.46,2.48-2.46.89,0,1.45.3,1.89.79l-.82.88c-.3-.32-.6-.52-1.08-.52-.67,0-1.15.59-1.15,1.29v.02c0,.72.47,1.31,1.2,1.31.45,0,.76-.19,1.09-.5l.79.8c-.46.5-.99.87-1.94.87-1.42,0-2.46-1.1-2.46-2.45Z"/>
        <path class="cls-7" d="M422.99,87v-.02c0-1.03.79-1.51,1.91-1.51.48,0,.82.08,1.16.19v-.08c0-.56-.34-.87-1.02-.87-.51,0-.87.1-1.31.26l-.34-1.02c.52-.23,1.03-.38,1.84-.38.73,0,1.26.19,1.6.53.35.35.51.87.51,1.51v2.75h-1.3v-.51c-.33.36-.78.6-1.43.6-.89,0-1.63-.51-1.63-1.45ZM426.08,86.69v-.24c-.23-.11-.53-.18-.86-.18-.57,0-.93.23-.93.65v.02c0,.36.3.57.73.57.63,0,1.05-.34,1.05-.83Z"/>
        <path class="cls-7" d="M428.69,87.02v-2.24h-.57v-1.15h.57v-1.21h1.34v1.21h1.11v1.15h-1.11v2.02c0,.31.13.46.43.46.25,0,.47-.06.66-.17v1.08c-.28.17-.61.27-1.06.27-.82,0-1.38-.33-1.38-1.42Z"/>
        <path class="cls-7" d="M432.16,81.91h1.41v1.19h-1.41v-1.19ZM432.19,83.63h1.34v4.74h-1.34v-4.74Z"/>
        <path class="cls-7" d="M434.57,86.02v-.02c0-1.36,1.1-2.46,2.57-2.46s2.55,1.09,2.55,2.45v.02c0,1.36-1.09,2.46-2.57,2.46s-2.55-1.09-2.55-2.45ZM438.37,86.02v-.02c0-.7-.5-1.31-1.25-1.31s-1.23.59-1.23,1.29v.02c0,.7.5,1.31,1.25,1.31s1.23-.59,1.23-1.29Z"/>
        <path class="cls-7" d="M440.67,83.63h1.34v.67c.31-.4.71-.76,1.39-.76,1.02,0,1.61.67,1.61,1.76v3.07h-1.34v-2.64c0-.64-.3-.96-.81-.96s-.84.33-.84.96v2.64h-1.34v-4.74Z"/>
      </g>
      <rect class="cls-7" x="378.66" y="130.73" width="176.63" height="48.86"/>
      <rect class="cls-2" x="440.27" y="185.93" width="53.41" height="22.16"/>
      <rect class="cls-1" x="258.83" y="87.66" width="47.12" height="14.75" rx="3.21" ry="3.21"/>
      <rect class="cls-1" x="258.83" y="112.51" width="47.12" height="14.75" rx="3.21" ry="3.21"/>
      <rect class="cls-1" x="258.83" y="162.2" width="47.12" height="14.75" rx="3.21" ry="3.21"/>
      <rect class="cls-1" x="258.83" y="187.05" width="47.12" height="14.75" rx="3.21" ry="3.21"/>
      <rect class="cls-1" x="258.83" y="211.9" width="47.12" height="14.75" rx="3.21" ry="3.21"/>
      <rect class="cls-1" x="258.83" y="236.75" width="47.12" height="14.75" rx="3.21" ry="3.21"/>
      <rect class="cls-7" x="378.66" y="104.13" width="87.47" height="17.01"/>
      <rect class="cls-10" x="384.16" y="109.66" width="63.75" height="5.76"/>
      <g>
        <path class="cls-7" d="M456.31,199.19l.8-.96c.56.46,1.14.75,1.85.75.56,0,.89-.22.89-.58v-.02c0-.34-.21-.52-1.25-.79-1.25-.32-2.05-.66-2.05-1.89v-.02c0-1.12.9-1.86,2.16-1.86.9,0,1.67.28,2.3.79l-.71,1.02c-.55-.38-1.09-.61-1.61-.61s-.79.24-.79.54v.02c0,.41.26.54,1.33.81,1.25.33,1.96.78,1.96,1.85v.02c0,1.23-.94,1.92-2.27,1.92-.94,0-1.88-.33-2.62-.99Z"/>
        <path class="cls-7" d="M462.02,197.75v-.02c0-1.35.96-2.46,2.34-2.46,1.58,0,2.31,1.23,2.31,2.57,0,.11,0,.23-.02.35h-3.29c.13.61.56.93,1.16.93.45,0,.78-.14,1.15-.49l.77.68c-.44.55-1.08.88-1.93.88-1.42,0-2.47-1-2.47-2.45ZM465.36,197.36c-.08-.6-.43-1.01-1-1.01s-.92.4-1.02,1.01h2.02Z"/>
        <path class="cls-7" d="M467.67,195.36h1.34v.67c.31-.4.71-.76,1.39-.76,1.02,0,1.61.67,1.61,1.76v3.07h-1.34v-2.64c0-.64-.3-.96-.81-.96s-.84.33-.84.96v2.64h-1.34v-4.74Z"/>
        <path class="cls-7" d="M472.96,197.74v-.02c0-1.58,1.03-2.45,2.16-2.45.72,0,1.16.33,1.48.71v-2.33h1.34v6.45h-1.34v-.68c-.33.44-.78.77-1.48.77-1.1,0-2.16-.87-2.16-2.45ZM476.61,197.74v-.02c0-.79-.52-1.31-1.15-1.31s-1.16.51-1.16,1.31v.02c0,.79.53,1.31,1.16,1.31s1.15-.52,1.15-1.31Z"/>
      </g>
      <line class="cls-4" x1="301.46" y1="144.39" x2="370.63" y2="144.39"/>
      <circle class="cls-11" cx="334.73" cy="144.34" r="7.93"/>
      <polygon class="cls-7" points="333.48 148.8 330.08 145.39 331.85 143.62 333.48 145.26 338.03 140.71 339.8 142.49 333.48 148.8"/>
      <polygon class="cls-3" points="375.2 144.34 368.42 139.18 368.42 149.49 375.2 144.34"/>
      <rect class="cls-1" x="258.83" y="137.36" width="47.12" height="14.75" rx="3.21" ry="3.21"/>
      <g>
        <path d="M397.71,148.9h4.21c2.46,0,3.94,1.46,3.94,3.56v.03c0,2.38-1.85,3.62-4.16,3.62h-1.72v3.09h-2.27v-10.3ZM401.76,154.09c1.13,0,1.79-.68,1.79-1.56v-.03c0-1.01-.71-1.56-1.84-1.56h-1.75v3.15h1.79Z"/>
        <path d="M406.68,156.93v-.03c0-1.72,1.31-2.52,3.18-2.52.79,0,1.37.13,1.93.32v-.13c0-.93-.57-1.44-1.69-1.44-.85,0-1.46.16-2.18.43l-.56-1.71c.87-.38,1.72-.63,3.06-.63,1.22,0,2.1.32,2.66.88.59.59.85,1.46.85,2.52v4.57h-2.16v-.85c-.54.6-1.29,1-2.38,1-1.49,0-2.71-.85-2.71-2.41ZM411.81,156.41v-.4c-.38-.18-.88-.29-1.43-.29-.96,0-1.54.38-1.54,1.09v.03c0,.6.5.96,1.22.96,1.04,0,1.75-.57,1.75-1.38Z"/>
        <path d="M415.46,161.05l.75-1.62c.29.18.66.31.96.31.38,0,.59-.12.78-.52l-3.09-7.91h2.37l1.79,5.37,1.72-5.37h2.32l-3.03,8.08c-.6,1.6-1.25,2.21-2.59,2.21-.81,0-1.41-.21-1.99-.54Z"/>
        <path d="M424.39,151.31h2.24v1.12c.52-.66,1.19-1.27,2.32-1.27,1.03,0,1.81.46,2.22,1.25.69-.81,1.51-1.25,2.59-1.25,1.66,0,2.66,1,2.66,2.9v5.13h-2.24v-4.4c0-1.06-.47-1.6-1.31-1.6s-1.35.54-1.35,1.6v4.4h-2.24v-4.4c0-1.06-.47-1.6-1.31-1.6s-1.35.54-1.35,1.6v4.4h-2.24v-7.88Z"/>
        <path d="M437.98,155.3v-.03c0-2.25,1.6-4.1,3.9-4.1,2.63,0,3.84,2.04,3.84,4.28,0,.18-.01.38-.03.59h-5.49c.22,1.02.93,1.54,1.93,1.54.75,0,1.29-.24,1.91-.81l1.28,1.13c-.74.91-1.79,1.47-3.22,1.47-2.37,0-4.12-1.66-4.12-4.07ZM443.54,154.63c-.13-1-.72-1.68-1.66-1.68s-1.53.66-1.71,1.68h3.37Z"/>
        <path d="M447.38,151.31h2.24v1.12c.51-.66,1.18-1.27,2.31-1.27,1.69,0,2.68,1.12,2.68,2.93v5.1h-2.24v-4.4c0-1.06-.5-1.6-1.35-1.6s-1.4.54-1.4,1.6v4.4h-2.24v-7.88Z"/>
        <path d="M456.91,156.96v-3.74h-.94v-1.91h.94v-2.02h2.24v2.02h1.85v1.91h-1.85v3.37c0,.51.22.76.72.76.41,0,.78-.1,1.1-.28v1.79c-.47.28-1.01.46-1.76.46-1.37,0-2.29-.54-2.29-2.37Z"/>
        <path d="M467.29,148.9h4.71c1.31,0,2.32.37,3,1.04.57.57.88,1.38.88,2.35v.03c0,1.66-.9,2.71-2.21,3.19l2.52,3.68h-2.65l-2.21-3.29h-1.78v3.29h-2.27v-10.3ZM471.85,153.9c1.1,0,1.74-.59,1.74-1.46v-.03c0-.97-.68-1.47-1.78-1.47h-2.25v2.96h2.29Z"/>
        <path d="M477.16,155.3v-.03c0-2.25,1.6-4.1,3.9-4.1,2.63,0,3.84,2.04,3.84,4.28,0,.18-.02.38-.03.59h-5.49c.22,1.02.93,1.54,1.93,1.54.75,0,1.29-.24,1.91-.81l1.28,1.13c-.74.91-1.79,1.47-3.22,1.47-2.37,0-4.12-1.66-4.12-4.07ZM482.72,154.63c-.13-1-.72-1.68-1.66-1.68s-1.53.66-1.71,1.68h3.37Z"/>
        <path d="M486.56,151.31h2.24v1.12c.51-.66,1.19-1.27,2.32-1.27,1.03,0,1.81.46,2.22,1.25.69-.81,1.52-1.25,2.59-1.25,1.66,0,2.66,1,2.66,2.9v5.13h-2.24v-4.4c0-1.06-.47-1.6-1.31-1.6s-1.35.54-1.35,1.6v4.4h-2.24v-4.4c0-1.06-.47-1.6-1.31-1.6s-1.35.54-1.35,1.6v4.4h-2.24v-7.88Z"/>
        <path d="M500.58,148.46h2.35v1.99h-2.35v-1.99ZM500.64,151.31h2.24v7.88h-2.24v-7.88Z"/>
        <path d="M504.97,151.31h2.24v1.12c.51-.66,1.18-1.27,2.31-1.27,1.69,0,2.68,1.12,2.68,2.93v5.1h-2.24v-4.4c0-1.06-.5-1.6-1.35-1.6s-1.4.54-1.4,1.6v4.4h-2.24v-7.88Z"/>
        <path d="M513.79,155.27v-.03c0-2.63,1.72-4.07,3.59-4.07,1.19,0,1.93.54,2.46,1.18v-3.88h2.24v10.74h-2.24v-1.13c-.54.74-1.29,1.28-2.46,1.28-1.84,0-3.59-1.44-3.59-4.07ZM519.86,155.27v-.03c0-1.31-.87-2.18-1.91-2.18s-1.93.85-1.93,2.18v.03c0,1.31.88,2.18,1.93,2.18s1.91-.87,1.91-2.18Z"/>
        <path d="M523.68,155.3v-.03c0-2.25,1.6-4.1,3.9-4.1,2.63,0,3.84,2.04,3.84,4.28,0,.18-.01.38-.03.59h-5.49c.22,1.02.93,1.54,1.93,1.54.75,0,1.29-.24,1.91-.81l1.28,1.13c-.74.91-1.79,1.47-3.22,1.47-2.37,0-4.12-1.66-4.12-4.07ZM529.24,154.63c-.13-1-.72-1.68-1.66-1.68s-1.53.66-1.71,1.68h3.37Z"/>
        <path d="M533.08,151.31h2.24v1.59c.46-1.09,1.19-1.79,2.51-1.74v2.34h-.12c-1.49,0-2.4.9-2.4,2.78v2.91h-2.24v-7.88Z"/>
      </g>
    </g>
  </g>
</svg>