<?xml version="1.0" encoding="UTF-8"?>
<svg xmlns="http://www.w3.org/2000/svg" xmlns:xlink="http://www.w3.org/1999/xlink" version="1.1" viewBox="0 0 262.1 193.6">
  <defs>
    <style>
      .cls-1 {
        fill: #ebeef1;
        filter: url(#drop-shadow-1);
      }

      .cls-2 {
        fill: #cfd6da;
      }

      .cls-3 {
        fill: #f0cb48;
      }

      .cls-4 {
        fill: #fff;
      }

      .cls-5 {
        fill: #e9ca60;
      }

      .cls-6 {
        fill: #3874b4;
      }

      .cls-7 {
        fill: #d94d25;
      }
    </style>
    <filter id="drop-shadow-1" filterUnits="userSpaceOnUse">
      <feOffset dx="3.6" dy="3.6"/>
      <feGaussianBlur result="blur" stdDeviation="1.44"/>
      <feFlood flood-color="#000" flood-opacity=".4"/>
      <feComposite in2="blur" operator="in"/>
      <feComposite in="SourceGraphic"/>
    </filter>
  </defs>
  <!-- Generator: Adobe Illustrator 28.6.0, SVG Export Plug-In . SVG Version: 1.2.0 Build 709)  -->
  <g>
    <g id="Layer_1">
      <g>
        <rect class="cls-1" x="14.79" y="13.15" width="206.9" height="144.23" rx="5.36" ry="5.36"/>
        <path class="cls-3" d="M216.33,13.15H20.16c-2.96,0-5.36,2.4-5.36,5.36v15.91h206.9v-15.91c0-2.96-2.4-5.36-5.36-5.36Z"/>
        <g>
          <path class="cls-4" d="M27.62,23.78h-1.88v-1.25h5.12v1.25h-1.88v4.93h-1.36v-4.93Z"/>
          <path class="cls-4" d="M30.61,26.37v-.02c0-1.35.96-2.46,2.34-2.46,1.58,0,2.31,1.23,2.31,2.57,0,.11,0,.23-.02.35h-3.3c.13.61.56.93,1.16.93.45,0,.78-.14,1.15-.49l.77.68c-.44.55-1.08.88-1.94.88-1.42,0-2.47-1-2.47-2.45ZM33.95,25.97c-.08-.6-.43-1.01-1-1.01s-.92.4-1.02,1.01h2.02Z"/>
          <path class="cls-4" d="M35.97,27.35v-.02c0-1.03.79-1.51,1.91-1.51.48,0,.82.08,1.16.19v-.08c0-.56-.34-.87-1.02-.87-.51,0-.87.1-1.31.26l-.34-1.02c.52-.23,1.03-.38,1.84-.38.73,0,1.26.19,1.6.53.35.35.51.87.51,1.51v2.75h-1.3v-.51c-.33.36-.78.6-1.43.6-.89,0-1.63-.51-1.63-1.45ZM39.05,27.04v-.24c-.23-.11-.53-.18-.86-.18-.57,0-.93.23-.93.65v.02c0,.36.3.57.73.57.63,0,1.05-.34,1.05-.83Z"/>
          <path class="cls-4" d="M41.49,23.97h1.34v.67c.31-.4.72-.76,1.4-.76.62,0,1.09.27,1.33.75.42-.49.91-.75,1.55-.75,1,0,1.6.6,1.6,1.74v3.08h-1.34v-2.64c0-.64-.28-.96-.79-.96s-.81.33-.81.96v2.64h-1.34v-2.64c0-.64-.28-.96-.79-.96s-.81.33-.81.96v2.64h-1.34v-4.74Z"/>
          <path class="cls-4" d="M52.25,27.81l.8-.96c.56.46,1.14.75,1.85.75.56,0,.89-.22.89-.58v-.02c0-.34-.21-.52-1.25-.79-1.25-.32-2.05-.66-2.05-1.89v-.02c0-1.12.9-1.86,2.16-1.86.9,0,1.67.28,2.3.79l-.71,1.02c-.55-.38-1.09-.61-1.61-.61s-.8.24-.8.54v.02c0,.41.27.54,1.33.81,1.25.33,1.96.78,1.96,1.85v.02c0,1.23-.94,1.92-2.27,1.92-.94,0-1.88-.33-2.62-.99Z"/>
          <path class="cls-4" d="M58.19,22.26h1.34v2.39c.31-.4.71-.76,1.39-.76,1.02,0,1.61.67,1.61,1.76v3.07h-1.34v-2.64c0-.64-.3-.96-.81-.96s-.84.33-.84.96v2.64h-1.34v-6.45Z"/>
          <path class="cls-4" d="M63.47,26.37v-.02c0-1.36,1.1-2.46,2.57-2.46s2.55,1.09,2.55,2.45v.02c0,1.36-1.1,2.46-2.57,2.46s-2.55-1.09-2.55-2.45ZM67.27,26.37v-.02c0-.7-.5-1.31-1.25-1.31s-1.23.59-1.23,1.29v.02c0,.7.5,1.31,1.25,1.31s1.23-.59,1.23-1.29Z"/>
          <path class="cls-4" d="M69.56,23.97h1.34v.68c.33-.44.78-.77,1.48-.77,1.1,0,2.16.87,2.16,2.45v.02c0,1.58-1.03,2.45-2.16,2.45-.72,0-1.16-.33-1.48-.71v2.03h-1.34v-6.15ZM73.2,26.35v-.02c0-.79-.53-1.31-1.16-1.31s-1.15.52-1.15,1.31v.02c0,.79.52,1.31,1.15,1.31s1.16-.51,1.16-1.31Z"/>
        </g>
        <rect class="cls-2" x="28.98" y="108.2" width="44.24" height="4.49"/>
        <rect class="cls-2" x="28.98" y="117.85" width="44.24" height="4.49"/>
        <rect class="cls-7" x="28.98" y="128.9" width="44.24" height="11.65" rx="2.62" ry="2.62"/>
        <rect class="cls-2" x="94.16" y="108.2" width="44.24" height="4.49"/>
        <rect class="cls-2" x="94.16" y="117.85" width="44.24" height="4.49"/>
        <rect class="cls-7" x="94.16" y="128.9" width="44.24" height="11.65" rx="2.62" ry="2.62"/>
        <rect class="cls-2" x="158.45" y="108.2" width="44.24" height="4.49"/>
        <rect class="cls-2" x="158.45" y="117.85" width="44.24" height="4.49"/>
        <rect class="cls-7" x="158.45" y="128.9" width="44.24" height="11.65" rx="2.62" ry="2.62"/>
        <rect class="cls-4" x="29.43" y="49.84" width="51.01" height="49.44"/>
        <rect class="cls-4" x="94.04" y="49.84" width="51.01" height="49.44"/>
        <rect class="cls-4" x="158.65" y="49.84" width="51.01" height="49.44"/>
        <path class="cls-5" d="M143.46,60.54c-3.33-3.85-8.16-6.06-13.25-6.06h-2.36c-.72,3.8-4.06,6.68-8.07,6.68s-7.35-2.88-8.07-6.68h-2.36c-5.09,0-9.92,2.21-13.25,6.06l-7.86,9.1,9.08,7.85,6.27-7.26v31.93h32.37v-31.93l6.27,7.26,9.08-7.85-7.86-9.1Z"/>
        <path class="cls-6" d="M78.28,60.54c-3.33-3.85-8.16-6.06-13.25-6.06h-2.36c-.72,3.8-4.06,6.68-8.07,6.68s-7.35-2.88-8.07-6.68h-2.36c-5.09,0-9.92,2.21-13.25,6.06l-7.86,9.1,9.08,7.85,6.27-7.26v31.93h32.37v-31.93l6.27,7.26,9.08-7.85-7.86-9.1Z"/>
        <path class="cls-7" d="M207.75,60.54c-3.33-3.85-8.16-6.06-13.25-6.06h-2.36c-.72,3.8-4.06,6.68-8.07,6.68s-7.35-2.88-8.07-6.68h-2.36c-5.09,0-9.92,2.21-13.25,6.06l-7.86,9.1,9.08,7.85,6.27-7.26v31.93h32.37v-31.93l6.27,7.26,9.08-7.85-7.86-9.1Z"/>
      </g>
      <circle class="cls-3" cx="227.53" cy="152.93" r="24.98"/>
      <path class="cls-4" d="M226.66,162.97c-2.85-.29-5.68-1.31-7.86-2.88l2.62-3.87c1.86,1.31,3.61,2.1,5.42,2.39v-3.5c-4.69-1.08-7.08-2.68-7.08-6.29v-.06c0-3.44,2.5-5.83,6.96-6.15v-1.66h3.03v1.75c2.39.26,4.4,1.08,6.15,2.27l-2.39,3.9c-1.19-.84-2.59-1.43-3.9-1.75v3.38c4.63,1.08,6.96,2.74,6.96,6.35v.06c0,3.55-2.74,5.74-6.88,6.12v2.85h-3.03v-2.91ZM226.86,146.87c-1.43.12-1.98.7-1.98,1.46v.06c0,.76.41,1.19,1.98,1.63v-3.15ZM231.52,157.29v-.06c0-.79-.44-1.22-1.95-1.66v3.2c1.34-.15,1.95-.64,1.95-1.49Z"/>
    </g>
  </g>
</svg>