<svg width="95" height="76" viewBox="0 0 95 76" fill="none" xmlns="http://www.w3.org/2000/svg">
<path d="M12.9236 11.3659C12.9236 11.3659 17.7862 27.7513 24.8626 56.8893C30.9929 44.6097 45.9781 35.7359 58.9767 30.8165C56.1197 19.6154 53.7357 10.628 51.9382 4.08145C51.4652 2.35966 50.0461 1.05413 48.2865 0.751399C26.925 -2.97599 12.9236 11.3659 12.9236 11.3659Z" fill="#F7CF03"/>
<path d="M94.8126 18.5939C95.3802 17.7614 94.5666 16.6829 93.6017 16.9857C86.3739 19.3129 74.6809 17.7046 52.9788 10.3634C51.6922 9.92822 50.4056 9.5498 49.1568 9.24707C50.8597 15.4342 53.2815 24.3647 56.1953 35.7929C56.5927 37.3444 58.2388 38.2337 59.7524 37.7228C61.6067 37.0795 63.4041 36.5308 65.107 36.0767C78.3137 32.4818 86.2604 31.3465 94.8126 18.5939Z" fill="#F7CF03"/>
<path d="M19.1107 75.9235H26.2059L7.53117 6.44649C7.03923 4.6301 5.16608 3.53269 3.33077 4.02463C1.51438 4.51657 0.416971 6.38973 0.90891 8.22504L19.1107 75.9235Z" fill="#F7CF03"/>
</svg>
