<?xml version="1.0" encoding="UTF-8"?>
<svg id="Layer_1" xmlns="http://www.w3.org/2000/svg" xmlns:xlink="http://www.w3.org/1999/xlink" viewBox="0 0 215.76 401.28">
  <defs>
    <style>
      .cls-1 {
        fill: #db4d25;
      }

      .cls-2, .cls-3 {
        fill: #fff;
      }

      .cls-2, .cls-4 {
        font-family: Gotham-Bold, Gotham;
        font-size: 8.84px;
        font-weight: 700;
      }

      .cls-5 {
        letter-spacing: 0em;
      }

      .cls-6 {
        fill: #f0cb48;
      }

      .cls-7 {
        letter-spacing: 0em;
      }

      .cls-8 {
        fill: #cfd7db;
      }

      .cls-9 {
        filter: url(#drop-shadow-1);
      }

      .cls-9, .cls-10 {
        fill: #ebeff2;
      }

      .cls-10 {
        filter: url(#drop-shadow-2);
      }

      .cls-11 {
        letter-spacing: -.02em;
      }

      .cls-12 {
        letter-spacing: -.02em;
      }

      .cls-13 {
        letter-spacing: -.01em;
      }

      .cls-14 {
        fill: #3874b6;
      }

      .cls-15 {
        letter-spacing: 0em;
      }

      .cls-16 {
        letter-spacing: 0em;
      }

      .cls-17 {
        letter-spacing: 0em;
      }

      .cls-4 {
        fill: #221f20;
      }
    </style>
    <filter id="drop-shadow-1" filterUnits="userSpaceOnUse">
      <feOffset dx="3.6" dy="3.6"/>
      <feGaussianBlur result="blur" stdDeviation="1.44"/>
      <feFlood flood-color="#000" flood-opacity=".4"/>
      <feComposite in2="blur" operator="in"/>
      <feComposite in="SourceGraphic"/>
    </filter>
    <filter id="drop-shadow-2" filterUnits="userSpaceOnUse">
      <feOffset dx="3.6" dy="3.6"/>
      <feGaussianBlur result="blur-2" stdDeviation="1.44"/>
      <feFlood flood-color="#000" flood-opacity=".4"/>
      <feComposite in2="blur-2" operator="in"/>
      <feComposite in="SourceGraphic"/>
    </filter>
  </defs>
  <rect class="cls-9" x=".87" y=".89" width="206.9" height="226.96" rx="5.36" ry="5.36"/>
  <path class="cls-6" d="M202.41.89H6.24C3.27.89.87,3.29.87,6.25v15.91h206.9V6.25c0-2.96-2.4-5.36-5.36-5.36Z"/>
  <text class="cls-2" transform="translate(11.51 16.44)"><tspan x="0" y="0">EBla</tspan><tspan class="cls-16" x="20.2" y="0">s</tspan><tspan class="cls-5" x="24.55" y="0">t</tspan></text>
  <rect class="cls-10" x=".87" y="248.96" width="206.9" height="144.23" rx="5.36" ry="5.36"/>
  <path class="cls-6" d="M202.41,248.96H6.24c-2.96,0-5.36,2.4-5.36,5.36v15.91h206.9v-15.91c0-2.96-2.4-5.36-5.36-5.36Z"/>
  <text class="cls-2" transform="translate(11.51 264.52)"><tspan class="cls-17" x="0" y="0">C</tspan><tspan class="cls-7" x="6.43" y="0">ommunic</tspan><tspan class="cls-15" x="47.82" y="0">a</tspan><tspan class="cls-5" x="53.01" y="0">tion</tspan></text>
  <rect class="cls-3" x="15.32" y="306.89" width="176.63" height="48.86"/>
  <rect class="cls-1" x="76.93" y="362.09" width="53.41" height="22.16"/>
  <rect class="cls-3" x="15.32" y="280.29" width="87.47" height="17.01"/>
  <rect class="cls-8" x="20.83" y="285.82" width="63.75" height="5.76"/>
  <rect class="cls-8" x="20.83" y="314.75" width="164.2" height="5.76"/>
  <rect class="cls-8" x="20.83" y="327.55" width="164.2" height="5.76"/>
  <rect class="cls-8" x="20.83" y="340.19" width="164.2" height="5.76"/>
  <rect class="cls-3" x="15.32" y="130.64" width="176.63" height="48.86"/>
  <rect class="cls-8" x="20.83" y="138.51" width="164.2" height="5.76"/>
  <rect class="cls-8" x="20.83" y="151.31" width="164.2" height="5.76"/>
  <rect class="cls-8" x="20.83" y="163.94" width="164.2" height="5.76"/>
  <text class="cls-2" transform="translate(92.65 376.25)"><tspan x="0" y="0">Send</tspan></text>
  <rect class="cls-1" x="64.76" y="188.5" width="77.76" height="22.16"/>
  <text class="cls-2" transform="translate(73.51 202.67)"><tspan class="cls-17" x="0" y="0">R</tspan><tspan x="6.3" y="0">egi</tspan><tspan class="cls-17" x="20.35" y="0">s</tspan><tspan class="cls-13" x="24.7" y="0">t</tspan><tspan x="28.24" y="0">er N</tspan><tspan class="cls-11" x="46.98" y="0">o</tspan><tspan class="cls-7" x="52.63" y="0">w</tspan></text>
  <text class="cls-4" transform="translate(15.48 122.74)"><tspan x="0" y="0">Dear </tspan><tspan class="cls-16" x="23.91" y="0">C</tspan><tspan class="cls-5" x="30.34" y="0">oaches &amp; </tspan><tspan class="cls-17" x="73.3" y="0">P</tspan><tspan class="cls-7" x="79.12" y="0">a</tspan><tspan class="cls-12" x="84.35" y="0">r</tspan><tspan class="cls-7" x="87.91" y="0">ents,</tspan></text>
  <rect class="cls-14" x="12.96" y="34.59" width="183.56" height="71.83"/>
</svg>