<svg width="93" height="86" viewBox="0 0 93 86" fill="none" xmlns="http://www.w3.org/2000/svg">
<path d="M84.2921 14.4261V13.8406C84.2921 12.2683 83.1881 10.9134 81.6325 10.6123L28.5065 0.0907841C27.5029 -0.109944 26.4491 0.0238757 25.529 0.475513L12.1974 6.88207C11.0767 7.41735 10.3574 8.5548 10.3574 9.80935V10.3781L25.9305 3.20207L84.2921 14.4261Z" fill="#F7CF03"/>
<path d="M88.1896 79.9303V20.4145C88.1896 18.5243 86.8514 16.9017 84.9947 16.5505L26.1981 5.22607L9.11956 13.0879C7.51374 13.8239 6.49337 15.4297 6.49337 17.2028V47.2451V60.3593C5.75737 60.6269 5.12173 60.8946 4.53627 61.1957C-0.281192 63.6379 0.00317041 66.9666 0.00317041 66.9666H6.49337V79.9303H6.34282C4.13482 79.9303 2.345 81.7201 2.345 83.9281V85.1157H92.338V83.9281C92.338 81.7201 90.5481 79.9303 88.3401 79.9303H88.1896ZM84.0412 74.7448H75.2259V64.5579L84.0412 65.2771V74.7448ZM84.0412 60.5768L75.2259 59.8575V49.2691L84.0412 50.2226V60.5768ZM84.0412 45.5055L75.2259 44.552V34.0974L84.0412 35.3854V45.5055ZM84.0412 30.6516L75.2259 29.3636V19.5112L84.0412 21.0501V30.6516ZM61.727 43.0967V32.1236L70.5423 33.4116V44.0502L61.727 43.0967ZM70.5423 48.7505V59.456L61.727 58.7368V47.7971L70.5423 48.7505ZM48.2448 62.3331L57.06 63.0524V74.7281H48.2448V62.3331ZM57.06 42.5949L48.2448 41.6414V30.1498L57.06 31.4378V42.5949ZM48.2448 46.3585L57.06 47.312V58.3688L48.2448 57.6495V47.2451V46.3585ZM19.457 39.2662L12.9668 40.136V30.0996L19.457 28.3767V39.2662ZM12.9668 44.8196L19.457 43.9498V54.5047H12.9668V44.8196ZM61.727 63.4371L70.5423 64.1564V74.7281H61.727V63.4371ZM70.5423 28.6778L61.727 27.3898V17.1527L70.5423 18.6916V28.6778ZM48.2448 14.8276L57.06 16.3665V26.7374L48.2448 25.4494V14.8276ZM12.9668 15.3461L19.457 12.7534V23.5425L12.9668 25.2654V15.3461ZM12.8832 79.9303V66.9666H22.5683V79.9303H12.8832Z" fill="#F7CF03"/>
</svg>
