<?xml version="1.0" encoding="UTF-8"?>
<svg xmlns="http://www.w3.org/2000/svg" xmlns:xlink="http://www.w3.org/1999/xlink" version="1.1" viewBox="0 0 526.8 496.21">
  <defs>
    <style>
      .cls-1 {
        filter: url(#drop-shadow-3);
        stroke: #dadbdc;
      }

      .cls-1, .cls-2, .cls-3 {
        stroke-miterlimit: 10;
      }

      .cls-1, .cls-4 {
        fill: #ebeff2;
      }

      .cls-5, .cls-6 {
        fill: #f1ce46;
      }

      .cls-7 {
        fill: #231f20;
      }

      .cls-2 {
        stroke: #231f20;
      }

      .cls-2, .cls-3 {
        fill: none;
        stroke-width: 2px;
      }

      .cls-8 {
        fill: #fff;
      }

      .cls-6 {
        filter: url(#drop-shadow-1);
      }

      .cls-9 {
        fill: #ec3e02;
      }

      .cls-10 {
        fill: #221f20;
      }

      .cls-11 {
        fill: #cfd7db;
      }

      .cls-12 {
        fill: #60d092;
      }

      .cls-13 {
        fill: #1b74ba;
      }

      .cls-4 {
        filter: url(#drop-shadow-2);
      }

      .cls-3 {
        stroke: #fff;
      }
    </style>
    <filter id="drop-shadow-1" filterUnits="userSpaceOnUse">
      <feOffset dx="3.6" dy="3.6"/>
      <feGaussianBlur result="blur" stdDeviation="1.44"/>
      <feFlood flood-color="#000" flood-opacity=".4"/>
      <feComposite in2="blur" operator="in"/>
      <feComposite in="SourceGraphic"/>
    </filter>
    <filter id="drop-shadow-2" filterUnits="userSpaceOnUse">
      <feOffset dx="3.6" dy="3.6"/>
      <feGaussianBlur result="blur-2" stdDeviation="1.44"/>
      <feFlood flood-color="#000" flood-opacity=".4"/>
      <feComposite in2="blur-2" operator="in"/>
      <feComposite in="SourceGraphic"/>
    </filter>
    <filter id="drop-shadow-3" filterUnits="userSpaceOnUse">
      <feOffset dx="3.6" dy="3.6"/>
      <feGaussianBlur result="blur-3" stdDeviation="1.44"/>
      <feFlood flood-color="#000" flood-opacity=".4"/>
      <feComposite in2="blur-3" operator="in"/>
      <feComposite in="SourceGraphic"/>
    </filter>
  </defs>
  <!-- Generator: Adobe Illustrator 28.6.0, SVG Export Plug-In . SVG Version: 1.2.0 Build 709)  -->
  <g>
    <g id="Layer_1">
      <rect class="cls-6" x="315.53" y="47.96" width="166.59" height="261.51" rx="5.36" ry="5.36"/>
      <line class="cls-2" x1="267.11" y1="167" x2="308.13" y2="167"/>
      <circle class="cls-12" cx="289.06" cy="166.95" r="7.93"/>
      <polygon class="cls-8" points="287.82 171.42 284.41 168.01 286.18 166.23 287.82 167.87 292.36 163.33 294.13 165.1 287.82 171.42"/>
      <rect class="cls-4" x="48.85" y="63.25" width="206.9" height="224.61" rx="5.36" ry="5.36"/>
      <path class="cls-5" d="M250.72,63.25H54.55c-2.96,0-5.36,2.4-5.36,5.36v15.91h206.9v-15.91c0-2.96-2.4-5.36-5.36-5.36Z"/>
      <g>
        <path class="cls-8" d="M60.57,72.62h2.83c.79,0,1.4.22,1.8.63.34.34.53.83.53,1.41v.02c0,1-.54,1.63-1.33,1.92l1.51,2.21h-1.59l-1.33-1.98h-1.07v1.98h-1.36v-6.18ZM63.31,75.62c.66,0,1.04-.35,1.04-.87v-.02c0-.58-.41-.88-1.07-.88h-1.35v1.78h1.38Z"/>
        <path class="cls-8" d="M66.5,76.46v-.02c0-1.36,1.1-2.46,2.57-2.46s2.55,1.09,2.55,2.45v.02c0,1.36-1.1,2.46-2.57,2.46s-2.55-1.09-2.55-2.45ZM70.3,76.46v-.02c0-.7-.5-1.31-1.25-1.31s-1.23.59-1.23,1.29v.02c0,.7.5,1.31,1.25,1.31s1.23-.59,1.23-1.29Z"/>
        <path class="cls-8" d="M72.23,78.18l.57-.88c.51.37,1.05.57,1.49.57.39,0,.57-.14.57-.35v-.02c0-.29-.46-.39-.98-.55-.66-.19-1.41-.5-1.41-1.42v-.02c0-.96.78-1.5,1.73-1.5.6,0,1.25.2,1.77.55l-.51.93c-.47-.27-.94-.44-1.28-.44-.33,0-.49.14-.49.33v.02c0,.26.45.39.96.57.66.22,1.43.54,1.43,1.4v.02c0,1.05-.79,1.53-1.81,1.53-.66,0-1.4-.22-2.03-.72Z"/>
        <path class="cls-8" d="M77.17,77.46v-2.24h-.57v-1.15h.57v-1.21h1.34v1.21h1.11v1.15h-1.11v2.02c0,.31.13.46.43.46.25,0,.47-.06.66-.17v1.08c-.28.17-.61.27-1.06.27-.82,0-1.38-.33-1.38-1.42Z"/>
        <path class="cls-8" d="M80.25,76.46v-.02c0-1.35.96-2.46,2.34-2.46,1.58,0,2.31,1.23,2.31,2.57,0,.11,0,.23-.02.35h-3.3c.13.61.56.93,1.16.93.45,0,.78-.14,1.15-.49l.77.68c-.44.55-1.08.88-1.94.88-1.42,0-2.47-1-2.47-2.45ZM83.59,76.07c-.08-.6-.43-1.01-1-1.01s-.92.4-1.02,1.01h2.02Z"/>
        <path class="cls-8" d="M85.9,74.07h1.34v.95c.27-.65.72-1.08,1.51-1.04v1.4h-.07c-.89,0-1.44.54-1.44,1.67v1.75h-1.34v-4.74Z"/>
      </g>
      <g>
        <path class="cls-10" d="M222.19,93.9h2.53c1.48,0,2.37.88,2.37,2.14v.02c0,1.43-1.11,2.17-2.5,2.17h-1.03v1.86h-1.36v-6.18ZM224.62,97.02c.68,0,1.08-.41,1.08-.94v-.02c0-.61-.42-.94-1.1-.94h-1.05v1.89h1.08Z"/>
        <path class="cls-10" d="M227.58,98.73v-.02c0-1.03.79-1.51,1.91-1.51.48,0,.82.08,1.16.19v-.08c0-.56-.34-.87-1.02-.87-.51,0-.87.1-1.31.26l-.34-1.02c.52-.23,1.03-.38,1.84-.38.73,0,1.26.19,1.6.53.35.35.51.87.51,1.51v2.75h-1.3v-.51c-.33.36-.78.6-1.43.6-.89,0-1.63-.51-1.63-1.45ZM230.66,98.42v-.24c-.23-.11-.53-.18-.86-.18-.57,0-.93.23-.93.65v.02c0,.36.3.57.73.57.63,0,1.05-.34,1.05-.83Z"/>
        <path class="cls-10" d="M233.12,93.64h1.41v1.19h-1.41v-1.19ZM233.15,95.35h1.34v4.74h-1.34v-4.74Z"/>
        <path class="cls-10" d="M235.55,97.73v-.02c0-1.58,1.03-2.45,2.16-2.45.72,0,1.16.33,1.48.71v-2.33h1.34v6.45h-1.34v-.68c-.33.44-.78.77-1.48.77-1.1,0-2.16-.87-2.16-2.45ZM239.2,97.73v-.02c0-.79-.52-1.31-1.15-1.31s-1.16.51-1.16,1.31v.02c0,.79.53,1.31,1.16,1.31s1.15-.52,1.15-1.31Z"/>
      </g>
      <rect class="cls-11" x="58.83" y="94.34" width="118.38" height="5.76"/>
      <rect class="cls-8" x="357.44" y="146.22" width="82.78" height="5.76"/>
      <rect class="cls-8" x="357.44" y="156.2" width="82.78" height="5.76"/>
      <rect class="cls-8" x="357.44" y="185.02" width="82.78" height="5.76"/>
      <rect class="cls-8" x="330.4" y="248.42" width="136.87" height="5.76"/>
      <rect class="cls-8" x="330.4" y="264.49" width="136.87" height="5.76"/>
      <rect class="cls-8" x="330.4" y="280.57" width="136.87" height="5.76"/>
      <g>
        <rect class="cls-11" x="85.66" y="115.41" width="118.38" height="5.76"/>
        <circle class="cls-9" cx="232.53" cy="118.29" r="6.32"/>
        <circle class="cls-13" cx="71.14" cy="118.29" r="6.32"/>
        <g>
          <line class="cls-3" x1="229.83" y1="121.34" x2="235.61" y2="115.57"/>
          <line class="cls-3" x1="235.61" y1="121.34" x2="229.83" y2="115.57"/>
        </g>
      </g>
      <g>
        <rect class="cls-11" x="85.66" y="164.84" width="118.38" height="5.76"/>
        <circle class="cls-12" cx="232.53" cy="167.73" r="6.32"/>
        <circle class="cls-13" cx="71.14" cy="167.73" r="6.32"/>
      </g>
      <g>
        <rect class="cls-11" x="85.66" y="140.12" width="118.38" height="5.76"/>
        <circle class="cls-12" cx="232.53" cy="143.01" r="6.32"/>
        <circle class="cls-13" cx="71.14" cy="143.01" r="6.32"/>
        <polyline class="cls-3" points="229.53 143.14 231.54 145.15 235.86 140.82"/>
      </g>
      <g>
        <rect class="cls-11" x="85.66" y="189.56" width="118.38" height="5.76"/>
        <circle class="cls-12" cx="232.53" cy="192.44" r="6.32"/>
        <circle class="cls-13" cx="71.14" cy="192.44" r="6.32"/>
        <polyline class="cls-3" points="229.53 192.52 231.54 194.53 235.86 190.2"/>
      </g>
      <polyline class="cls-3" points="229.53 167.91 231.54 169.92 235.86 165.59"/>
      <g>
        <rect class="cls-11" x="85.66" y="239" width="118.38" height="5.76"/>
        <circle class="cls-9" cx="232.53" cy="241.88" r="6.32"/>
        <circle class="cls-13" cx="71.14" cy="241.88" r="6.32"/>
        <g>
          <line class="cls-3" x1="229.83" y1="244.87" x2="235.61" y2="239.1"/>
          <line class="cls-3" x1="235.61" y1="244.87" x2="229.83" y2="239.1"/>
        </g>
      </g>
      <g>
        <rect class="cls-11" x="85.66" y="214.28" width="118.38" height="5.76"/>
        <circle class="cls-12" cx="232.53" cy="217.16" r="6.32"/>
        <circle class="cls-13" cx="71.14" cy="217.16" r="6.32"/>
        <polyline class="cls-3" points="229.53 217.3 231.54 219.31 235.86 214.98"/>
      </g>
      <g>
        <rect class="cls-11" x="85.66" y="263.72" width="118.38" height="5.76"/>
        <circle class="cls-12" cx="232.53" cy="266.6" r="6.32"/>
        <circle class="cls-13" cx="71.14" cy="266.6" r="6.32"/>
        <polyline class="cls-3" points="229.53 266.68 231.54 268.69 235.86 264.36"/>
      </g>
      <g>
        <rect class="cls-1" x="70.94" y="152.31" width="199.59" height="27.03"/>
        <g>
          <rect class="cls-11" x="104.94" y="162.52" width="118.38" height="5.76"/>
          <circle class="cls-12" cx="251.82" cy="165.4" r="6.32"/>
          <circle class="cls-13" cx="90.42" cy="165.4" r="6.32"/>
          <polyline class="cls-3" points="248.81 165.53 250.82 167.54 255.15 163.22"/>
        </g>
      </g>
      <circle class="cls-13" cx="398.83" cy="101.61" r="31.26"/>
      <circle class="cls-8" cx="398.83" cy="96.28" r="12.78"/>
      <g>
        <rect class="cls-8" x="334.1" y="200.7" width="37.24" height="33.7" rx="6.84" ry="6.84"/>
        <rect class="cls-8" x="380.21" y="200.7" width="37.24" height="33.7" rx="6.84" ry="6.84"/>
        <rect class="cls-8" x="426.32" y="200.7" width="37.24" height="33.7" rx="6.84" ry="6.84"/>
      </g>
      <rect class="cls-9" x="340.81" y="210.29" width="23.93" height="5.76"/>
      <rect class="cls-9" x="340.81" y="219.6" width="23.93" height="5.76"/>
      <rect class="cls-9" x="386.93" y="210.29" width="23.93" height="5.76"/>
      <rect class="cls-9" x="386.93" y="219.6" width="23.93" height="5.76"/>
      <rect class="cls-9" x="433.26" y="210.29" width="23.93" height="5.76"/>
      <rect class="cls-9" x="433.26" y="219.6" width="23.93" height="5.76"/>
      <path class="cls-8" d="M407.02,108.81h-16.44c-5.01,0-9.07,4.06-9.07,9.07v9.74c4.96,3.31,10.92,5.24,17.32,5.24s12.31-1.92,17.26-5.2v-9.78c0-5.01-4.06-9.07-9.07-9.07Z"/>
      <polygon class="cls-7" points="313.23 166.95 306.45 161.79 306.45 172.1 313.23 166.95"/>
    </g>
  </g>
</svg>