<svg width="98" height="69" viewBox="0 0 98 69" fill="none" xmlns="http://www.w3.org/2000/svg">
<path d="M82.8058 23.9167H14.2985C6.4122 23.9167 0 30.3289 0 38.2152V68.71H7.0571V59.7366H90.0656V68.71H97.1227V38.2152C97.1042 30.3289 90.692 23.9167 82.8058 23.9167ZM7.0571 52.6795V48.073H90.0656V52.6795H7.0571Z" fill="#F7CF03"/>
<path d="M12.935 20.3053H18.5917V17.0439C18.5917 12.6033 22.1847 8.99181 26.6438 8.99181H40.887C43.7798 8.99181 46.1015 11.3319 46.1015 14.2063V20.3053H52.9743V14.2063C52.9743 11.3135 55.3144 8.99181 58.1888 8.99181H72.432C76.8727 8.99181 80.4841 12.5849 80.4841 17.0439V20.3053H84.0587C86.3251 20.3053 88.1677 18.4627 88.1677 16.1963V11.811C88.1677 5.28822 82.8795 0 76.3567 0H20.637C14.1142 0 8.82599 5.28822 8.82599 11.811V16.2147C8.82599 18.4627 10.6686 20.3053 12.935 20.3053Z" fill="#F7CF03"/>
</svg>
