<svg width="96" height="83" viewBox="0 0 96 83" fill="none" xmlns="http://www.w3.org/2000/svg">
<path d="M21.3843 17.0397H3.47539C1.56038 17.0397 0 15.4793 0 13.5643V3.54594C0 1.63094 1.56038 0.0705566 3.47539 0.0705566H21.3843C23.2993 0.0705566 24.8596 1.63094 24.8596 3.54594V13.5643C24.8596 15.4793 23.317 17.0397 21.3843 17.0397Z" fill="#F7CF03"/>
<path d="M28.14 32.4838H8.49342C5.90461 32.4838 3.79456 30.4624 3.79456 27.9977H7.9792C7.9792 28.1218 8.19198 28.2992 8.51115 28.2992H28.14C28.4592 28.2992 28.6719 28.1041 28.6719 27.9977V10.6563C28.6719 10.5321 28.4592 10.3548 28.14 10.3548H8.49342C8.17425 10.3548 7.96147 10.5499 7.96147 10.6563H3.77682C3.77682 8.17383 5.88688 6.17017 8.47569 6.17017H28.1045C30.6933 6.17017 32.8034 8.19156 32.8034 10.6563V27.9977C32.8388 30.4624 30.7288 32.4838 28.14 32.4838Z" fill="#F7CF03"/>
<path d="M21.3843 38.5655H3.47539C1.56038 38.5655 0 37.0052 0 35.0902V25.0718C0 23.1568 1.56038 21.5964 3.47539 21.5964H21.3843C23.2993 21.5964 24.8596 23.1568 24.8596 25.0718V35.0902C24.8596 37.0229 23.317 38.5655 21.3843 38.5655Z" fill="#F7CF03"/>
<path d="M21.3843 60.7833H3.47539C1.56038 60.7833 0 59.2229 0 57.3079V47.2896C0 45.3746 1.56038 43.8142 3.47539 43.8142H21.3843C23.2993 43.8142 24.8596 45.3746 24.8596 47.2896V57.3079C24.8596 59.2229 23.317 60.7833 21.3843 60.7833Z" fill="#F7CF03"/>
<path d="M28.14 76.2278H8.49342C5.90461 76.2278 3.79456 74.2064 3.79456 71.7418H7.9792C7.9792 71.8659 8.19198 72.0432 8.51115 72.0432H28.14C28.4592 72.0432 28.6719 71.8482 28.6719 71.7418V54.3826C28.6719 54.2584 28.4592 54.0811 28.14 54.0811H8.49342C8.17425 54.0811 7.96147 54.2762 7.96147 54.3826H3.77682C3.77682 51.9001 5.88688 49.8965 8.47569 49.8965H28.1045C30.6933 49.8965 32.8034 51.9179 32.8034 54.3826V71.724C32.8388 74.2065 30.7288 76.2278 28.14 76.2278Z" fill="#F7CF03"/>
<path d="M21.3843 82.3097H3.47539C1.56038 82.3097 0 80.7493 0 78.8343V68.816C0 66.901 1.56038 65.3406 3.47539 65.3406H21.3843C23.2993 65.3406 24.8596 66.901 24.8596 68.816V78.8343C24.8596 80.767 23.317 82.3097 21.3843 82.3097Z" fill="#F7CF03"/>
<path d="M56.475 27.9088H38.5661C36.6511 27.9088 35.0908 26.3484 35.0908 24.4334V14.4151C35.0908 12.5001 36.6511 10.9397 38.5661 10.9397H56.475C58.39 10.9397 59.9504 12.5001 59.9504 14.4151V24.4334C59.9504 26.3662 58.39 27.9088 56.475 27.9088Z" fill="#F7CF03"/>
<path d="M61.0497 65.2163H30.6401V61.0317H61.0497C62.5392 61.0317 63.7449 59.8437 63.7449 58.3897V24.1323C63.7449 22.6783 62.5392 21.4903 61.0497 21.4903H30.4096V17.3057H61.0497C64.8443 17.3057 67.9118 20.3732 67.9118 24.1323V58.3897C67.9296 62.1488 64.8443 65.2163 61.0497 65.2163Z" fill="#F7CF03"/>
<path d="M92.4346 49.8963H74.5257C72.6107 49.8963 71.0504 48.336 71.0504 46.421V36.4026C71.0504 34.4876 72.6107 32.9272 74.5257 32.9272H92.4346C94.3496 32.9272 95.91 34.4876 95.91 36.4026V46.421C95.91 48.336 94.3674 49.8963 92.4346 49.8963Z" fill="#F7CF03"/>
<path d="M90.8033 39.2751H66.387V43.4598H90.8033V39.2751Z" fill="#F7CF03"/>
<path d="M56.475 71.8832H38.5661C36.6511 71.8832 35.0908 70.3228 35.0908 68.4078V58.3894C35.0908 56.4744 36.6511 54.9141 38.5661 54.9141H56.475C58.39 54.9141 59.9504 56.4744 59.9504 58.3894V68.4078C59.9504 70.3228 58.39 71.8832 56.475 71.8832Z" fill="#F7CF03"/>
</svg>
