<?xml version="1.0" encoding="UTF-8"?>
<svg xmlns="http://www.w3.org/2000/svg" xmlns:xlink="http://www.w3.org/1999/xlink" version="1.1" viewBox="0 0 527.8 302.67">
  <defs>
    <style>
      .cls-1 {
        fill: #ccd6db;
      }

      .cls-2 {
        fill: #03d38b;
      }

      .cls-3 {
        fill: #231f20;
      }

      .cls-4 {
        fill: #e9eef1;
        filter: url(#drop-shadow-2);
      }

      .cls-5 {
        fill: #f6c913;
        filter: url(#drop-shadow-1);
      }

      .cls-6 {
        stroke: #231f20;
      }

      .cls-6, .cls-7 {
        fill: none;
        stroke-miterlimit: 10;
        stroke-width: 2px;
      }

      .cls-8 {
        fill: #fff;
      }

      .cls-9 {
        fill: #f7cd03;
      }

      .cls-10 {
        fill: #ec3e02;
      }

      .cls-11 {
        fill: #60d092;
      }

      .cls-12 {
        fill: #1b74ba;
      }

      .cls-13 {
        fill: #f20;
      }

      .cls-7 {
        stroke: #fff;
      }
    </style>
    <filter id="drop-shadow-1" filterUnits="userSpaceOnUse">
      <feOffset dx="3.6" dy="3.6"/>
      <feGaussianBlur result="blur" stdDeviation="1.44"/>
      <feFlood flood-color="#000" flood-opacity=".4"/>
      <feComposite in2="blur" operator="in"/>
      <feComposite in="SourceGraphic"/>
    </filter>
    <filter id="drop-shadow-2" filterUnits="userSpaceOnUse">
      <feOffset dx="3.6" dy="3.6"/>
      <feGaussianBlur result="blur-2" stdDeviation="1.44"/>
      <feFlood flood-color="#000" flood-opacity=".4"/>
      <feComposite in2="blur-2" operator="in"/>
      <feComposite in="SourceGraphic"/>
    </filter>
  </defs>
  <!-- Generator: Adobe Illustrator 28.6.0, SVG Export Plug-In . SVG Version: 1.2.0 Build 709)  -->
  <g>
    <g id="Layer_1">
      <rect class="cls-5" x="342.47" y="20.02" width="166.59" height="261.51" rx="5.36" ry="5.36"/>
      <line class="cls-6" x1="294.05" y1="139.07" x2="335.06" y2="139.07"/>
      <circle class="cls-11" cx="316" cy="139.02" r="7.93"/>
      <polygon class="cls-8" points="314.75 143.48 311.34 140.07 313.12 138.3 314.75 139.93 319.29 135.39 321.07 137.17 314.75 143.48"/>
      <rect class="cls-8" x="384.38" y="118.29" width="82.78" height="5.76"/>
      <rect class="cls-8" x="384.38" y="128.26" width="82.78" height="5.76"/>
      <rect class="cls-8" x="384.38" y="157.08" width="82.78" height="5.76"/>
      <rect class="cls-8" x="357.33" y="220.49" width="136.87" height="5.76"/>
      <rect class="cls-8" x="357.33" y="236.56" width="136.87" height="5.76"/>
      <rect class="cls-8" x="357.33" y="252.63" width="136.87" height="5.76"/>
      <circle class="cls-12" cx="425.77" cy="73.67" r="31.26"/>
      <circle class="cls-8" cx="425.77" cy="68.35" r="12.78"/>
      <g>
        <rect class="cls-8" x="361.03" y="172.77" width="37.24" height="33.7" rx="6.84" ry="6.84"/>
        <rect class="cls-8" x="407.14" y="172.77" width="37.24" height="33.7" rx="6.84" ry="6.84"/>
        <rect class="cls-8" x="453.26" y="172.77" width="37.24" height="33.7" rx="6.84" ry="6.84"/>
      </g>
      <rect class="cls-10" x="367.75" y="182.36" width="23.93" height="5.76"/>
      <rect class="cls-10" x="367.75" y="191.67" width="23.93" height="5.76"/>
      <rect class="cls-10" x="413.86" y="182.36" width="23.93" height="5.76"/>
      <rect class="cls-10" x="413.86" y="191.67" width="23.93" height="5.76"/>
      <rect class="cls-10" x="460.2" y="182.36" width="23.93" height="5.76"/>
      <rect class="cls-10" x="460.2" y="191.67" width="23.93" height="5.76"/>
      <path class="cls-8" d="M433.96,80.88h-16.44c-5.01,0-9.07,4.06-9.07,9.07v9.74c4.96,3.31,10.92,5.24,17.32,5.24s12.31-1.92,17.26-5.2v-9.78c0-5.01-4.06-9.07-9.07-9.07Z"/>
      <polygon class="cls-3" points="340.17 139.02 333.39 133.86 333.39 144.17 340.17 139.02"/>
      <rect class="cls-4" x="21.17" y="26.4" width="270.81" height="224.61" rx="5.36" ry="5.36"/>
      <path class="cls-9" d="M285.05,26.39H28.51c-3.87,0-7.02,2.4-7.02,5.36v15.91h270.56v-15.91c0-2.96-3.14-5.36-7.02-5.36Z"/>
      <g>
        <path class="cls-8" d="M34.32,37.02h-1.88v-1.25h5.12v1.25h-1.88v4.93h-1.36v-4.93Z"/>
        <path class="cls-8" d="M37.31,39.61v-.02c0-1.36,1.1-2.46,2.57-2.46s2.55,1.09,2.55,2.45v.02c0,1.36-1.1,2.46-2.57,2.46s-2.55-1.09-2.55-2.45ZM41.11,39.61v-.02c0-.7-.5-1.31-1.25-1.31s-1.23.59-1.23,1.29v.02c0,.7.5,1.31,1.25,1.31s1.23-.59,1.23-1.29Z"/>
        <path class="cls-8" d="M43.37,40.28v-3.07h1.34v2.64c0,.64.3.96.81.96s.84-.33.84-.96v-2.64h1.34v4.74h-1.34v-.67c-.31.4-.71.76-1.39.76-1.02,0-1.61-.67-1.61-1.76Z"/>
        <path class="cls-8" d="M48.91,37.21h1.34v.95c.27-.65.72-1.08,1.51-1.04v1.4h-.07c-.89,0-1.44.54-1.44,1.67v1.75h-1.34v-4.74Z"/>
        <path class="cls-8" d="M52.61,37.21h1.34v.67c.31-.4.71-.76,1.39-.76,1.02,0,1.61.67,1.61,1.76v3.07h-1.34v-2.64c0-.64-.3-.96-.81-.96s-.84.33-.84.96v2.64h-1.34v-4.74Z"/>
        <path class="cls-8" d="M57.83,40.59v-.02c0-1.03.79-1.51,1.91-1.51.48,0,.82.08,1.16.19v-.08c0-.56-.34-.87-1.02-.87-.51,0-.87.1-1.31.26l-.34-1.02c.52-.23,1.03-.38,1.84-.38.73,0,1.26.19,1.6.53.35.35.51.87.51,1.51v2.75h-1.3v-.51c-.33.36-.78.6-1.43.6-.89,0-1.63-.51-1.63-1.45ZM60.92,40.28v-.24c-.23-.11-.53-.18-.86-.18-.57,0-.93.23-.93.65v.02c0,.36.3.57.73.57.63,0,1.05-.34,1.05-.83Z"/>
        <path class="cls-8" d="M63.35,37.21h1.34v.67c.31-.4.72-.76,1.4-.76.62,0,1.09.27,1.33.75.42-.49.91-.75,1.55-.75,1,0,1.6.6,1.6,1.74v3.08h-1.34v-2.64c0-.64-.28-.96-.79-.96s-.81.33-.81.96v2.64h-1.34v-2.64c0-.64-.28-.96-.79-.96s-.81.33-.81.96v2.64h-1.34v-4.74Z"/>
        <path class="cls-8" d="M71.51,39.61v-.02c0-1.35.96-2.46,2.34-2.46,1.58,0,2.31,1.23,2.31,2.57,0,.11,0,.23-.02.35h-3.3c.13.61.56.93,1.16.93.45,0,.78-.14,1.15-.49l.77.68c-.44.55-1.08.88-1.94.88-1.42,0-2.47-1-2.47-2.45ZM74.85,39.21c-.08-.6-.43-1.01-1-1.01s-.92.4-1.02,1.01h2.02Z"/>
        <path class="cls-8" d="M77.16,37.21h1.34v.67c.31-.4.71-.76,1.39-.76,1.02,0,1.61.67,1.61,1.76v3.07h-1.34v-2.64c0-.64-.3-.96-.81-.96s-.84.33-.84.96v2.64h-1.34v-4.74Z"/>
        <path class="cls-8" d="M82.89,40.61v-2.24h-.57v-1.15h.57v-1.21h1.34v1.21h1.11v1.15h-1.11v2.02c0,.31.13.46.43.46.25,0,.47-.06.66-.17v1.08c-.28.17-.61.27-1.06.27-.82,0-1.38-.33-1.38-1.42Z"/>
        <path class="cls-8" d="M89.13,35.76h2.53c1.48,0,2.37.88,2.37,2.14v.02c0,1.43-1.11,2.17-2.5,2.17h-1.03v1.86h-1.36v-6.18ZM91.57,38.88c.68,0,1.08-.41,1.08-.94v-.02c0-.61-.42-.94-1.1-.94h-1.05v1.89h1.08Z"/>
        <path class="cls-8" d="M94.95,35.5h1.34v6.45h-1.34v-6.45Z"/>
        <path class="cls-8" d="M97.28,40.59v-.02c0-1.03.79-1.51,1.91-1.51.48,0,.82.08,1.16.19v-.08c0-.56-.34-.87-1.02-.87-.51,0-.87.1-1.31.26l-.34-1.02c.52-.23,1.03-.38,1.84-.38.73,0,1.26.19,1.6.53.35.35.51.87.51,1.51v2.75h-1.3v-.51c-.33.36-.78.6-1.43.6-.89,0-1.63-.51-1.63-1.45ZM100.36,40.28v-.24c-.23-.11-.53-.18-.86-.18-.57,0-.93.23-.93.65v.02c0,.36.3.57.73.57.63,0,1.05-.34,1.05-.83Z"/>
        <path class="cls-8" d="M102.55,43.06l.45-.97c.18.11.4.19.57.19.23,0,.35-.07.47-.31l-1.86-4.75h1.42l1.08,3.22,1.03-3.22h1.4l-1.82,4.85c-.36.96-.75,1.33-1.56,1.33-.49,0-.85-.12-1.19-.33Z"/>
        <path class="cls-8" d="M107.42,39.61v-.02c0-1.35.96-2.46,2.34-2.46,1.58,0,2.31,1.23,2.31,2.57,0,.11,0,.23-.02.35h-3.3c.13.61.56.93,1.16.93.45,0,.78-.14,1.15-.49l.77.68c-.44.55-1.08.88-1.94.88-1.42,0-2.47-1-2.47-2.45ZM110.76,39.21c-.08-.6-.43-1.01-1-1.01s-.92.4-1.02,1.01h2.02Z"/>
        <path class="cls-8" d="M113.07,37.21h1.34v.95c.27-.65.72-1.08,1.51-1.04v1.4h-.07c-.89,0-1.44.54-1.44,1.67v1.75h-1.34v-4.74Z"/>
        <path class="cls-8" d="M119.56,35.76h2.83c.79,0,1.4.22,1.8.63.34.34.53.83.53,1.41v.02c0,1-.54,1.63-1.33,1.92l1.51,2.21h-1.59l-1.33-1.98h-1.07v1.98h-1.36v-6.18ZM122.3,38.77c.66,0,1.04-.35,1.04-.87v-.02c0-.58-.41-.88-1.07-.88h-1.35v1.78h1.38Z"/>
        <path class="cls-8" d="M125.49,39.61v-.02c0-1.36,1.1-2.46,2.57-2.46s2.55,1.09,2.55,2.45v.02c0,1.36-1.1,2.46-2.57,2.46s-2.55-1.09-2.55-2.45ZM129.29,39.61v-.02c0-.7-.5-1.31-1.25-1.31s-1.23.59-1.23,1.29v.02c0,.7.5,1.31,1.25,1.31s1.23-.59,1.23-1.29Z"/>
        <path class="cls-8" d="M131.22,41.32l.57-.88c.51.37,1.05.57,1.49.57.39,0,.57-.14.57-.35v-.02c0-.29-.46-.39-.98-.55-.66-.19-1.41-.5-1.41-1.42v-.02c0-.96.78-1.5,1.73-1.5.6,0,1.25.2,1.77.55l-.51.93c-.47-.27-.94-.44-1.28-.44-.33,0-.49.14-.49.33v.02c0,.26.45.39.96.57.66.22,1.43.54,1.43,1.4v.02c0,1.05-.79,1.53-1.81,1.53-.66,0-1.4-.22-2.03-.72Z"/>
        <path class="cls-8" d="M136.16,40.61v-2.24h-.57v-1.15h.57v-1.21h1.34v1.21h1.11v1.15h-1.11v2.02c0,.31.13.46.43.46.25,0,.47-.06.66-.17v1.08c-.28.17-.61.27-1.06.27-.82,0-1.38-.33-1.38-1.42Z"/>
        <path class="cls-8" d="M139.24,39.61v-.02c0-1.35.96-2.46,2.34-2.46,1.58,0,2.31,1.23,2.31,2.57,0,.11,0,.23-.02.35h-3.3c.13.61.56.93,1.16.93.45,0,.78-.14,1.15-.49l.77.68c-.44.55-1.08.88-1.94.88-1.42,0-2.47-1-2.47-2.45ZM142.58,39.21c-.08-.6-.43-1.01-1-1.01s-.92.4-1.02,1.01h2.02Z"/>
        <path class="cls-8" d="M144.89,37.21h1.34v.95c.27-.65.72-1.08,1.51-1.04v1.4h-.07c-.89,0-1.44.54-1.44,1.67v1.75h-1.34v-4.74Z"/>
      </g>
      <g>
        <path class="cls-3" d="M194.5,57.05h2.53c1.48,0,2.37.88,2.37,2.14v.02c0,1.43-1.11,2.17-2.5,2.17h-1.03v1.86h-1.36v-6.18ZM196.94,60.17c.68,0,1.08-.41,1.08-.94v-.02c0-.61-.42-.94-1.1-.94h-1.05v1.89h1.08Z"/>
        <path class="cls-3" d="M199.89,61.87v-.02c0-1.03.79-1.51,1.91-1.51.48,0,.82.08,1.16.19v-.08c0-.56-.34-.87-1.02-.87-.51,0-.87.1-1.31.26l-.34-1.02c.52-.23,1.03-.38,1.84-.38.73,0,1.26.19,1.6.53.35.35.51.87.51,1.51v2.75h-1.3v-.51c-.33.36-.78.6-1.43.6-.89,0-1.63-.51-1.63-1.45ZM202.97,61.56v-.24c-.23-.11-.53-.18-.86-.18-.57,0-.93.23-.93.65v.02c0,.36.3.57.73.57.63,0,1.05-.34,1.05-.83Z"/>
        <path class="cls-3" d="M205.43,56.78h1.41v1.19h-1.41v-1.19ZM205.47,58.5h1.34v4.74h-1.34v-4.74Z"/>
        <path class="cls-3" d="M207.86,60.87v-.02c0-1.58,1.03-2.45,2.16-2.45.72,0,1.16.33,1.48.71v-2.33h1.34v6.45h-1.34v-.68c-.33.44-.78.77-1.48.77-1.1,0-2.16-.87-2.16-2.45ZM211.51,60.87v-.02c0-.79-.52-1.31-1.15-1.31s-1.16.51-1.16,1.31v.02c0,.79.53,1.31,1.16,1.31s1.15-.52,1.15-1.31Z"/>
      </g>
      <rect class="cls-1" x="31.14" y="57.49" width="118.38" height="5.76"/>
      <rect class="cls-1" x="57.97" y="78.55" width="118.38" height="5.76"/>
      <circle class="cls-13" cx="204.84" cy="81.43" r="6.32"/>
      <circle class="cls-1" cx="43.45" cy="81.43" r="6.32"/>
      <g>
        <line class="cls-7" x1="202.15" y1="84.48" x2="207.92" y2="78.71"/>
        <line class="cls-7" x1="207.92" y1="84.48" x2="202.15" y2="78.71"/>
      </g>
      <rect class="cls-1" x="57.97" y="127.99" width="118.38" height="5.76"/>
      <circle class="cls-2" cx="204.84" cy="130.87" r="6.32"/>
      <circle class="cls-1" cx="43.45" cy="130.87" r="6.32"/>
      <rect class="cls-1" x="57.97" y="103.27" width="118.38" height="5.76"/>
      <circle class="cls-2" cx="204.84" cy="106.15" r="6.32"/>
      <circle class="cls-1" cx="43.45" cy="106.15" r="6.32"/>
      <polyline class="cls-7" points="201.84 106.29 203.85 108.3 208.18 103.97"/>
      <rect class="cls-1" x="57.97" y="152.71" width="118.38" height="5.76"/>
      <circle class="cls-2" cx="204.84" cy="155.59" r="6.32"/>
      <circle class="cls-1" cx="43.45" cy="155.59" r="6.32"/>
      <polyline class="cls-7" points="201.84 155.66 203.85 157.67 208.18 153.35"/>
      <polyline class="cls-7" points="201.84 131.06 203.85 133.07 208.18 128.74"/>
      <rect class="cls-1" x="57.97" y="202.14" width="118.38" height="5.76"/>
      <circle class="cls-13" cx="204.84" cy="205.02" r="6.32"/>
      <circle class="cls-1" cx="43.45" cy="205.02" r="6.32"/>
      <g>
        <line class="cls-7" x1="202.15" y1="208.02" x2="207.92" y2="202.25"/>
        <line class="cls-7" x1="207.92" y1="208.02" x2="202.15" y2="202.25"/>
      </g>
      <rect class="cls-1" x="57.97" y="177.42" width="118.38" height="5.76"/>
      <circle class="cls-2" cx="204.84" cy="180.31" r="6.32"/>
      <circle class="cls-1" cx="43.45" cy="180.31" r="6.32"/>
      <polyline class="cls-7" points="201.84 180.44 203.85 182.45 208.18 178.12"/>
      <rect class="cls-1" x="57.97" y="226.86" width="118.38" height="5.76"/>
      <circle class="cls-2" cx="204.84" cy="229.74" r="6.32"/>
      <circle class="cls-1" cx="43.45" cy="229.74" r="6.32"/>
      <polyline class="cls-7" points="201.84 229.82 203.85 231.83 208.18 227.5"/>
      <g>
        <path d="M238.88,57.11h1.46l1.28,4.09,1.38-4.1h1.16l1.38,4.1,1.28-4.09h1.42l-2.11,6.08h-1.18l-1.39-3.95-1.39,3.95h-1.18l-2.11-6.08Z"/>
        <path d="M248.2,61.82v-.02c0-1.01.79-1.47,1.91-1.47.48,0,.82.08,1.16.19v-.08c0-.54-.34-.84-1.01-.84-.51,0-.87.09-1.31.25l-.34-1c.52-.22,1.03-.37,1.83-.37.73,0,1.26.19,1.6.52.35.34.51.85.51,1.47v2.68h-1.3v-.5c-.33.35-.78.59-1.43.59-.89,0-1.62-.5-1.62-1.41ZM251.28,61.52v-.23c-.23-.1-.53-.17-.86-.17-.57,0-.93.22-.93.64v.02c0,.35.3.56.73.56.63,0,1.05-.34,1.05-.81Z"/>
        <path d="M253.73,56.85h1.41v1.16h-1.41v-1.16ZM253.76,58.52h1.34v4.62h-1.34v-4.62Z"/>
        <path d="M255.94,58.52h1.42l1.06,3.1,1.07-3.1h1.39l-1.86,4.66h-1.22l-1.86-4.66Z"/>
        <path d="M261.16,60.86v-.02c0-1.32.96-2.41,2.34-2.41,1.58,0,2.3,1.2,2.3,2.51,0,.1,0,.22-.02.34h-3.29c.13.59.56.91,1.16.91.45,0,.78-.14,1.15-.47l.77.66c-.44.53-1.08.86-1.93.86-1.42,0-2.47-.97-2.47-2.39ZM264.49,60.47c-.08-.59-.43-.98-1-.98s-.92.39-1.02.98h2.02Z"/>
        <path d="M266.79,58.52h1.34v.93c.27-.64.71-1.05,1.51-1.02v1.37h-.07c-.89,0-1.44.53-1.44,1.63v1.71h-1.34v-4.62Z"/>
      </g>
      <g id="zW19aY.tif">
        <g>
          <path d="M245.88,73.34c1.91,0,3.83,0,5.74,0,0,1.15,0,2.31,0,3.46,0,.73.45,1.17,1.17,1.17,1.15,0,2.3,0,3.46,0h.19v.17c0,3.07,0,6.14,0,9.21,0,1.07-.73,1.79-1.79,1.79-1.54,0-3.09,0-4.63,0-1.3,0-2.59,0-3.89,0-.74,0-1.27-.36-1.58-1.03-.07-.14-.1-.3-.14-.45,0-4.28,0-8.56,0-12.84.01-.03.02-.07.03-.1.1-.48.34-.86.76-1.11.21-.12.46-.19.69-.28ZM250.32,80.44c.1,0,.2,0,.29,0,1.02,0,2.03,0,3.05,0,.22,0,.38-.08.47-.28.14-.32-.09-.64-.46-.64-1.79,0-3.59,0-5.38,0-.45,0-.89,0-1.34,0-.2,0-.36.09-.44.27-.15.32.09.65.45.65,1.12,0,2.24,0,3.36,0ZM250.32,81.98h-.08c-1.1,0-2.2,0-3.3,0-.26,0-.45.17-.48.41-.03.23.13.45.36.5.06.01.13.01.2.01,1.85,0,3.7,0,5.55,0,.37,0,.74,0,1.11,0,.21,0,.37-.09.45-.29.13-.31-.1-.64-.46-.64-1.12,0-2.24,0-3.36,0ZM248.04,85.38c.37,0,.73,0,1.1,0,.29,0,.5-.19.5-.46,0-.27-.21-.47-.5-.47-.72,0-1.44,0-2.16,0-.3,0-.51.19-.51.46,0,.27.21.46.51.46.35,0,.71,0,1.06,0Z"/>
          <path d="M252.56,73.52c.14.11.27.19.37.29.99.93,1.97,1.86,2.96,2.8.12.12.22.26.36.42-.08,0-.12.01-.15.01-1.11,0-2.21,0-3.32,0-.18,0-.23-.04-.23-.21,0-1.07,0-2.15,0-3.22,0-.01,0-.03.01-.09Z"/>
        </g>
      </g>
      <g id="zW19aY.tif-2" data-name="zW19aY.tif">
        <g>
          <path d="M245.88,98.05c1.91,0,3.83,0,5.74,0,0,1.15,0,2.31,0,3.46,0,.73.45,1.17,1.17,1.17,1.15,0,2.3,0,3.46,0h.19v.17c0,3.07,0,6.14,0,9.21,0,1.07-.73,1.79-1.79,1.79-1.54,0-3.09,0-4.63,0-1.3,0-2.59,0-3.89,0-.74,0-1.27-.36-1.58-1.03-.07-.14-.1-.3-.14-.45,0-4.28,0-8.56,0-12.84.01-.03.02-.07.03-.1.1-.48.34-.86.76-1.11.21-.12.46-.19.69-.28ZM250.32,105.15c.1,0,.2,0,.29,0,1.02,0,2.03,0,3.05,0,.22,0,.38-.08.47-.28.14-.32-.09-.64-.46-.64-1.79,0-3.59,0-5.38,0-.45,0-.89,0-1.34,0-.2,0-.36.09-.44.27-.15.32.09.65.45.65,1.12,0,2.24,0,3.36,0ZM250.32,106.69h-.08c-1.1,0-2.2,0-3.3,0-.26,0-.45.17-.48.41-.03.23.13.45.36.5.06.01.13.01.2.01,1.85,0,3.7,0,5.55,0,.37,0,.74,0,1.11,0,.21,0,.37-.09.45-.29.13-.31-.1-.64-.46-.64-1.12,0-2.24,0-3.36,0ZM248.04,110.09c.37,0,.73,0,1.1,0,.29,0,.5-.19.5-.46,0-.27-.21-.47-.5-.47-.72,0-1.44,0-2.16,0-.3,0-.51.19-.51.46,0,.27.21.46.51.46.35,0,.71,0,1.06,0Z"/>
          <path d="M252.56,98.23c.14.11.27.19.37.29.99.93,1.97,1.86,2.96,2.8.12.12.22.26.36.42-.08,0-.12.01-.15.01-1.11,0-2.21,0-3.32,0-.18,0-.23-.04-.23-.21,0-1.07,0-2.15,0-3.22,0-.01,0-.03.01-.09Z"/>
        </g>
      </g>
      <g id="zW19aY.tif-3" data-name="zW19aY.tif">
        <g>
          <path d="M245.88,122.76c1.91,0,3.83,0,5.74,0,0,1.15,0,2.31,0,3.46,0,.73.45,1.17,1.17,1.17,1.15,0,2.3,0,3.46,0h.19v.17c0,3.07,0,6.14,0,9.21,0,1.07-.73,1.79-1.79,1.79-1.54,0-3.09,0-4.63,0-1.3,0-2.59,0-3.89,0-.74,0-1.27-.36-1.58-1.03-.07-.14-.1-.3-.14-.45,0-4.28,0-8.56,0-12.84.01-.03.02-.07.03-.1.1-.48.34-.86.76-1.11.21-.12.46-.19.69-.28ZM250.32,129.86c.1,0,.2,0,.29,0,1.02,0,2.03,0,3.05,0,.22,0,.38-.08.47-.28.14-.32-.09-.64-.46-.64-1.79,0-3.59,0-5.38,0-.45,0-.89,0-1.34,0-.2,0-.36.09-.44.27-.15.32.09.65.45.65,1.12,0,2.24,0,3.36,0ZM250.32,131.4h-.08c-1.1,0-2.2,0-3.3,0-.26,0-.45.17-.48.41-.03.23.13.45.36.5.06.01.13.01.2.01,1.85,0,3.7,0,5.55,0,.37,0,.74,0,1.11,0,.21,0,.37-.09.45-.29.13-.31-.1-.64-.46-.64-1.12,0-2.24,0-3.36,0ZM248.04,134.8c.37,0,.73,0,1.1,0,.29,0,.5-.19.5-.46,0-.27-.21-.47-.5-.47-.72,0-1.44,0-2.16,0-.3,0-.51.19-.51.46,0,.27.21.46.51.46.35,0,.71,0,1.06,0Z"/>
          <path d="M252.56,122.94c.14.11.27.19.37.29.99.93,1.97,1.86,2.96,2.8.12.12.22.26.36.42-.08,0-.12.01-.15.01-1.11,0-2.21,0-3.32,0-.18,0-.23-.04-.23-.21,0-1.07,0-2.15,0-3.22,0-.01,0-.03.01-.09Z"/>
        </g>
      </g>
      <g id="zW19aY.tif-4" data-name="zW19aY.tif">
        <g>
          <path d="M245.88,147.47c1.91,0,3.83,0,5.74,0,0,1.15,0,2.31,0,3.46,0,.73.45,1.17,1.17,1.17,1.15,0,2.3,0,3.46,0h.19v.17c0,3.07,0,6.14,0,9.21,0,1.07-.73,1.79-1.79,1.79-1.54,0-3.09,0-4.63,0-1.3,0-2.59,0-3.89,0-.74,0-1.27-.36-1.58-1.03-.07-.14-.1-.3-.14-.45,0-4.28,0-8.56,0-12.84.01-.03.02-.07.03-.1.1-.48.34-.86.76-1.11.21-.12.46-.19.69-.28ZM250.32,154.57c.1,0,.2,0,.29,0,1.02,0,2.03,0,3.05,0,.22,0,.38-.08.47-.28.14-.32-.09-.64-.46-.64-1.79,0-3.59,0-5.38,0-.45,0-.89,0-1.34,0-.2,0-.36.09-.44.27-.15.32.09.65.45.65,1.12,0,2.24,0,3.36,0ZM250.32,156.11h-.08c-1.1,0-2.2,0-3.3,0-.26,0-.45.17-.48.41-.03.23.13.45.36.5.06.01.13.01.2.01,1.85,0,3.7,0,5.55,0,.37,0,.74,0,1.11,0,.21,0,.37-.09.45-.29.13-.31-.1-.64-.46-.64-1.12,0-2.24,0-3.36,0ZM248.04,159.51c.37,0,.73,0,1.1,0,.29,0,.5-.19.5-.46,0-.27-.21-.47-.5-.47-.72,0-1.44,0-2.16,0-.3,0-.51.19-.51.46,0,.27.21.46.51.46.35,0,.71,0,1.06,0Z"/>
          <path d="M252.56,147.65c.14.11.27.19.37.29.99.93,1.97,1.86,2.96,2.8.12.12.22.26.36.42-.08,0-.12.01-.15.01-1.11,0-2.21,0-3.32,0-.18,0-.23-.04-.23-.21,0-1.07,0-2.15,0-3.22,0-.01,0-.03.01-.09Z"/>
        </g>
      </g>
      <g id="zW19aY.tif-5" data-name="zW19aY.tif">
        <g>
          <path d="M245.88,172.17c1.91,0,3.83,0,5.74,0,0,1.15,0,2.31,0,3.46,0,.73.45,1.17,1.17,1.17,1.15,0,2.3,0,3.46,0h.19v.17c0,3.07,0,6.14,0,9.21,0,1.07-.73,1.79-1.79,1.79-1.54,0-3.09,0-4.63,0-1.3,0-2.59,0-3.89,0-.74,0-1.27-.36-1.58-1.03-.07-.14-.1-.3-.14-.45,0-4.28,0-8.56,0-12.84.01-.03.02-.07.03-.1.1-.48.34-.86.76-1.11.21-.12.46-.19.69-.28ZM250.32,179.28c.1,0,.2,0,.29,0,1.02,0,2.03,0,3.05,0,.22,0,.38-.08.47-.28.14-.32-.09-.64-.46-.64-1.79,0-3.59,0-5.38,0-.45,0-.89,0-1.34,0-.2,0-.36.09-.44.27-.15.32.09.65.45.65,1.12,0,2.24,0,3.36,0ZM250.32,180.82h-.08c-1.1,0-2.2,0-3.3,0-.26,0-.45.17-.48.41-.03.23.13.45.36.5.06.01.13.01.2.01,1.85,0,3.7,0,5.55,0,.37,0,.74,0,1.11,0,.21,0,.37-.09.45-.29.13-.31-.1-.64-.46-.64-1.12,0-2.24,0-3.36,0ZM248.04,184.22c.37,0,.73,0,1.1,0,.29,0,.5-.19.5-.46,0-.27-.21-.47-.5-.47-.72,0-1.44,0-2.16,0-.3,0-.51.19-.51.46,0,.27.21.46.51.46.35,0,.71,0,1.06,0Z"/>
          <path d="M252.56,172.36c.14.11.27.19.37.29.99.93,1.97,1.86,2.96,2.8.12.12.22.26.36.42-.08,0-.12.01-.15.01-1.11,0-2.21,0-3.32,0-.18,0-.23-.04-.23-.21,0-1.07,0-2.15,0-3.22,0-.01,0-.03.01-.09Z"/>
        </g>
      </g>
      <g id="zW19aY.tif-6" data-name="zW19aY.tif">
        <g>
          <path d="M245.88,196.88c1.91,0,3.83,0,5.74,0,0,1.15,0,2.31,0,3.46,0,.73.45,1.17,1.17,1.17,1.15,0,2.3,0,3.46,0h.19v.17c0,3.07,0,6.14,0,9.21,0,1.07-.73,1.79-1.79,1.79-1.54,0-3.09,0-4.63,0-1.3,0-2.59,0-3.89,0-.74,0-1.27-.36-1.58-1.03-.07-.14-.1-.3-.14-.45,0-4.28,0-8.56,0-12.84.01-.03.02-.07.03-.1.1-.48.34-.86.76-1.11.21-.12.46-.19.69-.28ZM250.32,203.99c.1,0,.2,0,.29,0,1.02,0,2.03,0,3.05,0,.22,0,.38-.08.47-.28.14-.32-.09-.64-.46-.64-1.79,0-3.59,0-5.38,0-.45,0-.89,0-1.34,0-.2,0-.36.09-.44.27-.15.32.09.65.45.65,1.12,0,2.24,0,3.36,0ZM250.32,205.53h-.08c-1.1,0-2.2,0-3.3,0-.26,0-.45.17-.48.41-.03.23.13.45.36.5.06.01.13.01.2.01,1.85,0,3.7,0,5.55,0,.37,0,.74,0,1.11,0,.21,0,.37-.09.45-.29.13-.31-.1-.64-.46-.64-1.12,0-2.24,0-3.36,0ZM248.04,208.93c.37,0,.73,0,1.1,0,.29,0,.5-.19.5-.46,0-.27-.21-.47-.5-.47-.72,0-1.44,0-2.16,0-.3,0-.51.19-.51.46,0,.27.21.46.51.46.35,0,.71,0,1.06,0Z"/>
          <path d="M252.56,197.07c.14.11.27.19.37.29.99.93,1.97,1.86,2.96,2.8.12.12.22.26.36.42-.08,0-.12.01-.15.01-1.11,0-2.21,0-3.32,0-.18,0-.23-.04-.23-.21,0-1.07,0-2.15,0-3.22,0-.01,0-.03.01-.09Z"/>
        </g>
      </g>
      <g id="zW19aY.tif-7" data-name="zW19aY.tif">
        <g>
          <path d="M245.88,221.59c1.91,0,3.83,0,5.74,0,0,1.15,0,2.31,0,3.46,0,.73.45,1.17,1.17,1.17,1.15,0,2.3,0,3.46,0h.19v.17c0,3.07,0,6.14,0,9.21,0,1.07-.73,1.79-1.79,1.79-1.54,0-3.09,0-4.63,0-1.3,0-2.59,0-3.89,0-.74,0-1.27-.36-1.58-1.03-.07-.14-.1-.3-.14-.45,0-4.28,0-8.56,0-12.84.01-.03.02-.07.03-.1.1-.48.34-.86.76-1.11.21-.12.46-.19.69-.28ZM250.32,228.69c.1,0,.2,0,.29,0,1.02,0,2.03,0,3.05,0,.22,0,.38-.08.47-.28.14-.32-.09-.64-.46-.64-1.79,0-3.59,0-5.38,0-.45,0-.89,0-1.34,0-.2,0-.36.09-.44.27-.15.32.09.65.45.65,1.12,0,2.24,0,3.36,0ZM250.32,230.24h-.08c-1.1,0-2.2,0-3.3,0-.26,0-.45.17-.48.41-.03.23.13.45.36.5.06.01.13.01.2.01,1.85,0,3.7,0,5.55,0,.37,0,.74,0,1.11,0,.21,0,.37-.09.45-.29.13-.31-.1-.64-.46-.64-1.12,0-2.24,0-3.36,0ZM248.04,233.63c.37,0,.73,0,1.1,0,.29,0,.5-.19.5-.46,0-.27-.21-.47-.5-.47-.72,0-1.44,0-2.16,0-.3,0-.51.19-.51.46,0,.27.21.46.51.46.35,0,.71,0,1.06,0Z"/>
          <path d="M252.56,221.77c.14.11.27.19.37.29.99.93,1.97,1.86,2.96,2.8.12.12.22.26.36.42-.08,0-.12.01-.15.01-1.11,0-2.21,0-3.32,0-.18,0-.23-.04-.23-.21,0-1.07,0-2.15,0-3.22,0-.01,0-.03.01-.09Z"/>
        </g>
      </g>
      <circle class="cls-13" cx="260.37" cy="81.43" r="6.32"/>
      <g>
        <line class="cls-7" x1="257.68" y1="84.48" x2="263.45" y2="78.71"/>
        <line class="cls-7" x1="263.45" y1="84.48" x2="257.68" y2="78.71"/>
      </g>
      <circle class="cls-2" cx="260.37" cy="130.87" r="6.32"/>
      <circle class="cls-2" cx="260.37" cy="106.15" r="6.32"/>
      <polyline class="cls-7" points="257.37 106.29 259.38 108.3 263.71 103.97"/>
      <circle class="cls-13" cx="260.37" cy="155.59" r="6.32"/>
      <polyline class="cls-7" points="257.37 131.06 259.38 133.07 263.71 128.74"/>
      <circle class="cls-13" cx="260.37" cy="205.02" r="6.32"/>
      <g>
        <line class="cls-7" x1="257.68" y1="208.02" x2="263.45" y2="202.25"/>
        <line class="cls-7" x1="263.45" y1="208.02" x2="257.68" y2="202.25"/>
      </g>
      <g>
        <line class="cls-7" x1="257.68" y1="158.64" x2="263.45" y2="152.86"/>
        <line class="cls-7" x1="263.45" y1="158.64" x2="257.68" y2="152.86"/>
      </g>
      <circle class="cls-2" cx="260.37" cy="180.31" r="6.32"/>
      <polyline class="cls-7" points="257.37 180.44 259.38 182.45 263.71 178.12"/>
      <circle class="cls-13" cx="260.37" cy="229.74" r="6.32"/>
      <g>
        <line class="cls-7" x1="257.68" y1="232.79" x2="263.45" y2="227.02"/>
        <line class="cls-7" x1="263.45" y1="232.79" x2="257.68" y2="227.02"/>
      </g>
    </g>
  </g>
</svg>