<?xml version="1.0" encoding="UTF-8"?>
<svg xmlns="http://www.w3.org/2000/svg" xmlns:xlink="http://www.w3.org/1999/xlink" version="1.1" viewBox="0 0 530.79 486.9">
  <defs>
    <style>
      .cls-1 {
        fill: #db4d25;
      }

      .cls-2 {
        fill: #f0cb48;
      }

      .cls-3 {
        fill: #fff;
      }

      .cls-4 {
        fill: #221f20;
      }

      .cls-5 {
        fill: #cfd7db;
      }

      .cls-6 {
        filter: url(#drop-shadow-1);
      }

      .cls-6, .cls-7 {
        fill: #ebeff2;
      }

      .cls-7 {
        filter: url(#drop-shadow-2);
      }

      .cls-8 {
        fill: #3874b6;
      }
    </style>
    <filter id="drop-shadow-1" filterUnits="userSpaceOnUse">
      <feOffset dx="3.6" dy="3.6"/>
      <feGaussianBlur result="blur" stdDeviation="1.44"/>
      <feFlood flood-color="#000" flood-opacity=".4"/>
      <feComposite in2="blur" operator="in"/>
      <feComposite in="SourceGraphic"/>
    </filter>
    <filter id="drop-shadow-2" filterUnits="userSpaceOnUse">
      <feOffset dx="3.6" dy="3.6"/>
      <feGaussianBlur result="blur-2" stdDeviation="1.44"/>
      <feFlood flood-color="#000" flood-opacity=".4"/>
      <feComposite in2="blur-2" operator="in"/>
      <feComposite in="SourceGraphic"/>
    </filter>
  </defs>
  <!-- Generator: Adobe Illustrator 28.6.0, SVG Export Plug-In . SVG Version: 1.2.0 Build 709)  -->
  <g>
    <g id="Layer_1">
      <rect class="cls-6" x="171.99" y="36.65" width="206.9" height="226.96" rx="5.36" ry="5.36"/>
      <path class="cls-2" d="M373.53,36.65h-196.17c-2.96,0-5.36,2.4-5.36,5.36v15.91h206.9v-15.91c0-2.96-2.4-5.36-5.36-5.36Z"/>
      <g>
        <path class="cls-3" d="M183.38,46.02h4.66v1.21h-3.31v1.25h2.92v1.21h-2.92v1.3h3.36v1.21h-4.71v-6.18Z"/>
        <path class="cls-3" d="M189.3,46.02h2.87c.71,0,1.26.19,1.62.55.28.28.42.63.42,1.05v.02c0,.7-.37,1.09-.81,1.33.72.27,1.16.69,1.16,1.52v.02c0,1.13-.92,1.7-2.31,1.7h-2.94v-6.18ZM191.88,48.52c.6,0,.98-.19.98-.65v-.02c0-.41-.32-.64-.89-.64h-1.34v1.31h1.25ZM192.24,51.01c.6,0,.96-.21.96-.67v-.02c0-.42-.31-.67-1.01-.67h-1.57v1.36h1.62Z"/>
        <path class="cls-3" d="M195.6,45.75h1.34v6.45h-1.34v-6.45Z"/>
        <path class="cls-3" d="M197.92,50.84v-.02c0-1.03.79-1.51,1.91-1.51.48,0,.82.08,1.16.19v-.08c0-.56-.34-.87-1.02-.87-.51,0-.87.1-1.31.26l-.34-1.02c.52-.23,1.03-.38,1.84-.38.73,0,1.26.19,1.6.53.35.35.51.87.51,1.51v2.75h-1.3v-.51c-.33.36-.78.6-1.43.6-.89,0-1.63-.51-1.63-1.45ZM201.01,50.53v-.24c-.23-.11-.53-.18-.86-.18-.57,0-.93.23-.93.65v.02c0,.36.3.57.73.57.63,0,1.05-.34,1.05-.83Z"/>
        <path class="cls-3" d="M203.07,51.58l.57-.88c.51.37,1.05.57,1.49.57.39,0,.57-.14.57-.35v-.02c0-.29-.46-.39-.98-.55-.66-.19-1.41-.5-1.41-1.42v-.02c0-.96.78-1.5,1.73-1.5.6,0,1.25.2,1.77.55l-.51.93c-.47-.27-.94-.44-1.28-.44-.33,0-.49.14-.49.33v.02c0,.26.45.39.96.57.66.22,1.43.54,1.43,1.4v.02c0,1.05-.79,1.53-1.81,1.53-.66,0-1.4-.22-2.03-.72Z"/>
        <path class="cls-3" d="M208.01,50.86v-2.24h-.57v-1.15h.57v-1.21h1.34v1.21h1.11v1.15h-1.11v2.02c0,.31.13.46.43.46.25,0,.47-.06.66-.17v1.08c-.28.17-.61.27-1.06.27-.82,0-1.38-.33-1.38-1.42Z"/>
      </g>
      <rect class="cls-7" x="171.99" y="284.72" width="206.9" height="144.23" rx="5.36" ry="5.36"/>
      <path class="cls-2" d="M373.53,284.72h-196.17c-2.96,0-5.36,2.4-5.36,5.36v15.91h206.9v-15.91c0-2.96-2.4-5.36-5.36-5.36Z"/>
      <g>
        <path class="cls-3" d="M183.1,297.2v-.02c0-1.76,1.33-3.2,3.22-3.2,1.17,0,1.86.39,2.44.95l-.87,1c-.48-.43-.96-.7-1.58-.7-1.04,0-1.79.87-1.79,1.93v.02c0,1.06.73,1.94,1.79,1.94.71,0,1.14-.28,1.63-.72l.87.87c-.64.68-1.34,1.1-2.54,1.1-1.82,0-3.17-1.4-3.17-3.18Z"/>
        <path class="cls-3" d="M189.44,297.94v-.02c0-1.36,1.1-2.46,2.57-2.46s2.55,1.09,2.55,2.45v.02c0,1.36-1.1,2.46-2.57,2.46s-2.55-1.09-2.55-2.45ZM193.24,297.94v-.02c0-.7-.5-1.31-1.25-1.31s-1.23.59-1.23,1.29v.02c0,.7.5,1.31,1.25,1.31s1.23-.59,1.23-1.29Z"/>
        <path class="cls-3" d="M195.54,295.54h1.34v.67c.31-.4.72-.76,1.4-.76.62,0,1.09.27,1.33.75.42-.49.91-.75,1.55-.75,1,0,1.6.6,1.6,1.74v3.08h-1.34v-2.64c0-.64-.28-.96-.79-.96s-.81.33-.81.96v2.64h-1.34v-2.64c0-.64-.28-.96-.79-.96s-.81.33-.81.96v2.64h-1.34v-4.74Z"/>
        <path class="cls-3" d="M203.93,295.54h1.34v.67c.31-.4.72-.76,1.4-.76.62,0,1.09.27,1.33.75.42-.49.91-.75,1.55-.75,1,0,1.6.6,1.6,1.74v3.08h-1.34v-2.64c0-.64-.28-.96-.79-.96s-.81.33-.81.96v2.64h-1.34v-2.64c0-.64-.28-.96-.79-.96s-.81.33-.81.96v2.64h-1.34v-4.74Z"/>
        <path class="cls-3" d="M212.3,298.61v-3.07h1.34v2.64c0,.64.3.96.81.96s.84-.33.84-.96v-2.64h1.34v4.74h-1.34v-.67c-.31.4-.71.76-1.39.76-1.02,0-1.61-.67-1.61-1.76Z"/>
        <path class="cls-3" d="M217.84,295.54h1.34v.67c.31-.4.71-.76,1.39-.76,1.02,0,1.61.67,1.61,1.76v3.07h-1.34v-2.64c0-.64-.3-.96-.81-.96s-.84.33-.84.96v2.64h-1.34v-4.74Z"/>
        <path class="cls-3" d="M223.37,293.83h1.41v1.19h-1.41v-1.19ZM223.4,295.54h1.34v4.74h-1.34v-4.74Z"/>
        <path class="cls-3" d="M225.78,297.94v-.02c0-1.35,1.03-2.46,2.48-2.46.89,0,1.45.3,1.89.79l-.82.88c-.3-.32-.6-.52-1.08-.52-.67,0-1.15.59-1.15,1.29v.02c0,.72.47,1.31,1.2,1.31.45,0,.76-.19,1.09-.5l.79.8c-.46.5-.99.87-1.94.87-1.42,0-2.46-1.1-2.46-2.45Z"/>
        <path class="cls-3" d="M230.78,298.92v-.02c0-1.03.79-1.51,1.91-1.51.48,0,.82.08,1.16.19v-.08c0-.56-.34-.87-1.02-.87-.51,0-.87.1-1.31.26l-.34-1.02c.52-.23,1.03-.38,1.84-.38.73,0,1.26.19,1.6.53.35.35.51.87.51,1.51v2.75h-1.3v-.51c-.33.36-.78.6-1.43.6-.89,0-1.63-.51-1.63-1.45ZM233.86,298.61v-.24c-.23-.11-.53-.18-.86-.18-.57,0-.93.23-.93.65v.02c0,.36.3.57.73.57.63,0,1.05-.34,1.05-.83Z"/>
        <path class="cls-3" d="M236.47,298.94v-2.24h-.57v-1.15h.57v-1.21h1.34v1.21h1.11v1.15h-1.11v2.02c0,.31.13.46.43.46.25,0,.47-.06.66-.17v1.08c-.28.17-.61.27-1.06.27-.82,0-1.38-.33-1.38-1.42Z"/>
        <path class="cls-3" d="M239.94,293.83h1.41v1.19h-1.41v-1.19ZM239.98,295.54h1.34v4.74h-1.34v-4.74Z"/>
        <path class="cls-3" d="M242.35,297.94v-.02c0-1.36,1.1-2.46,2.57-2.46s2.55,1.09,2.55,2.45v.02c0,1.36-1.1,2.46-2.57,2.46s-2.55-1.09-2.55-2.45ZM246.15,297.94v-.02c0-.7-.5-1.31-1.25-1.31s-1.23.59-1.23,1.29v.02c0,.7.5,1.31,1.25,1.31s1.23-.59,1.23-1.29Z"/>
        <path class="cls-3" d="M248.45,295.54h1.34v.67c.31-.4.71-.76,1.39-.76,1.02,0,1.61.67,1.61,1.76v3.07h-1.34v-2.64c0-.64-.3-.96-.81-.96s-.84.33-.84.96v2.64h-1.34v-4.74Z"/>
      </g>
      <rect class="cls-3" x="186.44" y="342.65" width="176.63" height="48.86"/>
      <rect class="cls-1" x="248.05" y="397.85" width="53.41" height="22.16"/>
      <rect class="cls-3" x="186.44" y="316.05" width="87.47" height="17.01"/>
      <rect class="cls-5" x="191.95" y="321.58" width="63.75" height="5.76"/>
      <rect class="cls-5" x="191.95" y="350.51" width="164.2" height="5.76"/>
      <rect class="cls-5" x="191.95" y="363.31" width="164.2" height="5.76"/>
      <rect class="cls-5" x="191.95" y="375.95" width="164.2" height="5.76"/>
      <rect class="cls-3" x="186.44" y="166.4" width="176.63" height="48.86"/>
      <rect class="cls-5" x="191.95" y="174.27" width="164.2" height="5.76"/>
      <rect class="cls-5" x="191.95" y="187.07" width="164.2" height="5.76"/>
      <rect class="cls-5" x="191.95" y="199.7" width="164.2" height="5.76"/>
      <g>
        <path class="cls-3" d="M264.09,411.11l.8-.96c.56.46,1.14.75,1.85.75.56,0,.89-.22.89-.58v-.02c0-.34-.21-.52-1.25-.79-1.25-.32-2.05-.66-2.05-1.89v-.02c0-1.12.9-1.86,2.17-1.86.9,0,1.67.28,2.3.79l-.71,1.02c-.55-.38-1.09-.61-1.61-.61s-.8.24-.8.54v.02c0,.41.27.54,1.33.81,1.25.33,1.96.78,1.96,1.85v.02c0,1.23-.94,1.92-2.27,1.92-.94,0-1.88-.33-2.62-.99Z"/>
        <path class="cls-3" d="M269.8,409.67v-.02c0-1.35.96-2.46,2.34-2.46,1.58,0,2.31,1.23,2.31,2.57,0,.11,0,.23-.02.35h-3.3c.13.61.56.93,1.16.93.45,0,.78-.14,1.15-.49l.77.68c-.44.55-1.08.88-1.94.88-1.42,0-2.47-1-2.47-2.45ZM273.14,409.27c-.08-.6-.43-1.01-1-1.01s-.92.4-1.03,1.01h2.02Z"/>
        <path class="cls-3" d="M275.45,407.28h1.34v.67c.31-.4.71-.76,1.39-.76,1.02,0,1.61.67,1.61,1.76v3.07h-1.34v-2.64c0-.64-.3-.96-.81-.96s-.84.33-.84.96v2.64h-1.34v-4.74Z"/>
        <path class="cls-3" d="M280.74,409.65v-.02c0-1.58,1.03-2.45,2.16-2.45.72,0,1.16.33,1.48.71v-2.33h1.34v6.45h-1.34v-.68c-.33.44-.78.77-1.48.77-1.1,0-2.16-.87-2.16-2.45ZM284.39,409.65v-.02c0-.79-.52-1.31-1.15-1.31s-1.16.51-1.16,1.31v.02c0,.79.53,1.31,1.16,1.31s1.15-.52,1.15-1.31Z"/>
      </g>
      <rect class="cls-1" x="235.88" y="224.26" width="77.76" height="22.16"/>
      <g>
        <path class="cls-3" d="M245.37,232.24h2.83c.79,0,1.4.22,1.8.63.34.34.53.83.53,1.41v.02c0,1-.54,1.63-1.33,1.92l1.51,2.21h-1.59l-1.33-1.98h-1.07v1.98h-1.36v-6.18ZM248.11,235.24c.66,0,1.04-.35,1.04-.87v-.02c0-.58-.41-.88-1.07-.88h-1.35v1.78h1.38Z"/>
        <path class="cls-3" d="M251.3,236.08v-.02c0-1.35.96-2.46,2.34-2.46,1.58,0,2.31,1.23,2.31,2.57,0,.11,0,.23-.02.35h-3.3c.13.61.56.93,1.16.93.45,0,.78-.14,1.15-.49l.77.68c-.44.55-1.08.88-1.94.88-1.42,0-2.47-1-2.47-2.45ZM254.64,235.69c-.08-.6-.43-1.01-1-1.01s-.92.4-1.02,1.01h2.02Z"/>
        <path class="cls-3" d="M256.98,239.36l.46-1.01c.49.27.97.43,1.6.43.92,0,1.35-.44,1.35-1.29v-.23c-.4.48-.83.77-1.55.77-1.1,0-2.1-.8-2.1-2.21v-.02c0-1.41,1.02-2.21,2.1-2.21.73,0,1.17.31,1.53.71v-.62h1.34v3.67c0,.85-.2,1.47-.6,1.86-.44.44-1.12.64-2.04.64-.77,0-1.49-.18-2.09-.49ZM260.39,235.83v-.02c0-.65-.5-1.1-1.16-1.1s-1.15.45-1.15,1.1v.02c0,.65.5,1.1,1.15,1.1s1.16-.45,1.16-1.1Z"/>
        <path class="cls-3" d="M262.94,231.98h1.41v1.19h-1.41v-1.19ZM262.98,233.69h1.34v4.74h-1.34v-4.74Z"/>
        <path class="cls-3" d="M265.21,237.8l.57-.88c.51.37,1.05.57,1.49.57.39,0,.57-.14.57-.35v-.02c0-.29-.46-.39-.98-.55-.66-.19-1.41-.5-1.41-1.42v-.02c0-.96.78-1.5,1.73-1.5.6,0,1.25.2,1.77.55l-.51.93c-.47-.27-.94-.44-1.28-.44-.33,0-.49.14-.49.33v.02c0,.26.45.39.96.57.66.22,1.43.54,1.43,1.4v.02c0,1.05-.79,1.53-1.81,1.53-.66,0-1.4-.22-2.03-.72Z"/>
        <path class="cls-3" d="M270.15,237.08v-2.24h-.57v-1.15h.57v-1.21h1.34v1.21h1.11v1.15h-1.11v2.02c0,.31.13.46.43.46.25,0,.47-.06.66-.17v1.08c-.28.17-.61.27-1.06.27-.82,0-1.38-.33-1.38-1.42Z"/>
        <path class="cls-3" d="M273.24,236.08v-.02c0-1.35.96-2.46,2.34-2.46,1.58,0,2.31,1.23,2.31,2.57,0,.11,0,.23-.02.35h-3.3c.13.61.56.93,1.16.93.45,0,.78-.14,1.15-.49l.77.68c-.44.55-1.08.88-1.94.88-1.42,0-2.47-1-2.47-2.45ZM276.58,235.69c-.08-.6-.43-1.01-1-1.01s-.92.4-1.02,1.01h2.02Z"/>
        <path class="cls-3" d="M278.89,233.69h1.34v.95c.27-.65.72-1.08,1.51-1.04v1.4h-.07c-.89,0-1.44.54-1.44,1.67v1.75h-1.34v-4.74Z"/>
        <path class="cls-3" d="M285.37,232.24h1.25l2.9,3.81v-3.81h1.34v6.18h-1.16l-3-3.93v3.93h-1.34v-6.18Z"/>
        <path class="cls-3" d="M291.98,236.08v-.02c0-1.36,1.1-2.46,2.57-2.46s2.55,1.09,2.55,2.45v.02c0,1.36-1.1,2.46-2.57,2.46s-2.55-1.09-2.55-2.45ZM295.78,236.08v-.02c0-.7-.5-1.31-1.25-1.31s-1.23.59-1.23,1.29v.02c0,.7.5,1.31,1.25,1.31s1.23-.59,1.23-1.29Z"/>
        <path class="cls-3" d="M297.47,233.69h1.36l.76,2.87.89-2.89h1.16l.9,2.9.78-2.88h1.33l-1.48,4.77h-1.21l-.91-2.91-.93,2.91h-1.2l-1.46-4.77Z"/>
      </g>
      <g>
        <path class="cls-4" d="M187.34,152.32h2.41c1.94,0,3.29,1.33,3.29,3.07v.02c0,1.74-1.34,3.09-3.29,3.09h-2.41v-6.18ZM189.76,157.27c1.11,0,1.86-.75,1.86-1.85v-.02c0-1.1-.75-1.86-1.86-1.86h-1.05v3.73h1.05Z"/>
        <path class="cls-4" d="M193.88,156.16v-.02c0-1.35.96-2.46,2.34-2.46,1.58,0,2.31,1.23,2.31,2.57,0,.11,0,.23-.02.35h-3.3c.13.61.56.93,1.16.93.45,0,.78-.14,1.15-.49l.77.68c-.44.55-1.08.88-1.94.88-1.42,0-2.47-1-2.47-2.45ZM197.22,155.76c-.08-.6-.43-1.01-1-1.01s-.92.4-1.02,1.01h2.02Z"/>
        <path class="cls-4" d="M199.25,157.14v-.02c0-1.03.79-1.51,1.91-1.51.48,0,.82.08,1.16.19v-.08c0-.56-.34-.87-1.02-.87-.51,0-.87.1-1.31.26l-.34-1.02c.52-.23,1.03-.38,1.84-.38.73,0,1.26.19,1.6.53.35.35.51.87.51,1.51v2.75h-1.3v-.51c-.33.36-.78.6-1.43.6-.89,0-1.63-.51-1.63-1.45ZM202.33,156.83v-.24c-.23-.11-.53-.18-.86-.18-.57,0-.93.23-.93.65v.02c0,.36.3.57.73.57.63,0,1.05-.34,1.05-.83Z"/>
        <path class="cls-4" d="M204.76,153.77h1.34v.95c.27-.65.72-1.08,1.51-1.04v1.4h-.07c-.89,0-1.44.54-1.44,1.67v1.75h-1.34v-4.74Z"/>
        <path class="cls-4" d="M210.98,155.43v-.02c0-1.76,1.33-3.2,3.22-3.2,1.17,0,1.86.39,2.44.95l-.87,1c-.48-.43-.96-.7-1.58-.7-1.04,0-1.79.87-1.79,1.93v.02c0,1.06.73,1.94,1.79,1.94.71,0,1.14-.28,1.63-.72l.87.87c-.64.68-1.34,1.1-2.54,1.1-1.82,0-3.17-1.4-3.17-3.18Z"/>
        <path class="cls-4" d="M217.31,156.16v-.02c0-1.36,1.1-2.46,2.57-2.46s2.55,1.09,2.55,2.45v.02c0,1.36-1.1,2.46-2.57,2.46s-2.55-1.09-2.55-2.45ZM221.11,156.16v-.02c0-.7-.5-1.31-1.25-1.31s-1.23.59-1.23,1.29v.02c0,.7.5,1.31,1.25,1.31s1.23-.59,1.23-1.29Z"/>
        <path class="cls-4" d="M223.13,157.14v-.02c0-1.03.79-1.51,1.91-1.51.48,0,.82.08,1.16.19v-.08c0-.56-.34-.87-1.02-.87-.51,0-.87.1-1.31.26l-.34-1.02c.52-.23,1.03-.38,1.84-.38.73,0,1.26.19,1.6.53.35.35.51.87.51,1.51v2.75h-1.3v-.51c-.33.36-.78.6-1.43.6-.89,0-1.63-.51-1.63-1.45ZM226.21,156.83v-.24c-.23-.11-.53-.18-.86-.18-.57,0-.93.23-.93.65v.02c0,.36.3.57.73.57.63,0,1.05-.34,1.05-.83Z"/>
        <path class="cls-4" d="M228.41,156.16v-.02c0-1.35,1.03-2.46,2.48-2.46.89,0,1.45.3,1.89.79l-.82.88c-.3-.32-.6-.52-1.08-.52-.67,0-1.15.59-1.15,1.29v.02c0,.72.47,1.31,1.2,1.31.45,0,.76-.19,1.09-.5l.79.8c-.46.5-.99.87-1.94.87-1.42,0-2.46-1.1-2.46-2.45Z"/>
        <path class="cls-4" d="M233.69,152.05h1.34v2.39c.31-.4.71-.76,1.39-.76,1.02,0,1.61.67,1.61,1.76v3.07h-1.34v-2.64c0-.64-.3-.96-.81-.96s-.84.33-.84.96v2.64h-1.34v-6.45Z"/>
        <path class="cls-4" d="M238.97,156.16v-.02c0-1.35.96-2.46,2.34-2.46,1.58,0,2.31,1.23,2.31,2.57,0,.11,0,.23-.02.35h-3.3c.13.61.56.93,1.16.93.45,0,.78-.14,1.15-.49l.77.68c-.44.55-1.08.88-1.94.88-1.42,0-2.47-1-2.47-2.45ZM242.31,155.76c-.08-.6-.43-1.01-1-1.01s-.92.4-1.02,1.01h2.02Z"/>
        <path class="cls-4" d="M244.24,157.87l.57-.88c.51.37,1.05.57,1.49.57.39,0,.57-.14.57-.35v-.02c0-.29-.46-.39-.98-.55-.66-.19-1.41-.5-1.41-1.42v-.02c0-.96.78-1.5,1.73-1.5.6,0,1.25.2,1.77.55l-.51.93c-.47-.27-.94-.44-1.28-.44-.33,0-.49.14-.49.33v.02c0,.26.45.39.96.57.66.22,1.43.54,1.43,1.4v.02c0,1.05-.79,1.53-1.81,1.53-.66,0-1.4-.22-2.03-.72Z"/>
        <path class="cls-4" d="M255.29,157.9c-.5.42-1.1.69-1.81.69-1.18,0-2.08-.69-2.08-1.78v-.02c0-.79.42-1.34,1.2-1.7-.3-.42-.43-.81-.43-1.24v-.02c0-.85.68-1.63,1.87-1.63,1.05,0,1.74.69,1.74,1.56v.02c0,.83-.53,1.32-1.3,1.62l.82.82c.2-.32.41-.68.6-1.06l1,.55c-.24.43-.5.89-.81,1.31l.91.91-1,.7-.72-.72ZM254.53,157.12l-1.18-1.2c-.41.21-.57.51-.57.81v.02c0,.43.36.72.87.72.31,0,.61-.13.89-.35ZM254.6,153.86v-.02c0-.35-.24-.57-.58-.57-.36,0-.6.26-.6.63v.02c0,.27.11.48.36.77.54-.2.82-.43.82-.82Z"/>
        <path class="cls-4" d="M260.65,152.32h2.53c1.48,0,2.37.88,2.37,2.14v.02c0,1.43-1.11,2.17-2.5,2.17h-1.03v1.86h-1.36v-6.18ZM263.09,155.43c.68,0,1.08-.41,1.08-.94v-.02c0-.61-.42-.94-1.1-.94h-1.05v1.89h1.08Z"/>
        <path class="cls-4" d="M266.04,157.14v-.02c0-1.03.79-1.51,1.91-1.51.48,0,.82.08,1.16.19v-.08c0-.56-.34-.87-1.02-.87-.51,0-.87.1-1.31.26l-.34-1.02c.52-.23,1.03-.38,1.84-.38.73,0,1.26.19,1.6.53.35.35.51.87.51,1.51v2.75h-1.3v-.51c-.33.36-.78.6-1.43.6-.89,0-1.63-.51-1.63-1.45ZM269.12,156.83v-.24c-.23-.11-.53-.18-.86-.18-.57,0-.93.23-.93.65v.02c0,.36.3.57.73.57.63,0,1.05-.34,1.05-.83Z"/>
        <path class="cls-4" d="M271.55,153.77h1.34v.95c.27-.65.72-1.08,1.51-1.04v1.4h-.07c-.89,0-1.44.54-1.44,1.67v1.75h-1.34v-4.74Z"/>
        <path class="cls-4" d="M274.89,156.16v-.02c0-1.35.96-2.46,2.34-2.46,1.58,0,2.31,1.23,2.31,2.57,0,.11,0,.23-.02.35h-3.3c.13.61.56.93,1.16.93.45,0,.78-.14,1.15-.49l.77.68c-.44.55-1.08.88-1.94.88-1.42,0-2.47-1-2.47-2.45ZM278.22,155.76c-.08-.6-.43-1.01-1-1.01s-.92.4-1.02,1.01h2.02Z"/>
        <path class="cls-4" d="M280.53,153.77h1.34v.67c.31-.4.71-.76,1.39-.76,1.02,0,1.61.67,1.61,1.76v3.07h-1.34v-2.64c0-.64-.3-.96-.81-.96s-.84.33-.84.96v2.64h-1.34v-4.74Z"/>
        <path class="cls-4" d="M286.26,157.16v-2.24h-.57v-1.15h.57v-1.21h1.34v1.21h1.11v1.15h-1.11v2.02c0,.31.13.46.43.46.25,0,.47-.06.66-.17v1.08c-.28.17-.61.27-1.06.27-.82,0-1.38-.33-1.38-1.42Z"/>
        <path class="cls-4" d="M289.34,157.87l.57-.88c.51.37,1.05.57,1.49.57.39,0,.57-.14.57-.35v-.02c0-.29-.46-.39-.98-.55-.66-.19-1.41-.5-1.41-1.42v-.02c0-.96.78-1.5,1.73-1.5.6,0,1.25.2,1.77.55l-.51.93c-.47-.27-.94-.44-1.28-.44-.33,0-.49.14-.49.33v.02c0,.26.45.39.96.57.66.22,1.43.54,1.43,1.4v.02c0,1.05-.79,1.53-1.81,1.53-.66,0-1.4-.22-2.03-.72Z"/>
        <path class="cls-4" d="M293.77,159.38c.61-.06.91-.37.87-.87h-.55v-1.41h1.43v1.19c0,1.17-.58,1.63-1.63,1.65l-.12-.56Z"/>
      </g>
      <rect class="cls-8" x="184.08" y="70.35" width="183.56" height="71.83"/>
    </g>
  </g>
</svg>