<?xml version="1.0" encoding="UTF-8"?>
<svg xmlns="http://www.w3.org/2000/svg" xmlns:xlink="http://www.w3.org/1999/xlink" version="1.1" viewBox="0 0 433.69 311.32">
  <defs>
    <style>
      .cls-1 {
        fill: #f1ce46;
      }

      .cls-2 {
        filter: url(#drop-shadow-1);
      }

      .cls-3 {
        font-family: Gotham-Bold, Gotham;
        font-size: 8.84px;
        font-weight: 700;
      }

      .cls-3, .cls-4 {
        fill: #fff;
      }

      .cls-5 {
        fill: #cfd6da;
      }

      .cls-6 {
        fill: #ebeef1;
      }

      .cls-7 {
        fill: #e9ca60;
      }

      .cls-8 {
        fill: #3874b4;
      }

      .cls-9 {
        fill: #d94d25;
      }
    </style>
    <filter id="drop-shadow-1" filterUnits="userSpaceOnUse">
      <feOffset dx="3.6" dy="3.6"/>
      <feGaussianBlur result="blur" stdDeviation="1.44"/>
      <feFlood flood-color="#000" flood-opacity=".4"/>
      <feComposite in2="blur" operator="in"/>
      <feComposite in="SourceGraphic"/>
    </filter>
  </defs>
  <!-- Generator: Adobe Illustrator 28.6.0, SVG Export Plug-In . SVG Version: 1.2.0 Build 709)  -->
  <g>
    <g id="Layer_1">
      <g class="cls-2">
        <g>
          <rect class="cls-6" x="39.07" y="27.92" width="355.08" height="247.52" rx="5.36" ry="5.36"/>
          <path class="cls-7" d="M394.14,49.2v-15.91c0-2.96-2.4-5.36-5.36-5.36H44.43c-2.96,0-5.36,2.4-5.36,5.36v15.91h355.08Z"/>
          <rect class="cls-5" x="39.07" y="49.58" width="93.91" height="66.36"/>
          <path class="cls-5" d="M44.43,275.45h88.54V87.49H39.07v182.59c0,2.96,2.4,5.36,5.36,5.36Z"/>
          <path class="cls-4" d="M135.02,49.58v225.86h253.76c2.96,0,5.36-2.4,5.36-5.36V49.58H135.02Z"/>
          <rect class="cls-6" x="142.15" y="77.25" width="67.73" height="173.81"/>
          <rect class="cls-5" x="142.15" y="57.24" width="71.81" height="5.76"/>
          <rect class="cls-5" x="225.29" y="78.19" width="152.63" height="5.76"/>
          <rect class="cls-5" x="225.29" y="90.94" width="152.63" height="5.76"/>
          <rect class="cls-5" x="225.29" y="103.69" width="152.63" height="5.76"/>
          <rect class="cls-5" x="225.29" y="116.44" width="152.63" height="5.76"/>
          <rect class="cls-5" x="225.29" y="129.18" width="152.63" height="5.76"/>
          <rect class="cls-4" x="47.38" y="57.24" width="52.19" height="5.76"/>
          <g>
            <rect class="cls-4" x="47.38" y="82.18" width="12.7" height="5.76"/>
            <rect class="cls-4" x="66.74" y="82.18" width="58.09" height="5.76"/>
          </g>
          <g>
            <rect class="cls-4" x="47.38" y="96.82" width="12.7" height="5.76"/>
            <rect class="cls-4" x="66.74" y="96.82" width="58.09" height="5.76"/>
          </g>
          <g>
            <rect class="cls-4" x="47.38" y="111.45" width="12.7" height="5.76"/>
            <rect class="cls-4" x="66.74" y="111.45" width="58.09" height="5.76"/>
          </g>
          <g>
            <rect class="cls-4" x="47.38" y="126.08" width="12.7" height="5.76"/>
            <rect class="cls-4" x="66.74" y="126.08" width="58.09" height="5.76"/>
          </g>
          <g>
            <rect class="cls-4" x="47.38" y="140.71" width="12.7" height="5.76"/>
            <rect class="cls-4" x="66.74" y="140.71" width="58.09" height="5.76"/>
          </g>
          <g>
            <rect class="cls-4" x="47.38" y="155.34" width="12.7" height="5.76"/>
            <rect class="cls-4" x="66.74" y="155.34" width="58.09" height="5.76"/>
          </g>
          <g>
            <rect class="cls-4" x="47.38" y="169.97" width="12.7" height="5.76"/>
            <rect class="cls-4" x="66.74" y="169.97" width="58.09" height="5.76"/>
          </g>
          <g>
            <rect class="cls-4" x="47.38" y="184.61" width="12.7" height="5.76"/>
            <rect class="cls-4" x="66.74" y="184.61" width="58.09" height="5.76"/>
          </g>
          <circle class="cls-4" cx="50.49" cy="40.62" r="3.1"/>
          <circle class="cls-4" cx="60.04" cy="40.62" r="3.1"/>
          <circle class="cls-4" cx="69.59" cy="40.62" r="3.1"/>
          <g>
            <g>
              <path class="cls-8" d="M176.37,112.15v22.75c-12.57,0-22.75-10.19-22.75-22.75s10.19-22.75,22.75-22.75h0v22.75Z"/>
              <path class="cls-9" d="M176.37,112.15l19.71,11.38c-4.18,7.25-11.34,11.38-19.71,11.38v-22.75Z"/>
              <path class="cls-7" d="M176.37,112.15v-22.75c12.57,0,22.75,10.19,22.75,22.75,0,4.18-.96,7.75-3.05,11.38l-19.71-11.38Z"/>
            </g>
            <g>
              <path class="cls-8" d="M176.38,166.5l-21.07-2.21c1.13-10.74,10.27-18.97,21.07-18.97v21.18Z"/>
              <path class="cls-9" d="M176.38,166.5l19.91,7.25c-4,10.99-16.16,16.66-27.15,12.66-9.3-3.39-14.86-12.28-13.82-22.12l21.07,2.21Z"/>
              <path class="cls-7" d="M176.38,166.5v-21.18c11.7,0,21.18,9.48,21.18,21.18,0,2.69-.36,4.72-1.28,7.25l-19.91-7.25Z"/>
            </g>
            <g>
              <path class="cls-8" d="M176.38,220.85l-9.8-19.23c3.14-1.6,6.27-2.35,9.8-2.35v21.59Z"/>
              <path class="cls-9" d="M176.38,220.85l-7.38,20.29c-11.2-4.08-16.98-16.47-12.9-27.67,1.96-5.39,5.38-9.25,10.48-11.85l9.8,19.23Z"/>
              <path class="cls-7" d="M176.38,220.85v-21.59c11.92,0,21.59,9.66,21.59,21.59s-9.66,21.59-21.59,21.59c-2.65,0-4.9-.4-7.38-1.3l7.38-20.29Z"/>
            </g>
          </g>
          <rect class="cls-9" x="245.8" y="185.66" width="5.32" height="67.51"/>
          <rect class="cls-7" x="240.47" y="213.03" width="5.32" height="40.13"/>
          <rect class="cls-8" x="251.12" y="229.28" width="5.32" height="23.88"/>
          <rect class="cls-9" x="281.71" y="214.88" width="5.32" height="38.28"/>
          <rect class="cls-7" x="276.39" y="192.92" width="5.32" height="60.25"/>
          <rect class="cls-8" x="287.03" y="220.51" width="5.32" height="32.65"/>
          <rect class="cls-9" x="317.62" y="206.81" width="5.32" height="46.36"/>
          <rect class="cls-7" x="312.3" y="228.01" width="5.32" height="25.15"/>
          <rect class="cls-8" x="322.94" y="186.66" width="5.32" height="66.51"/>
          <rect class="cls-9" x="353.54" y="209.94" width="5.32" height="43.23"/>
          <rect class="cls-7" x="348.22" y="178.98" width="5.32" height="74.18"/>
          <rect class="cls-8" x="358.86" y="199.57" width="5.32" height="53.6"/>
          <g>
            <polygon class="cls-8" points="376.2 65.3 383.36 56.93 369.05 56.93 376.2 65.3"/>
            <rect class="cls-8" x="374.99" y="60.47" width="2.42" height="6.82"/>
          </g>
        </g>
        <text class="cls-3" transform="translate(79.19 42.48)"><tspan x="0" y="0">Reporting</tspan></text>
      </g>
      <rect class="cls-6" x="39.09" y="28.73" width="355.08" height="247.52" rx="5.36" ry="5.36"/>
      <path class="cls-1" d="M394.17,50v-15.91c0-2.96-2.4-5.36-5.36-5.36H44.46c-2.96,0-5.36,2.4-5.36,5.36v15.91h355.08Z"/>
      <g>
        <path class="cls-4" d="M50.05,43.38l.8-.96c.56.46,1.14.75,1.85.75.56,0,.89-.22.89-.58v-.02c0-.34-.21-.52-1.25-.79-1.25-.32-2.05-.66-2.05-1.89v-.02c0-1.12.9-1.86,2.16-1.86.9,0,1.67.28,2.3.79l-.71,1.02c-.55-.38-1.09-.61-1.61-.61s-.79.24-.79.54v.02c0,.41.26.54,1.33.81,1.25.33,1.96.78,1.96,1.85v.02c0,1.23-.94,1.92-2.27,1.92-.94,0-1.88-.33-2.62-.99Z"/>
        <path class="cls-4" d="M55.76,41.94v-.02c0-1.35,1.03-2.46,2.48-2.46.89,0,1.45.3,1.89.79l-.82.88c-.3-.32-.6-.52-1.08-.52-.67,0-1.15.59-1.15,1.29v.02c0,.72.47,1.31,1.2,1.31.45,0,.76-.19,1.09-.5l.79.8c-.46.5-.99.87-1.93.87-1.42,0-2.46-1.1-2.46-2.45Z"/>
        <path class="cls-4" d="M61.04,37.83h1.34v2.39c.31-.4.71-.76,1.39-.76,1.02,0,1.61.67,1.61,1.76v3.07h-1.34v-2.64c0-.64-.3-.96-.81-.96s-.84.33-.84.96v2.64h-1.34v-6.45Z"/>
        <path class="cls-4" d="M66.32,41.94v-.02c0-1.35.96-2.46,2.34-2.46,1.58,0,2.31,1.23,2.31,2.57,0,.11,0,.23-.02.35h-3.29c.13.61.56.93,1.16.93.45,0,.78-.14,1.15-.49l.77.68c-.44.55-1.08.88-1.93.88-1.42,0-2.47-1-2.47-2.45ZM69.65,41.54c-.08-.6-.43-1.01-1-1.01s-.92.4-1.02,1.01h2.02Z"/>
        <path class="cls-4" d="M71.75,41.92v-.02c0-1.58,1.03-2.45,2.16-2.45.72,0,1.16.33,1.48.71v-2.33h1.34v6.45h-1.34v-.68c-.33.44-.78.77-1.48.77-1.1,0-2.16-.87-2.16-2.45ZM75.4,41.92v-.02c0-.79-.52-1.31-1.15-1.31s-1.16.51-1.16,1.31v.02c0,.79.53,1.31,1.16,1.31s1.15-.52,1.15-1.31Z"/>
        <path class="cls-4" d="M77.89,42.61v-3.07h1.34v2.64c0,.64.3.96.81.96s.84-.33.84-.96v-2.64h1.34v4.74h-1.34v-.67c-.31.4-.71.76-1.39.76-1.02,0-1.61-.67-1.61-1.76Z"/>
        <path class="cls-4" d="M83.5,37.83h1.34v6.45h-1.34v-6.45Z"/>
        <path class="cls-4" d="M86.13,37.83h1.41v1.19h-1.41v-1.19ZM86.16,39.55h1.34v4.74h-1.34v-4.74Z"/>
        <path class="cls-4" d="M88.77,39.55h1.34v.67c.31-.4.71-.76,1.39-.76,1.02,0,1.61.67,1.61,1.76v3.07h-1.34v-2.64c0-.64-.3-.96-.81-.96s-.84.33-.84.96v2.64h-1.34v-4.74Z"/>
        <path class="cls-4" d="M94.3,45.22l.46-1.01c.49.27.97.43,1.6.43.92,0,1.35-.44,1.35-1.29v-.23c-.4.48-.83.77-1.55.77-1.1,0-2.1-.8-2.1-2.21v-.02c0-1.41,1.02-2.21,2.1-2.21.73,0,1.17.31,1.53.71v-.62h1.34v3.67c0,.85-.2,1.47-.6,1.86-.44.44-1.12.64-2.04.64-.77,0-1.49-.18-2.09-.49ZM97.71,41.68v-.02c0-.65-.5-1.1-1.16-1.1s-1.15.45-1.15,1.1v.02c0,.65.5,1.1,1.15,1.1s1.16-.45,1.16-1.1Z"/>
        <path class="cls-4" d="M102.56,38.1h1.46l1.28,4.19,1.39-4.21h1.17l1.39,4.21,1.28-4.19h1.42l-2.11,6.23h-1.18l-1.4-4.05-1.4,4.05h-1.18l-2.11-6.23Z"/>
        <path class="cls-4" d="M112.72,37.83h1.34v2.39c.31-.4.71-.76,1.39-.76,1.02,0,1.61.67,1.61,1.76v3.07h-1.34v-2.64c0-.64-.3-.96-.81-.96s-.84.33-.84.96v2.64h-1.34v-6.45Z"/>
        <path class="cls-4" d="M118.26,37.83h1.41v1.19h-1.41v-1.19ZM118.29,39.55h1.34v4.74h-1.34v-4.74Z"/>
        <path class="cls-4" d="M121.12,42.94v-2.24h-.57v-1.15h.57v-1.21h1.34v1.21h1.11v1.15h-1.11v2.02c0,.31.13.46.43.46.25,0,.47-.06.66-.17v1.08c-.28.17-.61.27-1.06.27-.82,0-1.38-.33-1.38-1.42Z"/>
        <path class="cls-4" d="M124.2,41.94v-.02c0-1.35.96-2.46,2.34-2.46,1.58,0,2.31,1.23,2.31,2.57,0,.11,0,.23-.02.35h-3.29c.13.61.56.93,1.16.93.45,0,.78-.14,1.15-.49l.77.68c-.44.55-1.08.88-1.93.88-1.42,0-2.47-1-2.47-2.45ZM127.54,41.54c-.08-.6-.43-1.01-1-1.01s-.92.4-1.02,1.01h2.02Z"/>
        <path class="cls-4" d="M131.19,43.66v.62h-1.34v-6.45h1.34v2.39c.33-.44.78-.77,1.48-.77,1.1,0,2.16.87,2.16,2.45v.02c0,1.58-1.03,2.45-2.16,2.45-.72,0-1.16-.33-1.48-.71ZM133.48,41.92v-.02c0-.79-.53-1.31-1.16-1.31s-1.15.52-1.15,1.31v.02c0,.79.52,1.31,1.15,1.31s1.16-.51,1.16-1.31Z"/>
        <path class="cls-4" d="M135.59,41.94v-.02c0-1.36,1.1-2.46,2.57-2.46s2.55,1.09,2.55,2.45v.02c0,1.36-1.09,2.46-2.57,2.46s-2.55-1.09-2.55-2.45ZM139.39,41.94v-.02c0-.7-.5-1.31-1.25-1.31s-1.23.59-1.23,1.29v.02c0,.7.5,1.31,1.25,1.31s1.23-.59,1.23-1.29Z"/>
        <path class="cls-4" d="M141.4,42.92v-.02c0-1.03.79-1.51,1.91-1.51.48,0,.82.08,1.16.19v-.08c0-.56-.34-.87-1.02-.87-.51,0-.87.1-1.31.26l-.33-1.02c.52-.23,1.03-.38,1.84-.38.73,0,1.26.19,1.6.53.35.35.51.87.51,1.51v2.75h-1.3v-.51c-.33.36-.78.6-1.43.6-.89,0-1.63-.51-1.63-1.45ZM144.49,42.61v-.24c-.23-.11-.53-.18-.86-.18-.57,0-.93.23-.93.65v.02c0,.36.3.57.73.57.63,0,1.05-.34,1.05-.83Z"/>
        <path class="cls-4" d="M146.92,39.55h1.34v.95c.27-.65.71-1.08,1.51-1.04v1.4h-.07c-.89,0-1.44.54-1.44,1.67v1.75h-1.34v-4.74Z"/>
        <path class="cls-4" d="M150.31,41.92v-.02c0-1.58,1.03-2.45,2.16-2.45.72,0,1.16.33,1.48.71v-2.33h1.34v6.45h-1.34v-.68c-.33.44-.78.77-1.48.77-1.1,0-2.16-.87-2.16-2.45ZM153.96,41.92v-.02c0-.79-.52-1.31-1.15-1.31s-1.16.51-1.16,1.31v.02c0,.79.53,1.31,1.16,1.31s1.15-.52,1.15-1.31Z"/>
      </g>
      <rect class="cls-4" x="39.09" y="50.38" width="93.91" height="35.59"/>
      <path class="cls-4" d="M44.46,276.25h88.54V88.29H39.09v182.59c0,2.96,2.4,5.36,5.36,5.36Z"/>
      <rect class="cls-4" x="135.04" y="50.38" width="259.13" height="35.59"/>
      <rect class="cls-5" x="142.18" y="58.05" width="71.81" height="5.76"/>
      <rect class="cls-5" x="142.18" y="97.06" width="52.2" height="5.76"/>
      <g>
        <path class="cls-5" d="M199.58,68.85c1.29,0,2.34,1.05,2.34,2.34v5.94c0,1.29-1.05,2.34-2.34,2.34h-54.56c-1.29,0-2.34-1.05-2.34-2.34v-5.94c0-1.29,1.05-2.34,2.34-2.34h54.56M199.58,68.35h-54.56c-1.57,0-2.84,1.27-2.84,2.84v5.94c0,1.57,1.27,2.84,2.84,2.84h54.56c1.57,0,2.84-1.27,2.84-2.84v-5.94c0-1.57-1.27-2.84-2.84-2.84h0Z"/>
        <polygon class="cls-5" points="196.66 76.57 199.12 72.31 194.2 72.31 196.66 76.57"/>
      </g>
      <rect class="cls-5" x="47.41" y="58.05" width="29.85" height="5.76"/>
      <rect class="cls-5" x="52.97" y="105.93" width="66.71" height="5.76"/>
      <rect class="cls-5" x="52.97" y="119.57" width="66.71" height="5.76"/>
      <rect class="cls-5" x="52.97" y="132.2" width="66.71" height="5.76"/>
      <rect class="cls-5" x="52.97" y="145.84" width="66.71" height="5.76"/>
      <rect class="cls-5" x="52.97" y="158.97" width="66.71" height="5.76"/>
      <rect class="cls-5" x="52.97" y="172.61" width="66.71" height="5.76"/>
      <rect class="cls-5" x="52.97" y="185.24" width="66.71" height="5.76"/>
      <rect class="cls-5" x="52.97" y="198.88" width="66.71" height="5.76"/>
      <g>
        <path class="cls-5" d="M122.21,68.85c1.29,0,2.34,1.05,2.34,2.34v5.94c0,1.29-1.05,2.34-2.34,2.34H50.13c-1.29,0-2.34-1.05-2.34-2.34v-5.94c0-1.29,1.05-2.34,2.34-2.34h72.07M122.21,68.35H50.13c-1.57,0-2.84,1.27-2.84,2.84v5.94c0,1.57,1.27,2.84,2.84,2.84h72.07c1.57,0,2.84-1.27,2.84-2.84v-5.94c0-1.57-1.27-2.84-2.84-2.84h0Z"/>
        <polygon class="cls-5" points="119.29 76.57 121.75 72.31 116.83 72.31 119.29 76.57"/>
      </g>
      <path class="cls-5" d="M122.21,97.12c1.29,0,2.34,1.05,2.34,2.34v114.02c0,1.29-1.05,2.34-2.34,2.34H50.13c-1.29,0-2.34-1.05-2.34-2.34v-114.02c0-1.29,1.05-2.34,2.34-2.34h72.07M122.21,96.62H50.13c-1.57,0-2.84,1.27-2.84,2.84v114.02c0,1.57,1.27,2.84,2.84,2.84h72.07c1.57,0,2.84-1.27,2.84-2.84v-114.02c0-1.57-1.27-2.84-2.84-2.84h0Z"/>
      <g>
        <path class="cls-5" d="M262.51,68.85c1.29,0,2.34,1.05,2.34,2.34v5.94c0,1.29-1.05,2.34-2.34,2.34h-54.56c-1.29,0-2.34-1.05-2.34-2.34v-5.94c0-1.29,1.05-2.34,2.34-2.34h54.56M262.51,68.35h-54.56c-1.57,0-2.84,1.27-2.84,2.84v5.94c0,1.57,1.27,2.84,2.84,2.84h54.56c1.57,0,2.84-1.27,2.84-2.84v-5.94c0-1.57-1.27-2.84-2.84-2.84h0Z"/>
        <polygon class="cls-5" points="259.6 76.57 262.06 72.31 257.13 72.31 259.6 76.57"/>
      </g>
      <g>
        <path class="cls-5" d="M325.45,68.85c1.29,0,2.34,1.05,2.34,2.34v5.94c0,1.29-1.05,2.34-2.34,2.34h-54.56c-1.29,0-2.34-1.05-2.34-2.34v-5.94c0-1.29,1.05-2.34,2.34-2.34h54.56M325.45,68.35h-54.56c-1.57,0-2.84,1.27-2.84,2.84v5.94c0,1.57,1.27,2.84,2.84,2.84h54.56c1.57,0,2.84-1.27,2.84-2.84v-5.94c0-1.57-1.27-2.84-2.84-2.84h0Z"/>
        <polygon class="cls-5" points="322.53 76.57 324.99 72.31 320.07 72.31 322.53 76.57"/>
      </g>
      <rect class="cls-4" x="142.18" y="113.19" width="241.9" height="148.62"/>
      <g>
        <polygon class="cls-8" points="376.23 77.19 383.38 68.81 369.08 68.81 376.23 77.19"/>
        <rect class="cls-8" x="375.02" y="72.35" width="2.42" height="6.82"/>
      </g>
      <g>
        <rect class="cls-8" x="157.07" y="126.14" width="14.71" height="14.71"/>
        <rect class="cls-8" x="178.89" y="126.14" width="14.71" height="14.71"/>
        <rect class="cls-5" x="200.7" y="126.14" width="14.71" height="14.71"/>
        <rect class="cls-5" x="222.52" y="126.14" width="14.71" height="14.71"/>
        <rect class="cls-8" x="244.33" y="126.14" width="14.71" height="14.71"/>
        <rect class="cls-8" x="266.15" y="126.14" width="14.71" height="14.71"/>
        <rect class="cls-5" x="287.97" y="126.14" width="14.71" height="14.71"/>
        <rect class="cls-8" x="309.78" y="126.14" width="14.71" height="14.71"/>
        <rect class="cls-8" x="331.6" y="126.14" width="14.71" height="14.71"/>
        <rect class="cls-8" x="353.41" y="126.14" width="14.71" height="14.71"/>
      </g>
      <g>
        <rect class="cls-8" x="157.07" y="150.08" width="14.71" height="14.71"/>
        <rect class="cls-8" x="178.89" y="150.08" width="14.71" height="14.71"/>
        <rect class="cls-5" x="200.7" y="150.08" width="14.71" height="14.71"/>
        <rect class="cls-5" x="222.52" y="150.08" width="14.71" height="14.71"/>
        <rect class="cls-5" x="244.33" y="150.08" width="14.71" height="14.71"/>
        <rect class="cls-8" x="266.15" y="150.08" width="14.71" height="14.71"/>
        <rect class="cls-8" x="287.97" y="150.08" width="14.71" height="14.71"/>
        <rect class="cls-5" x="309.78" y="150.08" width="14.71" height="14.71"/>
        <rect class="cls-5" x="331.6" y="150.08" width="14.71" height="14.71"/>
        <rect class="cls-8" x="353.41" y="150.08" width="14.71" height="14.71"/>
      </g>
      <g>
        <rect class="cls-8" x="157.07" y="174.02" width="14.71" height="14.71"/>
        <rect class="cls-5" x="178.89" y="174.02" width="14.71" height="14.71"/>
        <rect class="cls-8" x="200.7" y="174.02" width="14.71" height="14.71"/>
        <rect class="cls-8" x="222.52" y="174.02" width="14.71" height="14.71"/>
        <rect class="cls-5" x="244.33" y="174.02" width="14.71" height="14.71"/>
        <rect class="cls-8" x="266.15" y="174.02" width="14.71" height="14.71"/>
        <rect class="cls-8" x="287.97" y="174.02" width="14.71" height="14.71"/>
        <rect class="cls-8" x="309.78" y="174.02" width="14.71" height="14.71"/>
        <rect class="cls-8" x="331.6" y="174.02" width="14.71" height="14.71"/>
        <rect class="cls-8" x="353.41" y="174.02" width="14.71" height="14.71"/>
      </g>
      <g>
        <rect class="cls-8" x="157.07" y="197.97" width="14.71" height="14.71"/>
        <rect class="cls-8" x="178.89" y="197.97" width="14.71" height="14.71"/>
        <rect class="cls-8" x="200.7" y="197.97" width="14.71" height="14.71"/>
        <rect class="cls-5" x="222.52" y="197.97" width="14.71" height="14.71"/>
        <rect class="cls-5" x="244.33" y="197.97" width="14.71" height="14.71"/>
        <rect class="cls-8" x="266.15" y="197.97" width="14.71" height="14.71"/>
        <rect class="cls-8" x="287.97" y="197.97" width="14.71" height="14.71"/>
        <rect class="cls-5" x="309.78" y="197.97" width="14.71" height="14.71"/>
        <rect class="cls-8" x="331.6" y="197.97" width="14.71" height="14.71"/>
        <rect class="cls-5" x="353.41" y="197.97" width="14.71" height="14.71"/>
      </g>
      <g>
        <rect class="cls-5" x="157.07" y="221.91" width="14.71" height="14.71"/>
        <rect class="cls-5" x="178.89" y="221.91" width="14.71" height="14.71"/>
        <rect class="cls-8" x="200.7" y="221.91" width="14.71" height="14.71"/>
        <rect class="cls-8" x="222.52" y="221.91" width="14.71" height="14.71"/>
        <rect class="cls-5" x="244.33" y="221.91" width="14.71" height="14.71"/>
        <rect class="cls-8" x="266.15" y="221.91" width="14.71" height="14.71"/>
        <rect class="cls-8" x="287.97" y="221.91" width="14.71" height="14.71"/>
        <rect class="cls-5" x="309.78" y="221.91" width="14.71" height="14.71"/>
        <rect class="cls-5" x="331.6" y="221.91" width="14.71" height="14.71"/>
        <rect class="cls-8" x="353.41" y="221.91" width="14.71" height="14.71"/>
      </g>
    </g>
  </g>
</svg>